<?xml version="1.0" standalone="no"?>
<!DOCTYPE svg PUBLIC "-//W3C//DTD SVG 20010904//EN"
 "http://www.w3.org/TR/2001/REC-SVG-20010904/DTD/svg10.dtd">
<svg version="1.0" xmlns="http://www.w3.org/2000/svg"
 width="1680.000000pt" height="640.000000pt" viewBox="0 0 1680.000000 640.000000"
 preserveAspectRatio="xMidYMid meet">

<g transform="translate(0.000000,640.000000) scale(0.100000,-0.100000)"
fill="#000000" stroke="none">
<path d="M0 3200 l0 -3200 8400 0 8400 0 0 3200 0 3200 -8400 0 -8400 0 0
-3200z m6862 3164 c22 -4 35 -11 31 -17 -4 -6 -1 -7 6 -3 19 12 51 -24 51 -56
0 -16 -7 -45 -15 -65 -14 -34 -14 -37 5 -50 21 -15 27 -48 10 -58 -20 -12 -10
-27 13 -20 79 24 121 28 282 29 147 1 187 5 219 19 33 15 37 15 25 1 -25 -30
-99 -75 -166 -100 -48 -18 -100 -28 -175 -34 -105 -7 -109 -9 -179 -54 -40
-25 -80 -46 -90 -46 -18 0 -35 -17 -27 -26 3 -2 54 -10 114 -18 106 -13 150
-26 166 -50 25 -37 -14 -106 -79 -139 l-29 -16 4 29 c3 22 -2 32 -22 45 -23
15 -41 17 -134 10 -228 -16 -292 -5 -292 50 0 31 -3 31 -43 1 -51 -38 -88 -53
-169 -70 -106 -22 -118 -21 -90 4 12 11 27 20 34 21 36 2 104 58 131 106 l27
51 -40 4 c-49 4 -127 -20 -180 -57 -30 -21 -50 -47 -75 -100 -19 -40 -47 -83
-62 -95 l-28 -21 75 5 c43 3 114 18 168 36 99 32 135 36 195 19 29 -8 51 -7
87 2 34 9 56 9 71 3 21 -10 21 -11 -16 -28 -31 -15 -51 -17 -114 -11 -128 11
-167 8 -235 -19 -36 -14 -73 -26 -83 -26 -28 0 -153 -42 -148 -51 3 -4 -8 -21
-23 -37 -21 -22 -53 -38 -115 -57 -48 -14 -87 -31 -87 -36 0 -5 14 -12 30 -15
34 -7 37 -19 13 -46 -22 -24 -50 -23 -58 2 -4 13 -18 23 -36 27 -64 12 -13 54
116 94 76 23 116 52 98 70 -9 9 -15 8 -28 -5 -14 -14 -41 -21 -67 -17 -3 0
-52 -20 -107 -44 -56 -25 -111 -44 -123 -44 -36 1 -141 -20 -151 -30 -6 -6 -4
-16 7 -26 19 -19 20 -29 5 -57 -8 -14 -8 -23 0 -31 19 -19 12 -41 -23 -65 -42
-29 -87 -42 -125 -36 -33 6 -82 -16 -121 -52 -44 -40 -104 -55 -195 -48 -63 5
-90 2 -125 -11 -25 -9 -53 -17 -62 -18 -9 -1 -14 -5 -11 -10 3 -5 0 -8 -8 -5
-42 14 11 92 70 104 33 7 36 11 22 33 -9 14 -146 25 -184 14 -17 -4 -17 -6 -2
-23 15 -17 14 -19 -11 -39 -15 -11 -31 -21 -35 -21 -5 0 -9 -7 -9 -16 0 -11 5
-14 16 -10 10 4 14 1 12 -6 -14 -42 -144 -81 -199 -61 -26 10 -40 9 -83 -7
-69 -27 -157 -27 -181 0 -13 14 -16 29 -12 54 5 29 2 35 -19 45 -37 17 -51 54
-30 85 9 14 16 27 16 29 0 3 -27 7 -60 9 -99 7 -127 52 -66 106 45 39 98 57
126 42 16 -8 30 -8 56 0 19 7 51 9 70 5 29 -5 34 -10 29 -25 -6 -17 -2 -19 32
-16 21 2 52 9 68 15 17 6 44 12 62 14 24 3 44 17 78 55 51 57 201 147 292 177
64 20 81 39 30 33 -46 -5 -41 2 25 35 76 38 146 49 265 41 116 -7 186 0 208
22 24 24 18 32 -27 44 -111 28 -160 68 -137 111 16 31 51 59 66 54 7 -2 12 1
10 7 -1 6 4 13 12 16 9 3 11 0 6 -7 -14 -23 5 -59 38 -74 18 -9 67 -21 108
-28 41 -6 82 -16 92 -21 37 -19 28 1 -15 32 -23 18 -34 30 -23 26 11 -3 44 -8
74 -10 65 -7 151 -31 203 -57 53 -27 68 -24 112 21 57 59 144 108 232 130 42
11 79 22 82 24 2 3 -10 12 -26 20 -36 19 -62 52 -62 81 0 24 69 107 71 85 1
-8 1 -18 0 -22 0 -5 4 -8 9 -8 6 0 23 -11 38 -25 38 -36 79 -44 226 -46 l129
-1 13 30 c7 17 31 51 53 75 56 61 65 89 40 121 l-20 26 23 0 c13 0 40 -3 60
-6z m1713 -44 c-11 -5 -33 -9 -50 -10 -36 -1 -120 -34 -120 -46 0 -5 -4 -15
-9 -23 -7 -11 -10 -11 -17 0 -7 12 -14 11 -40 -4 -41 -23 -49 -15 -12 11 70
49 158 80 228 80 31 1 36 -1 20 -8z m141 -56 c21 -17 53 -52 71 -79 28 -40 33
-56 32 -95 -2 -36 3 -54 19 -75 12 -15 19 -32 15 -38 -3 -6 -10 0 -15 13 -5
13 -18 30 -28 37 -14 10 -20 26 -20 53 0 26 -7 45 -19 57 -10 10 -26 34 -34
53 -21 52 -67 87 -126 95 -27 4 -60 4 -73 0 -18 -5 -20 -4 -8 5 9 6 43 9 82 8
57 -3 72 -8 104 -34z m1644 -58 c0 -8 -4 -18 -10 -21 -20 -12 -9 -44 31 -91
22 -27 52 -71 66 -99 14 -27 28 -45 30 -40 2 6 43 9 101 8 161 -3 251 30 271
101 5 17 10 23 10 13 1 -9 6 -16 12 -15 7 2 25 -16 42 -39 26 -36 29 -46 19
-67 -6 -13 -29 -34 -51 -47 -45 -25 -45 -39 -1 -39 67 0 204 -66 277 -134 l61
-56 73 35 c55 25 100 38 174 48 66 9 93 10 81 3 -10 -6 -31 -22 -45 -34 -21
-20 -22 -23 -6 -17 11 3 54 13 95 21 136 26 175 49 162 97 l-5 21 34 -21 c48
-31 73 -66 66 -95 -7 -27 -79 -71 -134 -83 -17 -3 -37 -12 -43 -19 -8 -11 -1
-17 32 -31 46 -18 129 -23 219 -11 65 8 176 -12 237 -43 55 -28 61 -41 16 -34
-54 9 -36 -12 29 -33 123 -40 272 -132 312 -193 21 -30 32 -38 59 -39 18 -1
46 -6 62 -13 16 -6 48 -12 72 -13 37 -2 42 0 37 15 -9 28 39 36 95 16 26 -10
46 -12 48 -7 11 30 121 -5 149 -46 35 -54 -4 -94 -91 -94 -42 0 -47 -2 -40
-17 4 -10 8 -34 8 -53 1 -33 -9 -44 -59 -64 -6 -2 -5 -9 3 -17 18 -19 15 -53
-7 -73 -26 -23 -122 -24 -175 -2 -29 12 -55 15 -101 10 -71 -7 -150 13 -180
46 -16 18 -16 20 -1 26 22 9 20 18 -8 34 -30 16 -40 38 -25 56 14 16 17 16
-92 18 -80 1 -87 0 -96 -21 -9 -19 -8 -23 5 -23 49 0 120 -76 94 -102 -8 -8
-24 -4 -59 13 -42 21 -60 24 -150 22 -107 -3 -180 16 -200 51 -14 26 -98 63
-116 52 -22 -14 -117 17 -146 48 -22 23 -22 26 -7 41 20 20 20 20 -1 52 -16
25 -16 26 6 45 13 10 21 21 18 24 -9 9 -121 33 -157 34 -20 0 -53 9 -75 20
-21 11 -54 25 -74 31 -20 7 -39 16 -42 22 -4 5 -25 11 -48 12 -23 1 -50 10
-62 20 -15 15 -22 16 -32 6 -17 -18 20 -46 86 -65 82 -24 146 -55 157 -76 6
-11 7 -21 3 -21 -4 -1 -12 -2 -18 -4 -5 -1 -17 -3 -26 -3 -9 -1 -19 -11 -22
-22 -10 -37 -67 -18 -67 22 0 13 8 18 25 18 45 0 28 27 -27 45 -107 35 -148
57 -154 81 -7 29 -67 58 -140 68 -27 4 -78 19 -114 34 -67 26 -92 28 -231 16
-60 -5 -83 -3 -108 10 -43 23 -30 40 23 31 41 -8 52 -8 184 -3 52 2 83 -4 139
-25 95 -35 270 -57 227 -29 -40 27 -62 53 -78 96 -20 52 -79 126 -101 126 -8
0 -20 6 -27 13 -17 15 -29 18 -105 24 -35 3 -63 3 -63 -1 0 -4 9 -24 20 -45
25 -50 106 -121 137 -121 13 0 22 -4 18 -9 -3 -5 3 -12 12 -15 10 -2 -4 -2
-32 0 -79 8 -177 41 -223 74 -29 21 -42 26 -42 16 0 -8 -10 -27 -23 -41 -20
-24 -30 -27 -92 -28 -39 -1 -119 3 -180 7 -105 8 -111 7 -138 -14 -19 -15 -27
-29 -24 -41 7 -25 -3 -24 -43 4 -43 28 -74 80 -65 107 12 36 51 52 166 65 60
7 113 15 116 18 9 10 -7 27 -26 27 -9 0 -44 17 -77 38 -76 50 -113 62 -188 62
-114 0 -239 45 -321 116 l-40 34 40 -16 c31 -13 87 -19 240 -24 136 -5 215
-12 247 -23 l48 -15 -18 30 c-17 29 -17 30 10 53 l27 23 -20 38 c-34 68 -21
105 46 129 53 19 95 19 95 1z m-1593 -135 c-3 -13 0 -35 5 -47 8 -18 6 -27
-12 -46 -21 -21 -22 -22 -16 -2 3 11 0 28 -9 40 -19 26 -19 45 1 37 14 -5 15
-3 5 15 -6 11 -8 28 -5 37 10 25 37 -3 31 -34z m-6613 -127 c9 -24 7 -28 -9
-14 -17 14 -20 30 -6 30 5 0 12 -7 15 -16z m68 -49 c4 -5 6 -27 6 -48 0 -36
-1 -38 -17 -22 -12 13 -13 19 -4 22 10 4 10 10 1 26 -6 12 -10 24 -9 27 1 2
-1 6 -6 7 -5 2 -8 -20 -7 -47 0 -28 -3 -53 -8 -56 -11 -7 -10 -54 2 -54 6 0
11 8 12 18 0 9 2 22 2 29 2 22 14 24 21 4 3 -12 11 -21 16 -21 6 0 7 5 4 10
-3 6 -1 10 5 10 7 0 10 -6 7 -13 -3 -8 8 -25 25 -38 65 -52 85 -80 79 -113
-12 -67 -1 -125 15 -81 8 20 24 19 24 -1 0 -9 -5 -12 -11 -8 -9 5 -10 -1 -5
-20 7 -28 -10 -38 -20 -11 -4 8 -10 12 -15 9 -12 -7 31 -54 49 -54 6 0 12 -7
12 -15 0 -8 -4 -15 -10 -15 -5 0 -10 5 -10 10 0 6 -7 10 -15 10 -8 0 -15 5
-15 10 0 6 -4 10 -10 10 -5 0 -10 -7 -10 -15 0 -8 -4 -15 -10 -15 -5 0 -7 -6
-4 -14 7 -17 -12 -31 -21 -16 -4 6 -1 17 5 25 6 8 9 19 5 25 -3 5 -1 10 4 10
6 0 11 7 11 15 0 8 -7 15 -15 15 -9 0 -12 -6 -9 -15 4 -8 2 -15 -4 -15 -5 0
-12 7 -16 15 -3 8 -10 15 -16 15 -5 0 -10 -7 -10 -15 0 -8 -4 -15 -10 -15 -5
0 -10 5 -10 10 0 6 -6 10 -14 10 -8 0 -16 7 -20 15 -3 9 0 15 9 15 8 0 15 -6
15 -12 0 -8 8 -4 16 7 11 14 18 16 21 8 3 -7 11 -13 19 -13 8 0 11 6 8 15 -4
8 -1 15 5 15 6 0 11 -4 11 -10 0 -5 5 -10 10 -10 6 0 10 7 10 15 0 8 5 15 10
15 6 0 5 8 -2 20 -7 11 -16 20 -19 20 -4 0 -5 -9 -2 -20 3 -11 1 -20 -5 -20
-15 0 -22 26 -9 39 8 8 8 14 0 22 -8 8 -13 0 -18 -30 -7 -42 -18 -52 -29 -26
-3 8 -2 15 3 15 12 0 20 49 10 56 -14 8 -10 24 6 24 8 0 15 -4 15 -10 0 -5 7
-10 15 -10 8 0 15 -7 15 -15 0 -8 7 -15 16 -15 13 0 14 3 5 14 -8 9 -8 16 -2
20 11 7 4 36 -10 36 -4 0 -6 -7 -3 -15 4 -8 2 -15 -3 -15 -17 0 -23 13 -12 26
6 7 9 19 6 26 -4 8 -8 5 -12 -9 -8 -26 -25 -31 -25 -8 0 8 4 15 10 15 5 0 7 7
4 15 -4 8 -12 15 -20 15 -8 0 -14 6 -14 14 0 15 -29 30 -39 20 -3 -4 0 -9 7
-11 6 -3 12 -12 12 -21 -1 -15 -2 -15 -14 1 -16 21 -26 22 -26 2 0 -8 -4 -15
-10 -15 -5 0 -10 7 -10 15 0 8 -5 15 -10 15 -6 0 -10 6 -9 13 3 24 -1 37 -12
37 -12 0 -38 29 -39 43 0 4 5 7 10 7 6 0 10 -7 10 -16 0 -8 5 -12 10 -9 6 4 8
15 5 26 -7 22 13 26 21 4 13 -32 22 -13 17 37 l-4 52 23 -19 c13 -11 26 -24
30 -30z m-135 14 c2 -17 -1 -18 -12 -9 -8 7 -12 16 -9 21 9 16 20 10 21 -12z
m33 1 c0 -5 -2 -10 -4 -10 -3 0 -8 5 -11 10 -3 6 -1 10 4 10 6 0 11 -4 11 -10z
m35 -11 c11 -17 -1 -21 -15 -4 -8 9 -8 15 -2 15 6 0 14 -5 17 -11z m12542 -11
c-3 -13 -8 -39 -12 -58 l-6 -35 27 30 c16 18 24 23 20 12 -46 -140 -45 -189 3
-104 18 31 34 57 36 57 1 0 -3 -28 -10 -62 -22 -104 -30 -192 -16 -184 6 4 11
11 11 15 0 5 14 37 30 72 l31 64 -6 -72 c-8 -91 -38 -203 -73 -267 -14 -26
-55 -75 -91 -107 -68 -63 -64 -78 10 -30 45 29 83 66 112 111 10 13 17 21 17
16 0 -18 -76 -119 -117 -156 -54 -48 -109 -64 -181 -56 -83 10 -140 44 -169
100 -19 37 -19 161 0 231 l14 50 -1 -70 c0 -71 17 -135 37 -135 6 0 7 17 4 44
-10 68 8 147 52 236 39 77 129 215 137 208 2 -2 -8 -39 -22 -82 -13 -44 -23
-83 -21 -89 3 -11 87 116 142 216 38 69 51 83 42 45z m-12663 -22 c58 -45 103
-92 110 -117 6 -18 5 -20 -3 -9 -9 12 -11 11 -11 -7 0 -34 -1 -37 -12 -51 -6
-7 -8 -15 -5 -19 4 -3 2 -12 -4 -20 -9 -9 -8 -17 1 -28 6 -8 9 -19 5 -24 -3
-6 3 -19 15 -31 21 -21 26 -40 11 -40 -14 0 -43 50 -37 65 2 7 -1 16 -9 18
-13 6 -17 77 -4 77 4 0 10 12 13 28 4 15 9 35 12 44 3 10 -3 21 -16 28 -20 11
-21 10 -15 -9 8 -26 -13 -29 -22 -3 -4 9 -13 22 -20 27 -8 6 -12 19 -11 30 2
11 -1 22 -7 23 -5 2 -16 9 -24 15 -12 10 -12 8 -5 -13 5 -14 8 -39 7 -57 -1
-20 4 -34 14 -37 13 -5 14 -4 4 8 -8 9 -8 16 -2 20 17 11 24 -15 11 -39 -10
-19 -9 -26 14 -48 27 -27 34 -47 16 -47 -5 0 -7 -7 -4 -15 4 -8 2 -15 -4 -15
-5 0 -12 8 -16 18 -3 9 -9 24 -13 32 -5 13 -4 13 13 0 18 -14 18 -13 -1 10
-11 14 -24 28 -29 31 -5 4 -6 14 -3 23 3 8 0 19 -7 23 -15 9 -27 61 -15 69 4
2 6 18 4 34 -4 36 8 38 49 6z m46 -2 c0 -14 -3 -14 -15 -4 -8 7 -15 14 -15 16
0 2 7 4 15 4 8 0 15 -7 15 -16z m40 6 c0 -5 -2 -10 -4 -10 -3 0 -8 5 -11 10
-3 6 -1 10 4 10 6 0 11 -4 11 -10z m161 -29 c1 -3 3 -21 5 -40 2 -19 10 -38
16 -42 7 -5 10 -11 6 -14 -6 -7 -48 42 -48 56 0 5 5 9 12 9 6 0 4 7 -5 18 -10
10 -17 21 -17 25 0 8 30 -3 31 -12z m-201 -101 c9 -6 11 -10 3 -10 -7 0 -10
-7 -6 -16 4 -12 2 -15 -8 -12 -15 5 -26 48 -12 48 4 0 15 -5 23 -10z m85 -66
c0 -39 -1 -39 -21 -20 -18 18 -18 26 0 26 10 0 12 7 9 23 -4 13 -2 18 3 14 5
-5 9 -24 9 -43z m69 16 c3 0 6 8 6 17 0 12 3 14 10 7 19 -19 0 -44 -28 -37
-20 5 -24 3 -19 -10 3 -9 1 -17 -6 -20 -7 -2 0 -15 17 -30 16 -15 26 -30 23
-33 -3 -4 -13 1 -22 10 -9 9 -22 16 -28 16 -7 0 0 -12 16 -25 27 -24 37 -50
15 -43 -6 2 -16 13 -22 24 -6 10 -14 21 -17 24 -6 5 -5 48 1 60 1 3 3 10 5 15
1 6 6 21 10 34 7 21 9 22 20 7 7 -9 15 -16 19 -16z m16 -73 c0 -5 -7 -4 -15 3
-8 7 -15 20 -15 29 1 13 3 13 15 -3 8 -11 15 -24 15 -29z m-97 -11 c-4 -5 -12
-1 -19 9 -7 10 -11 22 -8 27 3 5 12 1 19 -9 7 -10 11 -22 8 -27z m2224 2 c-3
-8 -6 -5 -6 6 -1 11 2 17 5 13 3 -3 4 -12 1 -19z m7900 -20 c-3 -7 -5 -2 -5
12 0 14 2 19 5 13 2 -7 2 -19 0 -25z m-10189 0 c-6 -18 -28 -21 -28 -4 0 9 7
16 16 16 9 0 14 -5 12 -12z m292 2 c0 -5 -4 -10 -10 -10 -5 0 -10 5 -10 10 0
6 5 10 10 10 6 0 10 -4 10 -10z m-212 -20 c16 -13 21 -25 17 -42 -5 -18 0 -27
25 -42 27 -15 31 -22 25 -45 -8 -32 -11 -35 -25 -26 -8 5 -8 10 0 20 12 15 6
35 -10 35 -6 0 -9 -10 -8 -22 0 -13 -3 -35 -7 -50 -5 -18 -3 -28 4 -28 6 0 11
7 11 15 0 8 4 15 9 15 13 0 22 -28 10 -36 -7 -4 -6 -10 0 -18 12 -14 5 -26
-16 -26 -10 0 -12 7 -8 19 4 14 0 21 -14 26 -19 6 -23 37 -8 62 4 6 -1 19 -10
29 -13 12 -14 19 -5 22 7 2 10 13 6 28 -4 16 -2 24 6 24 7 0 1 9 -14 21 -25
20 -34 39 -18 39 4 -1 17 -9 30 -20z m6639 -5 c955 -55 1882 -271 2771 -647
181 -76 664 -318 670 -335 2 -9 -11 -13 -48 -13 -43 0 -67 8 -145 50 l-93 51
-29 -53 c-20 -37 -35 -54 -51 -56 -21 -3 -23 -1 -17 20 4 13 16 40 26 60 25
50 25 53 -18 71 -21 8 -93 40 -161 71 -68 31 -128 56 -133 56 -9 0 -69 -122
-69 -138 0 -4 18 -15 40 -24 37 -15 52 -40 31 -52 -8 -5 -208 78 -223 92 -4 4
-3 14 2 22 9 15 13 14 96 -17 13 -5 71 133 61 143 -7 8 -324 134 -336 134 -7
0 -61 -125 -61 -142 0 -3 20 -14 45 -24 47 -17 50 -21 37 -41 -6 -9 -38 -2
-124 28 -100 35 -115 44 -111 60 6 23 10 23 56 4 20 -8 40 -15 44 -15 14 0 57
140 47 149 -9 9 -294 107 -328 113 -16 2 -23 -10 -42 -70 l-22 -74 34 -14 c18
-8 38 -14 44 -14 5 0 10 -9 10 -20 0 -27 -13 -26 -135 12 -86 26 -105 36 -105
51 0 16 5 18 33 14 17 -3 41 -8 53 -12 19 -6 23 1 41 67 11 40 18 76 14 80
-10 11 -341 99 -350 93 -9 -5 -46 -144 -40 -149 2 -1 26 -9 52 -17 43 -12 47
-16 35 -31 -12 -17 -17 -16 -93 3 -162 41 -153 38 -148 59 4 16 11 18 37 13
68 -14 69 -14 87 65 12 53 13 75 5 77 -63 22 -324 77 -343 73 -11 -2 -21 -22
-29 -58 -20 -86 -20 -88 31 -101 33 -8 45 -16 45 -30 0 -24 -13 -24 -130 1
-121 26 -121 26 -114 45 5 13 18 15 58 13 l51 -3 12 70 c6 39 8 73 5 77 -6 6
-131 28 -340 62 -16 2 -24 -2 -27 -18 -10 -46 -23 -131 -20 -134 1 -1 22 -6
46 -10 35 -6 45 -12 47 -30 4 -24 9 -24 -168 2 -65 10 -75 14 -75 31 0 18 6
20 53 17 45 -3 52 -1 53 15 0 10 4 44 8 76 4 32 5 60 2 62 -7 4 -258 33 -321
37 l-45 3 -12 -74 c-7 -41 -10 -77 -7 -80 2 -3 26 -8 51 -11 46 -5 59 -15 45
-36 -7 -11 -236 7 -249 19 -3 4 -3 14 1 23 5 14 15 15 55 10 l49 -6 7 75 c4
42 4 79 0 83 -9 9 -153 20 -277 21 l-98 1 0 -79 0 -80 47 -3 c36 -2 49 -7 51
-20 3 -16 -8 -18 -122 -18 l-126 0 0 25 c0 23 3 25 50 25 l50 0 0 80 0 80
-187 -2 -188 -3 0 -80 0 -80 50 0 c44 0 50 -3 53 -22 3 -23 2 -23 -122 -23
-119 0 -126 1 -126 20 0 17 7 20 50 20 l50 0 0 74 c0 45 -5 78 -11 82 -13 8
-127 7 -272 -2 l-98 -7 3 -76 3 -76 53 -3 c43 -3 52 -6 52 -22 0 -21 -18 -24
-168 -35 -83 -6 -83 -5 -80 17 3 20 10 23 51 26 l49 3 -7 77 c-4 42 -9 79 -11
81 -3 4 -247 -17 -319 -27 l-50 -8 2 -44 c1 -25 5 -60 8 -79 6 -33 6 -33 55
-29 43 4 50 2 56 -14 3 -11 4 -21 2 -22 -3 -3 -241 -34 -245 -32 0 1 -3 10 -5
21 -2 16 5 20 41 27 24 4 46 10 49 12 5 6 -14 145 -21 152 -4 4 -287 -38 -346
-52 -22 -5 -23 -8 -16 -61 12 -96 16 -101 69 -93 49 7 56 5 56 -19 0 -15 -25
-21 -235 -54 -5 -1 -11 8 -13 19 -3 19 3 23 42 28 25 4 47 10 50 14 9 15 -28
152 -41 152 -18 0 -347 -71 -352 -76 -3 -2 3 -38 13 -80 l18 -75 42 6 c22 4
46 8 51 9 6 0 10 -8 10 -18 0 -17 -17 -24 -115 -47 -63 -15 -116 -26 -117 -26
0 1 -3 11 -5 21 -2 16 6 23 44 33 l47 14 -20 72 c-11 39 -22 74 -25 76 -4 5
-303 -73 -340 -89 l-22 -8 22 -76 21 -76 30 7 c50 11 79 9 82 -7 2 -11 -26
-23 -113 -47 -64 -18 -120 -30 -125 -27 -20 12 -7 33 29 44 20 7 41 16 46 20
8 8 -29 136 -43 145 -12 7 -351 -108 -351 -120 0 -5 12 -40 26 -77 l25 -67 42
15 c44 16 67 13 67 -9 0 -8 -46 -30 -112 -54 -104 -38 -114 -40 -126 -25 -11
15 -8 19 25 34 21 10 42 19 47 21 12 4 -35 138 -51 144 -10 4 -328 -118 -341
-131 -5 -6 44 -124 57 -139 4 -4 25 0 45 8 40 17 66 14 66 -7 -1 -20 -222
-110 -232 -95 -13 20 -9 26 32 47 22 11 40 24 40 29 0 5 -14 38 -31 74 l-30
65 -72 -32 c-73 -34 -259 -126 -266 -132 -2 -1 11 -27 28 -57 31 -55 31 -67 0
-67 -12 0 -28 18 -44 50 -14 28 -30 50 -35 50 -5 0 -46 -20 -91 -45 -45 -25
-87 -46 -93 -46 -6 -1 3 -5 19 -9 17 -4 116 -8 220 -9 299 -2 491 -24 502 -58
2 -6 -11 -20 -29 -31 -28 -17 -41 -19 -83 -12 -27 5 -194 14 -370 20 -425 14
-491 25 -513 90 -13 35 -14 35 78 15 60 -13 66 -12 85 5 54 49 476 260 758
379 1041 439 2294 652 3444 586z m-6721 -27 c1 -11 -3 -15 -12 -11 -17 6 -19
36 -2 31 6 -2 12 -11 14 -20z m45 -27 c13 -12 17 -21 10 -26 -6 -3 -11 -15
-11 -26 0 -11 4 -18 9 -14 5 3 13 0 16 -6 12 -18 -3 -22 -26 -5 -17 12 -23 26
-24 56 -1 22 0 40 2 40 2 0 13 -9 24 -19z m277 -9 c2 -13 -2 -22 -10 -22 -7 0
-13 11 -13 25 0 30 19 27 23 -3z m9860 -2 c-7 -11 -15 -15 -17 -9 -2 6 3 15
10 20 20 12 21 11 7 -11z m-9985 -26 c3 -4 1 -16 -5 -27 -8 -16 -7 -23 7 -33
11 -8 15 -20 11 -32 -4 -13 -1 -22 9 -26 13 -4 15 -1 10 14 -9 28 6 52 25 40
13 -9 13 -11 0 -20 -13 -9 -10 -15 15 -36 19 -17 26 -28 18 -31 -18 -7 -16
-16 6 -30 18 -11 19 -9 15 29 -3 32 -1 39 11 34 17 -6 20 9 4 20 -7 4 -7 10
-1 16 15 15 34 -2 28 -25 -3 -12 2 -26 12 -34 15 -13 15 -14 -8 -9 -24 5 -26
3 -26 -29 0 -36 -13 -59 -21 -37 -3 6 -11 12 -18 12 -8 0 -17 9 -20 20 -3 11
-13 20 -21 20 -16 0 -19 -16 -4 -25 8 -5 7 -11 0 -20 -7 -8 -9 -19 -5 -25 12
-20 -11 -10 -43 19 -17 17 -33 28 -33 25 -1 -2 -2 -8 -3 -14 -2 -16 -21 -13
-24 4 -2 9 0 16 5 16 5 0 8 17 7 38 0 20 1 45 4 55 7 27 23 20 20 -9 -2 -16 3
-29 11 -32 9 -3 11 1 6 17 -4 12 -2 21 4 21 6 0 8 7 5 15 -4 8 -12 15 -20 15
-8 0 -14 7 -14 15 0 8 5 15 11 15 8 0 9 4 0 13 -15 19 5 38 22 21z m75 -35
c-2 -6 -8 -10 -13 -10 -5 0 -11 4 -13 10 -2 6 4 11 13 11 9 0 15 -5 13 -11z
m72 -14 c10 -12 10 -15 -4 -15 -9 0 -16 7 -16 15 0 8 2 15 4 15 2 0 9 -7 16
-15z m-40 -11 c0 -8 -4 -12 -10 -9 -5 3 -10 10 -10 16 0 5 5 9 10 9 6 0 10 -7
10 -16z m-240 -19 c0 -8 -4 -15 -10 -15 -5 0 -10 7 -10 15 0 8 5 15 10 15 6 0
10 -7 10 -15z m240 -21 c0 -9 -5 -14 -12 -12 -18 6 -21 28 -4 28 9 0 16 -7 16
-16z m-220 -24 c0 -5 -4 -10 -10 -10 -5 0 -10 5 -10 10 0 6 5 10 10 10 6 0 10
-4 10 -10z m38 -59 c3 -8 -1 -12 -9 -9 -7 2 -15 10 -17 17 -3 8 1 12 9 9 7 -2
15 -10 17 -17z m258 8 c3 -6 -1 -18 -10 -27 -12 -13 -18 -13 -28 -4 -9 9 -9
12 0 12 7 0 12 7 12 15 0 17 16 20 26 4z m-91 -49 c3 -5 1 -10 -4 -10 -6 0
-11 5 -11 10 0 6 2 10 4 10 3 0 8 -4 11 -10z m-137 -24 c3 -12 -1 -17 -10 -14
-7 3 -15 13 -16 22 -3 12 1 17 10 14 7 -3 15 -13 16 -22z m55 4 c23 -27 21
-33 -8 -28 -13 3 -23 2 -22 -2 1 -5 -2 -8 -8 -9 -5 -1 -10 4 -9 9 1 6 2 19 3
30 1 26 22 26 44 0z m359 -270 c48 -123 85 -227 83 -230 -12 -19 -87 -62 -100
-56 -9 3 -15 0 -15 -10 0 -10 -6 -14 -15 -10 -9 3 -15 0 -15 -8 0 -15 -96 -60
-114 -53 -6 3 -28 47 -48 98 -20 52 -64 161 -97 243 -34 82 -60 150 -59 151
16 13 112 54 116 50 3 -2 12 0 19 7 11 9 17 9 24 -3 7 -12 9 -11 9 2 0 11 17
22 53 32 28 8 57 14 62 13 6 -2 49 -103 97 -226z m6203 160 c926 -49 1751
-237 2459 -560 l70 -32 -25 -19 c-13 -10 -27 -19 -30 -19 -4 0 -50 20 -103 45
-202 94 -554 222 -793 289 -995 279 -2214 339 -3288 160 -515 -86 -1017 -225
-1484 -412 -168 -67 -176 -69 -198 -54 -12 10 -23 20 -23 23 0 10 337 139 535
205 572 189 1085 296 1690 354 289 28 861 37 1190 20z m-5675 -81 c57 -13 110
-48 147 -95 25 -33 28 -46 28 -108 0 -61 -5 -82 -36 -146 -31 -65 -124 -199
-139 -200 -3 0 -32 78 -64 173 -32 94 -76 218 -96 274 -21 56 -35 105 -32 108
9 9 145 5 192 -6z m10646 -41 c6 -6 -142 -447 -177 -528 l-11 -25 -30 35
c-122 142 -175 296 -135 393 20 46 88 104 139 117 24 6 48 13 53 15 16 7 153
0 161 -7z m-10810 -205 c-9 -72 -50 -146 -117 -212 l-61 -60 23 -63 c12 -35
25 -67 29 -71 4 -4 18 2 32 13 32 25 38 25 38 1 0 -21 -48 -65 -105 -95 -28
-15 -38 -17 -48 -7 -9 10 -9 14 3 21 58 33 57 32 30 109 -13 39 -27 71 -31 71
-4 0 -36 -17 -70 -38 -35 -21 -89 -49 -121 -61 l-56 -23 23 -66 c23 -69 26
-71 78 -57 23 6 27 4 27 -13 0 -15 -14 -24 -65 -41 -76 -25 -101 -26 -108 -7
-7 18 1 26 29 26 34 0 36 12 11 82 -18 51 -26 62 -42 60 -11 -1 -47 -7 -79
-12 -64 -10 -153 2 -171 23 -6 6 -17 25 -24 41 -11 27 -11 28 11 22 68 -19
137 -18 219 3 208 52 443 219 517 369 23 47 36 40 28 -15z m10827 -51 c111
-180 384 -346 593 -359 49 -4 95 -1 114 5 32 12 32 11 25 -16 -13 -54 -37 -67
-128 -67 -45 0 -101 4 -123 8 l-42 8 -21 -62 c-11 -35 -21 -66 -21 -70 0 -4
16 -10 35 -13 37 -7 42 -15 24 -33 -12 -12 -49 -5 -126 24 -31 11 -43 21 -43
35 0 15 4 18 18 13 52 -22 58 -19 80 40 12 31 22 63 22 70 0 7 -24 23 -54 35
-29 12 -84 39 -121 61 -37 22 -69 38 -70 37 -7 -12 -45 -128 -45 -140 0 -9 14
-21 30 -28 32 -13 35 -17 20 -40 -14 -23 -150 73 -150 106 0 30 7 30 37 2 28
-27 34 -21 61 58 l20 62 -55 53 c-30 30 -63 69 -75 87 -36 58 -66 182 -43 182
1 0 18 -26 38 -58z m-1048 -22 c3 -5 1 -10 -4 -10 -6 0 -11 5 -11 10 0 6 2 10
4 10 3 0 8 -4 11 -10z m-9712 -157 c-8 -24 -19 -43 -24 -43 -13 0 -11 20 8 75
13 39 18 45 23 30 4 -11 1 -39 -7 -62z m2025 29 c2 -8 -8 -12 -29 -12 -31 0
-32 1 -13 15 21 16 36 15 42 -3z m8653 -115 c-12 -12 -43 87 -34 110 4 11 13
-2 25 -42 13 -38 16 -61 9 -68z m-11591 18 c15 -39 62 -155 104 -260 42 -104
76 -193 76 -197 0 -17 -182 -8 -250 12 -193 58 -237 233 -100 405 36 46 121
116 134 112 5 -2 21 -34 36 -72z m1304 13 c11 -41 7 -54 -44 -139 l-51 -83 21
-68 c11 -37 24 -70 30 -73 5 -3 19 13 32 35 24 41 32 47 43 29 9 -13 -29 -70
-107 -160 -52 -61 -63 -69 -69 -53 -4 14 4 30 32 61 l38 42 -25 76 -26 76 -97
-94 c-54 -51 -116 -106 -139 -123 -23 -16 -42 -35 -42 -43 0 -24 42 -131 52
-131 5 0 22 10 37 21 27 20 51 19 51 -1 0 -6 -44 -39 -97 -75 -69 -46 -99 -61
-105 -52 -12 19 -10 26 20 41 55 30 54 27 31 97 -12 35 -25 68 -29 72 -4 5
-37 -10 -74 -32 -36 -22 -103 -59 -148 -82 -46 -23 -84 -42 -86 -44 -4 -3 39
-118 48 -128 4 -5 25 -1 45 8 31 12 40 13 47 3 13 -21 11 -23 -54 -47 -124
-45 -146 -50 -158 -36 -9 10 -6 16 9 24 11 6 26 11 33 11 35 1 39 15 18 75
-11 33 -24 63 -28 67 -4 4 -36 -1 -71 -12 -35 -10 -109 -27 -165 -36 -55 -10
-103 -19 -104 -20 -2 -1 6 -30 19 -63 l22 -61 52 0 c38 0 55 -4 59 -15 4 -12
-4 -15 -42 -17 -121 -5 -212 7 -212 27 0 11 11 13 50 8 28 -3 50 -4 50 -2 0 3
-10 31 -23 64 l-23 59 -64 16 c-114 29 -135 42 -153 95 -15 44 -15 47 1 40
136 -53 344 -46 550 17 107 32 281 120 399 199 135 93 301 254 374 367 30 45
57 82 60 82 4 0 9 -10 13 -22z m11300 -50 c136 -137 165 -274 79 -369 -45 -50
-96 -76 -182 -95 -63 -13 -192 -19 -203 -9 -2 3 40 116 94 252 121 307 115
293 129 293 6 0 44 -33 83 -72z m-10264 17 c-7 -9 -15 -13 -19 -10 -3 3 1 10
9 15 21 14 24 12 10 -5z m8910 -73 c166 -261 536 -513 870 -592 162 -38 337
-36 438 6 38 15 38 13 9 -46 -21 -42 -26 -46 -92 -67 -38 -12 -82 -24 -96 -27
-21 -5 -31 -17 -49 -66 -13 -33 -20 -63 -17 -66 3 -3 26 -2 51 4 37 8 46 7 46
-4 0 -7 -17 -18 -37 -23 -47 -13 -223 -14 -223 -2 0 17 24 25 69 26 l45 0 23
59 c12 33 21 62 18 64 -2 2 -44 11 -92 19 -48 8 -123 25 -166 38 -43 12 -80
18 -83 14 -13 -22 -43 -122 -38 -130 2 -5 22 -13 44 -19 28 -8 38 -15 34 -25
-8 -21 -20 -19 -121 16 -98 34 -108 41 -100 63 6 15 10 15 47 0 24 -10 45 -13
49 -8 4 5 17 35 29 67 l21 57 -91 46 c-51 25 -121 64 -155 85 -56 34 -65 36
-70 21 -3 -9 -14 -39 -25 -65 -10 -26 -18 -52 -18 -57 0 -5 18 -20 40 -32 39
-23 50 -41 30 -53 -13 -8 -200 115 -200 131 0 25 21 25 54 -1 32 -25 35 -25
44 -8 14 26 45 124 41 127 -105 86 -157 131 -211 184 -47 46 -69 61 -72 51 -3
-8 -15 -40 -26 -73 l-20 -58 36 -44 c25 -30 34 -49 29 -61 -6 -16 -11 -13 -37
17 -65 76 -138 178 -138 193 0 28 16 19 44 -23 15 -23 30 -38 35 -36 4 3 18
35 30 70 l22 66 -46 76 c-26 42 -49 91 -52 110 -6 35 1 64 14 63 4 0 33 -39
63 -87z m-8840 69 c0 -14 -63 -61 -73 -54 -4 3 6 18 24 34 33 30 49 36 49 20z
m126 -28 l23 -27 24 22 c13 12 32 22 42 22 13 0 8 -8 -21 -29 l-39 -30 -29 23
c-29 22 -45 46 -30 46 3 0 17 -12 30 -27z m39 17 c3 -5 -1 -10 -9 -10 -9 0
-16 5 -16 10 0 6 4 10 9 10 6 0 13 -4 16 -10z m190 -27 l23 -28 24 23 c13 12
33 22 44 22 17 0 16 -3 -6 -21 -51 -40 -55 -41 -96 -4 -22 19 -33 34 -26 35 7
0 24 -12 37 -27z m40 17 c3 -5 -1 -10 -9 -10 -9 0 -16 5 -16 10 0 6 4 10 9 10
6 0 13 -4 16 -10z m186 -26 l28 -26 26 26 c25 25 55 35 55 17 0 -4 -18 -21
-40 -36 l-39 -27 -29 21 c-16 11 -35 27 -42 36 -22 27 11 18 41 -11z m34 16
c-3 -5 -10 -10 -16 -10 -5 0 -9 5 -9 10 0 6 7 10 16 10 8 0 12 -4 9 -10z
m-529 -26 c19 -15 34 -30 34 -33 0 -4 -18 -20 -41 -34 l-41 -27 -40 32 -41 32
34 28 c41 35 51 35 95 2z m239 -18 c16 -14 27 -27 25 -29 -3 -2 -22 -16 -42
-31 l-37 -28 -41 33 c-22 18 -40 35 -40 38 1 3 17 18 37 33 38 30 43 29 98
-16z m7415 34 c0 -5 -4 -10 -10 -10 -5 0 -10 5 -10 10 0 6 5 10 10 10 6 0 10
-4 10 -10z m-225 -10 c3 -5 -1 -10 -10 -10 -9 0 -13 5 -10 10 3 6 8 10 10 10
2 0 7 -4 10 -10z m190 -16 c14 -14 24 -29 21 -32 -7 -6 -76 40 -76 51 0 16 31
6 55 -19z m-7160 -18 l39 -33 -42 -27 -43 -27 -40 31 c-21 18 -39 35 -39 40 0
9 59 48 75 49 6 0 28 -14 50 -33z m6708 -3 c12 -19 27 -16 53 12 28 30 50 34
32 5 -7 -11 -18 -20 -25 -20 -7 0 -13 -5 -13 -10 0 -6 -7 -13 -15 -16 -17 -7
-87 44 -79 58 6 9 33 -7 47 -29z m37 27 c0 -5 -7 -10 -15 -10 -8 0 -15 5 -15
10 0 6 7 10 15 10 8 0 15 -4 15 -10z m190 -10 l28 -20 26 21 c15 12 29 19 32
17 2 -3 -12 -17 -31 -32 l-36 -28 -34 27 c-19 14 -35 28 -35 31 0 10 24 3 50
-16z m-415 0 c-3 -5 -10 -10 -16 -10 -5 0 -9 5 -9 10 0 6 7 10 16 10 8 0 12
-4 9 -10z m25 -29 l-45 -39 -37 27 c-21 14 -38 29 -38 34 0 15 36 6 50 -13 19
-26 29 -25 64 5 16 14 34 25 40 25 6 0 -9 -18 -34 -39z m570 0 l39 -28 -27
-25 c-46 -41 -51 -41 -93 -14 -21 15 -39 29 -39 33 0 9 62 63 73 63 4 0 25
-13 47 -29z m-221 -9 l33 -28 -41 -33 -42 -33 -39 26 c-22 14 -40 31 -40 36 0
11 70 60 85 60 5 0 25 -13 44 -28z m-231 -11 l33 -28 -39 -32 c-47 -37 -53
-37 -77 -11 -10 11 -24 20 -32 20 -7 0 -13 3 -13 6 0 10 74 73 85 73 6 0 25
-13 43 -28z m-6991 -45 l22 -19 -39 -28 c-22 -16 -43 -29 -47 -29 -5 1 -25 15
-46 33 l-38 33 43 31 c47 34 40 36 105 -21z m236 -14 c19 -20 18 -21 -22 -41
-22 -12 -45 -21 -50 -21 -12 0 -71 49 -71 60 0 4 17 19 38 32 36 25 38 25 62
8 14 -10 33 -27 43 -38z m467 32 c6 -14 10 -31 10 -37 0 -12 -170 -127 -238
-161 l-33 -17 21 -32 c12 -18 31 -47 42 -64 11 -18 25 -33 31 -33 5 0 29 11
53 25 42 25 43 25 49 4 4 -11 5 -21 3 -23 -1 -1 -21 -14 -44 -28 -22 -14 -69
-40 -104 -58 -50 -25 -65 -29 -71 -18 -13 20 -12 23 31 47 22 12 40 26 40 31
0 15 -64 120 -73 120 -8 0 -308 -148 -316 -156 -6 -6 62 -134 72 -134 4 0 24
9 44 20 38 20 53 19 53 -6 0 -22 -210 -111 -231 -98 -20 12 -6 31 34 45 48 17
49 22 12 105 l-23 53 -146 -50 c-80 -27 -152 -49 -160 -49 -8 0 -17 -4 -21
-10 -8 -13 34 -140 47 -140 6 0 28 5 50 12 33 10 41 9 48 -3 5 -7 6 -17 2 -20
-14 -13 -230 -62 -247 -55 -28 11 -11 30 35 38 23 4 44 9 47 11 4 5 -22 121
-31 135 -3 5 -45 2 -103 -9 -54 -10 -130 -23 -169 -30 l-72 -10 5 -42 c9 -79
18 -102 39 -100 10 1 32 3 49 5 21 2 31 -2 33 -13 4 -22 -21 -28 -146 -36 -82
-5 -106 -3 -112 7 -14 23 -2 30 52 30 l51 0 -7 31 c-3 17 -6 51 -6 74 l0 43
-169 -6 -168 -5 -17 48 c-9 27 -16 53 -16 59 0 8 41 10 127 8 212 -6 520 36
748 102 239 69 560 215 770 350 55 35 103 65 108 65 4 1 12 -11 17 -25z m-923
-36 c-14 -9 -22 -1 -32 32 l-8 25 26 -25 c18 -17 22 -27 14 -32z m6893 -66
c232 -146 554 -283 823 -352 215 -54 350 -72 590 -78 114 -2 207 -8 207 -11 0
-4 -7 -28 -16 -54 l-16 -47 -168 0 -167 0 -7 -46 c-3 -26 -6 -60 -6 -75 0 -28
2 -29 49 -29 50 0 72 -13 53 -32 -7 -7 -51 -6 -136 2 -115 12 -126 14 -126 33
0 18 5 19 49 13 27 -4 52 -3 55 2 3 5 8 38 12 74 l7 66 -89 12 c-49 6 -126 20
-171 29 -75 16 -83 16 -87 2 -17 -62 -27 -122 -22 -129 3 -5 26 -13 51 -16 28
-5 45 -12 45 -21 0 -23 -12 -24 -84 -9 -132 28 -176 44 -176 65 0 23 5 23 59
4 42 -14 42 -14 52 13 18 46 33 111 28 116 -3 3 -48 19 -100 35 -52 16 -124
40 -161 54 l-67 26 -19 -52 c-37 -99 -37 -94 10 -109 43 -15 58 -40 26 -46
-19 -4 -215 75 -224 90 -4 5 -1 15 5 21 8 8 20 6 46 -6 20 -9 41 -17 48 -17 7
0 27 29 45 65 l32 65 -153 77 c-83 43 -156 79 -162 81 -5 1 -27 -27 -47 -64
l-37 -65 30 -17 c53 -30 59 -36 49 -52 -8 -12 -16 -11 -57 9 -83 40 -163 92
-163 106 0 25 17 25 63 -1 l46 -25 40 60 c23 33 41 64 41 69 0 5 -33 29 -72
52 -40 24 -99 61 -131 83 -54 38 -57 42 -51 71 10 46 13 49 42 29 15 -9 65
-41 112 -71z m662 59 l38 -28 -28 -24 c-63 -54 -57 -54 -102 -18 l-41 33 36
33 c21 18 42 33 49 33 6 0 28 -13 48 -29z m-232 -10 c19 -16 33 -31 30 -33 -3
-1 -19 -16 -36 -31 -32 -28 -32 -29 -65 -12 -64 33 -65 36 -23 72 22 18 44 33
49 33 6 0 26 -13 45 -29z m370 -6 c-7 -14 -19 -25 -27 -25 -19 0 -16 10 9 37
26 28 36 22 18 -12z m-7611 -22 c22 -16 40 -31 41 -34 0 -4 -18 -19 -41 -35
-34 -23 -42 -25 -50 -13 -14 22 -11 32 10 26 24 -6 36 19 20 39 -17 21 -53 18
-45 -3 7 -17 6 -17 -11 -1 -16 17 -16 18 2 33 27 19 29 19 74 -12z m233 -13
l33 -29 -27 -1 c-16 0 -28 -5 -28 -12 0 -6 -3 -8 -6 -5 -4 4 -1 13 6 22 11 13
10 14 -4 9 -9 -3 -16 -1 -16 5 0 13 -10 14 -30 1 -12 -7 -12 -11 3 -28 27 -30
-5 -37 -33 -7 l-22 23 38 26 c21 14 42 26 46 26 4 0 22 -13 40 -30z m7332 -17
c19 -15 22 -22 13 -40 -6 -13 -15 -23 -20 -23 -5 0 -3 8 4 17 12 15 12 16 -3
10 -12 -4 -15 -2 -12 8 4 10 0 12 -15 8 -12 -3 -24 -10 -27 -15 -6 -10 16 -41
24 -34 2 3 11 -2 20 -10 10 -11 12 -18 4 -26 -9 -9 -28 1 -92 50 -4 3 70 71
78 72 2 0 14 -8 26 -17z m-9833 -24 c8 -16 6 -19 -17 -19 -23 0 -53 22 -54 41
0 14 62 -5 71 -22z m9617 4 c20 -15 39 -28 41 -30 7 -4 -31 -43 -42 -43 -5 0
-7 8 -4 19 7 26 -11 51 -36 51 -18 0 -19 -2 -7 -11 12 -9 11 -10 -7 -6 -24 5
-32 -8 -10 -16 6 -3 2 -6 -10 -6 -35 -1 -36 16 -1 43 18 14 34 26 36 26 2 0
20 -12 40 -27z m-7252 -27 c10 -8 17 -16 14 -19 -9 -8 -133 -47 -137 -43 -4 4
88 75 98 76 3 0 14 -6 25 -14z m7228 -27 c-6 -11 -24 -2 -24 11 0 5 7 7 15 4
8 -4 12 -10 9 -15z m194 -78 c-5 -2 -26 4 -47 13 -20 10 -46 19 -56 21 -11 2
-22 4 -24 4 -2 1 4 10 14 21 17 19 18 19 70 -18 29 -20 48 -39 43 -41z m-8572
-66 c-9 -14 -23 -25 -32 -25 -16 0 -14 5 20 55 17 25 21 27 24 12 2 -10 -4
-29 -12 -42z m9624 -21 c15 -23 19 -39 13 -45 -13 -13 -53 48 -46 68 7 18 9
17 33 -23z m-9549 -131 c20 -65 35 -119 35 -120 -1 -1 -11 0 -22 3 -27 7 -91
199 -73 220 6 8 14 14 18 14 4 0 23 -53 42 -117z m-110 81 c13 -16 24 -51 50
-156 12 -46 12 -47 -32 -107 -50 -70 -54 -71 -151 -28 -47 21 -58 31 -68 62
-12 37 -12 37 42 94 30 31 72 77 93 104 41 52 46 54 66 31z m12359 12 c0 -3
-4 -8 -10 -11 -5 -3 -10 -1 -10 4 0 6 5 11 10 11 6 0 10 -2 10 -4z m-2734 -41
c4 -16 -4 -60 -22 -117 -23 -72 -34 -93 -52 -99 -19 -7 -22 -6 -18 9 37 127
72 232 78 232 4 0 10 -11 14 -25z m2714 12 c0 -2 -10 -12 -21 -23 -22 -19 -22
-19 -8 4 12 19 29 30 29 19z m-10286 -52 c6 -29 2 -32 -102 -98 -142 -91 -427
-232 -582 -289 -274 -101 -521 -147 -831 -155 l-226 -5 -6 23 c-4 13 -7 29 -7
34 0 6 60 11 156 12 327 4 650 69 963 194 160 64 390 181 516 263 55 36 103
62 106 58 4 -4 10 -20 13 -37z m7693 -7 c22 -29 63 -76 91 -105 49 -50 50 -53
40 -90 -9 -35 -15 -41 -80 -68 -40 -17 -75 -31 -78 -33 -4 -1 -30 27 -57 62
l-50 65 27 97 c16 58 34 102 45 111 11 7 20 13 21 13 1 0 20 -24 41 -52z
m-1925 -107 c115 -69 368 -190 491 -236 308 -113 646 -175 963 -175 57 0 104
-3 104 -7 -1 -44 -11 -51 -88 -58 -107 -9 -391 12 -548 40 -140 26 -314 74
-459 126 -121 44 -415 193 -550 278 -99 63 -110 72 -108 97 4 55 10 56 60 21
27 -19 87 -57 135 -86z m-5748 22 c5 -11 -4 -28 -28 -52 -34 -34 -35 -34 -61
-17 l-27 18 48 33 c58 39 60 40 68 18z m5604 -67 l44 -30 -24 -18 c-29 -22
-35 -20 -70 23 -28 34 -31 78 -4 61 6 -4 31 -20 54 -36z m-7908 -35 c0 -21
-67 -122 -91 -136 -8 -6 -119 27 -119 35 0 3 19 17 43 32 23 15 67 47 97 72
57 46 70 45 70 -3z m370 14 c21 -11 33 -27 41 -58 6 -23 26 -90 44 -148 l32
-106 -27 -32 -26 -33 -77 32 -77 32 -20 71 c-12 40 -25 85 -30 100 -8 25 -4
36 38 93 26 35 53 64 60 64 7 0 26 -7 42 -15z m1864 -105 c65 -49 124 -90 131
-90 18 0 25 -37 9 -50 -7 -7 -19 -8 -26 -4 -14 8 -256 191 -273 206 -10 9 10
28 30 28 6 0 64 -40 129 -90z m7996 34 c41 -31 85 -61 98 -67 12 -5 22 -14 22
-18 0 -4 -27 -16 -60 -27 l-59 -20 -50 66 c-39 53 -48 73 -44 95 3 15 8 27 12
27 3 0 40 -25 81 -56z m-362 -21 l49 -66 -29 -96 c-15 -52 -32 -99 -36 -103
-4 -4 -39 -20 -79 -37 l-72 -29 -26 34 -26 34 27 85 c15 46 31 82 36 79 4 -3
5 2 2 10 -3 8 1 39 10 69 12 43 22 56 48 69 18 9 36 17 39 17 4 1 29 -29 57
-66z m-7528 36 c0 -18 -2 -19 -15 -9 -15 12 -12 30 6 30 5 0 9 -10 9 -21z
m-2180 -54 c22 -12 32 -29 50 -87 37 -123 37 -126 -12 -190 -23 -32 -50 -58
-58 -58 -8 0 -45 12 -82 27 l-66 27 -25 86 c-14 47 -27 93 -29 102 -2 9 19 46
46 82 l49 65 49 -20 c28 -11 62 -26 78 -34z m7894 42 c16 -12 4 -24 -124 -122
-114 -86 -146 -106 -159 -98 -23 14 -20 47 4 52 18 3 121 76 215 153 40 32 40
32 64 15z m-234 -32 c0 -7 -7 -15 -15 -19 -16 -6 -19 3 -9 28 7 18 24 12 24
-9z m-5761 -48 c36 -27 104 -79 151 -115 47 -36 87 -67 89 -68 3 -3 -21 -34
-81 -102 l-29 -33 -37 29 c-58 45 -61 46 -82 20 -28 -34 -25 -44 25 -78 l46
-31 -33 -41 c-56 -68 -56 -67 -28 -88 14 -11 30 -20 36 -20 7 0 76 77 155 171
136 163 144 170 152 145 8 -23 -5 -42 -137 -200 -81 -96 -150 -178 -156 -181
-5 -3 -33 12 -61 35 -28 22 -58 44 -67 49 -13 7 -9 17 28 61 l44 53 -28 23
c-15 13 -30 24 -34 24 -4 0 -25 -20 -45 -45 -21 -25 -42 -45 -46 -45 -4 0 -30
16 -56 36 l-47 37 -24 -29 c-13 -16 -23 -31 -23 -34 0 -3 27 -25 60 -49 60
-43 61 -44 38 -57 -21 -11 -28 -9 -62 19 -67 55 -66 55 -93 22 l-24 -30 37
-31 37 -31 -29 -6 c-23 -4 -39 2 -70 26 -22 17 -42 32 -43 33 -5 3 178 218
187 222 4 1 28 -14 54 -34 47 -36 48 -37 68 -18 43 38 41 48 -12 88 l-50 37
21 27 c56 72 55 70 29 98 -13 13 -28 23 -34 22 -13 -3 -59 -56 -286 -328 -199
-238 -185 -217 -165 -239 16 -18 15 -19 -10 -25 -21 -6 -33 -2 -50 16 l-23 23
150 180 c83 99 199 237 258 307 58 70 109 128 114 128 4 0 37 -23 72 -51 l65
-51 -36 -49 -36 -49 24 -20 c33 -28 42 -25 81 22 l35 42 53 -37 53 -37 23 22
c13 12 23 27 23 33 0 7 -67 64 -150 126 -140 107 -148 114 -127 125 25 14 19
17 106 -49z m-1549 28 c0 -29 -34 -36 -44 -9 -10 27 -7 34 19 34 20 0 25 -5
25 -25z m9640 -37 c23 -29 45 -59 47 -66 3 -7 -7 -57 -22 -112 l-28 -99 -75
-30 c-41 -17 -78 -29 -82 -26 -4 2 -26 29 -50 60 -39 51 -42 58 -35 97 4 24
17 72 29 107 l21 65 65 27 c36 15 70 28 77 28 6 1 30 -23 53 -51z m-1960 11
c13 -8 11 -12 -9 -27 -13 -9 -82 -61 -153 -116 l-129 -99 30 -30 29 -30 49 35
49 35 38 -44 c20 -23 40 -43 44 -43 4 0 20 11 37 24 l29 24 -38 46 c-21 26
-37 49 -35 51 2 2 33 26 69 54 l65 50 22 -22 c12 -12 130 -152 263 -312 l241
-290 -21 -17 c-24 -19 -55 -24 -65 -9 -3 5 -1 12 5 16 5 3 10 10 10 14 0 4
-64 84 -141 177 -78 93 -182 217 -231 276 l-90 108 -29 -20 c-15 -12 -30 -24
-33 -28 -3 -5 13 -29 35 -54 l39 -46 -47 -38 c-27 -21 -50 -40 -52 -41 -6 -4
50 -63 59 -63 4 0 28 16 53 35 l45 35 84 -97 c121 -142 116 -126 60 -165 -39
-29 -51 -33 -70 -25 -22 10 -22 10 10 38 27 22 31 31 22 45 -23 38 -41 40 -81
8 -21 -17 -44 -34 -51 -38 -13 -8 -52 1 -52 12 0 4 27 28 60 52 33 25 60 48
60 51 0 3 -11 16 -25 29 l-25 24 -52 -37 -53 -36 -43 49 -43 50 -30 -22 c-16
-12 -29 -26 -29 -31 0 -5 18 -29 40 -54 l39 -45 -27 -22 c-15 -12 -46 -36 -68
-54 l-41 -32 -148 176 c-81 97 -148 181 -148 188 0 6 1 22 2 36 l1 25 24 -30
c17 -22 200 -239 272 -324 4 -5 64 39 64 48 0 5 -18 29 -40 54 l-40 45 47 39
46 40 -19 26 c-10 15 -23 27 -27 27 -5 0 -28 -13 -52 -30 -24 -16 -46 -30 -49
-30 -3 0 -28 28 -56 61 -50 60 -51 63 -33 79 39 38 295 230 306 230 7 0 19 -5
27 -11z m-8359 -28 l66 -22 27 -88 c14 -48 26 -95 26 -104 0 -10 -19 -44 -42
-77 -49 -68 -49 -68 -151 -23 -55 25 -58 28 -73 82 -8 31 -19 67 -24 81 -4 14
-11 33 -14 42 -6 21 90 142 107 135 7 -2 42 -14 78 -26z m-188 -35 c-19 -27
-26 -29 -58 -17 -17 7 -14 11 25 28 25 11 47 19 48 17 2 -1 -4 -14 -15 -28z
m10801 -37 c25 -28 46 -59 46 -68 0 -9 -13 -56 -28 -106 l-28 -90 -77 -32 -76
-32 -50 67 -49 67 27 100 28 99 64 22 c35 12 71 23 81 23 9 1 37 -22 62 -50z
m-8724 36 c0 -2 -26 -35 -58 -72 -59 -69 -223 -265 -322 -386 -30 -37 -59 -67
-63 -67 -5 0 -36 21 -70 47 -34 25 -64 48 -66 49 -2 2 13 25 33 53 l36 49 -26
21 c-15 12 -30 21 -33 21 -4 0 -24 -20 -44 -45 l-38 -45 -52 39 -52 40 -27
-26 c-16 -15 -28 -30 -28 -34 0 -4 83 -69 184 -145 102 -76 183 -141 180 -146
-17 -27 -65 0 -243 135 l-188 142 17 25 c10 14 35 45 56 68 l39 44 45 -36 c25
-20 50 -36 57 -36 6 0 21 13 32 29 l20 28 -47 34 -47 34 38 3 c25 2 45 -2 56
-12 24 -22 33 -20 65 13 42 43 71 47 119 15 l41 -27 18 23 c10 12 18 30 18 39
0 12 14 21 45 29 25 7 50 12 56 12 12 0 -121 -158 -134 -159 -4 -1 -26 13 -49
29 -22 17 -45 30 -50 30 -23 0 -62 -69 -40 -70 4 -1 24 -15 45 -33 l38 -33
-22 -24 c-12 -14 -31 -35 -41 -46 -19 -22 -19 -22 17 -50 l37 -28 20 24 c175
224 338 411 373 429 41 20 55 25 55 16z m8837 -57 c-23 -15 -46 -8 -66 21
l-21 29 50 -21 c33 -14 46 -24 37 -29z m-10999 16 l50 -16 25 -87 c15 -47 28
-93 29 -103 3 -16 -87 -148 -100 -148 -4 0 -41 17 -82 38 l-75 37 -22 80 c-12
44 -22 89 -22 100 0 31 49 83 94 99 51 19 45 19 103 0z m9004 -103 c147 -183
302 -361 313 -361 6 0 22 11 35 25 l23 24 -38 47 c-21 25 -34 49 -28 52 41 28
83 66 83 75 0 13 -40 57 -53 57 -5 0 -28 -16 -51 -35 l-43 -35 -29 33 c-56 60
-116 137 -107 137 28 0 101 -33 97 -44 -2 -6 7 -23 21 -36 l25 -24 31 23 c41
30 90 23 134 -19 31 -30 31 -30 50 -10 18 20 64 27 79 13 4 -4 -11 -24 -34
-43 l-41 -35 28 -27 28 -27 44 34 c24 19 47 35 51 35 11 0 110 -115 110 -126
-1 -5 -56 -50 -123 -100 -67 -51 -151 -115 -187 -143 -57 -44 -69 -49 -95 -43
-28 8 -23 13 159 151 l187 143 -27 29 c-15 16 -31 29 -34 29 -4 0 -28 -17 -54
-37 -42 -32 -50 -35 -60 -22 -6 9 -23 30 -38 48 l-28 32 -30 -21 c-16 -12 -30
-25 -30 -29 0 -4 16 -26 36 -50 20 -23 35 -44 33 -46 -27 -25 -135 -102 -140
-99 -4 2 -98 113 -210 246 -111 134 -211 253 -222 265 l-20 23 46 -16 c38 -13
58 -30 109 -93z m-9572 68 c19 -5 52 -9 73 -9 20 0 37 -3 37 -6 0 -13 -53 -74
-65 -74 -31 0 -102 41 -113 65 -18 38 -15 47 11 39 12 -4 38 -11 57 -15z
m11762 -53 c15 -17 27 -38 28 -46 0 -8 -12 -56 -26 -106 l-26 -92 -70 -31
c-39 -17 -76 -31 -82 -31 -6 1 -33 30 -59 66 l-48 64 27 93 c15 50 31 97 36
102 5 6 30 17 56 26 42 14 52 14 92 1 25 -8 57 -29 72 -46z m-11407 44 c-3 -5
-15 -10 -25 -10 -10 0 -22 5 -25 10 -4 6 7 10 25 10 18 0 29 -4 25 -10z m-76
-33 l54 -22 24 -90 c13 -49 22 -99 19 -111 -3 -11 -20 -38 -37 -60 -17 -21
-34 -46 -39 -53 -7 -13 -19 -11 -77 12 -37 15 -74 31 -81 35 -12 8 -61 162
-62 196 0 10 18 40 41 67 48 57 72 61 158 26z m11949 -18 c-18 -32 -34 -46
-71 -61 l-49 -18 -19 22 c-42 50 -42 57 -2 63 21 3 63 11 93 19 30 7 59 14 63
15 5 0 -2 -18 -15 -40z m-384 12 c19 -7 19 -8 -2 -13 -12 -4 -26 0 -33 8 -13
16 2 18 35 5z m179 -47 c61 -63 62 -68 30 -179 l-29 -99 -68 -28 c-38 -15 -75
-28 -82 -28 -7 0 -31 26 -54 58 -47 65 -47 77 -12 197 l21 70 58 22 c80 30 96
28 136 -13z m-10659 -4 l73 -31 22 -72 c38 -132 39 -130 -9 -192 -24 -31 -47
-58 -51 -61 -5 -3 -42 9 -82 26 l-74 30 -26 90 c-15 49 -27 96 -27 105 0 16
85 135 96 135 3 0 38 -14 78 -30z m189 -104 c20 -68 37 -128 37 -134 0 -7 -10
-7 -30 1 -26 10 -33 21 -46 67 -9 30 -22 75 -29 100 -11 39 -10 48 4 67 9 12
18 22 21 23 3 0 22 -56 43 -124z m-1532 77 c24 -7 81 -201 67 -227 -14 -25
-20 -16 -68 109 -23 61 -45 116 -48 124 -4 11 -1 13 14 7 10 -5 26 -10 35 -13z
m10903 -47 c25 -33 46 -66 46 -73 0 -8 -12 -55 -27 -105 l-27 -90 -53 -24
c-105 -48 -96 -49 -145 14 -25 31 -47 62 -51 67 -4 9 47 205 56 210 24 13 144
63 149 62 3 -1 27 -29 52 -61z m-9260 -12 c-58 -66 -58 -66 -66 -39 -11 41 44
105 90 105 l34 0 -58 -66z m210 54 c-5 -7 -55 -69 -113 -137 -96 -114 -105
-122 -113 -101 -7 19 -2 30 25 59 18 20 62 71 97 114 47 56 71 77 88 77 16 0
21 -4 16 -12z m8806 -47 c0 -9 -7 -38 -15 -66 -9 -27 -20 -66 -25 -86 -7 -27
-18 -40 -40 -49 -17 -7 -32 -11 -34 -9 -2 2 15 64 38 137 40 132 40 134 58
112 10 -12 18 -30 18 -39z m-9581 -9 l55 -27 23 -79 c13 -44 23 -91 23 -104 0
-13 -21 -50 -47 -83 -50 -64 -52 -65 -124 -28 -55 27 -94 84 -115 165 l-18 71
47 66 c53 74 47 74 156 19z m11091 33 c0 -11 -92 -240 -100 -249 -5 -4 -13 0
-18 11 -8 14 -4 41 14 102 13 46 24 89 24 95 0 7 15 20 33 29 34 17 47 20 47
12z m-1768 -126 c67 -80 96 -122 92 -133 -11 -29 1 -41 -197 197 -48 58 -49
58 -21 55 21 -2 50 -30 126 -119z m114 73 c28 -33 30 -41 20 -61 -12 -22 -13
-22 -51 26 -21 26 -43 54 -48 61 -7 9 -2 12 19 12 21 0 38 -11 60 -38z m671
-34 c22 -29 43 -59 47 -66 13 -21 -23 -140 -56 -187 -22 -31 -45 -50 -81 -64
-27 -12 -55 -21 -61 -21 -18 1 -96 116 -96 141 1 31 44 177 56 188 10 11 124
59 140 60 7 1 29 -23 51 -51z m-7734 23 c3 -14 -23 -53 -95 -138 -55 -65 -102
-124 -105 -131 -6 -15 24 -52 43 -52 7 0 30 20 51 45 20 25 40 45 44 45 4 0
28 -16 54 -35 30 -23 53 -34 64 -30 15 5 21 -4 34 -55 l15 -60 -30 18 c-30 17
-30 17 -54 -13 l-24 -30 23 -20 c13 -11 36 -29 51 -40 l27 -20 -67 -80 c-37
-44 -80 -95 -95 -113 l-29 -33 -46 36 c-26 19 -50 35 -55 35 -4 0 -17 -14 -29
-30 l-22 -31 24 -18 c12 -10 34 -28 48 -39 l24 -20 -39 -47 -39 -48 28 -23
c15 -13 31 -24 35 -24 4 0 39 37 76 83 38 45 107 127 154 181 84 98 85 99 93
71 6 -25 -4 -41 -112 -169 -65 -78 -138 -163 -162 -189 l-43 -48 -45 37 c-25
20 -56 45 -69 55 l-24 19 39 46 38 47 -23 18 c-32 27 -45 24 -80 -17 -50 -56
-75 -14 -26 45 l26 30 -46 37 c-25 21 -45 42 -45 47 0 4 16 29 35 54 37 48 36
61 -8 84 -14 8 -23 7 -37 -6 -16 -14 -18 -14 -24 0 -5 13 29 75 41 75 7 0 108
-77 120 -91 10 -12 5 -23 -23 -58 -18 -24 -34 -47 -34 -51 0 -3 12 -17 26 -31
l25 -24 46 52 45 53 45 -35 c25 -19 49 -35 53 -35 3 0 17 11 30 25 l23 25 -28
22 c-16 13 -121 93 -234 178 -186 141 -206 159 -209 188 l-3 32 108 -82 c59
-45 173 -131 252 -191 l143 -109 27 26 26 27 -25 21 c-14 11 -38 31 -54 43
l-30 24 42 45 c23 25 42 49 42 53 0 5 -15 18 -33 29 l-32 21 -45 -49 -45 -49
-57 46 c-32 26 -58 51 -58 57 0 6 44 63 98 127 54 64 109 131 122 149 27 37
36 40 43 13z m-2688 -30 l70 -29 22 -64 c12 -34 22 -66 22 -70 2 -18 -32 -6
-52 18 -33 38 -88 42 -161 10 -32 -14 -60 -26 -61 -26 -2 0 -8 13 -13 30 -10
27 -6 35 40 95 28 36 53 65 57 65 4 0 38 -13 76 -29z m8060 -166 l117 -139
-28 -23 c-16 -13 -46 -35 -68 -50 l-39 -27 -42 48 -42 49 -32 -22 c-17 -12
-31 -25 -31 -29 1 -4 19 -27 41 -52 l39 -45 -22 -19 c-13 -10 -36 -29 -52 -41
l-29 -23 19 -26 c11 -14 23 -26 28 -26 8 0 160 113 410 304 55 42 100 76 102
76 2 0 -3 -17 -10 -37 -11 -32 -45 -62 -227 -200 -117 -90 -220 -170 -228
-178 -14 -13 -13 -18 11 -41 l26 -27 47 39 47 38 45 -47 c24 -26 47 -47 51
-47 10 1 52 37 52 46 0 4 -16 27 -36 50 -19 24 -33 48 -30 52 3 4 31 29 64 55
l59 46 26 -27 c18 -19 25 -34 21 -49 -6 -22 -6 -22 -23 -3 -16 20 -16 20 -48
-1 -18 -12 -33 -25 -33 -30 0 -5 16 -27 36 -49 26 -28 34 -45 29 -60 -3 -11
-9 -20 -13 -20 -4 0 -23 -14 -42 -30 l-35 -29 29 -30 c24 -25 27 -34 19 -57
l-9 -27 -33 42 c-18 22 -38 41 -45 41 -7 0 -23 -11 -36 -25 l-24 -25 25 -28
c56 -61 56 -56 -17 -111 -37 -28 -70 -51 -74 -51 -5 0 -77 83 -161 185 -109
132 -153 192 -151 207 4 33 12 35 34 8 53 -66 259 -308 275 -322 17 -15 20
-15 47 7 l30 24 -37 47 c-36 46 -44 64 -29 64 4 0 25 16 47 34 l40 34 -29 31
-29 30 -45 -35 c-25 -19 -48 -34 -52 -34 -9 0 -194 220 -188 224 2 1 24 19 51
40 l47 38 -22 28 c-26 33 -40 36 -58 15 -24 -29 -28 -15 -13 45 14 53 18 59
37 54 15 -3 34 6 65 32 l43 37 47 -53 47 -54 27 20 c14 10 27 25 27 31 0 7
-45 66 -100 132 -76 89 -100 125 -100 147 0 28 0 28 19 9 10 -11 71 -83 136
-160z m2658 91 c47 -64 55 -88 38 -116 -8 -12 -17 -11 -58 7 -78 35 -90 36
-138 13 -25 -12 -45 -26 -45 -31 0 -5 -9 -9 -20 -9 -22 0 -22 3 5 93 11 38 17
43 86 73 41 18 77 32 80 33 3 1 26 -28 52 -63z m-10976 -14 c31 -12 45 -24 53
-46 13 -38 15 -35 -25 -52 -26 -10 -41 -12 -55 -4 -32 17 -58 11 -82 -20 -16
-20 -34 -31 -53 -33 -26 -2 -31 2 -39 35 -8 34 -6 40 39 101 l48 66 36 -15
c20 -9 55 -23 78 -32z m2991 -72 c-2 -5 -13 0 -26 10 -20 17 -22 22 -11 42 12
23 12 23 26 -11 8 -18 13 -37 11 -41z m8276 8 c39 -53 46 -67 40 -93 -3 -16
-10 -34 -14 -39 -15 -15 -67 4 -78 29 -13 29 -52 41 -82 25 -25 -13 -90 4 -90
23 1 33 30 61 90 87 36 15 70 28 77 29 6 1 32 -27 57 -61z m-10181 -10 c4 -7
25 -70 46 -140 l39 -127 -30 -41 c-16 -22 -31 -40 -32 -40 -1 0 -37 15 -80 33
l-79 33 -24 85 c-12 46 -23 93 -23 105 0 12 21 48 46 81 l47 61 41 -19 c22
-10 44 -24 49 -31z m-1416 16 c80 -32 89 -39 97 -80 7 -30 5 -31 -31 -38 -21
-3 -51 -6 -67 -6 -25 0 -27 2 -15 16 8 10 23 14 40 12 16 -3 26 -1 23 4 -10
16 -47 8 -77 -18 -34 -29 -37 -27 -63 49 -15 45 -15 49 2 68 9 10 19 19 20 19
2 0 34 -12 71 -26z m1754 -89 c149 -113 151 -115 113 -115 -32 0 -55 13 -152
87 l-115 87 -23 -30 c-13 -16 -24 -31 -23 -34 0 -3 23 -22 50 -43 49 -37 50
-39 33 -58 -9 -11 -30 -19 -47 -19 -25 0 -28 2 -17 15 11 13 7 21 -26 50 -21
19 -42 34 -46 35 -18 1 -5 29 38 83 25 31 50 57 55 57 5 0 77 -52 160 -115z
m6730 79 c11 -14 10 -19 -10 -35 -29 -24 -30 -23 -24 19 6 36 14 40 34 16z
m-7859 -25 c17 -23 28 -29 45 -24 54 13 70 -11 144 -213 135 -367 278 -761
287 -793 11 -39 2 -58 -36 -78 -17 -9 -21 -18 -17 -32 17 -54 -65 -132 -190
-178 -76 -28 -258 -61 -342 -61 -70 0 -73 1 -88 30 l-16 30 78 0 c105 0 250
32 337 73 72 34 135 88 138 116 0 9 2 21 2 26 1 6 14 22 29 37 17 18 27 38 27
57 0 17 -36 133 -81 258 -44 125 -108 305 -141 398 -33 94 -67 182 -74 197
-15 29 -61 58 -92 58 -10 0 -27 9 -37 20 -10 11 -34 25 -54 31 -33 10 -45 7
-126 -29 -211 -92 -442 -141 -459 -96 -14 37 -7 41 97 52 117 13 271 56 396
112 109 49 143 50 173 9z m9599 -40 l53 -62 -48 -43 c-31 -28 -46 -50 -42 -59
8 -21 -47 -20 -65 1 -11 14 -10 19 9 34 12 10 36 30 53 44 l32 27 -23 24 c-13
14 -27 25 -32 25 -5 0 -59 -38 -122 -85 -105 -79 -146 -99 -160 -76 -4 5 55
55 129 111 74 56 137 105 140 111 11 17 23 9 76 -52z m263 2 c25 -33 46 -68
46 -78 0 -24 -48 -185 -58 -194 -11 -10 -152 -63 -155 -58 -2 2 -15 20 -30 39
l-26 35 42 139 41 139 40 18 c23 10 44 19 47 19 3 0 27 -27 53 -59z m1366 -44
c-22 -59 -42 -71 -60 -38 -15 28 -47 35 -75 17 -41 -27 -58 -21 -50 17 9 42 9
41 90 75 l70 29 23 -22 23 -21 -21 -57z m-11556 65 c5 -9 -65 -35 -72 -27 -3
3 1 11 8 20 13 16 55 21 64 7z m821 -23 c82 -35 73 -21 111 -167 l18 -70 -43
-57 c-23 -31 -48 -58 -55 -61 -7 -3 -46 10 -86 28 l-73 33 -27 98 -27 98 49
64 c27 36 51 65 54 65 2 0 38 -14 79 -31z m10206 -19 c161 -64 293 -99 402
-107 71 -5 87 -9 87 -22 -1 -39 -15 -44 -102 -38 -97 7 -216 40 -347 96 -115
50 -148 52 -194 11 -19 -16 -44 -30 -56 -30 -59 0 -68 -15 -149 -245 -33 -93
-96 -272 -141 -397 -45 -125 -81 -243 -81 -261 0 -23 8 -41 25 -57 14 -13 25
-34 25 -46 0 -95 246 -203 470 -205 44 0 80 -5 80 -9 0 -5 -5 -21 -10 -36
l-11 -27 -87 6 c-289 19 -522 124 -522 236 0 30 -4 40 -20 44 -11 3 -24 16
-30 29 -11 24 5 71 284 828 30 80 57 155 61 168 10 33 49 56 85 48 18 -3 30
-1 30 5 0 15 47 59 63 59 8 0 70 -22 138 -50z m-8926 7 c16 -13 14 -15 -24
-24 -45 -12 -49 -9 -24 19 19 22 24 22 48 5z m8380 -59 c52 -71 52 -73 15
-197 l-23 -73 -74 -34 c-41 -19 -76 -34 -77 -34 -2 0 -26 29 -54 65 l-50 65
25 87 c13 48 28 94 33 103 7 12 118 69 157 80 0 0 22 -28 48 -62z m751 45 c15
-15 15 -18 2 -21 -22 -4 -70 17 -63 28 10 16 42 12 61 -7z m-2107 -61 c-5 -2
-25 2 -45 8 l-37 13 24 18 c24 18 24 18 46 -9 12 -15 17 -28 12 -30z m2356 12
c21 -22 14 -27 -29 -19 -36 7 -46 19 -23 28 22 10 35 7 52 -9z m-10914 -14
c36 -13 38 -17 67 -114 28 -95 29 -103 14 -128 -9 -16 -19 -28 -23 -28 -4 0
-19 33 -34 73 -15 39 -40 105 -56 145 -15 42 -22 72 -16 69 7 -2 28 -10 48
-17z m1879 -420 c57 -228 105 -423 108 -433 3 -13 -16 -27 -90 -62 -117 -55
-318 -123 -377 -127 -40 -3 -45 0 -52 22 -6 23 -7 22 -8 -9 -1 -24 -5 -32 -15
-28 -7 3 -19 0 -25 -6 -7 -7 -90 -12 -234 -15 l-224 -5 -10 39 c-6 22 -54 183
-108 359 -116 382 -145 478 -145 488 0 4 60 7 133 7 301 0 590 58 872 174 33
13 63 21 66 18 3 -4 52 -194 109 -422z m8167 268 c-59 -162 -58 -158 -68 -158
-5 0 -15 12 -22 28 -13 24 -12 37 12 121 27 92 28 94 72 116 24 13 45 22 47
20 2 -2 -17 -59 -41 -127z m-1650 66 c240 -93 465 -135 792 -149 80 -3 146 -7
147 -8 2 -1 -56 -197 -129 -436 -117 -387 -134 -434 -155 -442 -32 -12 -263
-11 -359 2 -98 13 -116 18 -110 32 2 7 -2 18 -10 25 -12 12 -13 10 -7 -12 3
-14 2 -26 -3 -26 -27 0 -219 56 -297 87 -78 31 -203 88 -215 99 -6 5 213 874
220 874 4 0 60 -21 126 -46z m-7680 -292 c14 -46 23 -85 21 -87 -2 -2 -21 6
-42 18 -36 20 -41 28 -62 107 -29 105 -29 118 -2 147 l22 23 19 -62 c10 -35
30 -100 44 -146z m-226 172 c35 -14 67 -29 71 -33 4 -3 20 -51 36 -106 l29
-100 -50 -62 c-28 -35 -52 -63 -54 -63 -2 0 -37 14 -77 31 l-74 31 -26 92
c-14 50 -26 98 -26 106 0 17 86 130 98 130 5 0 37 -12 73 -26z m8920 -36 c24
-30 24 -36 -7 -144 -26 -87 -29 -92 -63 -105 -20 -8 -39 -15 -42 -17 -4 -1 4
30 17 70 12 40 33 106 44 146 12 39 24 72 27 72 3 0 13 -10 24 -22z m255 -30
c22 -29 44 -59 48 -65 4 -7 -5 -58 -20 -114 l-27 -101 -56 -25 c-98 -43 -100
-43 -153 30 l-47 64 29 98 c17 54 31 100 33 102 4 3 139 61 147 62 3 1 24 -23
46 -51z m-9461 -10 l75 -32 26 -86 c14 -47 27 -92 29 -100 2 -8 -18 -45 -45
-82 -48 -65 -50 -66 -79 -55 -26 9 -35 23 -55 82 -38 108 -39 114 -22 140 18
27 54 33 74 13 19 -19 14 -55 -10 -72 -16 -11 -18 -16 -7 -16 38 0 53 58 22
92 -27 30 -69 23 -90 -16 -9 -16 -13 -11 -32 38 l-21 57 26 35 c15 19 28 34
31 34 2 0 37 -14 78 -32z m-585 -5 c0 -5 -32 -27 -70 -51 -39 -24 -70 -47 -70
-52 0 -23 23 -17 77 18 110 73 151 94 168 85 11 -7 -30 -38 -172 -127 -261
-166 -249 -160 -256 -141 -4 10 12 27 54 56 40 27 58 44 51 51 -7 7 -29 -2
-65 -25 -30 -20 -58 -33 -61 -30 -14 15 -2 30 50 63 44 28 55 39 51 57 -3 17
4 25 35 39 32 14 41 15 48 4 6 -10 14 -8 38 9 53 37 122 62 122 44z m10322
-41 c26 -39 26 -39 -7 -129 -3 -9 -13 -5 -29 12 -29 29 -43 31 -74 9 -26 -18
-29 -60 -5 -86 17 -19 48 -24 57 -9 4 5 -3 7 -14 4 -28 -7 -50 14 -50 48 0 33
29 54 61 44 25 -8 45 -55 28 -66 -6 -4 -9 -11 -5 -17 3 -6 -5 -42 -20 -80 -23
-64 -48 -92 -83 -92 -4 0 -28 29 -53 64 l-47 64 26 94 c14 51 30 98 36 104 9
9 134 69 153 74 1 0 13 -17 26 -38z m-10113 -18 c41 -52 32 -64 -102 -147
-149 -91 -170 -108 -159 -125 6 -9 43 9 143 72 74 46 136 82 137 81 16 -14
-27 -52 -133 -119 -69 -43 -125 -85 -125 -92 0 -8 3 -14 8 -14 4 0 54 29 112
65 57 35 106 63 108 60 5 -5 -28 -54 -96 -138 -81 -101 -257 -245 -276 -227
-2 3 -13 28 -25 57 l-20 51 59 39 c56 36 76 63 47 63 -7 0 -36 -16 -65 -35
-48 -33 -72 -38 -72 -16 0 5 29 28 64 51 43 27 63 46 59 56 -7 18 -3 19 -70
-20 -32 -19 -61 -31 -64 -28 -14 17 -41 106 -33 109 5 2 108 66 229 143 121
77 228 140 237 140 9 0 26 -12 37 -26z m10602 -59 c58 -36 109 -65 113 -65 3
0 6 7 6 15 0 8 -32 33 -70 56 -39 23 -73 45 -76 50 -11 18 63 -4 110 -33 36
-21 51 -26 57 -17 5 9 16 8 45 -4 31 -12 39 -20 37 -39 -2 -18 8 -30 52 -58
52 -33 63 -48 49 -63 -4 -3 -29 10 -58 29 -28 18 -56 34 -63 34 -27 0 -11 -21
47 -60 41 -28 58 -45 53 -56 -3 -8 -9 -14 -12 -12 -4 2 -103 63 -219 137 -140
89 -208 137 -200 143 18 11 13 14 129 -57z m1 -88 c106 -68 212 -134 236 -147
23 -13 42 -28 42 -34 0 -6 -10 -32 -23 -59 l-22 -47 -58 35 c-67 41 -67 41
-67 17 0 -10 22 -30 55 -50 51 -31 65 -49 49 -65 -4 -3 -31 9 -60 28 -58 38
-74 42 -74 22 0 -6 27 -29 60 -49 l60 -38 -21 -52 c-11 -29 -24 -57 -29 -62
-11 -12 -161 106 -230 181 -66 71 -136 170 -127 180 4 3 31 -10 59 -29 61 -41
142 -88 151 -88 4 0 7 6 7 13 0 7 -53 46 -117 87 -112 69 -143 93 -143 112 0
17 22 6 146 -73 97 -61 129 -77 135 -67 5 7 9 15 9 18 0 3 -66 45 -145 94 -90
55 -145 95 -145 105 0 15 46 91 55 91 2 0 91 -55 197 -123z m-7909 -85 c-54
-64 -105 -125 -113 -136 -13 -17 -12 -21 15 -42 17 -13 33 -24 36 -24 4 0 22
20 40 45 19 24 38 45 43 45 5 0 28 -16 52 -35 23 -19 45 -35 49 -35 4 0 15 10
25 22 l18 23 7 -40 c3 -22 10 -49 15 -60 15 -35 22 -65 14 -65 -4 0 -20 11
-34 25 l-26 25 -29 -30 -30 -31 35 -27 c18 -15 40 -32 48 -38 13 -9 6 -22 -38
-77 -30 -37 -55 -67 -57 -67 -3 0 -399 300 -457 346 -32 25 -54 69 -42 81 4 5
173 -120 385 -284 52 -40 100 -73 107 -73 7 0 22 12 34 27 l21 27 -43 37 c-24
21 -47 38 -52 39 -4 0 8 20 29 45 41 50 41 63 0 85 -26 14 -28 13 -65 -30
l-37 -44 -72 53 c-62 46 -70 55 -59 70 7 9 69 83 137 165 121 146 125 149 134
122 8 -24 1 -37 -90 -144z m2737 153 c354 -26 569 -53 865 -111 417 -82 775
-185 1080 -312 64 -27 70 -31 68 -57 -1 -15 -5 -30 -8 -33 -3 -3 -57 16 -120
41 -63 26 -120 47 -128 47 -11 0 -67 -114 -67 -136 0 -2 20 -13 45 -24 44 -19
55 -33 35 -45 -5 -3 -61 11 -125 32 -93 30 -115 41 -115 57 0 16 5 18 33 13
17 -4 42 -9 53 -12 19 -6 25 2 49 65 15 39 26 73 24 75 -13 11 -354 114 -360
108 -14 -16 -50 -136 -42 -143 4 -4 25 -13 46 -20 27 -8 37 -17 35 -28 -4 -22
-4 -22 -135 13 -84 22 -113 34 -113 46 0 25 7 27 55 16 25 -6 48 -8 51 -4 4 3
15 36 25 72 l18 66 -22 9 c-26 11 -318 80 -338 80 -10 0 -21 -23 -32 -64 -9
-35 -17 -69 -17 -74 0 -6 23 -15 50 -22 31 -7 50 -17 50 -26 0 -24 -21 -24
-140 0 -98 20 -115 26 -115 42 0 20 9 21 69 10 l33 -6 12 56 c17 88 15 102
-16 108 -86 19 -339 53 -344 48 -8 -8 -28 -145 -23 -151 2 -2 23 -6 49 -8 40
-5 45 -8 45 -30 0 -18 -4 -23 -17 -19 -10 2 -58 10 -108 16 -123 15 -135 18
-135 35 0 11 13 15 54 15 62 0 66 6 66 101 l0 56 -62 6 c-35 4 -120 9 -189 13
l-126 7 -7 -73 c-4 -40 -4 -76 1 -81 4 -4 28 -9 53 -11 32 -2 45 -7 45 -18 0
-20 -37 -23 -162 -15 -92 6 -103 9 -103 26 0 16 8 19 55 19 l55 0 0 80 0 80
-182 0 c-101 0 -188 -4 -195 -8 -8 -5 -9 -29 -5 -82 l7 -75 50 -1 c36 0 51 -5
53 -16 2 -11 -8 -17 -35 -22 -62 -10 -223 -7 -223 4 0 6 0 13 0 18 0 4 21 9
47 12 l48 5 -3 45 c-1 25 -5 60 -8 79 l-5 34 -77 -6 c-42 -4 -128 -12 -190
-19 l-113 -12 7 -70 c4 -39 9 -75 12 -80 2 -4 26 -5 52 -2 39 5 49 3 54 -10 4
-10 3 -20 -1 -24 -4 -4 -61 -13 -127 -20 -98 -10 -120 -10 -126 1 -13 20 -5
26 50 33 42 6 50 10 46 24 -2 9 -7 40 -11 67 -3 28 -10 56 -14 63 -6 9 -45 6
-172 -13 -208 -33 -211 -34 -205 -54 3 -9 10 -42 16 -75 l12 -59 49 6 c39 5
51 3 56 -9 3 -8 4 -17 2 -19 -2 -2 -58 -15 -123 -30 -97 -22 -120 -24 -127
-13 -14 22 -11 26 29 33 63 10 65 13 45 93 -12 51 -21 72 -32 72 -29 0 -342
-77 -351 -86 -6 -6 -1 -38 11 -78 l21 -68 39 6 c22 4 46 7 52 9 6 1 13 -7 15
-19 3 -18 -10 -24 -115 -52 -65 -18 -121 -32 -125 -32 -5 0 -8 9 -8 20 0 15
11 22 45 31 25 6 45 14 45 17 0 2 -9 36 -20 73 -15 49 -26 69 -37 69 -22 0
-335 -99 -346 -109 -6 -6 35 -136 47 -148 1 -2 22 4 46 12 44 15 60 13 60 -9
0 -11 -206 -96 -231 -96 -4 0 -10 7 -13 16 -4 11 7 21 43 36 l49 20 -29 66
c-17 37 -33 70 -37 74 -4 4 -56 -13 -117 -37 -60 -25 -112 -41 -116 -37 -4 4
-9 18 -11 32 -4 30 25 45 215 117 512 192 1196 331 1832 372 183 12 205 12
425 -4z m2318 -197 l132 -156 -72 -56 -72 -56 -41 47 -41 46 -32 -23 c-35 -26
-37 -21 26 -91 l23 -26 -51 -39 c-27 -21 -50 -41 -50 -44 1 -3 12 -18 25 -35
l24 -29 40 29 c22 17 133 101 246 189 114 87 208 156 209 155 2 -2 -1 -18 -5
-35 -7 -26 -52 -64 -244 -210 -129 -99 -238 -180 -243 -182 -4 -1 -32 25 -61
59 l-54 62 49 42 49 43 -24 26 c-30 32 -32 32 -70 0 -35 -29 -37 -26 -16 36 8
25 17 58 20 75 6 27 8 28 19 12 18 -24 28 -22 81 19 l47 35 40 -45 c22 -26 44
-46 48 -46 5 0 21 11 36 23 l27 24 -104 124 c-58 68 -108 129 -112 136 -9 15
3 68 13 56 4 -4 66 -79 138 -165z m-6821 108 c1 -1 18 -56 38 -124 40 -132 40
-149 -3 -199 l-27 -31 -77 31 -76 31 -25 86 c-14 47 -27 92 -29 101 -2 9 18
46 44 83 l48 66 52 -21 c29 -11 54 -22 55 -23z m8681 -69 l45 -57 -24 -96
c-13 -52 -26 -99 -29 -104 -3 -5 -39 -23 -80 -39 -81 -33 -82 -33 -123 27
l-26 37 37 125 38 125 44 22 c25 12 51 21 59 20 7 -1 34 -28 59 -60z m-8988 2
c65 -29 71 -35 81 -73 6 -22 19 -67 29 -99 l18 -58 -46 -62 c-25 -34 -47 -64
-49 -66 -1 -2 -38 9 -80 26 l-78 30 -23 69 c-41 125 -40 141 13 207 25 31 50
57 55 57 5 0 41 -14 80 -31z m9274 -73 c25 -33 46 -67 46 -75 0 -9 -12 -56
-27 -104 -25 -83 -29 -90 -66 -109 -22 -11 -57 -26 -78 -33 l-39 -14 -43 57
c-24 31 -46 62 -49 67 -4 6 6 55 22 110 l27 100 74 31 c41 18 77 31 81 30 3 0
27 -28 52 -60z m-9476 -93 c46 -151 36 -159 -17 -15 -22 60 -26 82 -16 82 8 0
22 -28 33 -67z m9556 -70 c-19 -54 -39 -102 -44 -107 -13 -13 38 174 52 191
27 33 25 5 -8 -84z m-8925 -92 l23 -78 -23 -52 c-12 -29 -25 -48 -29 -44 -9
10 -50 156 -50 178 0 16 39 75 50 75 3 0 16 -35 29 -79z m-162 21 c39 -15 42
-19 62 -87 40 -132 39 -136 -13 -204 -26 -34 -49 -61 -51 -61 -2 0 -37 15 -78
34 l-74 34 -22 70 c-38 127 -39 123 15 196 l48 65 35 -16 c20 -8 55 -22 78
-31z m8499 -17 l26 -35 -28 -102 -28 -101 -23 49 c-13 27 -23 56 -23 64 0 16
41 160 46 160 2 0 15 -16 30 -35z m-6883 -113 c87 -66 167 -126 179 -134 21
-14 22 -16 6 -39 -10 -13 -35 -44 -57 -69 l-39 -44 -48 37 -49 38 -22 -26
c-13 -14 -23 -30 -23 -34 0 -4 20 -22 45 -41 49 -37 49 -44 -4 -94 -17 -17
-31 -35 -31 -42 0 -18 61 -59 69 -47 3 6 96 117 205 247 189 224 229 261 213
194 -8 -31 -374 -468 -408 -487 -26 -14 -29 -13 -85 29 -33 24 -61 45 -63 46
-2 2 15 24 38 50 22 26 41 50 41 55 0 4 -14 17 -30 29 l-30 21 -26 -31 c-14
-17 -34 -40 -44 -52 l-17 -22 -45 37 c-25 20 -49 37 -55 37 -5 0 -20 -11 -32
-24 l-23 -24 69 -54 c37 -30 97 -76 132 -103 64 -48 64 -49 38 -58 -24 -8 -39
1 -147 83 l-120 92 -25 -29 -25 -28 23 -20 c12 -11 35 -30 51 -41 l29 -21 -43
-51 c-33 -40 -40 -55 -32 -65 9 -11 -2 -16 -53 -28 -36 -8 -65 -13 -65 -10 0
2 8 13 17 24 17 18 17 20 -12 43 l-30 25 -42 -47 -41 -46 -64 47 c-34 27 -67
52 -72 56 -4 4 108 146 250 316 141 169 259 310 260 312 4 5 144 -99 144 -106
0 -3 -16 -26 -36 -50 -20 -24 -35 -45 -33 -46 2 -1 16 -13 31 -26 l28 -24 40
46 41 46 54 -36 55 -36 20 24 c10 13 19 29 20 35 0 6 -61 58 -136 115 -75 57
-141 109 -148 114 -7 6 -16 25 -19 44 -6 26 -4 31 6 23 6 -5 83 -64 170 -130z
m7151 64 c26 -32 46 -63 46 -70 0 -6 -13 -51 -28 -101 l-27 -90 -65 -32 c-36
-18 -72 -32 -81 -32 -8 -1 -36 28 -62 62 l-46 64 28 99 28 99 74 32 c41 18 77
32 81 30 4 -1 27 -28 52 -61z m-9085 1 l73 -32 29 -98 30 -99 -46 -64 c-25
-35 -53 -64 -62 -64 -15 0 -131 47 -145 60 -10 8 -58 169 -58 194 0 10 18 40
40 66 22 26 40 53 40 59 0 17 19 13 99 -22z m7484 -4 c-4 -28 -26 -48 -154
-145 -82 -62 -149 -118 -149 -124 0 -6 9 -23 21 -38 l21 -26 50 36 49 37 44
-43 43 -43 31 22 c17 12 31 26 31 30 0 4 -16 22 -35 41 -19 19 -35 39 -35 45
0 6 31 34 69 62 l70 52 260 -312 260 -312 -32 -27 c-18 -15 -49 -40 -71 -55
l-39 -28 -36 43 c-41 47 -47 49 -78 23 -28 -23 -28 -29 -5 -54 17 -20 16 -20
-13 -13 -97 23 -103 26 -98 46 4 14 -6 33 -31 60 -20 22 -36 43 -36 48 1 4 23
24 51 46 l50 38 -22 24 c-12 13 -27 24 -32 24 -5 0 -34 -20 -65 -43 -178 -137
-176 -136 -201 -123 -21 12 -17 17 98 104 66 51 123 97 127 103 3 6 -4 21 -16
34 l-23 24 -47 -34 c-26 -19 -52 -35 -56 -35 -5 1 -26 23 -48 50 l-38 49 -29
-21 c-16 -12 -29 -27 -29 -32 1 -6 19 -31 40 -56 l40 -45 -23 -17 c-12 -10
-40 -31 -63 -47 l-41 -30 -31 22 c-43 31 -402 464 -402 485 1 41 16 42 46 3
51 -69 376 -451 383 -451 3 0 19 11 36 24 l29 23 -42 50 -41 50 47 41 47 40
-27 27 -26 28 -47 -34 -47 -34 -54 60 c-30 33 -53 64 -51 69 3 8 369 295 373
292 1 -1 -1 -15 -3 -33z m1892 -73 l46 -60 -22 -83 c-12 -45 -24 -91 -26 -103
-3 -15 -26 -29 -81 -52 -41 -17 -79 -29 -83 -26 -5 3 -29 32 -55 65 l-46 60
29 100 28 101 65 28 c36 16 73 29 82 29 9 1 37 -26 63 -59z m-8884 -141 c-36
-108 -36 -106 -12 -184 15 -48 20 -56 26 -40 28 71 35 85 44 85 14 0 14 0 -5
-46 -57 -137 -101 -217 -115 -208 -10 6 14 58 38 86 13 15 13 24 -7 82 -12 36
-23 66 -24 66 -2 0 -21 -30 -42 -66 -22 -37 -69 -102 -106 -145 l-68 -78 22
-58 c12 -32 23 -60 25 -62 2 -3 16 8 31 22 16 15 31 27 35 27 22 0 -1 -34 -68
-100 -61 -61 -75 -71 -81 -56 -5 12 3 28 25 50 34 35 35 31 -8 139 l-11 27
-49 -30 c-28 -17 -87 -47 -133 -67 -46 -19 -84 -36 -85 -37 -3 -3 56 -159 62
-164 2 -2 18 4 35 13 27 14 34 15 41 3 16 -25 9 -34 -44 -56 -86 -36 -120 -44
-129 -29 -15 23 -8 35 22 42 39 9 43 16 27 56 -8 19 -22 55 -31 81 -17 45 -18
47 -44 37 -15 -6 -84 -13 -155 -16 -145 -7 -135 4 -93 -102 23 -59 32 -67 88
-76 31 -5 57 -29 44 -42 -2 -2 -33 3 -70 11 -81 19 -161 59 -177 87 -6 12 -7
20 -2 17 4 -2 25 -12 45 -23 21 -10 40 -16 43 -13 3 2 -7 37 -22 77 -18 50
-35 78 -52 88 -96 58 -163 109 -180 139 -33 56 -25 57 42 6 84 -66 122 -87
186 -106 139 -41 328 -2 528 110 147 81 313 295 403 519 36 89 36 41 1 -66z
m1042 99 c-11 -13 -111 -132 -222 -266 l-203 -243 -34 26 c-19 14 -50 37 -69
51 -19 15 -35 30 -35 35 0 5 16 26 35 47 l34 39 -29 28 -30 28 -26 -29 c-14
-16 -32 -39 -41 -51 l-15 -22 -54 40 -53 41 -25 -29 -26 -28 23 -20 c13 -11
121 -94 239 -185 119 -90 214 -168 212 -172 -17 -27 -68 4 -290 173 -132 100
-243 184 -247 189 -8 7 84 121 104 128 5 2 26 -9 47 -25 56 -44 57 -44 86 -14
l27 28 -51 41 -50 40 30 7 c24 5 38 1 64 -19 l33 -25 28 29 c17 18 43 31 67
35 33 6 44 3 64 -16 28 -26 50 -20 71 22 8 16 27 28 58 35 l45 12 -37 -47
c-21 -26 -51 -62 -66 -80 l-28 -33 -46 36 c-25 20 -51 36 -57 35 -6 0 -21 -13
-34 -29 l-23 -29 50 -37 50 -38 -34 -47 c-19 -26 -35 -51 -35 -55 1 -17 53
-47 65 -38 13 9 239 278 309 367 22 29 55 56 80 67 55 25 63 24 39 -2z m8682
2 c13 -5 14 -9 5 -9 -8 0 -24 4 -35 9 -13 5 -14 9 -5 9 8 0 24 -4 35 -9z
m-2255 -275 c94 -113 176 -205 181 -205 15 0 59 31 59 42 0 5 -16 29 -35 53
l-35 42 45 37 c25 21 45 41 45 46 0 5 -11 21 -23 36 l-24 27 -48 -37 c-27 -20
-51 -35 -55 -34 -11 5 -132 148 -125 148 27 0 95 -25 95 -35 0 -6 9 -20 20
-30 20 -18 22 -18 53 0 44 26 85 21 124 -17 l31 -30 31 21 c22 16 42 21 68 19
l38 -3 -53 -38 -52 -39 26 -34 26 -34 52 41 51 41 57 -64 c32 -34 57 -65 57
-68 0 -3 -43 -36 -95 -75 -53 -38 -163 -122 -246 -185 -138 -106 -153 -115
-186 -112 l-36 5 30 21 c24 18 451 342 463 353 3 2 -8 16 -23 32 l-28 30 -51
-41 -51 -40 -41 48 -41 47 -27 -18 c-34 -22 -34 -32 4 -78 17 -20 28 -41 24
-47 -3 -5 -33 -30 -66 -56 -52 -40 -62 -44 -76 -32 -13 10 -352 413 -423 502
-12 15 -5 14 37 -7 43 -22 80 -60 223 -232z m809 146 c53 -123 151 -267 244
-362 62 -63 92 -85 178 -127 163 -80 248 -105 354 -106 134 0 235 41 344 140
45 40 48 39 27 -11 -15 -34 -105 -109 -177 -145 -31 -16 -40 -30 -62 -92 -15
-40 -27 -76 -27 -81 0 -4 23 4 50 18 56 28 65 20 20 -18 -35 -30 -125 -65
-188 -74 -42 -6 -44 -5 -34 14 7 13 26 23 50 27 22 3 44 11 50 18 10 14 62
136 62 149 0 3 -60 9 -132 12 -73 4 -144 7 -158 9 -22 3 -27 -4 -53 -76 -31
-84 -29 -96 21 -96 23 0 28 -15 13 -39 -6 -10 -19 -12 -41 -7 -38 7 -150 56
-150 65 0 3 6 13 13 22 11 15 16 15 37 3 14 -7 30 -13 36 -14 6 0 25 36 42 80
l30 81 -41 16 c-23 9 -84 38 -136 65 -51 26 -95 48 -96 48 -2 0 -13 -30 -26
-67 l-22 -67 33 -27 c22 -19 31 -33 26 -44 -5 -15 -9 -14 -33 3 -53 39 -125
119 -121 137 3 15 7 13 31 -9 15 -14 31 -26 36 -26 8 0 41 97 41 121 0 8 -21
35 -46 59 -25 25 -70 85 -101 133 -31 48 -59 84 -64 80 -4 -4 -14 -30 -23 -56
-16 -47 -15 -49 9 -97 26 -52 31 -70 16 -70 -10 0 -106 192 -116 233 -11 44
11 31 29 -18 10 -25 21 -45 26 -45 4 0 15 28 25 63 l16 62 -35 102 c-57 162
-44 170 23 14z m-8951 14 l22 -76 -47 -62 c-25 -34 -48 -63 -49 -65 -1 -2 -37
11 -79 29 -77 32 -85 40 -100 102 -5 19 0 25 32 37 21 8 40 16 44 18 3 1 3
-13 1 -32 -3 -26 1 -37 19 -50 13 -9 30 -16 38 -16 16 0 51 28 51 42 0 4 -9
-1 -20 -12 -24 -24 -43 -25 -64 -4 -31 30 -22 53 40 101 16 12 40 31 54 42 14
11 27 20 30 21 4 0 16 -34 28 -75z m9701 -24 l24 -19 -22 -7 c-35 -11 -47 -49
-27 -80 9 -14 24 -25 34 -24 13 0 12 2 -5 9 -24 10 -37 39 -27 64 10 25 51 31
74 11 26 -24 25 -50 -2 -69 -12 -9 -18 -16 -14 -16 31 0 60 60 36 75 -5 3 -10
10 -10 15 0 7 83 -19 94 -31 3 -3 -1 -24 -8 -48 -12 -40 -17 -45 -80 -72 -37
-16 -73 -29 -80 -29 -10 0 -77 80 -100 118 -4 7 -1 34 7 60 9 26 18 60 21 75
l7 28 27 -20 c15 -11 38 -29 51 -40z m-7149 -117 l-52 -102 13 -71 c7 -42 17
-70 23 -68 6 2 25 27 42 56 18 29 34 48 38 43 12 -19 -61 -138 -126 -207 -63
-66 -67 -68 -68 -43 0 19 11 38 36 61 l37 34 -12 69 c-19 104 -16 102 -71 50
-27 -25 -95 -76 -150 -112 -76 -49 -100 -69 -96 -82 3 -9 8 -35 11 -57 3 -22
8 -50 11 -63 l5 -24 35 21 c43 26 54 26 54 2 0 -13 -23 -31 -78 -59 -43 -23
-90 -46 -105 -51 -25 -10 -27 -8 -27 13 0 16 7 26 23 29 12 4 30 12 41 20 17
12 17 19 6 91 -11 64 -16 76 -29 70 -64 -28 -269 -104 -283 -104 -9 0 -19 -3
-21 -7 -6 -10 18 -142 27 -151 4 -3 24 -1 46 4 34 10 39 9 43 -8 6 -23 10 -21
-107 -53 -80 -22 -100 -24 -107 -13 -15 23 -10 27 37 39 l45 12 -5 38 c-19
130 -16 121 -43 114 -35 -9 -284 -55 -296 -55 -6 0 -7 -21 -3 -57 12 -104 11
-103 67 -96 45 5 49 4 49 -16 0 -11 -3 -21 -7 -21 -5 -1 -53 -7 -108 -14 -55
-8 -103 -12 -107 -9 -5 2 -8 13 -8 24 0 16 7 19 46 19 l46 0 -6 48 c-14 99
-18 112 -34 112 -32 0 -297 -21 -308 -25 -7 -2 -7 -24 1 -77 l11 -73 47 -3
c39 -3 47 -6 47 -23 0 -18 -8 -19 -105 -19 -94 0 -105 2 -115 20 -12 22 -10
23 37 20 18 -1 36 1 41 4 8 5 -9 141 -19 150 -4 3 -276 26 -314 26 -15 0 -16
-8 -10 -70 7 -67 6 -70 -14 -70 -18 0 -21 6 -21 38 0 20 -3 54 -6 75 -6 34 -9
37 -41 37 l-34 0 28 40 c20 30 33 39 48 36 74 -17 301 -28 473 -23 679 19
1236 255 1417 600 l40 76 8 -32 c8 -27 2 -46 -43 -133z m-1975 97 c-26 -51
-45 -72 -45 -49 0 14 57 98 66 98 2 0 -7 -22 -21 -49z m-132 -28 c22 -9 44
-28 53 -45 15 -28 14 -32 -12 -70 -25 -36 -29 -38 -35 -19 -12 31 -54 54 -77
42 -45 -24 -54 -80 -15 -95 15 -6 15 -5 -1 13 -37 41 13 97 60 66 43 -28 31
-58 -60 -149 -60 -60 -62 -58 -96 77 l-24 94 49 66 49 66 35 -16 c20 -8 53
-22 74 -30z m6727 -183 c251 -257 715 -417 1290 -446 96 -5 188 -2 319 11
l183 17 28 -34 28 -33 -37 -10 c-30 -9 -36 -15 -39 -40 -8 -98 -13 -115 -33
-115 -15 0 -19 5 -15 18 2 9 7 43 11 75 l7 59 -68 -8 c-38 -4 -113 -10 -168
-13 l-100 -6 -7 -35 c-4 -19 -9 -54 -13 -77 l-6 -43 43 0 c48 0 58 -5 50 -26
-4 -11 -30 -14 -114 -14 -102 0 -109 1 -109 20 0 17 7 20 44 20 25 0 47 3 50
8 2 4 7 39 11 78 l7 71 -123 6 c-68 4 -143 10 -165 13 -47 7 -47 7 -59 -98
l-7 -56 46 -7 c44 -7 60 -25 36 -40 -12 -7 -194 15 -211 26 -7 4 -9 14 -6 22
4 11 16 13 50 10 l45 -5 7 43 c4 24 7 60 8 78 2 34 1 35 -43 43 -25 5 -90 17
-145 28 -147 29 -136 35 -151 -77 l-6 -52 46 -13 c46 -12 60 -33 31 -45 -9 -3
-44 2 -78 11 -119 33 -127 36 -127 58 0 16 4 19 23 14 70 -19 64 -23 76 47 16
95 17 93 -41 113 -29 9 -97 34 -151 55 -53 22 -101 39 -106 39 -4 0 -15 -34
-23 -76 l-15 -77 44 -19 c29 -13 43 -25 43 -38 0 -11 -3 -20 -7 -20 -5 0 -51
21 -103 48 -73 36 -96 52 -98 70 -4 27 4 28 43 2 17 -11 33 -20 36 -20 4 0 12
28 18 63 7 34 14 69 17 78 3 11 -21 31 -82 68 -48 29 -115 78 -151 108 -35 30
-66 53 -67 51 -2 -1 -9 -39 -16 -83 l-12 -79 41 -36 c29 -25 38 -39 32 -49 -7
-11 -13 -11 -32 3 -60 41 -177 216 -167 247 2 7 21 -16 43 -50 26 -44 40 -59
45 -50 15 27 31 151 22 162 -6 7 -29 49 -52 95 -33 66 -40 88 -35 114 7 30 8
30 49 -47 27 -52 67 -105 116 -155z m-6279 203 c-5 -10 -23 -31 -40 -47 -26
-25 -31 -27 -37 -13 -9 25 33 77 62 77 20 0 23 -3 15 -17z m8177 -91 c-3 -12
-14 1 -36 38 -42 73 -41 84 4 26 19 -26 34 -54 32 -64z m-9350 36 c12 -46 4
-65 -66 -145 l-27 -31 -75 36 c-72 35 -76 39 -91 87 -9 28 -14 53 -10 56 3 4
25 9 49 11 39 3 42 2 42 -21 0 -59 75 -84 106 -36 13 20 15 31 6 50 -12 26 -5
33 34 34 17 1 24 -8 32 -41z m-2620 9 c2 -12 -3 -17 -17 -17 -12 0 -21 6 -21
13 0 31 32 34 38 4z m2536 7 c20 -20 20 -33 -1 -56 -31 -35 -83 -17 -83 29 0
39 55 57 84 27z m9680 -48 c25 -33 46 -67 46 -75 -1 -28 -56 -195 -66 -198 -6
-2 -32 18 -59 44 l-49 47 29 8 c31 8 55 32 55 55 0 20 -38 53 -62 53 -23 0
-58 -26 -58 -44 0 -6 7 0 16 12 18 26 50 28 76 5 22 -20 23 -31 1 -55 -27 -30
-56 -22 -106 33 -26 28 -47 55 -47 61 0 19 31 68 43 68 6 0 35 11 62 24 28 14
55 24 62 23 6 -1 32 -29 57 -61z m-545 30 c22 -24 26 -57 6 -57 -5 -1 -25 18
-44 40 l-34 41 25 0 c13 0 35 -11 47 -24z m3759 -3 c5 -17 -26 -29 -40 -15 -6
6 -7 15 -3 22 9 14 37 9 43 -7z m-13105 -46 c19 -62 20 -67 8 -67 -7 0 -51
100 -51 116 0 2 6 4 13 4 7 0 21 -24 30 -53z m702 22 l75 -32 21 -71 c11 -39
24 -84 30 -101 13 -41 -11 -72 -84 -109 -54 -27 -60 -28 -98 -16 -22 8 -47 18
-54 24 -14 10 -64 164 -65 197 0 14 86 139 96 139 3 0 38 -14 79 -31z m9833
16 c2 -2 -2 -12 -9 -23 -11 -17 -10 -26 1 -47 29 -55 110 -35 110 27 0 30 0
31 42 24 23 -4 44 -9 47 -11 2 -3 -2 -28 -10 -56 l-14 -52 -77 -33 -77 -33
-39 47 c-58 70 -63 82 -50 131 10 40 12 42 42 35 17 -3 32 -8 34 -9z m80 -17
c18 -18 15 -42 -7 -62 -26 -23 -52 -17 -70 16 -13 22 -13 29 -2 42 16 19 62
21 79 4z m-413 -241 l-28 -99 -50 -24 c-31 -14 -56 -20 -66 -15 -9 4 -37 18
-63 30 -25 12 -54 33 -62 46 -15 23 -14 31 10 118 14 51 29 98 32 104 4 6 41
25 82 41 l74 29 49 -65 50 -65 -28 -100z m595 228 c0 -2 -9 -29 -21 -59 -22
-61 -44 -86 -33 -39 19 85 26 103 39 103 8 0 15 -2 15 -5z m-10383 -62 c38
-14 69 -27 70 -28 2 -1 16 -47 33 -104 l30 -102 -36 -45 c-41 -50 -51 -52
-154 -28 l-70 16 -13 46 c-8 26 -20 70 -27 98 l-13 51 47 62 c26 33 51 61 56
61 6 0 40 -12 77 -27z m10059 -79 l47 -66 -28 -93 c-31 -105 -32 -106 -142
-120 -68 -9 -85 -2 -117 43 l-26 38 29 99 28 100 74 32 c41 18 77 33 81 33 4
0 28 -30 54 -66z m-10346 2 l73 -33 22 -77 c12 -42 19 -76 16 -76 -8 0 -139
104 -178 143 -31 29 -41 56 -26 70 10 11 16 9 93 -27z m10600 -41 c0 -7 -19
-31 -42 -54 -47 -44 -171 -142 -175 -137 -1 1 9 38 22 82 l25 79 72 31 c72 30
98 30 98 -1z m-9142 -136 c103 -78 189 -144 191 -145 2 -2 -14 -4 -36 -4 -37
0 -57 12 -204 126 -90 69 -164 130 -163 135 3 25 5 29 14 29 6 0 95 -64 198
-141z m7797 71 c16 -31 21 -54 6 -31 -10 15 -52 -13 -254 -171 -77 -61 -92
-69 -125 -66 l-36 3 159 122 c88 67 174 133 190 147 38 32 41 32 60 -4z
m-7987 -87 l34 -28 -43 -48 c-42 -48 -43 -49 -88 -42 -54 8 -53 7 -45 29 5 12
14 15 38 11 25 -4 34 -1 50 21 19 26 19 27 -4 44 -16 12 -21 23 -16 38 8 25
20 21 74 -25z m1070 -4 c-7 -3 -24 -10 -38 -14 l-25 -7 24 26 c19 20 27 23 38
14 12 -9 12 -13 1 -19z m-1865 -1 c21 -11 21 -11 2 -19 -11 -4 -28 -8 -38 -8
-15 -1 -16 2 -7 19 12 23 14 24 43 8z m8832 -18 c5 -14 0 -26 -15 -38 -20 -16
-20 -18 -4 -40 13 -18 23 -23 43 -19 19 4 30 0 38 -13 10 -15 8 -19 -10 -24
-57 -15 -82 -7 -120 38 -20 25 -37 47 -37 50 0 6 82 66 91 66 4 0 11 -9 14
-20z m-1100 -20 c20 -22 10 -25 -32 -9 -22 8 -24 12 -13 19 21 13 25 13 45
-10z m1863 -12 c20 -20 14 -29 -15 -22 -40 10 -47 15 -32 25 19 12 33 11 47
-3z m-8666 -53 l30 -25 -58 0 -57 0 23 25 c13 14 25 25 28 25 2 0 17 -11 34
-25z m7756 -66 c-13 -4 -40 -7 -62 -8 l-39 -1 38 30 38 30 24 -22 25 -23 -24
-6z m-8104 -367 l88 -247 -14 -118 c-8 -65 -11 -120 -6 -123 4 -3 5 -11 2 -19
-4 -8 -10 -12 -15 -9 -5 3 -7 9 -4 14 7 12 -45 51 -59 43 -6 -3 -8 -2 -3 2 4
5 -27 43 -68 86 -41 42 -75 82 -75 88 0 6 -29 92 -65 191 -36 99 -65 185 -65
190 0 13 79 62 90 55 4 -3 10 -2 13 2 2 5 2 2 0 -5 -6 -25 9 -62 26 -62 11 0
13 -3 4 -8 -10 -6 -9 -19 6 -58 25 -68 34 -84 47 -76 17 11 -47 180 -66 174
-12 -4 -13 -3 -2 10 7 9 9 23 6 32 -5 12 4 29 27 52 18 19 35 34 38 34 4 0 46
-112 95 -248z m12055 112 c27 -63 90 -123 156 -151 25 -10 45 -20 45 -23 0 -3
-25 -16 -56 -29 -63 -27 -123 -90 -151 -156 -10 -25 -20 -45 -23 -45 -3 0 -16
25 -29 56 -27 63 -90 123 -156 151 -25 10 -45 20 -45 23 0 3 25 16 56 29 63
27 123 90 151 156 10 25 20 45 23 45 3 0 16 -25 29 -56z m-3650 -389 c15 -7
43 -16 64 -20 42 -8 41 -6 26 -39 -40 -88 -208 26 -173 118 5 12 11 9 31 -15
14 -16 37 -36 52 -44z"/>
<path d="M2146 5815 c4 -8 10 -15 15 -15 5 0 9 7 9 15 0 8 -7 15 -15 15 -9 0
-12 -6 -9 -15z"/>
<path d="M2050 5816 c0 -9 5 -16 10 -16 6 0 10 4 10 9 0 6 -4 13 -10 16 -5 3
-10 -1 -10 -9z"/>
<path d="M4658 4583 c7 -3 16 -2 19 1 4 3 -2 6 -13 5 -11 0 -14 -3 -6 -6z"/>
<path d="M2320 5341 c0 -5 7 -12 16 -15 22 -9 24 -8 18 9 -7 16 -34 21 -34 6z"/>
<path d="M2292 5328 c2 -6 10 -14 16 -16 7 -2 10 2 6 12 -7 18 -28 22 -22 4z"/>
<path d="M2250 5317 c0 -10 7 -17 15 -17 9 0 18 -7 21 -15 4 -8 10 -15 15 -15
5 0 9 7 9 15 0 8 -5 15 -12 15 -6 0 -20 7 -30 17 -17 15 -18 15 -18 0z"/>
<path d="M4604 4403 c-19 -15 -20 -18 -5 -35 19 -22 29 -23 53 -2 17 16 17 18
-4 35 -25 23 -20 22 -44 2z"/>
<path d="M4828 4386 c-10 -7 -18 -16 -18 -20 0 -4 8 -6 18 -4 9 2 16 -3 15 -9
-3 -15 6 -16 27 -3 10 6 11 10 3 10 -7 0 -13 4 -13 10 0 5 8 6 18 3 16 -6 16
-6 0 10 -20 20 -27 21 -50 3z"/>
<path d="M5075 4369 c5 -40 6 -40 29 -23 19 13 19 14 1 34 -26 28 -34 25 -30
-11z"/>
<path d="M5044 4379 c-3 -6 1 -18 10 -27 9 -10 16 -12 16 -5 0 7 -5 15 -10 18
-6 4 -8 11 -5 16 4 5 4 9 1 9 -3 0 -8 -5 -12 -11z"/>
<path d="M12175 4368 c-30 -16 -30 -16 -5 -38 29 -25 33 -25 56 2 18 20 18 21
1 15 -10 -4 -16 -3 -13 2 11 17 -18 30 -39 19z"/>
<path d="M11936 4347 c-19 -14 -19 -15 6 -31 30 -20 65 -12 47 10 -7 8 -9 17
-5 21 3 3 6 1 6 -5 0 -7 5 -12 10 -12 16 0 11 17 -7 24 -9 4 -20 2 -23 -5 -6
-8 -9 -8 -11 0 -3 8 -10 8 -23 -2z"/>
<path d="M11715 4333 c-16 -16 -16 -17 1 -30 21 -16 34 -13 48 10 8 13 7 20
-4 27 -21 13 -26 12 -45 -7z m40 -3 c3 -5 1 -10 -4 -10 -6 0 -11 5 -11 10 0 6
2 10 4 10 3 0 8 -4 11 -10z"/>
<path d="M4718 4310 c-22 -21 -23 -34 -2 -26 12 4 15 2 10 -9 -7 -20 8 -19 28
1 20 20 20 27 -1 40 -14 8 -22 7 -35 -6z"/>
<path d="M4950 4299 c0 -5 -7 -9 -17 -9 -14 0 -14 -2 3 -21 10 -11 20 -16 22
-10 2 5 9 8 17 5 7 -3 16 -1 20 5 3 6 0 11 -7 11 -9 0 -9 3 2 10 16 11 15 11
-17 15 -13 1 -23 -2 -23 -6z"/>
<path d="M12063 4267 l-22 -12 23 -22 23 -22 21 22 c17 18 18 24 7 35 -17 15
-24 15 -52 -1z"/>
<path d="M11827 4257 c-15 -11 -16 -15 -4 -31 9 -12 20 -17 31 -13 23 9 32 37
15 48 -18 12 -22 11 -42 -4z"/>
<path d="M3462 3807 c-27 -28 -28 -58 -4 -80 28 -25 69 -21 88 8 21 32 12 68
-21 83 -35 16 -38 15 -63 -11z m68 -7 c24 -24 25 -38 3 -62 -29 -33 -83 -17
-83 24 0 19 33 58 50 58 6 0 19 -9 30 -20z"/>
<path d="M13274 3755 c-19 -30 -11 -60 22 -82 24 -15 27 -15 52 4 34 25 39 56
13 82 -29 29 -67 27 -87 -4z m80 -1 c23 -23 20 -51 -8 -69 -44 -29 -92 19 -64
64 15 25 50 27 72 5z"/>
<path d="M3665 3536 c-37 -56 44 -117 88 -68 10 10 17 28 17 39 0 20 -28 53
-46 53 -4 0 2 -7 14 -16 41 -28 20 -84 -32 -84 -20 0 -48 43 -41 62 4 9 16 20
28 26 18 8 18 11 5 11 -10 1 -25 -10 -33 -23z"/>
<path d="M13118 3505 c17 -8 32 -20 32 -26 0 -7 3 -9 7 -6 11 11 -29 47 -51
47 -16 -1 -14 -4 12 -15z"/>
<path d="M13050 3441 c0 -10 29 -36 34 -30 1 2 -6 12 -16 22 -10 9 -18 13 -18
8z"/>
<path d="M13125 3424 c-25 -20 -26 -22 -8 -18 12 4 28 13 34 20 20 24 5 23
-26 -2z"/>
<path d="M3430 3447 c-31 -15 -39 -66 -15 -91 19 -19 68 -21 83 -3 24 30 23
56 -2 82 -29 29 -32 29 -66 12z m60 -17 c24 -24 24 -29 4 -58 -17 -24 -53 -29
-72 -10 -19 19 -14 55 10 72 29 20 34 20 58 -4z"/>
<path d="M13319 3393 c-11 -15 -11 -16 1 -5 19 17 50 15 72 -5 10 -9 18 -11
18 -5 0 14 -32 32 -58 32 -11 0 -26 -8 -33 -17z"/>
<path d="M13301 3354 c-3 -49 74 -73 103 -32 9 12 16 27 16 33 -1 5 -8 -2 -16
-17 -25 -47 -84 -36 -97 17 -4 19 -5 19 -6 -1z"/>
<path d="M3106 3379 c-14 -11 -26 -29 -26 -40 0 -25 35 -59 60 -59 25 0 60 34
59 58 0 13 -2 14 -6 2 -17 -47 -59 -63 -87 -34 -23 23 -20 51 9 70 23 15 27
15 53 0 l27 -17 -24 20 c-29 26 -32 26 -65 0z"/>
<path d="M13646 3335 c-11 -8 -17 -17 -14 -20 3 -3 11 1 18 10 17 21 43 19 64
-4 22 -24 13 -59 -17 -71 -17 -7 -18 -9 -5 -9 18 -1 48 35 48 56 0 19 -37 53
-57 53 -10 0 -27 -7 -37 -15z"/>
<path d="M13621 3289 c-1 -17 29 -49 45 -49 5 0 1 5 -9 11 -10 6 -22 20 -27
32 -6 15 -9 17 -9 6z"/>
<path d="M2806 3288 c-9 -12 -16 -28 -16 -35 0 -22 39 -53 65 -53 27 0 60 40
52 62 -4 9 -6 7 -6 -4 -1 -22 -28 -48 -51 -48 -22 0 -50 26 -50 46 0 8 9 23
20 34 11 11 16 20 11 20 -6 0 -17 -10 -25 -22z"/>
<path d="M2861 3307 c2 -1 13 -9 24 -17 19 -14 19 -14 6 3 -7 9 -18 17 -24 17
-6 0 -8 -1 -6 -3z"/>
<path d="M13930 3250 c-11 -11 -20 -28 -20 -37 1 -23 23 -53 40 -53 7 0 2 8
-10 18 -18 14 -21 25 -16 45 7 31 48 46 71 27 24 -20 19 -69 -7 -80 -14 -5
-17 -9 -7 -9 39 -2 54 63 21 92 -25 22 -48 21 -72 -3z"/>
<path d="M2525 3225 c-30 -29 -31 -49 -5 -75 25 -25 62 -26 83 -2 24 27 21 58
-9 81 -34 27 -40 26 -69 -4z m75 -9 c15 -19 9 -56 -11 -69 -9 -5 -28 -7 -42
-3 -52 13 -42 86 12 86 16 0 34 -7 41 -14z"/>
<path d="M14217 3182 c-20 -22 -22 -65 -4 -80 30 -24 56 -23 82 2 30 30 32 49
5 76 -25 25 -62 26 -83 2z m77 -11 c21 -23 14 -56 -15 -72 -46 -24 -96 54 -51
80 26 16 47 13 66 -8z"/>
<path d="M3635 3168 c-33 -26 -30 -64 8 -91 l27 -21 28 21 c32 24 40 58 17 83
-25 28 -52 30 -80 8z m73 -10 c35 -35 -14 -102 -57 -79 -45 25 -33 91 17 91
16 0 33 -5 40 -12z"/>
<path d="M13113 3125 c-32 -23 -31 -69 2 -91 33 -21 68 -12 84 23 10 23 9 30
-7 52 -23 32 -50 37 -79 16z m67 -15 c24 -24 24 -29 4 -58 -18 -26 -41 -28
-66 -5 -22 20 -23 41 -1 65 21 23 38 23 63 -2z"/>
<path d="M3345 3086 c-14 -14 -25 -31 -25 -38 1 -7 7 -1 15 13 19 35 43 43 71
24 28 -18 31 -47 8 -69 -20 -21 -42 -20 -68 2 -21 17 -21 17 -2 -5 24 -28 50
-29 76 -3 33 33 20 79 -27 94 -17 5 -29 1 -48 -18z"/>
<path d="M13397 3042 c-22 -24 -21 -55 1 -75 22 -20 63 -22 80 -5 19 19 14 33
-6 15 -35 -32 -82 -15 -82 28 0 50 56 61 90 18 20 -26 20 -27 9 -3 -7 14 -17
28 -23 32 -20 13 -53 8 -69 -10z"/>
<path d="M3884 2862 c-23 -15 -35 -51 -24 -72 11 -20 40 -40 59 -40 19 0 51
39 51 63 0 42 -53 72 -86 49z m64 -14 c34 -34 -14 -102 -56 -79 -28 15 -35 40
-17 67 17 26 53 32 73 12z"/>
<path d="M12872 2814 c-12 -8 -22 -19 -22 -25 0 -5 9 0 20 11 25 25 45 25 69
1 24 -24 17 -59 -14 -73 -27 -12 -65 4 -66 30 0 11 -2 13 -6 4 -7 -19 26 -52
53 -52 21 0 64 41 64 62 0 14 -47 58 -62 58 -8 0 -24 -7 -36 -16z"/>
<path d="M3577 2792 c-23 -25 -21 -58 3 -82 26 -26 50 -25 78 0 26 24 28 47 6
78 -19 27 -64 29 -87 4z m77 -8 c23 -23 20 -51 -9 -70 -23 -15 -27 -15 -50 0
-14 9 -25 25 -25 36 0 24 26 50 50 50 10 0 26 -7 34 -16z"/>
<path d="M13160 2750 c-11 -11 -20 -29 -20 -40 0 -25 34 -60 58 -60 25 0 62
36 62 60 0 24 -37 60 -62 60 -10 0 -27 -9 -38 -20z m68 -6 c12 -8 22 -22 22
-31 0 -21 -29 -53 -48 -53 -22 0 -52 30 -52 51 0 16 34 49 50 49 3 0 16 -7 28
-16z"/>
<path d="M4616 2653 c-9 -9 -7 -41 3 -47 5 -4 7 3 4 14 -8 29 21 26 46 -6 12
-15 21 -22 21 -17 0 19 -63 67 -74 56z"/>
<path d="M4755 2618 c-24 -18 -26 -26 -21 -59 6 -40 -9 -63 -25 -38 -6 9 -9
10 -9 2 0 -6 -10 -15 -22 -18 -25 -8 -68 -44 -68 -57 0 -16 65 -8 98 12 l33
20 29 -22 c16 -11 27 -25 24 -29 -3 -5 2 -6 11 -3 11 5 14 2 8 -12 -4 -12 -3
-15 6 -10 6 4 10 15 9 23 -2 9 2 18 9 20 6 2 13 -6 16 -19 l4 -23 2 23 c1 26
-23 39 -43 23 -22 -19 -42 13 -27 45 16 36 13 44 -5 11 -8 -16 -21 -26 -27
-24 -14 4 -19 95 -6 120 13 24 27 21 32 -5 3 -17 5 -14 6 10 0 17 -1 32 -3 32
-2 0 -16 -10 -31 -22z m-35 -127 c0 -15 -42 -41 -67 -41 -42 0 -20 34 27 43
14 2 28 5 33 6 4 0 7 -3 7 -8z"/>
<path d="M4953 2610 c1 -11 5 -20 9 -20 11 0 10 28 -1 35 -6 3 -9 -4 -8 -15z"/>
<path d="M4924 2606 c-4 -11 -18 -16 -43 -16 -20 0 -45 -7 -55 -15 -10 -8 -23
-12 -27 -9 -5 3 -9 1 -9 -4 0 -20 14 -20 38 -2 13 11 39 20 57 20 31 0 65 24
52 37 -4 3 -9 -2 -13 -11z"/>
<path d="M4636 2577 c3 -10 9 -15 12 -12 3 3 0 11 -7 18 -10 9 -11 8 -5 -6z"/>
<path d="M4990 2580 c-19 -6 -20 -8 -6 -9 16 -1 17 -3 5 -18 -12 -14 -11 -14
13 1 15 10 25 22 22 27 -3 5 -6 9 -7 8 -1 -1 -13 -5 -27 -9z"/>
<path d="M4691 2564 c0 -11 3 -14 6 -6 3 7 2 16 -1 19 -3 4 -6 -2 -5 -13z"/>
<path d="M4935 2572 c-6 -4 1 -18 18 -36 15 -16 27 -23 27 -17 0 6 -9 19 -20
28 -14 13 -16 19 -7 25 6 4 8 8 2 8 -5 0 -14 -4 -20 -8z"/>
<path d="M4880 2559 c0 -5 5 -7 10 -4 6 3 10 8 10 11 0 2 -4 4 -10 4 -5 0 -10
-5 -10 -11z"/>
<path d="M4657 2534 c3 -7 9 -14 14 -14 14 0 10 17 -5 23 -10 4 -13 1 -9 -9z"/>
<path d="M4841 2534 c0 -11 3 -14 6 -6 3 7 2 16 -1 19 -3 4 -6 -2 -5 -13z"/>
<path d="M4520 2495 c0 -28 -30 -63 -60 -69 -38 -7 -38 -21 0 -35 18 -6 28 -6
25 -1 -4 6 -13 10 -21 10 -8 0 -14 5 -14 10 0 6 7 10 16 10 17 0 46 -25 38
-33 -3 -3 0 -14 7 -26 19 -29 5 -36 -35 -17 -33 15 -66 13 -66 -4 0 -5 5 -12
12 -16 6 -4 8 -3 4 4 -10 17 10 23 38 11 27 -13 33 -24 16 -34 -5 -3 -10 -11
-10 -17 0 -7 20 9 45 35 24 26 50 47 57 47 6 0 2 -10 -10 -23 -12 -13 -22 -27
-22 -31 0 -5 10 4 22 19 12 15 35 36 52 47 17 11 22 17 11 13 -11 -5 -35 -10
-53 -13 -33 -4 -34 -4 -21 19 11 22 11 23 -4 10 -10 -7 -17 -20 -17 -28 0 -8
-5 -11 -11 -8 -6 4 -8 9 -5 12 2 3 1 15 -4 28 -6 16 -3 30 10 49 23 36 29 36
45 6 8 -14 14 -20 15 -15 0 18 -30 55 -46 55 -8 0 -14 -7 -14 -15z"/>
<path d="M4896 2494 c-8 -21 -8 -21 12 -29 13 -5 14 -3 5 6 -6 6 -9 18 -6 25
3 8 3 14 0 14 -3 0 -8 -7 -11 -16z"/>
<path d="M4948 2493 c-10 -3 -18 -9 -18 -14 0 -10 7 -11 34 0 23 9 9 19 -16
14z"/>
<path d="M4997 2489 c7 -7 15 -10 18 -7 3 3 -2 9 -12 12 -14 6 -15 5 -6 -5z"/>
<path d="M5050 2461 c13 -10 27 -18 31 -15 4 2 12 -3 19 -11 18 -22 32 -18 20
5 -6 11 -20 20 -31 20 -11 0 -30 5 -42 11 -19 9 -19 8 3 -10z"/>
<path d="M4745 2450 c-3 -5 -1 -10 4 -10 6 0 11 5 11 10 0 6 -2 10 -4 10 -3 0
-8 -4 -11 -10z"/>
<path d="M5196 2445 c13 -10 15 -14 5 -15 -8 0 -12 -2 -9 -5 3 -3 13 -2 23 1
17 7 17 8 -1 21 -10 7 -22 13 -28 13 -5 0 -1 -7 10 -15z"/>
<path d="M4896 2413 c-6 -14 -5 -15 5 -6 7 7 10 15 7 18 -3 3 -9 -2 -12 -12z"/>
<path d="M5150 2427 c0 -3 12 -18 26 -32 18 -18 25 -21 22 -9 -3 15 -48 54
-48 41z"/>
<path d="M4915 2399 c-4 -6 -17 -14 -29 -19 -14 -6 -16 -9 -5 -9 9 -1 24 8 34
19 10 11 15 20 12 20 -3 0 -9 -5 -12 -11z"/>
<path d="M5020 2399 c0 -5 5 -9 10 -9 6 0 10 -7 10 -16 0 -14 -4 -14 -33 3
-26 16 -35 17 -44 7 -7 -6 -17 -14 -24 -16 -19 -6 -3 -37 23 -47 13 -5 32 -18
42 -30 11 -11 23 -21 28 -21 12 0 -47 56 -74 71 -21 11 -21 12 -3 25 25 18 26
18 66 -9 39 -26 87 -35 66 -12 -7 8 -14 9 -18 3 -4 -7 -9 -7 -13 0 -3 6 -2 13
4 17 16 10 12 19 -15 32 -14 6 -25 7 -25 2z"/>
<path d="M4691 2396 c2 -2 20 -11 39 -20 l35 -17 -24 21 c-13 11 -30 20 -39
20 -8 0 -13 -2 -11 -4z"/>
<path d="M5140 2393 c0 -6 8 -17 18 -24 16 -13 16 -13 2 6 -8 11 -16 22 -17
24 -2 2 -3 0 -3 -6z"/>
<path d="M4828 2383 c7 -3 16 -2 19 1 4 3 -2 6 -13 5 -11 0 -14 -3 -6 -6z"/>
<path d="M5090 2380 c-9 -6 -10 -10 -3 -10 6 0 15 5 18 10 8 12 4 12 -15 0z"/>
<path d="M4715 2350 c-4 -6 -2 -17 4 -24 8 -10 4 -22 -19 -51 -16 -21 -30 -45
-30 -54 1 -9 10 1 21 21 10 21 28 42 39 48 17 9 19 14 8 33 -7 12 -11 25 -10
30 3 11 -6 9 -13 -3z"/>
<path d="M4775 2350 c3 -5 8 -10 11 -10 2 0 4 5 4 10 0 6 -5 10 -11 10 -5 0
-7 -4 -4 -10z"/>
<path d="M5191 2352 c-1 -8 -6 -10 -13 -6 -10 5 -10 4 -1 -6 15 -16 28 -8 20
12 -4 11 -6 11 -6 0z"/>
<path d="M4840 2341 c65 -20 130 -69 102 -78 -6 -3 -10 -9 -6 -14 3 -5 1 -9
-4 -9 -6 0 -8 -9 -5 -20 6 -24 38 -27 47 -4 3 8 2 12 -4 9 -17 -11 -32 5 -20
20 7 8 9 23 5 34 -8 26 -83 71 -116 70 l-24 -1 25 -7z"/>
<path d="M4770 2320 c-18 -12 -2 -12 25 0 13 6 15 9 5 9 -8 0 -22 -4 -30 -9z"/>
<path d="M4820 2317 c0 -1 8 -10 18 -18 17 -14 21 -14 38 -1 18 14 18 14 -3 8
-12 -4 -24 -2 -28 4 -5 9 -25 15 -25 7z"/>
<path d="M4402 2288 c-33 -19 -112 -105 -112 -123 0 -9 36 -5 68 6 30 10 119
116 90 107 -7 -3 -18 -16 -25 -29 -17 -35 -53 -66 -87 -75 l-28 -7 18 29 c31
50 58 76 99 95 22 9 35 18 29 18 -6 1 -29 -9 -52 -21z"/>
<path d="M4510 2276 c0 -12 -4 -27 -9 -35 -8 -12 -12 -12 -25 -2 -11 10 -16
10 -16 2 0 -19 25 -23 54 -7 17 9 23 16 14 19 -10 4 -11 7 0 18 16 17 15 26
-3 26 -8 0 -15 -9 -15 -21z"/>
<path d="M4887 2271 c3 -12 9 -21 14 -21 14 0 11 16 -5 29 -12 10 -13 8 -9 -8z"/>
<path d="M5050 2266 c0 -2 8 -10 18 -17 15 -13 16 -12 3 4 -13 16 -21 21 -21
13z"/>
<path d="M4850 2241 c0 -10 19 -25 25 -20 1 2 -3 10 -11 17 -8 7 -14 8 -14 3z"/>
<path d="M5137 2218 c-10 -11 -17 -24 -15 -30 2 -6 12 2 22 17 21 32 18 39 -7
13z"/>
<path d="M4544 2194 c0 -30 2 -33 9 -16 5 12 5 26 0 36 -7 12 -9 7 -9 -20z"/>
<path d="M5085 2210 c3 -5 8 -10 11 -10 2 0 4 5 4 10 0 6 -5 10 -11 10 -5 0
-7 -4 -4 -10z"/>
<path d="M4661 2183 c0 -12 -4 -30 -7 -40 -5 -14 -4 -15 5 -7 7 6 11 24 8 40
-3 21 -4 23 -6 7z"/>
<path d="M4861 2154 c-23 -29 -27 -44 -11 -44 16 0 88 38 96 51 4 6 -14 -1
-40 -16 -25 -15 -46 -22 -46 -16 0 7 10 16 23 21 12 5 18 9 12 10 -5 1 -1 5
10 10 19 8 19 9 -2 9 -12 1 -31 -11 -42 -25z"/>
<path d="M4480 2147 c0 -15 31 -47 46 -47 4 0 -2 7 -14 16 -13 9 -21 22 -18
30 3 8 1 14 -4 14 -6 0 -10 -6 -10 -13z"/>
<path d="M4604 2129 c-3 -6 -1 -16 6 -22 10 -9 11 -9 5 2 -4 8 -2 17 6 22 9 6
10 9 2 9 -6 0 -15 -5 -19 -11z"/>
<path d="M4655 2121 c-20 -6 -20 -7 -3 -23 17 -17 18 -17 28 2 12 22 3 29 -25
21z"/>
<path d="M4924 2084 c-30 -33 -32 -44 -9 -44 9 0 49 70 42 76 -1 1 -16 -14
-33 -32z"/>
<path d="M5116 2078 c22 -31 34 -35 34 -11 0 9 -3 13 -7 10 -3 -4 -15 1 -27
10 -20 18 -20 18 0 -9z"/>
<path d="M4535 2079 c8 -12 64 -16 68 -5 3 7 -11 11 -34 12 -21 0 -36 -3 -34
-7z"/>
<path d="M4647 2064 c-3 -5 1 -15 9 -22 16 -14 18 -5 5 17 -5 7 -11 9 -14 5z"/>
<path d="M4837 2044 c-4 -4 -19 -7 -34 -8 -24 -1 -28 -5 -28 -30 0 -16 5 -31
11 -33 7 -2 10 7 8 27 -2 16 1 30 7 30 6 0 8 -4 4 -9 -3 -5 0 -13 6 -16 5 -4
8 -13 5 -21 -3 -8 -1 -14 3 -14 13 0 22 28 11 35 -18 11 -10 22 23 33 23 7 26
10 11 11 -11 1 -24 -2 -27 -5z"/>
<path d="M4710 2024 c0 -15 48 -36 55 -24 4 6 -2 10 -12 10 -11 0 -24 5 -31
12 -7 7 -12 8 -12 2z"/>
<path d="M4926 2007 c3 -10 9 -15 12 -12 3 3 0 11 -7 18 -10 9 -11 8 -5 -6z"/>
<path d="M4871 1996 c-8 -10 -9 -16 -1 -21 5 -3 10 -13 10 -21 0 -8 16 -36 35
-61 19 -25 35 -42 35 -37 0 6 -13 25 -30 44 -32 38 -37 56 -17 63 7 3 4 6 -7
6 -13 1 -17 6 -13 21 6 24 4 25 -12 6z"/>
<path d="M4585 1987 c-28 -16 -29 -47 -2 -44 24 2 67 35 67 51 0 5 -9 0 -20
-12 -12 -12 -25 -22 -30 -22 -16 0 -11 18 8 29 9 6 13 10 7 10 -5 -1 -19 -6
-30 -12z"/>
<path d="M4484 1978 c-7 -11 21 -38 40 -38 6 0 0 7 -13 16 -18 13 -20 18 -10
25 10 6 10 9 2 9 -6 0 -15 -5 -19 -12z"/>
<path d="M4692 1978 c-7 -7 -12 -19 -11 -27 0 -14 1 -14 6 -1 4 8 13 20 22 27
9 7 11 13 6 13 -6 0 -16 -5 -23 -12z"/>
<path d="M5000 1974 c0 -8 5 -12 10 -9 6 4 8 11 5 16 -9 14 -15 11 -15 -7z"/>
<path d="M4737 1954 c-10 -13 -14 -24 -10 -24 9 0 36 40 31 45 -2 2 -11 -8
-21 -21z"/>
<path d="M4938 1953 c12 -2 30 -2 40 0 9 3 -1 5 -23 4 -22 0 -30 -2 -17 -4z"/>
<path d="M4834 1929 c-19 -22 -19 -22 4 -8 12 8 22 17 22 21 0 12 -6 9 -26
-13z"/>
<path d="M4532 1915 c-28 -60 -2 -102 32 -53 12 17 18 20 28 10 15 -15 45 -16
53 -2 4 7 -2 9 -19 4 -22 -5 -26 -2 -34 28 -8 28 -10 30 -17 13 -17 -51 -25
-65 -35 -65 -13 0 -13 36 1 62 6 11 9 22 6 24 -2 2 -9 -7 -15 -21z"/>
<path d="M4773 1923 c9 -2 23 -2 30 0 6 3 -1 5 -18 5 -16 0 -22 -2 -12 -5z"/>
<path d="M4878 1873 c16 -27 36 -49 45 -49 11 -1 12 0 3 3 -7 2 -24 24 -37 49
-13 24 -27 44 -31 44 -4 0 5 -21 20 -47z"/>
<path d="M4802 1845 c0 -16 2 -22 5 -12 2 9 2 23 0 30 -3 6 -5 -1 -5 -18z"/>
<path d="M12186 2603 c5 -5 12 -12 16 -18 4 -6 8 -2 8 8 0 9 -7 17 -17 17 -9
0 -12 -3 -7 -7z"/>
<path d="M12150 2585 c-7 -9 -11 -17 -9 -20 3 -2 10 5 17 15 14 24 10 26 -8 5z"/>
<path d="M12030 2580 c0 -5 7 -10 15 -10 8 0 17 -11 21 -25 3 -14 10 -25 14
-25 5 0 6 10 2 23 -8 32 -52 63 -52 37z"/>
<path d="M11862 2573 c10 -2 21 -15 24 -29 3 -13 10 -24 16 -24 5 0 7 4 3 9
-3 5 9 12 27 14 l33 4 -36 1 c-22 1 -39 8 -43 17 -3 8 -13 14 -23 14 -17 -1
-17 -2 -1 -6z"/>
<path d="M11790 2530 c0 -12 8 -12 35 0 18 8 17 9 -7 9 -16 1 -28 -3 -28 -9z"/>
<path d="M11983 2529 c11 -6 25 -25 33 -43 l15 -31 -6 29 c-6 29 -30 55 -50
55 -5 0 -2 -4 8 -10z"/>
<path d="M11857 2514 c5 -13 2 -15 -18 -9 -21 7 -22 6 -11 -8 9 -10 10 -17 2
-22 -16 -10 -12 -25 5 -19 8 4 13 10 10 14 -2 4 4 15 15 25 19 17 19 35 0 35
-5 0 -7 -7 -3 -16z"/>
<path d="M12111 2503 c-1 -24 -20 -33 -22 -10 0 6 -5 -1 -9 -17 -7 -23 -5 -32
8 -42 25 -20 38 -17 19 4 -10 10 -17 22 -17 25 0 12 28 7 33 -5 2 -7 8 -9 13
-5 5 4 3 11 -3 15 -6 4 -13 18 -16 32 -4 23 -4 23 -6 3z"/>
<path d="M12131 2494 c0 -11 3 -14 6 -6 3 7 2 16 -1 19 -3 4 -6 -2 -5 -13z"/>
<path d="M11956 2485 c-3 -8 -3 -15 0 -15 3 0 12 7 20 15 13 13 13 15 1 15 -8
0 -17 -7 -21 -15z"/>
<path d="M12156 2483 c-6 -14 -5 -15 5 -6 7 7 10 15 7 18 -3 3 -9 -2 -12 -12z"/>
<path d="M12268 2458 c-8 -7 -18 -22 -22 -33 -4 -14 0 -12 15 8 17 22 24 25
30 15 7 -10 9 -9 9 5 0 20 -10 22 -32 5z"/>
<path d="M11936 2443 c-6 -14 -5 -15 5 -6 7 7 10 15 7 18 -3 3 -9 -2 -12 -12z"/>
<path d="M11790 2430 c-6 -11 -8 -20 -6 -20 3 0 10 9 16 20 6 11 8 20 6 20 -3
0 -10 -9 -16 -20z"/>
<path d="M11850 2444 c0 -3 9 -17 20 -31 11 -14 20 -31 20 -38 0 -18 37 -48
52 -42 10 4 9 6 -2 6 -14 1 -70 81 -70 101 0 6 -4 10 -10 10 -5 0 -10 -3 -10
-6z"/>
<path d="M12037 2430 c3 -12 8 -18 11 -15 3 3 15 -3 26 -12 12 -10 8 -3 -8 15
-35 38 -36 38 -29 12z"/>
<path d="M12174 2429 c21 -17 25 -24 14 -30 -9 -6 -9 -9 -1 -9 22 0 24 19 3
40 -11 11 -25 20 -31 20 -7 0 1 -10 15 -21z"/>
<path d="M12282 2410 c0 -14 2 -19 5 -12 2 6 2 18 0 25 -3 6 -5 1 -5 -13z"/>
<path d="M11638 2413 c6 -2 18 -2 25 0 6 3 1 5 -13 5 -14 0 -19 -2 -12 -5z"/>
<path d="M11964 2405 c-4 -9 -4 -19 0 -22 3 -4 6 1 6 10 0 19 15 23 23 7 3 -6
4 -5 3 2 -4 19 -25 21 -32 3z"/>
<path d="M12307 2401 c4 -14 1 -26 -8 -31 -21 -14 -6 -18 18 -5 21 11 21 11 2
35 l-18 25 6 -24z"/>
<path d="M11600 2395 c-7 -9 -8 -15 -2 -15 5 0 12 7 16 15 3 8 4 15 2 15 -2 0
-9 -7 -16 -15z"/>
<path d="M11698 2403 c6 -2 10 -9 6 -14 -9 -15 2 -10 16 6 10 13 9 15 -11 14
-13 0 -18 -3 -11 -6z"/>
<path d="M12006 2375 c-6 -17 9 -21 19 -5 3 6 18 7 33 4 21 -4 24 -3 12 5 -22
16 -57 13 -64 -4z"/>
<path d="M11624 2361 c0 -15 3 -17 13 -9 7 6 13 14 13 19 0 5 -6 9 -13 9 -7 0
-13 -9 -13 -19z"/>
<path d="M11762 2370 c0 -8 3 -24 7 -34 7 -18 8 -18 14 -3 3 9 2 17 -3 17 -5
0 -11 8 -13 18 -3 11 -5 12 -5 2z"/>
<path d="M12360 2370 c13 -8 12 -10 -4 -10 -11 0 -17 -3 -13 -6 3 -3 15 -3 26
1 24 7 19 25 -7 25 -15 0 -15 -2 -2 -10z"/>
<path d="M11980 2365 c0 -5 5 -17 10 -25 5 -8 10 -10 10 -5 0 6 -5 17 -10 25
-5 8 -10 11 -10 5z"/>
<path d="M12260 2361 c0 -6 4 -13 10 -16 6 -3 7 1 4 9 -7 18 -14 21 -14 7z"/>
<path d="M12168 2350 c37 -9 75 -40 103 -85 14 -23 19 -26 19 -11 0 14 5 17
21 13 12 -3 18 -3 15 0 -3 4 0 13 7 21 10 13 9 14 -10 2 -18 -12 -25 -11 -50
5 -24 17 -26 20 -9 23 22 5 -77 42 -109 41 -11 -1 -5 -5 13 -9z"/>
<path d="M11710 2341 c0 -9 30 -24 36 -18 2 1 -6 8 -16 15 -11 7 -20 8 -20 3z"/>
<path d="M11859 2333 l24 -16 -29 -24 c-16 -12 -24 -23 -18 -23 6 0 21 11 34
25 23 25 23 25 4 40 -10 8 -23 15 -29 15 -5 0 1 -8 14 -17z"/>
<path d="M12080 2340 c-9 -6 -10 -10 -3 -10 6 0 15 5 18 10 8 12 4 12 -15 0z"/>
<path d="M12310 2342 c-16 -7 -25 -32 -12 -32 4 0 13 9 20 20 7 11 11 20 10
19 -2 0 -10 -3 -18 -7z"/>
<path d="M11611 2323 c0 -6 2 -19 5 -28 6 -14 8 -14 25 1 11 9 19 22 19 28 0
6 -5 3 -11 -6 -5 -10 -14 -18 -19 -18 -5 0 -11 8 -13 18 -3 9 -5 12 -6 5z"/>
<path d="M11800 2320 c-9 -6 -10 -10 -3 -10 6 0 15 5 18 10 8 12 4 12 -15 0z"/>
<path d="M12018 2313 c6 -2 18 -2 25 0 6 3 1 5 -13 5 -14 0 -19 -2 -12 -5z"/>
<path d="M11719 2289 c-8 -15 -8 -19 0 -15 15 10 14 -17 -1 -34 -11 -12 -10
-12 4 -1 9 7 16 25 16 42 -1 35 -4 36 -19 8z"/>
<path d="M11750 2300 c0 -5 5 -10 10 -10 6 0 10 5 10 10 0 6 -4 10 -10 10 -5
0 -10 -4 -10 -10z"/>
<path d="M12055 2300 c-3 -5 -1 -10 4 -10 6 0 11 5 11 10 0 6 -2 10 -4 10 -3
0 -8 -4 -11 -10z"/>
<path d="M12383 2301 c1 -5 -10 -22 -25 -39 -27 -31 -27 -42 2 -42 9 0 23 -12
31 -26 22 -43 67 -74 105 -74 l34 0 -36 50 c-19 27 -51 59 -70 70 -35 22 -41
34 -24 45 6 4 8 11 5 16 -8 11 -26 12 -22 0z m69 -101 c33 -34 58 -63 55 -66
-3 -3 -20 -3 -37 1 -22 5 -42 22 -70 60 -45 61 -46 65 -24 65 8 0 43 -27 76
-60z"/>
<path d="M11893 2270 c-18 -11 -33 -25 -33 -32 1 -9 5 -8 13 3 7 9 26 23 42
32 17 9 26 16 20 17 -5 0 -25 -9 -42 -20z"/>
<path d="M11986 2277 c-13 -10 -7 -12 33 -12 57 0 84 -19 112 -80 14 -30 19
-35 19 -18 0 13 -16 41 -35 62 -25 27 -32 41 -23 45 7 3 4 4 -7 1 -11 -3 -35
-1 -52 4 -22 6 -37 5 -47 -2z"/>
<path d="M11936 2245 c-11 -8 -15 -15 -9 -15 6 0 16 7 23 15 16 19 11 19 -14
0z"/>
<path d="M11790 2239 c0 -5 5 -7 10 -4 6 3 10 8 10 11 0 2 -4 4 -10 4 -5 0
-10 -5 -10 -11z"/>
<path d="M11897 2228 c-4 -13 -10 -17 -18 -12 -8 4 -10 3 -5 -4 4 -6 -2 -20
-14 -32 -11 -11 -20 -22 -20 -24 0 -10 56 -64 77 -75 25 -13 63 -15 63 -3 0
14 -29 48 -30 35 0 -7 -7 -10 -17 -6 -12 5 -14 3 -8 -7 5 -8 3 -11 -6 -8 -8 3
-13 11 -11 17 1 7 -2 10 -7 7 -9 -6 -41 30 -41 46 0 5 19 9 43 9 40 2 40 2 10
8 -35 6 -34 26 2 32 19 4 19 5 4 21 -16 15 -18 15 -22 -4z m68 -138 c3 -5 -1
-10 -10 -10 -9 0 -13 5 -10 10 3 6 8 10 10 10 2 0 7 -4 10 -10z"/>
<path d="M11755 2210 c-12 -14 -25 -18 -39 -14 -21 6 -21 6 -1 -10 17 -13 21
-13 31 -1 13 17 29 21 19 5 -3 -5 -2 -10 3 -10 6 0 9 11 8 25 0 14 -1 25 -2
25 0 0 -9 -9 -19 -20z"/>
<path d="M11664 2204 c-18 -14 -18 -15 4 -4 12 6 22 13 22 15 0 8 -5 6 -26
-11z"/>
<path d="M11825 2210 c-3 -5 -1 -10 4 -10 6 0 11 5 11 10 0 6 -2 10 -4 10 -3
0 -8 -4 -11 -10z"/>
<path d="M12309 2197 c25 -28 41 -35 41 -17 0 6 -5 10 -12 10 -6 0 -21 8 -32
17 -15 13 -14 10 3 -10z"/>
<path d="M11956 2193 c-6 -14 -5 -15 5 -6 7 7 10 15 7 18 -3 3 -9 -2 -12 -12z"/>
<path d="M11670 2165 c7 -9 8 -15 0 -20 -5 -3 -10 -11 -10 -18 0 -6 6 -2 14 9
8 10 18 16 22 11 4 -4 2 -13 -4 -19 -7 -7 -12 -19 -11 -27 0 -10 4 -7 10 7 5
13 13 21 18 17 6 -3 9 3 8 13 0 11 -13 24 -30 30 -24 9 -27 9 -17 -3z"/>
<path d="M11891 2146 c2 -2 15 -9 29 -15 24 -11 24 -11 6 3 -16 13 -49 24 -35
12z"/>
<path d="M12150 2117 c0 -13 -5 -28 -10 -33 -7 -7 -6 -11 5 -11 10 0 15 10 15
34 0 18 -2 33 -5 33 -3 0 -5 -10 -5 -23z"/>
<path d="M12322 2106 c7 -8 15 -12 17 -11 5 6 -10 25 -20 25 -5 0 -4 -6 3 -14z"/>
<path d="M11651 2094 c0 -11 3 -14 6 -6 3 7 2 16 -1 19 -3 4 -6 -2 -5 -13z"/>
<path d="M12180 2096 c0 -2 7 -7 16 -10 8 -3 12 -2 9 4 -6 10 -25 14 -25 6z"/>
<path d="M11851 2084 c-1 -7 8 -22 19 -35 10 -13 19 -18 20 -11 0 6 -4 12 -8
12 -5 0 -14 10 -20 23 -6 12 -11 17 -11 11z"/>
<path d="M12291 2060 c-13 -11 -19 -20 -14 -20 6 0 20 9 33 20 30 26 12 26
-19 0z"/>
<path d="M11700 2045 c-7 -8 -16 -12 -21 -9 -5 3 -9 -2 -9 -11 0 -12 4 -14 19
-6 10 6 21 17 25 26 7 19 2 19 -14 0z"/>
<path d="M12150 2039 c0 -5 5 -7 10 -4 6 3 10 8 10 11 0 2 -4 4 -10 4 -5 0
-10 -5 -10 -11z"/>
<path d="M12230 2030 c0 -5 5 -10 10 -10 6 0 10 5 10 10 0 6 -4 10 -10 10 -5
0 -10 -4 -10 -10z"/>
<path d="M11900 2022 c0 -12 19 -26 26 -19 2 2 -2 10 -11 17 -9 8 -15 8 -15 2z"/>
<path d="M11935 1990 c-3 -5 -1 -10 4 -10 6 0 11 5 11 10 0 6 -2 10 -4 10 -3
0 -8 -4 -11 -10z"/>
<path d="M11976 1987 c3 -9 0 -26 -6 -39 l-11 -23 21 24 c21 25 22 42 2 49 -7
2 -10 -2 -6 -11z"/>
<path d="M12014 1991 c11 -16 -24 -83 -40 -77 -7 3 -14 3 -14 -1 0 -13 43 -74
48 -68 3 3 0 11 -6 17 -19 19 -14 46 9 53 11 4 24 16 28 28 9 23 -3 57 -20 57
-6 0 -8 -4 -5 -9z"/>
<path d="M12175 1980 c4 -6 11 -8 16 -5 14 9 11 15 -7 15 -8 0 -12 -5 -9 -10z"/>
<path d="M12210 1980 c0 -5 5 -10 11 -10 5 0 7 5 4 10 -3 6 -8 10 -11 10 -2 0
-4 -4 -4 -10z"/>
<path d="M11900 1971 c0 -6 -15 -12 -32 -14 l-33 -4 31 -1 c18 -1 37 5 44 13
9 10 9 15 1 15 -6 0 -11 -4 -11 -9z"/>
<path d="M12067 1973 c-23 -22 15 -74 53 -73 8 1 0 7 -17 15 -39 17 -45 51
-10 58 20 4 20 4 1 6 -11 0 -24 -2 -27 -6z"/>
<path d="M12120 1972 c0 -4 9 -8 19 -8 11 0 17 4 15 8 -3 4 -12 8 -20 8 -8 0
-14 -4 -14 -8z"/>
<path d="M11796 1941 c-8 -12 13 -27 49 -34 29 -6 29 -6 -4 9 -27 12 -31 18
-20 25 12 7 11 9 -3 9 -9 0 -19 -4 -22 -9z"/>
<path d="M12313 1939 c14 -8 16 -14 6 -25 -15 -18 -44 -18 -63 1 -8 8 -22 12
-30 9 -18 -7 -22 -24 -5 -24 7 0 10 -12 7 -30 -3 -18 0 -31 9 -34 13 -5 12 15
-3 62 -7 24 17 11 37 -20 14 -23 19 -26 14 -10 -4 15 -2 22 7 22 7 0 22 7 32
15 16 12 17 17 6 30 -7 8 -18 15 -24 15 -6 0 -3 -5 7 -11z"/>
<path d="M11930 1929 c0 -5 5 -7 10 -4 6 3 10 8 10 11 0 2 -4 4 -10 4 -5 0
-10 -5 -10 -11z"/>
<path d="M11901 1857 l-25 -32 32 29 c33 31 37 36 25 35 -5 0 -19 -14 -32 -32z"/>
<path d="M12186 1863 c-6 -14 -5 -15 5 -6 7 7 10 15 7 18 -3 3 -9 -2 -12 -12z"/>
<path d="M11926 1825 c-29 -48 -42 -56 -49 -27 -3 13 -4 12 -3 -3 2 -30 28
-24 51 12 24 38 32 41 38 11 3 -17 5 -15 6 9 2 49 -14 48 -43 -2z"/>
<path d="M12012 1800 c0 -19 2 -27 5 -17 2 9 2 25 0 35 -3 9 -5 1 -5 -18z"/>
<path d="M12177 1819 c7 -7 15 -10 18 -7 3 3 -2 9 -12 12 -14 6 -15 5 -6 -5z"/>
<path d="M12257 1808 c2 -5 10 -8 18 -8 8 0 16 3 18 8 3 4 -5 7 -18 7 -13 0
-21 -3 -18 -7z"/>
<path d="M11997 1753 c-4 -3 -7 -11 -7 -17 0 -6 5 -5 12 2 6 6 9 14 7 17 -3 3
-9 2 -12 -2z"/>
<path d="M3826 2499 c-29 -23 -33 -45 -11 -76 21 -30 51 -34 80 -11 33 25 32
61 -1 87 -15 12 -30 21 -34 21 -4 0 -19 -9 -34 -21z m62 -5 c24 -17 29 -53 10
-72 -27 -27 -88 -3 -88 34 0 15 35 54 48 54 4 0 18 -7 30 -16z"/>
<path d="M12916 2451 c-25 -28 -17 -72 16 -90 25 -14 29 -14 55 5 35 26 40 57
14 83 -26 26 -63 27 -85 2z m78 -10 c22 -25 13 -58 -20 -73 -46 -21 -84 40
-48 76 21 21 47 20 68 -3z"/>
<path d="M2955 2335 c-82 -52 -150 -99 -149 -105 3 -26 5 -30 14 -30 12 0 251
147 293 180 22 17 25 25 16 36 -6 8 -14 14 -18 14 -3 -1 -73 -44 -156 -95z"/>
<path d="M2990 2094 c-47 -30 -91 -58 -99 -63 -11 -7 -11 -12 -1 -32 7 -13 14
-26 16 -28 5 -5 164 141 175 161 15 27 2 22 -91 -38z"/>
<path d="M13687 2363 c-22 -21 4 -45 144 -131 84 -51 158 -91 165 -88 33 13 4
40 -140 130 -163 102 -159 100 -169 89z"/>
<path d="M13720 2082 c0 -12 178 -172 191 -172 6 0 9 14 7 31 -3 28 -14 39
-93 90 -91 59 -105 65 -105 51z"/>
<path d="M4052 2204 c-33 -23 -27 -73 10 -94 32 -17 52 -9 77 31 14 22 13 22
-11 -3 -31 -32 -50 -35 -72 -12 -21 21 -20 47 2 67 24 22 38 21 62 -3 11 -11
20 -16 20 -11 0 12 -40 41 -55 41 -6 0 -21 -7 -33 -16z"/>
<path d="M12712 2169 c-12 -5 -27 -20 -33 -33 -25 -55 52 -103 95 -60 29 29
16 72 -29 96 -5 3 -20 2 -33 -3z m56 -21 c7 -7 12 -21 12 -33 0 -45 -53 -61
-85 -25 -15 17 -16 24 -7 45 13 27 58 35 80 13z"/>
<path d="M3763 2114 c-15 -24 -15 -29 -2 -53 20 -36 71 -41 93 -9 21 29 20 51
-2 71 -28 26 -69 21 -89 -9z m87 1 c15 -18 5 -64 -15 -72 -45 -17 -87 26 -65
67 13 24 61 27 80 5z"/>
<path d="M12970 2080 c-26 -26 -25 -52 3 -76 l22 -19 -19 22 c-42 50 20 111
66 65 25 -25 17 -56 -20 -77 -15 -8 -21 -14 -14 -15 18 0 62 46 62 65 0 21
-36 55 -60 55 -11 0 -29 -9 -40 -20z"/>
<path d="M4007 1842 c-10 -10 -17 -28 -17 -40 0 -27 33 -62 60 -62 23 0 60 37
60 60 0 25 -38 60 -64 60 -13 0 -30 -8 -39 -18z m79 -17 c20 -30 13 -51 -21
-67 -21 -9 -28 -8 -45 7 -24 22 -25 42 -3 67 23 25 50 23 69 -7z"/>
<path d="M5450 1692 c-25 -31 -129 -157 -233 -280 l-188 -222 28 -25 c15 -13
33 -25 38 -25 6 0 28 20 50 45 l40 45 50 -39 50 -40 27 26 c16 15 28 32 28 39
0 6 -21 30 -47 51 l-46 40 89 106 c49 58 92 106 95 106 3 1 27 -15 53 -35 l48
-36 29 28 c16 15 29 31 29 36 0 4 -22 25 -50 47 l-49 39 41 47 42 48 -34 28
c-19 16 -37 29 -40 28 -3 0 -25 -26 -50 -57z m100 1 c0 -3 -18 -26 -41 -51
l-40 -46 28 -21 c15 -11 39 -30 53 -42 l25 -22 -22 -22 -22 -22 -47 36 c-26
20 -50 37 -54 37 -9 0 -189 -216 -196 -235 -4 -8 -2 -15 2 -15 5 -1 26 -16 48
-34 34 -29 37 -35 27 -54 -16 -30 -31 -28 -82 13 l-44 36 -45 -51 -46 -51 -23
25 c-13 14 -18 26 -12 30 5 4 107 123 227 266 215 258 216 259 240 243 13 -8
24 -17 24 -20z"/>
<path d="M12770 1813 c48 -18 63 -58 32 -86 -25 -23 -45 -21 -68 4 -18 20 -18
22 0 52 l18 32 -21 -19 c-12 -11 -21 -26 -21 -35 0 -28 30 -61 55 -61 27 0 65
35 65 60 0 22 -37 60 -58 59 -14 0 -14 -2 -2 -6z"/>
<path d="M3727 1752 c-10 -10 -17 -23 -17 -28 0 -4 7 2 16 14 27 39 84 23 84
-23 0 -46 -57 -62 -84 -23 -9 12 -16 17 -16 11 0 -19 30 -43 55 -43 50 0 73
60 37 93 -24 22 -55 21 -75 -1z"/>
<path d="M11277 1680 c-15 -12 -27 -25 -27 -29 0 -4 17 -27 37 -50 l37 -43
-50 -44 -49 -43 32 -32 31 -32 50 36 49 37 84 -101 c46 -55 85 -106 87 -113 2
-8 -15 -28 -38 -46 -22 -17 -40 -37 -40 -44 0 -7 12 -24 28 -39 l27 -26 44 34
c24 19 46 35 50 35 3 0 25 -19 48 -42 43 -42 44 -42 71 -26 15 9 27 23 27 32
0 12 -91 125 -385 476 -35 41 -68 76 -75 78 -6 1 -23 -7 -38 -18z m262 -264
c122 -145 221 -267 221 -272 0 -5 -9 -15 -20 -22 -17 -11 -24 -8 -55 25 -19
21 -35 41 -35 46 0 15 -24 6 -70 -28 l-47 -34 -22 23 -22 23 50 38 c28 20 51
39 51 41 0 3 -45 59 -101 125 l-100 119 -46 -35 c-53 -41 -68 -43 -84 -13 -9
17 -9 24 3 32 8 6 30 23 49 38 37 30 38 26 -16 93 -28 36 -28 38 -10 51 10 8
22 14 26 14 4 0 107 -119 228 -264z"/>
<path d="M13022 1714 c-14 -10 -22 -26 -22 -44 0 -18 8 -34 22 -44 28 -20 39
-20 64 -1 18 14 17 15 -7 4 -62 -26 -101 53 -41 85 15 8 22 15 17 16 -6 0 -21
-7 -33 -16z"/>
<path d="M13084 1704 c9 -8 17 -25 17 -37 1 -16 2 -18 6 -5 5 20 -13 58 -28
58 -6 0 -3 -7 5 -16z"/>
<path d="M3518 1622 c9 -10 19 -17 21 -16 6 5 -20 34 -30 34 -5 0 -1 -8 9 -18z"/>
<path d="M3666 1388 c-21 -30 -20 -44 4 -68 37 -37 100 -14 100 37 0 49 -76
72 -104 31z m84 -4 c19 -22 1 -68 -29 -72 -24 -4 -61 23 -61 44 0 38 66 58 90
28z"/>
<path d="M13070 1350 c-11 -11 -20 -29 -20 -40 0 -24 34 -60 55 -60 19 0 65
44 65 62 -1 7 -7 1 -15 -14 -20 -35 -51 -45 -76 -22 -10 9 -19 25 -19 34 0 20
30 50 50 50 7 0 22 -7 32 -17 22 -20 24 -11 2 11 -21 22 -50 20 -74 -4z"/>
<path d="M3380 1320 c-11 -11 -20 -29 -20 -40 0 -11 9 -29 20 -40 11 -11 29
-20 40 -20 24 0 60 34 60 55 0 20 -45 65 -65 65 -8 0 -24 -9 -35 -20z m70 -10
c24 -24 25 -38 3 -62 -20 -22 -41 -23 -65 -1 -24 22 -23 49 4 67 29 20 34 20
58 -4z"/>
<path d="M13357 1272 c-24 -26 -21 -55 9 -83 23 -22 27 -23 52 -8 38 21 51 63
27 89 -23 25 -67 26 -88 2z m77 -8 c21 -21 20 -40 -4 -64 -24 -24 -29 -24 -58
-4 -24 17 -29 53 -10 72 17 17 54 15 72 -4z"/>
<path d="M4142 482 c-10 -7 -4 -31 25 -110 21 -57 43 -102 50 -102 7 0 13 -5
13 -11 0 -5 -5 -7 -12 -3 -8 5 -9 2 -5 -10 4 -10 7 -20 7 -22 0 -3 4 -3 9 0 5
4 7 -3 4 -13 -6 -24 16 -66 28 -54 9 9 -22 115 -41 138 -5 6 -8 14 -5 17 3 3
-2 22 -12 44 -9 21 -18 46 -19 54 -2 8 -7 16 -13 18 -5 2 -7 10 -4 18 3 8 0
14 -6 14 -6 0 -8 7 -5 15 7 17 4 18 -14 7z"/>
</g>
</svg>
