<?xml version="1.0" standalone="no"?>
<!DOCTYPE svg PUBLIC "-//W3C//DTD SVG 20010904//EN"
 "http://www.w3.org/TR/2001/REC-SVG-20010904/DTD/svg10.dtd">
<svg version="1.0" xmlns="http://www.w3.org/2000/svg"
 width="455.000000pt" height="455.000000pt" viewBox="0 0 455.000000 455.000000"
 preserveAspectRatio="xMidYMid meet">

<g transform="translate(0.000000,455.000000) scale(0.100000,-0.100000)"
fill="#000000" stroke="none">
<path d="M1585 4100 c4 -14 31 -74 60 -135 52 -110 71 -155 62 -155 -3 0 -29
11 -59 25 -29 14 -60 25 -68 24 -8 0 13 -13 48 -29 34 -16 62 -31 62 -33 0 -8
-47 1 -68 12 -11 6 -29 11 -39 11 -14 0 -9 -8 20 -36 44 -42 48 -53 10 -28
-16 10 -41 24 -58 32 -16 8 -43 25 -60 37 -49 35 -62 41 -41 17 23 -26 24 -26
-51 -8 -32 8 -83 17 -114 19 l-57 5 7 -26 c4 -16 25 -39 50 -56 23 -15 39 -32
34 -36 -8 -8 -103 3 -182 21 -24 5 -46 8 -48 5 -2 -2 3 -18 12 -35 18 -36 87
-83 110 -75 8 3 15 1 15 -5 0 -8 -19 -10 -63 -6 -50 5 -71 2 -107 -14 -25 -11
-55 -21 -67 -21 -13 0 -23 -4 -23 -8 0 -9 70 -42 88 -42 6 0 14 -5 17 -11 5
-7 -4 -8 -27 -4 -25 5 -47 -1 -93 -24 -33 -17 -68 -31 -77 -31 -9 0 -19 -4
-22 -9 -9 -13 74 -44 114 -43 l35 1 -30 -8 c-35 -9 -69 -27 -108 -58 -16 -13
-35 -23 -43 -23 -8 0 -14 -4 -14 -9 0 -12 26 -21 61 -21 16 0 29 -4 29 -10 0
-5 -4 -10 -10 -10 -5 0 -20 -16 -33 -35 l-24 -35 -24 29 c-13 17 -37 33 -54
36 l-30 6 31 -15 c36 -16 65 -79 45 -99 -14 -14 -15 -30 -1 -22 5 3 12 -7 15
-22 12 -56 23 -71 62 -82 l38 -11 -42 4 c-37 3 -42 1 -45 -18 -3 -18 -8 -21
-46 -18 -48 4 -141 -20 -190 -49 -18 -10 -44 -19 -56 -19 -35 0 -74 -36 -82
-76 -7 -41 16 -121 52 -173 13 -20 24 -49 24 -66 0 -41 -29 -94 -62 -113 -25
-15 -30 -15 -60 0 l-33 15 -2 -76 c-1 -42 1 -81 5 -87 10 -15 79 -5 86 12 3 7
-2 20 -10 29 -9 8 -14 23 -12 33 3 13 13 17 46 16 35 -1 50 -8 80 -36 45 -43
65 -54 120 -63 35 -6 42 -10 42 -30 0 -12 -7 -25 -15 -29 -31 -12 -6 -56 40
-69 47 -14 81 65 46 108 -14 17 -14 18 0 8 13 -10 17 -7 28 22 9 27 18 35 36
35 20 0 27 -9 42 -49 13 -38 20 -47 30 -40 7 6 18 7 24 3 7 -4 18 1 25 11 11
15 10 23 -10 52 -18 26 -23 44 -19 71 4 34 1 39 -31 60 -20 12 -36 29 -36 36
0 8 -12 24 -27 36 -25 20 -36 21 -95 15 -60 -5 -68 -4 -77 14 -16 29 -13 83 5
110 21 30 38 14 24 -23 -5 -15 -10 -35 -9 -44 1 -9 7 3 15 27 7 24 15 46 17
47 2 2 24 -22 49 -53 55 -71 130 -117 223 -139 90 -21 105 -28 135 -69 30 -40
49 -31 51 24 2 29 3 31 6 9 l4 -27 55 44 c30 25 73 54 96 66 40 21 40 21 36
70 -6 64 -47 126 -96 145 -20 8 -53 23 -72 34 -19 10 -61 25 -94 33 -52 14
-113 53 -101 65 2 3 1 12 -4 21 -18 35 -22 89 -7 104 13 12 13 18 0 42 -18 35
-18 35 9 35 20 1 20 2 5 11 -10 5 -18 17 -18 26 0 15 2 15 18 0 30 -27 45 -19
18 10 -20 22 -23 30 -15 52 6 14 16 29 22 34 8 6 6 7 -5 3 -12 -3 -18 0 -18 9
0 10 6 12 18 8 15 -6 15 -5 4 10 -18 21 -6 43 14 26 17 -14 19 2 2 19 -9 9 -8
15 8 27 10 8 15 15 10 15 -5 0 -3 7 4 15 10 12 15 13 28 3 13 -11 14 -10 3 9
-7 14 -17 20 -26 17 -8 -4 -15 -2 -15 3 0 17 13 23 25 13 7 -6 20 -8 29 -4 18
7 22 24 6 24 -5 0 -10 -6 -10 -12 0 -9 -3 -8 -9 2 -14 20 -3 32 22 24 18 -6
20 -4 10 7 -17 21 0 47 20 31 7 -7 17 -9 20 -5 12 11 8 23 -8 23 -17 0 -20 16
-5 25 6 3 13 -1 16 -9 3 -9 12 -16 20 -16 18 0 50 -32 59 -59 3 -12 13 -21 21
-21 8 0 14 -7 14 -15 0 -19 -2 -19 -44 6 -44 26 -47 11 -5 -20 23 -17 28 -26
20 -34 -9 -9 -14 -8 -20 2 -18 29 -29 1 -13 -32 9 -17 17 -41 17 -51 1 -11 7
-22 12 -23 15 -5 4 -42 -26 -85 -28 -40 -41 -47 -41 -23 0 8 5 15 10 15 24 0
7 27 -26 42 -20 9 -33 11 -31 5 3 -9 10 -15 46 -34 2 -1 -5 -10 -14 -20 -17
-16 -17 -18 3 -31 19 -12 19 -16 6 -47 -36 -88 18 -219 132 -315 72 -62 174
-94 297 -94 68 0 97 -4 97 -12 0 -7 -6 -14 -12 -17 -7 -2 -10 -8 -6 -12 8 -8
38 18 38 33 0 5 8 16 17 23 10 8 14 9 10 2 -4 -7 2 -21 15 -33 19 -17 23 -18
31 -5 4 8 12 15 17 15 13 0 13 -27 0 -32 -6 -2 -6 -8 0 -18 8 -13 10 -12 10 3
0 21 16 22 27 3 9 -16 83 -38 121 -37 19 1 22 -3 18 -22 -3 -12 -3 -16 0 -9 8
17 33 15 40 -3 5 -11 10 -13 19 -5 7 5 25 7 42 4 19 -4 40 1 63 14 19 11 52
25 73 32 20 6 37 16 37 21 0 5 7 9 16 9 8 0 12 -4 9 -10 -4 -6 9 -11 32 -11
32 -1 29 -3 -17 -9 -31 -4 -83 -22 -120 -41 -60 -31 -72 -34 -150 -33 l-85 1
35 -16 c46 -20 46 -20 31 -34 -11 -9 -14 -9 -18 1 -6 17 -23 15 -23 -3 0 -8 7
-15 16 -15 12 0 15 -6 10 -24 -5 -20 -1 -25 22 -30 15 -4 36 -10 47 -13 11 -3
16 -2 12 3 -16 16 64 31 113 21 78 -16 72 -29 -12 -25 -44 2 -71 0 -62 -5 8
-4 56 -9 107 -9 122 -2 180 22 243 99 24 30 44 59 44 64 0 16 -46 82 -92 132
-35 37 -52 47 -77 47 -36 0 -101 24 -101 38 0 5 12 7 28 4 27 -5 27 -5 8 17
-16 17 -16 21 -4 21 9 0 21 -7 28 -15 16 -19 30 -19 30 -1 0 8 -15 27 -32 42
-18 15 -25 25 -15 21 49 -18 67 -19 67 -3 0 9 7 16 15 16 13 0 14 -4 5 -20
-14 -26 3 -34 59 -28 22 2 37 0 35 -4 -8 -13 -84 -29 -104 -23 -24 8 -26 -8
-4 -29 20 -20 28 -20 20 -1 -4 12 5 15 55 15 57 0 62 -2 94 -37 19 -21 35 -41
35 -45 0 -18 -54 -6 -82 17 -16 14 -41 25 -54 25 -23 0 -21 -5 38 -74 41 -49
64 -69 66 -59 2 8 -15 35 -39 59 -24 24 -39 44 -33 44 6 0 23 -14 39 -30 19
-20 32 -27 39 -20 19 19 52 10 84 -24 20 -21 30 -40 26 -50 -3 -9 -10 -13 -15
-10 -5 3 -19 -4 -31 -15 -23 -23 -38 -20 -19 3 9 11 7 15 -8 19 -39 10 -43
-29 -6 -70 19 -22 27 -25 34 -14 6 9 11 10 15 2 11 -17 36 -13 92 13 50 23 70
51 54 75 -4 8 -17 10 -34 5 -17 -4 -35 -1 -52 11 -21 13 -25 23 -22 53 l3 37
47 -2 c46 -1 48 0 42 23 -4 17 -1 26 10 30 13 5 13 8 -6 23 l-21 17 24 20 c35
29 54 65 39 74 -7 4 -10 14 -8 21 3 8 1 21 -3 31 -5 10 -3 35 6 65 22 72 19
96 -6 46 -12 -24 -24 -43 -28 -43 -3 0 -6 40 -6 90 0 109 -20 146 -29 54 -4
-33 -11 -72 -16 -88 -5 -16 -7 -33 -4 -37 3 -5 0 -9 -5 -9 -6 0 -11 13 -11 29
0 19 -11 40 -32 62 -18 18 -25 27 -15 19 64 -48 35 154 -44 314 -21 43 -39 89
-39 102 0 13 -4 24 -9 24 -14 0 -6 -61 12 -97 19 -36 23 -127 7 -168 -24 -64
-61 35 -59 158 1 55 -3 81 -16 101 -10 14 -21 26 -25 26 -4 0 -10 -42 -13 -92
-5 -91 5 -181 26 -225 10 -23 4 -53 -12 -53 -5 0 -16 11 -25 25 -9 14 -23 25
-32 25 -8 0 -13 4 -9 9 3 5 1 12 -5 16 -5 3 -10 17 -10 30 0 13 -5 27 -11 30
-5 4 -8 12 -6 18 5 14 -33 83 -79 143 -17 24 -34 49 -37 56 -2 7 -7 11 -10 8
-4 -3 5 -28 18 -55 35 -73 30 -81 -7 -10 -58 112 -214 286 -269 299 -15 3 -54
35 -87 71 -41 44 -69 65 -84 65 -13 0 -32 6 -43 13 -46 31 -95 58 -95 53 0 -3
22 -20 49 -38 53 -36 160 -127 228 -195 53 -53 130 -168 103 -153 -10 6 -25
18 -32 28 -7 9 -19 18 -26 20 -7 1 -32 11 -55 21 -23 11 -58 22 -77 25 l-35 6
36 -14 c134 -52 184 -94 276 -235 42 -64 95 -138 118 -166 42 -51 75 -100 75
-110 0 -10 -34 13 -83 55 l-48 43 25 -39 c14 -21 39 -57 55 -79 16 -22 34 -53
40 -68 7 -19 18 -27 34 -27 32 0 84 -42 127 -103 62 -86 73 -96 45 -40 -14 29
-25 54 -25 57 0 7 59 -24 65 -35 12 -19 23 -8 34 35 6 26 21 52 33 60 21 15
23 15 31 -6 6 -17 2 -27 -18 -45 -20 -20 -25 -32 -23 -69 1 -25 -4 -50 -10
-56 -7 -7 -12 -22 -12 -35 0 -20 -4 -22 -32 -17 -27 4 -29 3 -12 -5 25 -11 84
-97 84 -122 0 -21 -22 -38 -28 -21 -2 7 -24 39 -48 71 -24 32 -44 64 -44 70 0
6 -7 11 -15 11 -8 0 -23 4 -33 9 -9 5 -35 18 -57 29 -26 13 -61 20 -100 21
-107 2 -145 14 -145 45 0 17 -43 56 -61 56 -11 0 -11 2 -1 9 29 18 63 -1 83
-45 l18 -44 71 6 c46 5 90 2 126 -6 30 -7 57 -11 60 -7 22 22 -91 157 -132
157 -12 0 -26 5 -29 10 -4 6 -12 9 -18 8 -16 -4 -94 45 -80 49 7 3 31 -5 54
-16 50 -24 49 -24 49 -10 0 17 -102 119 -145 144 -46 28 -117 97 -113 111 2 6
-30 47 -71 91 -77 85 -92 94 -251 142 -34 10 -34 10 10 5 25 -3 59 -8 75 -11
l30 -5 -25 27 c-24 27 -24 27 -2 16 25 -13 29 -3 7 25 -18 24 -19 34 -2 34 7
0 23 -13 35 -30 24 -31 28 -45 12 -35 -5 3 -10 2 -10 -4 0 -5 5 -13 11 -17 8
-5 8 -9 -1 -14 -7 -4 9 -19 44 -39 31 -17 56 -36 56 -42 0 -14 210 -223 217
-216 3 3 -4 18 -16 33 -11 15 -21 31 -21 36 0 5 -29 48 -63 96 -97 132 -92
139 12 17 25 -31 29 -33 15 -10 -81 138 -170 206 -309 241 l-30 7 25 7 c15 5
18 8 8 9 -20 1 -59 51 -81 101 -8 19 -44 69 -80 111 -58 69 -93 130 -81 142 2
2 -3 10 -12 18 -15 12 -16 11 -9 -11z m-195 -311 c12 -7 10 -8 -7 -9 -22 0
-113 35 -113 44 0 6 99 -23 120 -35z m-145 -90 c16 -6 13 -8 -15 -8 -19 0 -46
6 -60 15 -24 14 -24 14 15 8 22 -4 49 -10 60 -15z m245 1 c0 -5 -4 -10 -9 -10
-6 0 -13 5 -16 10 -3 6 1 10 9 10 9 0 16 -4 16 -10z m130 -19 c5 -11 10 -29
10 -40 0 -15 18 -32 61 -58 104 -65 107 -67 115 -131 6 -48 12 -62 44 -93 44
-42 128 -86 139 -73 5 5 4 24 -1 42 -6 24 -23 42 -63 68 -89 56 -60 90 35 42
32 -17 51 -36 68 -68 33 -64 78 -107 120 -115 20 -4 47 -15 60 -26 l25 -19
-24 -2 c-13 -1 -33 -3 -44 -4 -11 -1 -33 -2 -50 -3 l-30 -1 30 -25 30 -25 -43
21 c-23 12 -57 25 -75 30 -116 30 -155 44 -234 83 -83 41 -226 126 -211 126 3
0 27 -9 52 -20 25 -10 46 -18 46 -16 0 2 -14 21 -31 42 -37 46 -89 146 -89
171 0 9 -14 32 -32 50 -31 32 -26 43 11 23 15 -7 20 -4 29 15 14 30 37 32 52
6z m-270 -11 c0 -5 -4 -10 -10 -10 -5 0 -10 5 -10 10 0 6 5 10 10 10 6 0 10
-4 10 -10z m130 -21 c0 -6 -7 -6 -20 1 -11 6 -20 15 -20 21 0 6 7 6 20 -1 11
-6 20 -15 20 -21z m-180 7 c0 -3 -4 -8 -10 -11 -5 -3 -10 -1 -10 4 0 6 5 11
10 11 6 0 10 -2 10 -4z m148 -29 c50 -48 43 -55 -46 -42 -109 16 -131 33 -71
57 54 23 81 19 117 -15z m-323 -28 c-4 -5 -20 -9 -36 -9 -39 0 -29 17 11 18
17 0 28 -4 25 -9z m1109 -61 c48 -49 75 -87 114 -168 29 -58 61 -118 72 -135
21 -32 25 -45 12 -45 -16 0 -115 144 -142 204 -45 105 -68 143 -107 175 -21
17 -32 31 -24 31 7 0 41 -28 75 -62z m-820 7 c40 -17 159 -101 164 -116 10
-28 -108 24 -180 79 -68 52 -61 69 16 37z m-408 -54 c-3 -5 -18 -11 -33 -14
-26 -5 -26 -4 -8 9 21 15 49 19 41 5z m74 -81 c0 -5 -4 -10 -10 -10 -5 0 -10
5 -10 10 0 6 5 10 10 10 6 0 10 -4 10 -10z m1070 -5 c7 -9 8 -15 2 -15 -5 0
-12 7 -16 15 -3 8 -4 15 -2 15 2 0 9 -7 16 -15z m-828 -27 c-9 -9 -12 -7 -12
12 0 19 3 21 12 12 9 -9 9 -15 0 -24z m-362 -3 c-7 -8 -19 -15 -27 -15 -10 0
-8 6 8 19 27 22 38 19 19 -4z m100 -5 c0 -5 -4 -10 -10 -10 -5 0 -10 5 -10 10
0 6 5 10 10 10 6 0 10 -4 10 -10z m334 3 c10 -11 79 -33 102 -33 12 0 32 -9
45 -19 23 -18 23 -20 5 -27 -12 -5 -21 -2 -28 10 -5 9 -14 14 -19 11 -5 -4
-34 5 -64 19 -29 14 -59 26 -64 26 -6 0 -11 5 -11 10 0 11 23 14 34 3z m-93
-56 c-13 -13 -26 -3 -16 12 3 6 11 8 17 5 6 -4 6 -10 -1 -17z m1356 -19 c-3
-8 -6 -5 -6 6 -1 11 2 17 5 13 3 -3 4 -12 1 -19z m-912 -53 c19 -15 18 -15
-12 -1 -17 9 -35 21 -39 27 -8 13 21 -1 51 -26z m83 1 c28 -10 52 -20 52 -22
0 -8 -74 8 -102 23 -28 13 -39 29 -15 21 6 -3 36 -13 65 -22z m756 18 c9 -3
16 -15 16 -26 0 -22 -15 -16 -30 13 -12 21 -10 22 14 13z m-1689 -28 c-9 -13
-24 -27 -33 -31 -10 -4 -5 6 12 24 36 37 42 39 21 7z m559 8 c4 -12 2 -15 -9
-10 -9 3 -15 0 -15 -10 0 -11 -6 -13 -20 -9 -12 4 -20 2 -20 -5 0 -6 -14 -31
-31 -56 -16 -24 -27 -49 -24 -54 3 -6 2 -10 -4 -10 -6 0 -8 -14 -5 -32 3 -18
6 -40 6 -48 0 -8 6 -22 14 -30 7 -8 13 -19 13 -25 1 -5 9 -19 18 -30 10 -11
16 -24 15 -28 -1 -5 7 -11 18 -14 16 -4 18 -8 9 -19 -17 -21 -56 -17 -62 6 -3
11 -13 20 -22 20 -11 0 -15 5 -12 14 4 9 -3 16 -15 20 -17 4 -19 8 -9 20 10
12 8 16 -8 21 -24 7 -27 21 -8 28 9 4 9 8 -2 15 -16 12 -23 72 -8 72 5 0 2 9
-8 20 -18 20 -18 21 3 27 17 4 20 9 12 18 -15 18 3 28 33 19 22 -7 22 -6 3 15
-19 21 -19 21 8 21 18 0 26 5 24 12 -3 8 14 20 41 29 59 22 58 22 65 3z m183
-14 c24 -21 41 -29 54 -25 11 4 25 2 32 -3 7 -5 29 -15 49 -21 35 -11 136 -58
216 -99 31 -16 32 -17 10 -20 -13 -2 -27 -10 -31 -19 -6 -9 -13 -11 -20 -5 -7
5 -32 13 -57 17 -74 12 -137 40 -191 86 -29 24 -59 44 -68 44 -27 1 -141 40
-141 48 0 20 37 18 86 -6 58 -29 66 -26 32 10 -31 33 -12 28 29 -7z m1003 10
c0 -5 -2 -10 -4 -10 -3 0 -8 5 -11 10 -3 6 -1 10 4 10 6 0 11 -4 11 -10z
m-1630 -20 c0 -5 -4 -10 -10 -10 -5 0 -10 5 -10 10 0 6 5 10 10 10 6 0 10 -4
10 -10z m1668 -12 c7 -7 12 -19 12 -27 0 -11 -4 -10 -20 4 -21 19 -26 35 -12
35 4 0 13 -5 20 -12z m-1051 -57 c56 -27 87 -48 90 -61 3 -11 14 -20 24 -20
11 0 19 -4 19 -8 0 -12 -145 -42 -199 -42 -34 0 -194 35 -209 46 -6 4 27 75
49 106 21 29 24 30 81 25 41 -4 86 -18 145 -46z m-748 20 c-13 -11 -26 -17
-29 -14 -6 6 30 33 43 33 5 0 -1 -9 -14 -19z m116 -1 c3 -5 1 -10 -4 -10 -6 0
-11 5 -11 10 0 6 2 10 4 10 3 0 8 -4 11 -10z m1520 -72 c4 -27 5 -48 1 -48
-14 0 -37 64 -31 88 9 34 22 17 30 -40z m-410 12 c10 -11 14 -20 8 -20 -5 0
-18 9 -28 20 -10 11 -14 20 -8 20 5 0 18 -9 28 -20z m163 -38 c36 -43 28 -60
-8 -19 -12 12 -27 29 -35 38 -8 9 -15 19 -15 23 0 16 25 -2 58 -42z m-1248 13
c0 -8 -4 -15 -9 -15 -13 0 -22 16 -14 24 11 11 23 6 23 -9z m-70 -35 c0 -5 -2
-10 -4 -10 -3 0 -8 5 -11 10 -3 6 -1 10 4 10 6 0 11 -4 11 -10z m845 -46 c16
-10 22 -20 16 -22 -7 -2 -20 3 -30 12 -22 20 -71 21 -118 1 -19 -8 -38 -15
-41 -15 -7 0 41 36 58 43 25 11 85 0 115 -19z m-332 -4 c24 -11 60 -22 78 -24
19 -3 36 -5 39 -5 2 -1 -15 -13 -38 -28 -23 -15 -42 -33 -42 -41 0 -7 -5 -10
-11 -6 -8 4 -9 -1 -4 -17 7 -22 6 -22 -27 6 -46 38 -83 101 -66 108 8 4 7 6
-4 6 -9 1 -20 6 -23 11 -11 17 50 11 98 -10z m462 0 c35 -17 36 -18 10 -13
-39 8 -75 21 -75 28 0 10 25 4 65 -15z m839 -27 c-4 -21 -13 -45 -20 -54 -18
-21 -18 -43 1 -36 21 9 28 -9 10 -27 -12 -12 -14 -20 -5 -36 6 -12 7 -20 1
-20 -5 0 -19 21 -31 46 -17 34 -20 48 -11 57 17 17 13 31 -4 17 -25 -21 -29
-3 -6 26 18 23 21 24 22 8 0 -14 2 -15 6 -4 21 64 48 80 37 23z m-655 16 c20
-7 33 -20 37 -35 4 -14 20 -32 36 -40 21 -11 27 -19 20 -26 -15 -15 -63 -1
-69 20 -2 9 -19 26 -36 37 -18 11 -33 28 -35 38 -4 20 4 21 47 6z m-1293 -24
c23 -12 25 -15 11 -21 -21 -8 -22 -20 -3 -27 11 -4 13 -1 9 10 -4 11 -2 14 5
9 7 -4 12 -2 12 4 0 15 42 2 53 -17 5 -7 13 -10 19 -7 7 4 8 2 4 -4 -4 -7 -2
-12 3 -12 6 0 11 -7 11 -16 0 -15 2 -15 24 -1 23 15 24 15 30 -9 4 -13 23 -42
42 -64 38 -42 56 -48 158 -52 50 -3 60 -6 62 -23 2 -10 -2 -25 -7 -32 -6 -7
-8 -16 -5 -22 7 -10 -22 -25 -43 -22 -7 1 -11 -1 -8 -6 3 -4 -6 -8 -19 -8 -26
0 -33 20 -9 29 8 3 15 10 15 16 0 15 -56 3 -87 -17 -16 -11 -27 -12 -40 -4
-10 6 -13 11 -7 11 7 0 15 7 18 15 5 14 4 14 -16 0 -30 -20 -44 -19 -27 2 13
15 12 15 -6 6 -17 -10 -21 -7 -32 18 -7 16 -24 34 -38 39 -20 8 -25 16 -25 46
0 23 -10 53 -27 80 -42 66 -62 57 -22 -11 17 -28 19 -38 9 -50 -11 -13 -16
-12 -42 7 -19 13 -50 23 -82 25 -28 2 -66 6 -83 9 -29 6 -33 4 -33 -16 0 -12
-9 -29 -21 -39 -16 -13 -21 -28 -21 -66 -1 -112 40 -215 85 -215 7 0 24 -11
37 -25 l23 -25 -27 0 c-46 0 -86 28 -107 74 -23 53 -41 195 -26 214 7 9 6 11
-5 7 -11 -5 -15 1 -15 20 0 14 -4 29 -7 33 -11 11 -26 -21 -20 -43 5 -18 4
-18 -11 3 -9 12 -14 26 -11 31 3 5 -8 14 -24 20 -35 12 -38 17 -10 17 11 0 20
-4 20 -9 0 -5 7 -4 15 3 13 11 13 14 0 27 -8 8 -14 24 -14 36 2 20 2 20 6 -2
4 -18 7 -21 13 -11 7 11 13 11 32 -2 23 -15 25 -15 37 14 8 17 19 27 26 24 8
-3 16 0 19 7 3 9 8 8 15 -3 8 -12 11 -12 11 -1 0 11 3 11 15 1 22 -18 89 -4
81 17 -4 11 -2 14 9 9 8 -3 15 -1 15 4 0 13 3 13 36 -5z m1121 -6 c20 -7 24
-12 14 -18 -11 -7 -9 -11 5 -20 16 -9 14 -11 -16 -11 -19 -1 -42 -3 -51 -5
-30 -5 -84 10 -84 25 0 7 18 19 40 26 52 16 59 16 92 3z m-165 -95 c46 -15 90
-29 98 -31 28 -9 -33 -25 -83 -21 -49 3 -55 0 -35 -20 15 -15 10 -15 -87 -1
-49 8 -75 16 -75 24 0 16 69 75 87 75 6 0 49 -12 95 -26z m937 -58 c36 -68 35
-66 17 -66 -18 0 -78 109 -71 129 7 19 16 9 54 -63z m-429 39 c16 -19 1 -19
-24 0 -16 12 -17 15 -4 15 8 0 21 -7 28 -15z m-844 -10 c-22 -17 -36 -19 -36
-7 0 14 12 22 34 22 21 -1 21 -1 2 -15z m708 -5 c16 -15 -37 -22 -111 -15 -41
4 -72 9 -69 12 20 20 158 22 180 3z m-1454 -11 c0 -6 -4 -7 -10 -4 -5 3 -10
11 -10 16 0 6 5 7 10 4 6 -3 10 -11 10 -16z m788 -1 c-3 -7 -12 -14 -21 -16
-12 -2 -15 1 -11 12 7 19 38 22 32 4z m-668 -18 c42 -21 45 -26 31 -48 -6 -11
-10 -9 -14 7 -5 20 -43 41 -79 44 -10 1 -18 5 -18 9 0 14 40 8 80 -12z m702
-12 c-6 -6 -15 -8 -19 -4 -4 4 -1 11 7 16 19 12 27 3 12 -12z m-1002 -14 c0
-8 -4 -12 -10 -9 -5 3 -10 10 -10 16 0 5 5 9 10 9 6 0 10 -7 10 -16z m1750 -5
c28 -16 30 -19 10 -15 -14 3 -49 6 -79 6 -46 0 -52 2 -41 15 17 21 68 18 110
-6z m-1720 -19 c0 -5 -5 -10 -11 -10 -5 0 -7 5 -4 10 3 6 8 10 11 10 2 0 4 -4
4 -10z m794 -79 c1 -46 -15 -66 -59 -77 l-30 -7 28 26 c23 22 27 34 27 79 0
48 1 51 16 36 9 -9 17 -34 18 -57z m494 38 c-2 -6 -8 -10 -13 -10 -5 0 -11 4
-13 10 -2 6 4 11 13 11 9 0 15 -5 13 -11z m412 1 c0 -5 -10 -12 -22 -14 -13
-2 -47 -9 -76 -15 -80 -16 -105 -14 -62 6 67 30 160 44 160 23z m-322 -26 c31
-15 43 -34 22 -34 -15 0 -60 31 -60 41 0 12 2 12 38 -7z m-1351 -66 c-2 -13
-4 -5 -4 17 -1 22 1 32 4 23 2 -10 2 -28 0 -40z m1428 32 c3 -5 1 -10 -4 -10
-6 0 -11 5 -11 10 0 6 2 10 4 10 3 0 8 -4 11 -10z m-911 -80 c14 0 26 -4 26
-9 0 -9 -65 -5 -81 5 -19 11 -9 25 10 14 11 -5 31 -10 45 -10z m1267 -1 c-18
-11 -40 -18 -47 -15 -8 3 -13 0 -11 -6 1 -6 -12 -14 -28 -18 -17 -4 -43 -15
-58 -24 -21 -14 -30 -16 -41 -7 -11 9 -15 7 -19 -9 -6 -23 -37 -27 -37 -5 0 8
7 15 15 15 7 0 18 7 23 17 6 9 16 14 25 10 9 -3 19 -2 23 4 8 13 55 33 72 30
6 -1 12 3 12 9 0 14 27 13 33 -2 3 -10 10 -8 23 5 10 9 25 17 34 17 8 0 0 -9
-19 -21z m141 -31 c-12 -12 -25 -18 -29 -14 -4 4 3 16 16 27 31 25 41 15 13
-13z m-1892 -37 c-1 -13 -30 34 -30 48 0 9 7 3 15 -13 8 -15 15 -31 15 -35z
m1781 24 c-1 -15 -24 -12 -29 3 -3 9 2 13 12 10 10 -1 17 -7 17 -13z m49 -6
c0 -5 -7 -9 -15 -9 -15 0 -20 12 -9 23 8 8 24 -1 24 -14z m-78 -69 c9 0 20 -5
24 -11 4 -8 -4 -9 -27 -4 -48 11 -94 34 -107 55 -8 13 2 11 41 -11 29 -16 60
-29 69 -29z m-256 21 c-10 -16 -46 -13 -46 3 0 16 30 27 44 15 4 -4 5 -12 2
-18z m-1394 -25 c18 -27 8 -37 -22 -21 -18 9 -30 23 -30 36 0 17 3 18 23 8 12
-7 25 -17 29 -23z m1718 24 c12 -8 12 -10 -5 -10 -11 0 -27 5 -35 10 -12 8
-12 10 5 10 11 0 27 -5 35 -10z m-1455 -101 c11 -17 -1 -21 -15 -4 -8 9 -8 15
-2 15 6 0 14 -5 17 -11z"/>
<path d="M1702 3540 c17 -27 42 -36 29 -11 -6 10 -17 21 -26 24 -12 5 -13 3
-3 -13z"/>
<path d="M1680 3501 c0 -15 81 -103 88 -96 9 9 -30 83 -47 89 -9 3 -22 9 -28
12 -7 3 -13 1 -13 -5z"/>
<path d="M1548 3099 c12 -11 81 -18 87 -9 3 4 -17 10 -45 12 -27 1 -46 0 -42
-3z"/>
<path d="M1678 3083 c7 -3 16 -2 19 1 4 3 -2 6 -13 5 -11 0 -14 -3 -6 -6z"/>
<path d="M1437 2973 c-3 -5 6 -9 19 -9 13 -1 21 2 18 7 -6 11 -31 12 -37 2z"/>
<path d="M960 2860 c-13 -8 -12 -10 3 -10 9 0 17 5 17 10 0 12 -1 12 -20 0z"/>
<path d="M1070 2685 c-7 -9 -8 -15 -2 -15 5 0 12 7 16 15 3 8 4 15 2 15 -2 0
-9 -7 -16 -15z"/>
<path d="M1957 3926 c3 -16 25 -38 62 -62 81 -54 162 -126 217 -195 45 -56 49
-59 56 -38 6 17 3 28 -14 48 -23 25 -23 25 12 -2 19 -15 38 -31 42 -35 14 -13
73 -89 84 -108 11 -18 12 -17 24 8 8 16 10 41 6 62 -8 40 -49 73 -121 96 -48
15 -65 28 -65 48 0 20 83 11 109 -12 20 -18 31 -21 31 -7 0 9 -17 26 -82 81
-35 29 -156 85 -166 76 -7 -7 32 -55 45 -56 7 0 19 -13 27 -29 15 -28 15 -29
-12 -27 -17 1 -46 17 -73 39 -24 22 -61 47 -81 58 -21 10 -53 32 -71 49 -34
29 -34 29 -30 6z"/>
<path d="M2340 3585 c0 -17 39 -60 47 -52 6 7 -29 67 -39 67 -4 0 -8 -7 -8
-15z"/>
<path d="M1180 3340 c0 -5 5 -10 10 -10 6 0 10 5 10 10 0 6 -4 10 -10 10 -5 0
-10 -4 -10 -10z"/>
<path d="M1205 3290 c3 -5 10 -10 16 -10 5 0 9 5 9 10 0 6 -7 10 -16 10 -8 0
-12 -4 -9 -10z"/>
<path d="M1151 3274 c0 -11 3 -14 6 -6 3 7 2 16 -1 19 -3 4 -6 -2 -5 -13z"/>
<path d="M3238 3265 c-81 -18 -127 -42 -170 -89 -37 -41 -44 -60 -32 -91 5
-13 13 -8 41 24 19 22 48 51 66 63 28 19 26 15 -15 -32 -51 -58 -57 -70 -33
-70 21 0 19 -10 -11 -41 -20 -21 -25 -34 -20 -53 6 -25 8 -24 74 45 37 39 72
81 79 93 17 30 16 11 -2 -23 -8 -16 -29 -41 -47 -56 -46 -38 -88 -105 -88
-138 0 -17 4 -26 11 -22 6 4 8 14 5 22 -3 8 3 26 14 40 11 14 20 29 20 34 0 4
27 34 60 67 40 40 60 68 60 84 0 38 62 110 125 146 17 10 12 11 -30 10 -27 0
-76 -6 -107 -13z m62 -25 c-20 -13 -33 -13 -25 0 3 6 14 10 23 10 15 0 15 -2
2 -10z m-39 -53 c-10 -9 -11 -8 -5 6 3 10 9 15 12 12 3 -3 0 -11 -7 -18z"/>
<path d="M1090 3260 c0 -5 5 -10 10 -10 6 0 10 5 10 10 0 6 -4 10 -10 10 -5 0
-10 -4 -10 -10z"/>
<path d="M1207 3259 c7 -7 15 -10 18 -7 3 3 -2 9 -12 12 -14 6 -15 5 -6 -5z"/>
<path d="M1250 3250 c0 -11 5 -20 10 -20 6 0 10 9 10 20 0 11 -4 20 -10 20 -5
0 -10 -9 -10 -20z"/>
<path d="M1170 3151 c0 -5 7 -12 16 -15 14 -5 15 -4 4 9 -14 17 -20 19 -20 6z"/>
<path d="M2995 3050 c-6 -38 -13 -45 -42 -41 -7 1 -13 -5 -13 -14 0 -8 5 -15
10 -15 6 0 10 -8 10 -17 0 -15 2 -14 15 3 12 17 14 6 12 -104 -1 -91 1 -122
10 -122 7 0 14 10 17 23 2 12 9 47 15 77 7 30 14 67 18 82 3 15 2 36 -2 45 -6
14 -11 8 -20 -27 l-13 -45 -1 35 c-1 19 4 51 9 70 11 36 5 90 -10 90 -4 0 -11
-18 -15 -40z"/>
<path d="M3206 2965 c-9 -35 -53 -83 -93 -102 -43 -20 -43 -37 0 -29 17 3 38
7 44 8 7 1 21 11 30 22 18 21 18 21 -4 2 -13 -11 -23 -16 -23 -12 0 5 10 22
23 39 25 36 49 97 37 97 -4 0 -11 -11 -14 -25z"/>
<path d="M3095 2811 c-17 -3 -30 -13 -30 -21 0 -8 -8 -27 -19 -43 -13 -19 -17
-36 -12 -58 5 -27 4 -30 -9 -19 -8 7 -15 19 -15 26 0 8 -4 14 -10 14 -17 0
-11 -77 11 -135 15 -39 39 -74 85 -121 56 -57 83 -74 192 -126 70 -33 146 -75
170 -95 38 -31 42 -32 42 -14 0 12 10 31 21 42 17 17 19 23 8 30 -9 6 -10 9
-2 9 6 0 15 -5 18 -10 7 -11 65 -6 90 8 14 7 9 15 -33 49 -49 39 -131 78 -300
143 -45 18 -102 48 -127 66 -45 35 -97 101 -109 141 -10 30 14 93 34 93 9 0
25 7 36 15 21 16 12 17 -41 6z m225 -411 c0 -5 -4 -10 -10 -10 -5 0 -10 5 -10
10 0 6 5 10 10 10 6 0 10 -4 10 -10z"/>
<path d="M2957 2790 c7 -25 23 -37 23 -17 0 8 -6 20 -14 26 -12 10 -13 8 -9
-9z"/>
<path d="M2810 2730 c0 -5 5 -10 10 -10 6 0 10 5 10 10 0 6 -4 10 -10 10 -5 0
-10 -4 -10 -10z"/>
<path d="M1771 2674 c0 -11 3 -14 6 -6 3 7 2 16 -1 19 -3 4 -6 -2 -5 -13z"/>
<path d="M2805 2660 c-3 -5 -1 -10 4 -10 6 0 10 -3 9 -7 -1 -5 2 -24 6 -44 11
-51 -6 -76 -67 -105 -84 -39 -161 -27 -180 29 -9 25 -19 21 -49 -22 -29 -40
-106 -98 -145 -107 -22 -6 -21 -7 11 -38 20 -19 39 -49 46 -74 16 -62 -14
-122 -84 -166 -114 -72 -201 -79 -401 -36 -77 17 -169 37 -205 45 -36 7 -110
16 -165 20 -55 3 -101 8 -104 10 -2 2 -12 0 -22 -5 -12 -7 -20 -6 -24 1 -4 6
-14 7 -24 4 -9 -4 -32 -8 -51 -10 -66 -5 -125 -15 -150 -24 -14 -5 -45 -15
-69 -22 -26 -8 -46 -20 -49 -31 -5 -19 -22 -25 -22 -8 0 13 -11 13 -30 0 -13
-9 -13 -11 0 -20 13 -9 13 -11 1 -19 -12 -8 -12 -14 -4 -33 l12 -23 0 24 c1
16 6 21 15 18 8 -3 17 1 20 9 6 16 36 19 36 4 0 -5 5 -10 10 -10 6 0 10 7 10
15 0 8 7 15 15 15 8 0 15 -7 15 -15 0 -8 5 -15 10 -15 6 0 10 7 10 15 0 8 9
15 20 15 12 0 20 -7 20 -17 0 -14 3 -13 16 5 17 25 34 29 34 8 0 -18 22 -26
50 -19 13 3 25 1 30 -7 5 -9 9 -9 14 -1 4 6 2 11 -3 11 -6 0 -11 7 -11 15 0 8
7 15 15 15 8 0 15 -7 15 -15 0 -8 4 -15 9 -15 5 0 11 7 15 15 8 22 25 18 35
-7 6 -18 9 -19 14 -5 8 22 37 22 37 0 0 -14 3 -14 12 -5 10 10 10 15 -1 21 -7
5 -10 14 -7 20 12 19 22 12 36 -24 9 -23 16 -31 21 -23 5 7 3 15 -3 19 -12 7
-2 29 13 29 5 0 9 -7 9 -15 0 -8 5 -15 10 -15 6 0 10 5 10 10 0 6 9 10 20 10
11 0 20 4 20 9 0 5 9 7 20 4 11 -3 20 -14 20 -24 0 -11 4 -19 9 -19 5 0 11 -8
14 -17 4 -16 5 -16 12 1 6 13 4 21 -3 24 -20 6 -13 22 9 22 15 0 19 -5 15 -15
-3 -9 0 -15 9 -15 9 0 15 -10 16 -22 0 -22 1 -22 8 -3 5 12 4 23 -3 27 -6 4
-7 10 -3 14 4 4 2 13 -4 21 -17 19 -2 16 19 -5 10 -10 16 -24 14 -30 -2 -7 1
-12 7 -12 6 0 11 -8 11 -17 0 -15 2 -16 10 -3 5 8 5 17 1 20 -4 3 -11 18 -15
33 -5 22 -4 28 6 24 7 -2 12 -10 11 -16 -2 -6 4 -11 12 -11 8 0 15 5 15 10 0
6 7 10 15 10 8 0 15 -4 15 -10 0 -5 -6 -10 -14 -10 -20 0 -25 -21 -11 -48 10
-18 14 -20 18 -8 3 8 1 16 -5 18 -6 2 -8 10 -4 16 8 14 36 16 36 3 0 -5 7 -11
15 -15 20 -7 19 8 -1 28 -13 14 -13 16 0 16 8 0 23 -11 34 -25 24 -30 36 -32
27 -5 -4 13 -2 20 6 20 7 0 10 -3 6 -6 -6 -7 16 -34 28 -34 3 0 3 9 0 20 -8
26 3 25 28 -2 l19 -23 -6 23 c-10 31 1 28 36 -10 25 -27 30 -29 24 -11 -9 27
9 39 23 16 6 -11 11 -13 11 -5 0 10 5 10 20 2 25 -13 26 -2 3 16 -16 12 -16
13 -2 14 9 0 22 -7 29 -15 18 -22 32 -18 20 6 -11 19 -10 20 11 8 17 -9 24 -9
27 0 2 6 8 11 14 11 5 0 6 -9 3 -20 -4 -11 -2 -20 4 -20 6 0 10 4 8 9 -1 5 3
10 8 11 6 1 13 7 17 15 5 7 18 11 30 8 19 -4 20 -3 8 6 -8 6 -12 11 -7 12 4 1
10 3 15 4 4 2 17 6 30 10 12 4 22 13 22 20 0 7 13 24 29 38 17 14 27 27 24 31
-3 3 5 16 18 27 17 15 19 20 7 16 -23 -8 -22 2 2 33 26 33 26 59 0 29 l-20
-24 11 33 c9 27 8 36 -5 51 -9 10 -13 21 -9 26 5 4 0 5 -9 2 -10 -3 -20 -2
-23 2 -9 16 38 20 58 6 15 -11 24 -12 34 -3 11 9 12 7 6 -7 -5 -15 -3 -17 11
-12 10 4 29 4 42 1 19 -5 23 -11 18 -27 -5 -16 -3 -19 10 -14 11 4 16 1 16
-10 0 -9 7 -21 17 -28 11 -8 13 -17 7 -26 -5 -8 -7 -22 -6 -31 2 -10 -1 -18
-6 -18 -6 0 -8 -9 -5 -20 4 -15 0 -20 -13 -20 -18 -1 -18 -1 -1 -11 24 -14 21
-29 -5 -29 -21 -1 -21 -2 -5 -11 23 -13 22 -29 -2 -29 -14 0 -18 -5 -14 -21 5
-16 2 -20 -13 -17 -14 2 -25 -11 -46 -51 -33 -65 -37 -69 -48 -51 -5 8 -12 11
-17 7 -4 -5 -1 -12 7 -18 13 -8 13 -10 0 -19 -9 -6 -18 -6 -24 0 -6 6 -15 10
-20 10 -6 0 -5 -5 2 -12 21 -21 13 -27 -32 -24 -33 3 -43 0 -39 -9 6 -18 -16
-30 -30 -16 -16 16 -27 14 -21 -4 7 -17 -21 -21 -31 -5 -3 6 -13 10 -21 10
-10 0 -9 -5 6 -20 11 -11 25 -20 30 -20 6 0 10 -4 10 -10 0 -5 -7 -10 -15 -10
-8 0 -15 5 -15 10 0 6 -7 10 -15 10 -9 0 -18 6 -21 14 -3 8 -12 12 -21 9 -12
-5 -12 -7 -1 -14 19 -12 -3 -30 -30 -23 -12 4 -22 13 -22 20 0 8 -5 14 -11 14
-6 0 -8 -7 -5 -16 3 -9 6 -18 6 -20 0 -2 7 -4 16 -4 18 0 14 -22 -5 -28 -7 -2
-15 5 -18 17 -3 12 -11 21 -19 21 -7 0 -18 8 -23 18 -9 15 -10 15 -11 -5 0
-14 6 -23 15 -23 17 0 20 -16 6 -25 -6 -3 -15 5 -22 17 l-12 22 -8 -23 c-5
-12 -14 -21 -21 -19 -18 6 -22 28 -5 28 11 0 13 6 9 23 -5 17 -7 18 -10 5 -5
-27 -32 -30 -42 -5 -7 17 -9 18 -9 5 -1 -11 -9 -18 -20 -18 -11 0 -22 8 -24
18 -4 16 -5 16 -6 0 0 -10 -8 -18 -16 -18 -18 0 -20 26 -2 34 6 3 2 3 -11 0
-16 -4 -28 0 -37 13 -13 17 -14 17 -8 -4 3 -13 9 -23 14 -23 5 0 9 -4 9 -10 0
-5 -5 -10 -11 -10 -16 0 -39 26 -39 44 0 9 -4 16 -10 16 -5 0 -10 -7 -10 -15
0 -8 -7 -15 -15 -15 -8 0 -15 5 -15 10 0 6 -9 19 -20 30 -16 16 -20 17 -20 5
0 -8 5 -15 10 -15 6 0 10 -7 10 -16 0 -9 -7 -14 -17 -12 -11 2 -17 11 -15 21
2 10 -4 17 -13 17 -8 0 -15 8 -15 18 -1 16 -1 16 -11 0 -13 -23 -35 -23 -48 0
-10 16 -10 16 -11 0 0 -10 5 -18 10 -18 6 0 10 -7 10 -15 0 -8 -9 -15 -21 -15
-16 0 -19 4 -14 20 7 23 -10 28 -19 5 -3 -8 -10 -15 -16 -15 -5 0 -10 7 -10
15 0 8 -4 15 -10 15 -5 0 -10 -4 -10 -10 0 -18 -30 -11 -30 8 -1 16 -1 16 -14
0 -17 -23 -36 -23 -36 -1 0 14 -2 15 -12 4 -10 -11 -10 -14 0 -18 17 -7 15
-33 -3 -33 -8 0 -15 6 -15 14 0 8 -7 17 -16 20 -8 3 -12 10 -9 16 3 5 1 10 -4
10 -6 0 -11 -4 -11 -10 0 -5 -9 -10 -20 -10 -12 0 -20 7 -20 18 -1 16 -1 16
-11 0 -13 -23 -35 -23 -48 0 -10 16 -10 16 -11 0 0 -10 5 -18 10 -18 16 0 12
-18 -10 -40 -24 -24 -48 -26 -56 -5 -4 8 -10 15 -16 15 -5 0 -6 -5 -3 -10 3
-6 -1 -17 -9 -26 -9 -8 -20 -23 -25 -32 -5 -9 -13 -13 -18 -8 -4 5 -2 11 5 13
6 3 9 9 6 15 -4 6 -2 13 4 17 7 4 8 12 2 21 -8 13 -10 12 -10 -2 0 -10 -4 -18
-10 -18 -5 0 -10 -7 -10 -15 0 -17 -16 -20 -25 -5 -4 6 -15 2 -27 -9 -11 -11
-17 -24 -14 -30 8 -13 -11 -24 -25 -15 -8 4 -7 9 2 15 11 6 11 11 1 21 -9 9
-12 8 -14 -7 -2 -34 -3 -40 -9 -50 -4 -5 -5 -20 -4 -32 1 -13 -2 -23 -7 -23
-5 0 -6 -5 -2 -12 5 -7 3 -8 -5 -4 -7 5 -10 14 -7 21 8 22 -5 24 -25 4 -18
-18 -19 -24 -9 -55 7 -20 9 -38 6 -41 -9 -9 -35 29 -29 43 2 6 -3 14 -12 17
-12 5 -14 1 -9 -21 4 -15 11 -28 16 -30 14 -6 9 -32 -7 -32 -8 0 -15 6 -15 14
0 8 -7 16 -15 20 -8 3 -15 1 -15 -4 0 -6 5 -10 10 -10 6 0 10 -7 10 -15 0 -8
5 -15 10 -15 16 0 12 -28 -4 -32 -13 -3 -13 -6 0 -22 14 -19 14 -19 14 2 0 28
15 28 34 0 20 -28 20 -38 1 -38 -8 0 -15 7 -15 15 0 12 -3 13 -19 3 -11 -7
-18 -15 -15 -19 2 -4 -4 -12 -13 -18 -12 -7 -14 -10 -4 -11 8 0 20 8 27 17 17
24 32 7 16 -17 -8 -13 -8 -20 -2 -20 6 0 13 7 16 15 7 16 34 21 34 5 0 -5 -8
-14 -18 -19 -15 -9 -15 -10 6 -11 12 0 22 -4 22 -10 0 -5 6 -7 14 -4 21 8 26
-7 16 -49 -7 -35 -7 -36 12 -26 15 8 17 13 8 19 -7 4 -9 13 -6 19 4 6 11 9 16
6 10 -6 9 -75 -2 -75 -4 0 -8 -5 -8 -10 0 -6 8 -5 20 2 12 8 18 19 14 30 -3
10 -1 18 5 18 6 0 12 -6 12 -12 1 -7 2 -20 3 -28 1 -8 -3 -21 -8 -27 -5 -7 -5
-13 0 -13 5 0 -4 -9 -19 -19 -19 -12 -25 -21 -17 -26 6 -4 17 1 24 11 7 9 18
14 23 11 6 -4 13 0 16 7 3 8 2 16 -2 18 -10 4 -1 78 9 78 4 0 11 -20 14 -45 4
-24 11 -47 16 -50 5 -3 6 -13 3 -22 -6 -15 -5 -16 9 -3 10 9 13 19 7 25 -12
13 -11 35 2 35 6 0 13 -9 16 -19 4 -17 8 -18 27 -8 11 7 24 16 27 21 4 5 12 0
18 -11 7 -15 17 -19 35 -16 14 3 24 10 23 15 -1 6 3 12 8 14 14 4 65 -103 59
-121 -4 -8 -10 -13 -15 -10 -4 3 -6 12 -2 20 3 8 1 15 -5 15 -5 0 -12 -7 -16
-15 -7 -21 -36 -19 -36 2 0 15 -2 14 -14 -3 -13 -16 -13 -19 0 -22 19 -5 18
-22 -1 -22 -16 0 -23 11 -28 47 -2 12 -7 26 -11 30 -5 5 -6 -9 -2 -29 8 -42 3
-47 -42 -41 -22 4 -31 10 -28 18 3 8 -2 16 -11 20 -13 4 -14 8 -5 17 7 7 12
17 12 23 0 5 -5 2 -11 -8 -7 -11 -17 -16 -29 -12 -11 4 -20 0 -24 -11 -8 -21
2 -33 13 -15 10 16 31 6 31 -15 0 -8 5 -14 10 -14 6 0 10 -5 10 -11 0 -15 -35
-7 -36 9 -3 25 -4 27 -13 14 -7 -11 -13 -9 -30 9 -12 13 -19 29 -17 36 3 7 2
13 -3 13 -16 0 -21 -13 -9 -27 8 -10 8 -17 0 -25 -13 -13 -35 -1 -29 16 7 16
-19 49 -32 41 -6 -3 -11 -1 -11 6 0 8 -11 10 -32 6 -26 -4 -40 1 -68 24 l-34
29 26 0 c15 0 28 -6 30 -12 3 -7 7 -2 10 10 5 19 3 22 -12 17 -10 -3 -21 -2
-23 2 -3 4 -20 8 -39 7 -25 -1 -39 6 -57 27 -22 27 -51 39 -51 22 0 -5 30 -36
68 -71 65 -61 190 -142 218 -142 8 0 14 -6 14 -13 0 -7 11 -13 27 -12 18 0 29
-6 31 -17 2 -13 -3 -18 -17 -18 -11 0 -22 4 -25 9 -3 4 -26 14 -51 21 -24 7
-50 19 -56 26 -6 8 -30 23 -53 33 -39 18 -51 27 -122 91 -18 16 -36 25 -40 20
-12 -12 -153 -50 -185 -50 -31 0 -70 33 -95 81 -21 40 -23 131 -3 155 11 14
10 18 -6 30 -11 8 -26 12 -35 8 -8 -4 -39 -9 -68 -12 -46 -4 -52 -7 -47 -24 5
-13 -3 -28 -26 -49 -24 -23 -29 -33 -21 -41 18 -18 14 -36 -8 -43 -11 -3 -20
-13 -20 -20 0 -9 -14 -15 -37 -17 -20 -2 -38 -8 -40 -15 -3 -7 3 -10 15 -6 28
7 37 -15 16 -38 -16 -18 -16 -19 9 -19 14 0 29 5 32 10 3 6 12 10 18 10 15 -1
80 -88 73 -98 -2 -4 28 -23 67 -41 80 -37 131 -78 118 -95 -5 -6 -7 -22 -6
-36 2 -22 6 -25 41 -23 28 2 45 10 59 28 12 14 26 25 33 25 22 0 13 19 -23 46
-41 31 -44 47 -13 68 28 20 72 20 171 1 43 -8 97 -15 119 -15 23 0 51 -8 66
-18 40 -28 89 -42 147 -42 28 0 54 -2 57 -5 3 -3 -1 -29 -9 -58 -17 -63 -10
-108 19 -133 l22 -19 -17 25 c-20 28 -21 87 -3 145 9 30 19 42 41 50 17 6 30
16 31 23 3 36 5 42 15 42 5 0 8 -3 5 -8 -2 -4 2 -16 10 -27 12 -16 16 -17 23
-6 6 9 18 11 34 7 14 -3 29 -2 32 4 3 5 11 10 16 10 6 0 7 -4 4 -10 -9 -15 12
-12 27 4 11 11 17 10 41 -10 15 -13 47 -26 75 -29 68 -10 135 -43 129 -65 -7
-26 12 -52 32 -45 18 5 38 -29 56 -93 6 -22 5 -23 -32 -16 -21 3 -56 12 -78
20 -26 9 -43 10 -51 3 -15 -12 -7 -46 13 -53 18 -7 7 -26 -16 -26 -10 0 -23
11 -29 25 -13 29 -24 31 -46 9 -37 -36 -8 -68 53 -58 37 6 61 2 172 -27 33 -8
43 -5 104 30 36 21 72 47 80 58 7 10 17 15 21 10 22 -22 -154 -138 -221 -144
-101 -11 -165 -39 -165 -72 1 -14 2 -13 11 2 12 21 29 13 29 -14 0 -14 -7 -19
-25 -19 -28 0 -34 -15 -9 -24 30 -11 53 -6 68 16 8 12 26 22 38 24 13 1 46 5
74 9 34 5 54 4 58 -3 4 -6 -12 -39 -35 -72 -38 -56 -40 -63 -29 -90 6 -16 18
-31 26 -34 9 -3 12 -1 9 5 -4 6 3 7 19 3 20 -5 27 -2 33 12 4 11 13 25 20 32
7 7 13 20 13 28 0 8 4 14 9 14 5 0 14 14 20 32 9 26 9 34 -4 41 -18 9 -11 27
11 27 8 0 14 -7 14 -17 0 -15 2 -14 20 2 15 13 29 16 58 11 22 -3 53 -1 70 5
22 7 36 7 51 0 11 -6 27 -8 37 -4 16 6 16 7 -1 19 -25 19 -12 48 19 40 18 -4
25 -1 29 14 3 11 1 18 -3 15 -11 -7 -40 5 -40 16 0 5 9 9 20 9 11 0 20 4 20 9
0 12 -26 21 -61 21 -16 0 -45 6 -63 14 -44 18 -51 49 -33 142 l13 72 -22 0
c-20 0 -22 -4 -17 -28 4 -22 0 -31 -17 -40 -22 -12 -22 -12 -15 52 4 34 11 67
16 72 5 6 9 25 9 43 0 38 6 40 40 14 22 -17 23 -22 12 -46 -17 -37 -8 -43 13
-11 10 14 24 26 33 26 9 0 57 -42 106 -94 111 -114 143 -138 226 -168 77 -29
123 -33 208 -19 118 19 198 75 245 174 38 77 40 107 27 325 l-12 200 26 58
c42 91 57 100 241 157 65 20 80 28 80 44 1 12 7 28 15 38 12 14 12 18 0 25 -9
6 -17 5 -21 -2 -4 -6 -13 -8 -20 -6 -8 3 -20 -1 -27 -9 -7 -7 -22 -13 -33 -13
-10 0 -19 -7 -19 -15 0 -8 -4 -15 -10 -15 -5 0 -10 4 -10 10 0 13 -32 0 -47
-19 -8 -11 -12 -12 -13 -3 0 6 -4 12 -10 12 -5 0 -7 -7 -4 -15 7 -16 -37 -32
-57 -20 -8 5 -9 1 -4 -14 6 -21 -1 -25 -41 -24 -6 0 -9 -11 -6 -26 4 -21 3
-24 -9 -15 -10 8 -21 7 -39 -3 -23 -14 -24 -14 -3 -10 13 3 26 1 29 -4 3 -5
-2 -9 -11 -9 -12 0 -15 -5 -9 -22 6 -21 6 -21 -10 -5 -10 9 -20 17 -24 17 -3
0 -1 -5 6 -12 16 -16 15 -28 -3 -28 -8 0 -17 -11 -21 -25 -3 -14 -10 -25 -15
-25 -5 0 -5 -10 0 -22 9 -25 4 -48 -10 -48 -5 0 -9 10 -9 23 0 12 -7 31 -15
41 -20 26 -19 50 0 42 12 -4 15 7 17 62 1 73 1 73 -7 117 -5 25 -4 27 6 14 11
-15 14 -13 29 14 10 18 24 32 31 33 49 4 50 4 44 24 -4 11 -2 20 4 20 6 0 11
-8 11 -17 1 -17 1 -17 11 0 5 9 8 21 4 26 -3 5 -1 12 4 15 8 5 25 -30 22 -47
-1 -5 3 -6 8 -3 5 3 7 15 4 27 -5 19 -3 20 31 14 27 -5 36 -4 37 6 1 8 2 20 3
28 0 8 7 16 15 19 9 3 11 -1 6 -17 -4 -12 -2 -21 4 -21 6 0 13 11 17 25 7 29
30 28 27 -1 -1 -11 3 -8 10 9 11 28 32 36 40 15 3 -8 6 -6 6 5 1 20 27 23 34
5 3 -8 6 -5 6 6 1 13 6 17 20 13 12 -3 18 0 15 7 -3 8 7 11 30 11 33 -2 36 1
50 46 21 63 21 76 -1 57 -10 -9 -37 -25 -61 -37 -24 -12 -51 -35 -60 -52 -9
-16 -20 -29 -24 -29 -8 0 0 28 12 45 8 11 9 45 2 45 -3 0 -13 -6 -21 -14 -21
-18 -85 -36 -100 -27 -13 9 -132 -28 -255 -78 -63 -25 -105 -51 -143 -85 -29
-26 -53 -43 -53 -38 0 20 78 172 82 160 2 -6 10 10 17 38 7 27 19 63 28 79 8
17 24 46 34 65 32 61 52 158 44 216 -8 64 -2 78 26 64 13 -8 19 -7 19 0 0 13
-60 40 -88 40 -22 0 -72 36 -72 52 0 7 11 1 25 -12 14 -13 25 -18 25 -12 0 6
-4 14 -10 17 -18 11 -10 31 21 54 37 28 42 24 27 -17 -10 -27 -9 -34 7 -51 25
-29 37 -26 23 4 -8 19 -8 31 0 48 14 27 17 67 8 89 -4 9 -2 27 5 39 9 18 9 24
-1 27 -7 3 -21 13 -31 23 -22 22 -26 23 -34 9z m-105 -262 c13 -24 32 -54 42
-67 27 -35 16 -36 -38 -1 -46 29 -93 85 -81 96 3 3 12 -7 21 -23 8 -16 23 -36
32 -44 15 -11 14 -7 -4 22 -25 41 -28 59 -9 59 7 0 24 -19 37 -42z m-10 -153
c0 -8 -7 -15 -15 -15 -16 0 -20 12 -8 23 11 12 23 8 23 -8z m30 -25 c0 -5 -5
-10 -11 -10 -5 0 -7 5 -4 10 3 6 8 10 11 10 2 0 4 -4 4 -10z m-35 -19 c7 -12
-12 -24 -25 -16 -11 7 -4 25 10 25 5 0 11 -4 15 -9z m-5 -52 c0 -5 -7 -9 -15
-9 -15 0 -20 12 -9 23 8 8 24 -1 24 -14z m-10 -39 c0 -5 -4 -10 -10 -10 -5 0
-10 5 -10 10 0 6 5 10 10 10 6 0 10 -4 10 -10z m-1420 -40 c0 -5 -8 -10 -17
-10 -15 0 -16 2 -3 10 19 12 20 12 20 0z m180 0 c0 -5 -7 -10 -15 -10 -8 0
-15 5 -15 10 0 6 7 10 15 10 8 0 15 -4 15 -10z m187 4 c-3 -3 -12 -4 -19 -1
-8 3 -5 6 6 6 11 1 17 -2 13 -5z m103 -4 c0 -5 -4 -10 -9 -10 -6 0 -13 5 -16
10 -3 6 1 10 9 10 9 0 16 -4 16 -10z m-580 -10 c0 -5 -5 -10 -11 -10 -5 0 -7
5 -4 10 3 6 8 10 11 10 2 0 4 -4 4 -10z m55 0 c-3 -5 -11 -10 -16 -10 -6 0 -7
5 -4 10 3 6 11 10 16 10 6 0 7 -4 4 -10z m285 0 c0 -5 -7 -10 -15 -10 -8 0
-15 5 -15 10 0 6 7 10 15 10 8 0 15 -4 15 -10z m-145 -21 c-8 -12 -35 -12 -35
0 0 11 22 20 33 14 4 -2 5 -9 2 -14z m1245 -24 c0 -8 -4 -15 -10 -15 -5 0 -10
7 -10 15 0 8 5 15 10 15 6 0 10 -7 10 -15z m45 5 c3 -5 1 -10 -4 -10 -6 0 -11
5 -11 10 0 6 2 10 4 10 3 0 8 -4 11 -10z m-65 -45 c0 -8 -4 -15 -10 -15 -5 0
-10 7 -10 15 0 8 5 15 10 15 6 0 10 -7 10 -15z m757 -30 c-15 -14 -33 -25 -40
-25 -7 1 2 12 18 25 39 32 58 32 22 0z m-577 -17 c0 -16 -3 -19 -11 -11 -6 6
-8 16 -5 22 11 17 16 13 16 -11z m435 -23 c-28 -22 -55 -32 -55 -20 0 7 63 45
75 45 6 0 -3 -11 -20 -25z m-142 -36 c-11 -12 -27 -19 -34 -17 -9 3 -3 11 16
21 40 22 43 21 18 -4z m-1643 -14 c0 -7 5 -15 12 -17 6 -2 9 -10 7 -17 -3 -8
-13 -5 -33 12 -16 14 -26 30 -22 35 9 14 36 4 36 -13z m340 3 c0 -5 -9 -12
-20 -15 -11 -3 -20 -12 -20 -20 0 -17 -22 -13 -28 5 -2 7 3 12 11 12 8 0 17 9
20 20 3 13 10 18 21 14 9 -3 16 -11 16 -16z m680 8 c0 -7 -9 -16 -19 -19 -17
-4 -18 -2 -8 14 14 22 27 25 27 5z m-970 -10 c0 -8 7 -17 16 -20 8 -3 12 -10
9 -16 -9 -15 -25 -12 -25 5 0 8 -7 15 -15 15 -8 0 -15 7 -15 15 0 8 7 15 15
15 8 0 15 -6 15 -14z m1510 4 c0 -5 -5 -10 -11 -10 -5 0 -7 5 -4 10 3 6 8 10
11 10 2 0 4 -4 4 -10z m-1410 -10 c0 -5 -7 -10 -15 -10 -8 0 -15 5 -15 10 0 6
7 10 15 10 8 0 15 -4 15 -10z m50 0 c0 -5 -7 -10 -15 -10 -8 0 -15 5 -15 10 0
6 7 10 15 10 8 0 15 -4 15 -10z m50 -21 c0 -5 -9 -9 -20 -9 -19 0 -26 11 -14
23 8 8 34 -3 34 -14z m1011 -31 c-16 -35 -19 -37 -14 -13 7 36 23 69 30 62 2
-3 -5 -25 -16 -49z m-1291 32 c0 -5 -9 -10 -21 -10 -11 0 -17 5 -14 10 3 6 13
10 21 10 8 0 14 -4 14 -10z m995 0 c3 -5 -1 -10 -10 -10 -9 0 -13 5 -10 10 3
6 8 10 10 10 2 0 7 -4 10 -10z m-845 -10 c0 -5 -4 -10 -10 -10 -5 0 -10 5 -10
10 0 6 5 10 10 10 6 0 10 -4 10 -10z m50 0 c0 -5 -4 -10 -10 -10 -5 0 -10 5
-10 10 0 6 5 10 10 10 6 0 10 -4 10 -10z m185 0 c-3 -5 -10 -10 -16 -10 -5 0
-9 5 -9 10 0 6 7 10 16 10 8 0 12 -4 9 -10z m55 0 c0 -5 -7 -10 -15 -10 -8 0
-15 5 -15 10 0 6 7 10 15 10 8 0 15 -4 15 -10z m45 0 c3 -5 -1 -10 -9 -10 -9
0 -16 5 -16 10 0 6 4 10 9 10 6 0 13 -4 16 -10z m1085 -11 c0 -6 -4 -7 -10 -4
-5 3 -10 11 -10 16 0 6 5 7 10 4 6 -3 10 -11 10 -16z m-1665 1 c3 -5 -1 -10
-9 -10 -9 0 -16 5 -16 10 0 6 4 10 9 10 6 0 13 -4 16 -10z m1795 -11 c0 -5 -7
-9 -15 -9 -15 0 -20 12 -9 23 8 8 24 -1 24 -14z m-1735 1 c3 -5 2 -10 -4 -10
-5 0 -13 5 -16 10 -3 6 -2 10 4 10 5 0 13 -4 16 -10z m335 -10 c0 -5 -4 -10
-10 -10 -5 0 -10 5 -10 10 0 6 5 10 10 10 6 0 10 -4 10 -10z m310 2 c0 -13
-12 -22 -22 -16 -10 6 -1 24 13 24 5 0 9 -4 9 -8z m51 -7 c-1 -15 -24 -12 -29
3 -3 9 2 13 12 10 10 -1 17 -7 17 -13z m249 5 c0 -5 -7 -10 -15 -10 -8 0 -15
5 -15 10 0 6 7 10 15 10 8 0 15 -4 15 -10z m-1117 -7 c3 -5 -5 -17 -16 -28
-18 -18 -19 -18 -14 -2 4 10 7 23 7 28 0 11 17 12 23 2z m1459 -45 c2 -37 -3
-68 -18 -103 -52 -123 -64 -253 -51 -517 2 -34 0 -36 -32 -42 -19 -3 -38 -3
-43 0 -14 9 -9 24 9 24 12 0 4 13 -27 45 -39 40 -49 45 -87 45 -30 0 -45 5
-50 15 -9 26 4 29 63 16 41 -9 59 -10 67 -2 8 8 8 11 -1 11 -7 0 -41 26 -76
59 -60 55 -112 81 -136 66 -5 -3 -15 -3 -21 0 -16 10 21 34 53 35 34 0 79 20
72 31 -3 5 -15 9 -27 9 -12 0 -55 16 -95 36 -70 35 -103 40 -162 23 -12 -3
-14 5 -12 43 l4 47 -64 -27 c-35 -15 -76 -35 -91 -44 -39 -27 -51 -22 -28 11
12 16 21 39 21 50 0 12 3 21 8 22 4 0 39 2 78 4 55 2 79 8 111 28 23 14 43 30
44 35 2 5 14 13 27 16 33 11 28 -12 -13 -50 -39 -36 -49 -72 -15 -54 11 6 46
15 77 21 79 14 135 43 156 79 10 16 25 30 33 30 19 0 18 -8 -11 -59 -26 -44
-32 -71 -16 -71 5 0 11 7 14 15 4 8 38 30 76 50 70 35 121 88 121 126 0 19 9
29 26 29 9 0 14 -18 16 -52z m-612 12 c0 -5 -5 -10 -11 -10 -5 0 -7 5 -4 10 3
6 8 10 11 10 2 0 4 -4 4 -10z m50 0 c0 -5 -4 -10 -10 -10 -5 0 -10 5 -10 10 0
6 5 10 10 10 6 0 10 -4 10 -10z m60 0 c0 -5 -4 -10 -9 -10 -6 0 -13 5 -16 10
-3 6 1 10 9 10 9 0 16 -4 16 -10z m55 0 c3 -5 2 -10 -4 -10 -5 0 -13 5 -16 10
-3 6 -2 10 4 10 5 0 13 -4 16 -10z m741 -17 c-10 -10 -19 5 -10 18 6 11 8 11
12 0 2 -7 1 -15 -2 -18z m-1438 -5 c-3 -7 -13 -15 -24 -17 -16 -3 -17 -1 -5
13 16 19 34 21 29 4z m-368 -2 c0 -3 -4 -8 -10 -11 -5 -3 -10 -1 -10 4 0 6 5
11 10 11 6 0 10 -2 10 -4z m170 -35 c0 -17 -4 -33 -10 -36 -5 -3 -10 -10 -10
-15 0 -8 27 -2 108 24 21 7 23 6 17 -14 -7 -21 -6 -21 18 -5 19 12 51 17 120
18 82 2 100 5 127 25 17 13 36 22 42 20 7 -3 -9 -19 -35 -37 -50 -34 -64 -58
-23 -40 18 8 42 8 88 0 88 -15 89 -15 139 19 43 29 89 40 89 21 0 -6 -18 -20
-40 -32 -22 -13 -49 -37 -59 -54 -12 -21 -32 -35 -62 -45 -26 -8 -59 -30 -81
-53 l-37 -39 5 50 4 51 -74 -33 c-86 -37 -106 -52 -106 -77 0 -11 -7 -19 -15
-19 -20 0 -19 6 6 41 23 33 11 39 -17 8 -25 -28 -60 -21 -166 30 -46 23 -91
41 -101 41 -9 0 -17 5 -17 10 0 6 5 10 11 10 6 0 8 7 5 16 -4 10 5 29 24 50
19 22 30 46 30 64 0 17 5 30 10 30 6 0 10 -13 10 -29z m76 10 c-3 -5 -21 -14
-38 -20 l-33 -11 24 20 c23 20 57 28 47 11z m194 -1 c-8 -5 -28 -9 -45 -9 -26
0 -27 2 -10 9 11 5 31 9 45 9 20 1 22 -1 10 -9z m932 -12 c-11 -13 -36 -32
-54 -42 l-33 -19 20 23 c18 20 73 60 84 60 3 0 -5 -10 -17 -22z m718 8 c0 -3
-4 -8 -10 -11 -5 -3 -10 -1 -10 4 0 6 5 11 10 11 6 0 10 -2 10 -4z m-60 -16
c0 -5 -4 -10 -10 -10 -5 0 -10 5 -10 10 0 6 5 10 10 10 6 0 10 -4 10 -10z
m-1380 -20 c-14 -4 -36 -8 -50 -9 -20 -1 -22 1 -10 9 8 5 31 9 50 9 32 -1 33
-2 10 -9z m-730 -10 c0 -5 -2 -10 -4 -10 -3 0 -8 5 -11 10 -3 6 -1 10 4 10 6
0 11 -4 11 -10z m160 -30 c-24 -47 -32 -51 -20 -10 11 37 19 50 31 50 5 0 0
-18 -11 -40z m1055 16 c-16 -7 -43 -16 -60 -19 -26 -5 -25 -4 10 13 22 11 49
19 60 19 15 -1 13 -4 -10 -13z m-1195 -6 c0 -5 -5 -10 -11 -10 -5 0 -7 5 -4
10 3 6 8 10 11 10 2 0 4 -4 4 -10z m945 0 c-3 -5 -23 -10 -43 -9 -33 1 -34 2
-12 9 36 12 62 12 55 0z m779 -14 c-3 -7 1 -20 8 -27 17 -18 12 -113 -6 -104
-6 3 -19 8 -28 11 -10 4 -18 13 -18 20 0 8 8 14 18 15 10 0 12 3 5 6 -19 7
-16 33 5 33 12 0 13 3 5 8 -13 8 -6 52 8 52 5 0 6 -6 3 -14z m-44 -36 c0 -5
-5 -10 -11 -10 -5 0 -7 5 -4 10 3 6 8 10 11 10 2 0 4 -4 4 -10z m-1713 -40 c8
-12 9 -21 3 -25 -6 -3 -10 1 -10 9 0 9 -3 15 -7 15 -17 -3 -24 2 -18 11 9 15
19 12 32 -10z m1011 -12 c-9 -13 -26 -25 -39 -26 -21 -3 -20 -1 11 21 44 32
46 32 28 5z m697 12 c3 -5 -1 -10 -9 -10 -9 0 -16 5 -16 10 0 6 4 10 9 10 6 0
13 -4 16 -10z m-885 -24 c-14 -13 -36 -27 -50 -31 -29 -9 -24 -2 22 31 43 30
59 30 28 0z m-790 -10 c0 -3 -4 -8 -10 -11 -5 -3 -10 -1 -10 4 0 6 5 11 10 11
6 0 10 -2 10 -4z m596 -25 c-10 -11 -32 -25 -49 -31 -35 -12 -29 -3 23 33 40
27 51 26 26 -2z m1083 8 c24 -23 37 -50 50 -110 7 -32 6 -41 -8 -49 -15 -9
-14 -9 2 -10 9 0 17 -7 17 -15 0 -17 -16 -20 -25 -4 -4 6 -19 7 -36 4 -19 -4
-29 -3 -29 5 0 7 7 10 15 6 9 -3 15 0 15 9 0 7 8 16 18 18 13 4 11 5 -5 6 -13
0 -23 -3 -23 -9 0 -5 -4 -10 -10 -10 -5 0 -10 5 -10 11 0 14 25 39 39 39 6 0
11 5 11 10 0 16 -27 12 -34 -6 -3 -8 -10 -12 -16 -9 -17 10 -11 25 13 35 12 5
16 9 10 9 -20 1 -15 31 5 32 10 0 12 3 5 6 -7 2 -13 11 -13 19 0 8 -7 14 -15
14 -8 0 -15 5 -15 10 0 16 14 12 39 -11z m-1454 -10 c5 -5 1 -9 -12 -9 -11 0
-27 7 -34 16 -12 15 -11 16 11 9 14 -4 29 -11 35 -16z m1395 1 c0 -5 -4 -10
-10 -10 -5 0 -10 5 -10 10 0 6 5 10 10 10 6 0 10 -4 10 -10z m230 -10 c0 -5
-4 -10 -10 -10 -5 0 -10 5 -10 10 0 6 5 10 10 10 6 0 10 -4 10 -10z m-1589
-15 c-42 -19 -47 -19 -31 0 7 8 24 15 39 15 25 -1 25 -1 -8 -15z m1389 5 c0
-5 -4 -10 -10 -10 -5 0 -10 5 -10 10 0 6 5 10 10 10 6 0 10 -4 10 -10z m-455
-36 c11 -8 14 -14 7 -14 -17 0 -82 28 -82 35 0 9 53 -6 75 -21z m415 16 c0 -5
-5 -10 -11 -10 -5 0 -7 5 -4 10 3 6 8 10 11 10 2 0 4 -4 4 -10z m225 0 c3 -5
1 -10 -4 -10 -6 0 -11 5 -11 10 0 6 2 10 4 10 3 0 8 -4 11 -10z m-1825 -20 c0
-5 -4 -10 -10 -10 -5 0 -10 5 -10 10 0 6 5 10 10 10 6 0 10 -4 10 -10z m377 4
c-3 -3 -22 -6 -42 -6 -20 0 -39 3 -42 6 -4 3 15 6 42 6 27 0 46 -3 42 -6z
m1253 -9 c0 -8 -4 -15 -10 -15 -5 0 -10 7 -10 15 0 8 5 15 10 15 6 0 10 -7 10
-15z m-1600 -5 c0 -5 -4 -10 -10 -10 -5 0 -10 5 -10 10 0 6 5 10 10 10 6 0 10
-4 10 -10z m-655 -52 c-10 -73 -20 -79 -46 -24 -23 45 -23 46 -3 61 10 8 27
15 37 15 17 0 18 -6 12 -52z m1460 42 c3 -5 -1 -10 -9 -10 -9 0 -16 5 -16 10
0 6 4 10 9 10 6 0 13 -4 16 -10z m-55 -10 c0 -5 -4 -10 -10 -10 -5 0 -10 5
-10 10 0 6 5 10 10 10 6 0 10 -4 10 -10z m-730 -10 c0 -5 -2 -10 -4 -10 -3 0
-8 5 -11 10 -3 6 -1 10 4 10 6 0 11 -4 11 -10z m540 -10 c32 -25 24 -25 -25 0
-25 13 -32 20 -20 20 11 0 31 -9 45 -20z m336 5 c4 -8 11 -15 16 -15 6 0 17
-8 24 -17 13 -17 13 -17 14 0 0 12 8 17 26 17 22 0 24 -3 15 -14 -10 -12 -8
-13 8 -9 12 3 21 9 21 14 0 5 7 9 15 9 8 0 15 -4 15 -10 0 -5 -6 -10 -14 -10
-8 0 -17 -7 -20 -16 -3 -9 -13 -14 -21 -11 -8 4 -16 -1 -20 -11 -7 -22 -72
-64 -99 -65 -31 0 -114 13 -135 21 -10 4 -32 19 -48 33 -24 20 -30 32 -26 52
3 15 10 27 15 27 6 0 8 -9 5 -20 -3 -11 -1 -23 4 -26 5 -3 9 1 9 8 0 7 9 19
20 26 17 10 21 10 26 -3 4 -8 10 -15 15 -15 4 0 6 7 3 15 -4 10 0 15 15 15 12
0 21 -4 21 -10 0 -5 5 -10 11 -10 5 0 8 4 4 9 -11 19 18 24 32 5 13 -18 14
-18 19 4 7 25 22 29 30 7z m44 5 c0 -5 -4 -10 -10 -10 -5 0 -10 5 -10 10 0 6
5 10 10 10 6 0 10 -4 10 -10z m650 -20 c0 -5 -2 -10 -4 -10 -3 0 -8 5 -11 10
-3 6 -1 10 4 10 6 0 11 -4 11 -10z m-1530 -20 c0 -5 -7 -7 -15 -4 -8 4 -12 10
-9 15 6 11 24 2 24 -11z m1035 10 c3 -5 1 -10 -4 -10 -6 0 -11 5 -11 10 0 6 2
10 4 10 3 0 8 -4 11 -10z m672 -12 c-3 -8 -6 -5 -6 6 -1 11 2 17 5 13 3 -3 4
-12 1 -19z m-1647 -18 c0 -5 -4 -10 -10 -10 -5 0 -10 5 -10 10 0 6 5 10 10 10
6 0 10 -4 10 -10z m75 0 c3 -5 1 -10 -4 -10 -6 0 -11 5 -11 10 0 6 2 10 4 10
3 0 8 -4 11 -10z m335 -12 c0 6 5 12 10 12 6 0 10 -3 9 -7 -3 -22 14 -51 27
-46 8 3 14 -1 14 -8 0 -11 2 -11 9 1 6 8 7 18 4 24 -4 5 -1 6 7 1 8 -5 11 -22
7 -51 -4 -41 -3 -43 19 -42 13 1 24 6 24 10 0 4 12 3 26 -2 14 -6 30 -8 35 -4
5 3 9 0 9 -6 0 -7 6 -10 13 -7 7 3 24 -3 37 -13 31 -23 21 -50 -20 -50 -22 0
-33 -6 -40 -22 -5 -13 -9 -17 -9 -9 -1 11 -4 11 -18 0 -13 -11 -17 -11 -20 -1
-3 8 -11 5 -23 -10 -10 -13 -22 -20 -26 -15 -4 4 0 13 9 20 15 10 12 12 -20
11 -21 -1 -56 5 -78 13 -26 9 -41 10 -43 3 -2 -5 -8 -10 -13 -10 -5 0 -6 7 0
18 43 83 45 90 32 106 -8 9 -24 16 -37 16 -13 0 -34 10 -46 22 -29 29 -13 53
36 53 20 0 36 4 36 9 0 6 7 1 15 -10 8 -11 15 -14 15 -6z m1070 18 c0 -3 -4
-8 -10 -11 -5 -3 -10 -1 -10 4 0 6 5 11 10 11 6 0 10 -2 10 -4z m-1430 -26 c0
-5 -7 -10 -15 -10 -8 0 -15 -4 -15 -10 0 -5 -7 -10 -16 -10 -9 0 -14 6 -11 13
2 6 9 12 15 12 5 0 14 3 18 8 11 10 24 9 24 -3z m70 0 c0 -5 -2 -10 -4 -10 -3
0 -8 5 -11 10 -3 6 -1 10 4 10 6 0 11 -4 11 -10z m840 6 c0 -11 -19 -15 -25
-6 -3 5 1 10 9 10 9 0 16 -2 16 -4z m700 -6 c0 -5 -4 -10 -10 -10 -5 0 -10 5
-10 10 0 6 5 10 10 10 6 0 10 -4 10 -10z m-609 -34 c15 9 29 -14 29 -48 0 -17
5 -28 13 -28 25 0 50 -38 44 -67 -4 -24 -4 -25 8 -10 17 24 22 22 35 -18 12
-37 18 -40 103 -50 38 -4 57 -3 57 4 0 6 7 11 15 11 8 0 15 -4 15 -10 0 -5 -5
-10 -12 -10 -6 0 -8 -3 -5 -7 4 -3 19 0 34 8 20 11 27 11 30 2 6 -18 23 -16
23 2 0 8 4 15 10 15 5 0 7 7 4 15 -4 8 -1 15 5 15 6 0 10 5 9 11 -2 6 3 14 11
16 9 4 11 0 7 -15 -4 -11 -2 -23 4 -27 10 -6 15 19 12 58 -1 9 3 17 8 17 6 0
10 -6 10 -14 0 -18 6 -21 45 -30 l30 -6 -27 15 c-30 17 -37 35 -13 35 8 0 15
4 15 9 0 13 -25 20 -49 14 -12 -3 -21 -1 -21 6 0 20 64 13 78 -9 7 -12 10 -25
7 -30 -3 -5 -1 -11 5 -15 25 -16 -1 -86 -49 -132 -35 -33 -99 -30 -170 9 -63
35 -155 45 -187 20 -13 -10 -15 -16 -7 -19 9 -3 10 -10 3 -24 -7 -13 -7 -19 0
-19 5 0 10 5 10 10 0 6 8 10 18 10 16 1 16 1 0 11 -22 12 -23 29 -3 29 8 0 19
-9 25 -20 6 -11 17 -20 25 -20 8 0 15 -7 15 -15 0 -9 7 -18 16 -22 9 -3 13
-12 9 -22 -5 -13 -4 -14 6 -3 16 15 29 16 29 1 0 -16 -27 -39 -45 -39 -11 0
-15 5 -11 15 3 8 1 15 -4 15 -6 0 -10 -4 -10 -10 0 -13 -27 -13 -35 1 -4 6 2
13 13 16 11 3 23 11 26 18 5 15 -21 42 -31 31 -3 -3 -1 -6 5 -6 7 0 12 -7 12
-15 0 -8 -5 -15 -12 -15 -6 0 -19 -6 -27 -14 -23 -20 -53 -24 -59 -7 -3 10 0
12 12 8 9 -4 16 -2 16 3 0 6 7 10 16 10 8 0 12 5 9 10 -5 8 -11 7 -20 0 -19
-16 -37 -3 -30 21 4 12 2 19 -6 19 -10 0 -10 3 -1 12 17 17 15 33 -3 18 -9 -7
-18 -10 -22 -7 -3 4 -12 2 -19 -4 -19 -16 -50 -3 -35 15 14 16 2 29 -14 16 -9
-7 -22 -7 -41 1 -17 7 -24 13 -16 16 7 3 19 -1 28 -7 12 -11 13 -10 8 4 -6 15
4 21 34 17 6 -1 12 9 12 21 0 27 -32 35 -50 13 -9 -11 -7 -12 12 -8 l23 5 -23
-16 c-27 -21 -45 -12 -36 17 12 37 10 121 -3 143 -11 16 -10 24 4 44 l16 23 9
-22 c4 -13 13 -19 19 -15z m71 17 c10 -9 18 -20 18 -25 0 -11 -38 14 -44 29
-7 18 4 16 26 -4z m523 -31 c-19 -4 -35 13 -35 37 0 10 8 7 26 -10 22 -20 23
-25 9 -27z m-2461 -7 l16 -40 -20 24 c-11 13 -20 32 -20 44 0 26 4 21 24 -28z
m886 14 c0 -11 -27 -12 -34 0 -3 4 -3 11 0 14 8 8 34 -3 34 -14z m65 1 c3 -5
-1 -10 -9 -10 -9 0 -16 5 -16 10 0 6 4 10 9 10 6 0 13 -4 16 -10z m1409 -51
c-3 -5 -10 -7 -15 -3 -5 3 -7 10 -3 15 3 5 10 7 15 3 5 -3 7 -10 3 -15z m84
-14 c-3 -3 -9 2 -12 12 -6 14 -5 15 5 6 7 -7 10 -15 7 -18z m-1300 -12 c2 -8
-5 -13 -17 -13 -12 0 -21 6 -21 16 0 18 31 15 38 -3z m543 10 c0 -5 2 -17 4
-28 2 -11 -6 -31 -18 -44 l-22 -24 53 5 c28 3 52 2 52 -1 0 -3 -9 -17 -19 -30
-15 -19 -23 -22 -49 -16 -18 3 -37 15 -42 26 -6 10 -16 19 -23 19 -7 0 -21 14
-31 31 -11 18 -14 29 -7 25 6 -4 11 -2 11 4 0 7 7 9 17 6 10 -4 14 -4 10 0 -4
5 3 14 15 21 26 14 48 17 49 6z m-1051 -11 c0 -13 -12 -22 -22 -16 -10 6 -1
24 13 24 5 0 9 -4 9 -8z m897 -39 c-3 -10 -5 -4 -5 12 0 17 2 24 5 18 2 -7 2
-21 0 -30z m-847 17 c0 -5 -7 -10 -15 -10 -8 0 -15 5 -15 10 0 6 7 10 15 10 8
0 15 -4 15 -10z m-350 -10 c0 -5 -7 -10 -15 -10 -8 0 -15 5 -15 10 0 6 7 10
15 10 8 0 15 -4 15 -10z m1710 -35 c11 -13 10 -14 -4 -9 -9 3 -16 10 -16 15 0
13 6 11 20 -6z m-1040 -5 c0 -5 -4 -10 -10 -10 -5 0 -10 5 -10 10 0 6 5 10 10
10 6 0 10 -4 10 -10z m-140 -30 c0 -5 -2 -10 -4 -10 -3 0 -8 5 -11 10 -3 6 -1
10 4 10 6 0 11 -4 11 -10z m1620 -6 c0 -8 -4 -12 -10 -9 -5 3 -10 10 -10 16 0
5 5 9 10 9 6 0 10 -7 10 -16z m-230 -4 c0 -5 -4 -10 -9 -10 -6 0 -13 5 -16 10
-3 6 1 10 9 10 9 0 16 -4 16 -10z m-1442 -17 c2 -8 -5 -13 -17 -13 -12 0 -21
6 -21 16 0 18 31 15 38 -3z m56 -8 c3 -10 -1 -15 -14 -15 -20 0 -33 13 -23 24
11 11 31 6 37 -9z m926 -5 c0 -5 -4 -10 -10 -10 -5 0 -10 5 -10 10 0 6 5 10
10 10 6 0 10 -4 10 -10z m650 -10 c0 -11 -4 -20 -9 -20 -5 0 -7 9 -4 20 3 11
7 20 9 20 2 0 4 -9 4 -20z m-600 -30 c18 -14 21 -20 9 -20 -9 0 -24 9 -34 20
-23 26 -8 26 25 0z m-336 -26 c3 -9 -1 -29 -10 -46 -8 -16 -13 -36 -10 -44 12
-32 -14 -21 -48 20 -40 49 -45 66 -18 66 9 0 25 7 35 15 21 15 43 11 51 -11z
m441 5 c10 -15 -1 -23 -20 -15 -9 3 -13 10 -10 16 8 13 22 13 30 -1z m275 -27
c3 -2 -11 -1 -30 3 -19 4 -42 14 -50 22 -12 11 -6 11 30 -3 25 -9 47 -19 50
-22z m-323 2 c-9 -9 -28 6 -21 18 4 6 10 6 17 -1 6 -6 8 -13 4 -17z m45 -26
c-12 -12 -35 -1 -27 12 3 5 13 6 21 3 10 -4 12 -9 6 -15z m388 7 c-14 -8 -34
-14 -45 -14 -15 1 -13 4 10 14 40 19 67 18 35 0z m40 -19 c0 -3 -4 -8 -10 -11
-5 -3 -10 -1 -10 4 0 6 5 11 10 11 6 0 10 -2 10 -4z m-200 -46 c-14 -9 -40 -3
-40 9 0 16 14 20 33 10 15 -9 17 -13 7 -19z m30 20 c0 -6 8 -10 18 -8 9 2 17
-3 17 -11 0 -25 -22 -23 -39 4 -9 14 -12 25 -6 25 5 0 10 -5 10 -10z m-175
-10 c3 -5 -1 -10 -9 -10 -9 0 -16 5 -16 10 0 6 4 10 9 10 6 0 13 -4 16 -10z
m257 -12 c-12 -12 -35 -1 -27 12 3 5 13 6 21 3 10 -4 12 -9 6 -15z m43 12 c3
-5 -1 -10 -10 -10 -9 0 -13 5 -10 10 3 6 8 10 10 10 2 0 7 -4 10 -10z m65 6
c0 -3 -4 -8 -10 -11 -5 -3 -10 -1 -10 4 0 6 5 11 10 11 6 0 10 -2 10 -4z
m-315 -26 c-3 -5 -10 -10 -16 -10 -5 0 -9 5 -9 10 0 6 7 10 16 10 8 0 12 -4 9
-10z m55 -10 c0 -5 -7 -10 -15 -10 -8 0 -15 5 -15 10 0 6 7 10 15 10 8 0 15
-4 15 -10z m61 -17 c12 -15 12 -16 -4 -10 -10 4 -23 7 -28 7 -5 0 -9 5 -9 10
0 16 26 12 41 -7z m69 9 c0 -13 -12 -22 -22 -16 -10 6 -1 24 13 24 5 0 9 -4 9
-8z m50 4 c0 -11 -19 -15 -25 -6 -3 5 1 10 9 10 9 0 16 -2 16 -4z m-790 -10
c0 -2 -7 -7 -16 -10 -8 -3 -12 -2 -9 4 6 10 25 14 25 6z m-337 -83 c7 -35 1
-41 -19 -22 -8 9 -12 23 -8 32 9 25 21 21 27 -10z m287 3 c0 -2 -11 -6 -25 -8
-14 -3 -25 -1 -25 3 0 5 11 9 25 9 14 0 25 -2 25 -4z m93 -43 c-7 -18 -83 -92
-94 -93 -14 0 -18 30 -6 40 28 25 93 69 99 70 4 0 4 -8 1 -17z m127 -21 c22
-18 22 -19 4 -36 -11 -12 -19 -15 -22 -7 -2 6 -8 11 -14 11 -5 0 -21 9 -34 19
-22 17 -23 20 -7 24 35 9 51 7 73 -11z m-147 -58 c-14 -25 -27 -43 -30 -40 -7
6 36 86 46 86 6 0 -2 -20 -16 -46z m-56 -132 c-10 -10 -17 -23 -17 -28 0 -13
-37 -44 -52 -44 -9 0 -9 3 0 12 7 7 12 18 12 26 0 17 39 51 59 52 11 0 11 -4
-2 -18z"/>
<path d="M2246 1234 c-8 -21 -8 -24 3 -24 5 0 11 9 14 20 6 24 -8 27 -17 4z"/>
<path d="M2230 1131 c0 -5 11 -8 25 -8 14 0 25 2 25 6 0 4 -11 8 -25 9 -14 1
-25 -2 -25 -7z"/>
<path d="M2295 1070 c-3 -5 -1 -10 4 -10 6 0 11 5 11 10 0 6 -2 10 -4 10 -3 0
-8 -4 -11 -10z"/>
<path d="M2671 1054 c0 -11 3 -14 6 -6 3 7 2 16 -1 19 -3 4 -6 -2 -5 -13z"/>
<path d="M2340 1045 c-7 -9 -8 -15 -2 -15 5 0 12 7 16 15 3 8 4 15 2 15 -2 0
-9 -7 -16 -15z"/>
<path d="M2300 1035 c-7 -9 -11 -18 -8 -20 3 -3 11 1 18 10 7 9 11 18 8 20 -3
3 -11 -1 -18 -10z"/>
<path d="M2605 1010 c3 -5 8 -10 11 -10 2 0 4 5 4 10 0 6 -5 10 -11 10 -5 0
-7 -4 -4 -10z"/>
<path d="M2615 2640 c3 -5 11 -10 16 -10 6 0 7 5 4 10 -3 6 -11 10 -16 10 -6
0 -7 -4 -4 -10z"/>
<path d="M1407 2568 c-4 -15 -3 -17 8 -8 7 6 18 9 25 8 7 -2 14 2 17 8 2 7 -7
12 -21 12 -16 0 -26 -7 -29 -20z"/>
<path d="M1296 2527 c-39 -28 -71 -57 -73 -63 -2 -7 19 -28 46 -48 28 -21 61
-50 75 -67 30 -35 39 -25 39 40 0 43 0 44 11 19 18 -42 47 -68 108 -99 32 -16
62 -38 68 -49 6 -11 15 -20 20 -20 13 0 13 77 0 85 -5 3 -10 13 -10 22 0 10
17 -2 43 -31 24 -25 50 -46 58 -47 45 -2 167 -18 186 -24 39 -13 15 34 -38 72
-27 19 -49 39 -49 44 0 15 31 10 56 -10 33 -26 99 -33 164 -17 l55 14 -67 1
c-38 1 -68 5 -68 10 0 14 51 19 110 11 30 -4 56 -6 58 -5 8 7 -92 65 -113 65
-13 0 -27 5 -30 11 -5 7 -14 4 -26 -7 -11 -9 -22 -14 -26 -11 -4 4 2 14 13 23
18 15 18 15 -6 10 -18 -4 -32 2 -48 19 -19 19 -28 23 -42 15 -24 -13 -30 -13
-30 3 0 6 -12 20 -25 30 -24 17 -25 17 -25 -3 0 -11 7 -20 15 -20 8 0 15 -7
15 -15 0 -8 7 -15 16 -15 11 0 15 -6 11 -20 -3 -11 -1 -18 4 -14 5 3 9 12 9
20 0 19 26 18 34 -1 3 -8 12 -15 21 -15 8 0 15 -7 15 -15 0 -8 -9 -15 -20 -15
-11 0 -20 7 -20 15 0 8 -4 15 -10 15 -5 0 -10 -6 -10 -14 0 -23 -22 -31 -35
-13 -15 21 -25 22 -25 2 0 -8 -7 -15 -15 -15 -8 0 -15 4 -15 9 0 5 7 11 15 15
21 8 19 33 -5 46 -14 7 -20 7 -20 0 0 -5 5 -10 10 -10 6 0 10 -7 10 -15 0 -8
-7 -15 -15 -15 -8 0 -15 5 -15 10 0 6 -9 19 -20 30 -11 11 -20 16 -20 10 0 -5
-7 -10 -15 -10 -8 0 -15 7 -15 15 0 8 -4 15 -10 15 -5 0 -10 -7 -10 -15 0 -8
-7 -15 -15 -15 -8 0 -15 7 -15 17 0 14 -2 14 -20 -2 -19 -17 -20 -17 -29 6 -8
21 -10 22 -16 7 -8 -21 -35 -24 -35 -4 0 8 7 16 15 20 8 3 15 10 15 15 0 6
-16 -1 -36 -14 -40 -27 -59 -24 -50 8 4 15 2 17 -7 8 -16 -16 -37 -14 -37 4 0
9 -6 12 -17 9 -17 -5 -17 -5 0 6 17 11 23 30 10 30 -5 0 -39 -24 -77 -53z
m104 -37 c0 -5 -7 -10 -15 -10 -8 0 -15 5 -15 10 0 6 7 10 15 10 8 0 15 -4 15
-10z m40 -20 c0 -5 -4 -10 -10 -10 -5 0 -10 5 -10 10 0 6 5 10 10 10 6 0 10
-4 10 -10z m-125 -30 c16 -16 26 -32 24 -34 -5 -5 -69 51 -69 60 0 12 19 1 45
-26z m205 15 c0 -8 -7 -15 -15 -15 -26 0 -18 20 13 29 1 1 2 -6 2 -14z m60 -4
c0 -12 -28 -22 -34 -12 -3 5 -3 11 1 15 9 9 33 7 33 -3z m48 -3 c-6 -18 -28
-21 -28 -4 0 9 7 16 16 16 9 0 14 -5 12 -12z m52 -3 c0 -8 -7 -15 -15 -15 -8
0 -15 7 -15 15 0 8 7 15 15 15 8 0 15 -7 15 -15z m-150 -35 c0 -5 -4 -10 -10
-10 -5 0 -10 5 -10 10 0 6 5 10 10 10 6 0 10 -4 10 -10z m50 0 c0 -5 -5 -10
-11 -10 -5 0 -7 5 -4 10 3 6 8 10 11 10 2 0 4 -4 4 -10z m60 0 c0 -5 -4 -10
-10 -10 -5 0 -10 5 -10 10 0 6 5 10 10 10 6 0 10 -4 10 -10z m46 -17 c-10 -10
-19 5 -10 18 6 11 8 11 12 0 2 -7 1 -15 -2 -18z m198 2 c-4 -8 -11 -12 -16 -9
-6 4 -5 10 3 15 19 12 19 11 13 -6z m-348 -56 c42 -44 24 -43 -26 1 -32 27
-39 37 -24 33 12 -2 34 -18 50 -34z m283 -45 l26 -15 -25 5 c-14 2 -42 8 -63
11 -20 4 -40 12 -44 18 -9 15 73 0 106 -19z"/>
<path d="M1570 2571 c0 -6 5 -13 10 -16 6 -3 10 1 10 9 0 9 -4 16 -10 16 -5 0
-10 -4 -10 -9z"/>
<path d="M1620 2556 c0 -9 5 -16 10 -16 6 0 10 -8 10 -17 1 -17 1 -17 11 0 13
23 24 22 36 -5 l10 -22 5 22 c4 15 2 22 -8 22 -8 0 -14 5 -14 11 0 6 -7 8 -16
5 -9 -4 -23 -1 -30 5 -11 9 -14 8 -14 -5z"/>
<path d="M1981 2514 c0 -11 3 -14 6 -6 3 7 2 16 -1 19 -3 4 -6 -2 -5 -13z"/>
<path d="M921 2274 c0 -11 3 -14 6 -6 3 7 2 16 -1 19 -3 4 -6 -2 -5 -13z"/>
<path d="M3690 2248 c0 -8 10 -23 22 -34 l21 -19 -18 30 c-26 41 -25 40 -25
23z"/>
<path d="M3561 2136 c7 -15 15 -23 17 -16 3 7 -3 19 -13 28 -15 16 -16 15 -4
-12z"/>
<path d="M3555 2090 c-3 -5 -1 -10 4 -10 6 0 11 5 11 10 0 6 -2 10 -4 10 -3 0
-8 -4 -11 -10z"/>
<path d="M984 2028 c-4 -6 -2 -14 4 -16 16 -5 15 -19 -2 -25 -10 -4 -13 -1 -9
9 3 9 -2 14 -16 14 -12 0 -21 -5 -21 -10 0 -6 -11 -15 -25 -20 -14 -5 -25 -14
-25 -20 0 -5 -6 -10 -14 -10 -8 0 -18 -9 -21 -20 -3 -11 -13 -20 -21 -20 -8 0
-14 -5 -14 -12 0 -6 -7 -18 -15 -27 -8 -9 -23 -26 -35 -38 -11 -13 -20 -30
-20 -38 0 -8 -4 -15 -10 -15 -5 0 -10 -11 -10 -25 0 -14 -4 -25 -10 -25 -5 0
-10 -11 -10 -24 0 -14 -5 -28 -10 -31 -6 -4 -8 -16 -4 -27 4 -13 1 -24 -7 -29
-11 -6 -11 -11 -2 -20 9 -9 10 -16 1 -26 -8 -10 -8 -17 0 -25 6 -6 8 -17 5
-24 -3 -8 0 -20 6 -28 6 -7 9 -20 6 -28 -4 -9 1 -18 10 -22 10 -4 15 -12 11
-21 -3 -9 3 -20 14 -27 11 -7 20 -20 20 -29 0 -18 26 -33 41 -23 6 3 16 0 24
-6 10 -8 15 -9 15 -2 0 6 -5 14 -10 17 -8 5 -7 11 1 21 9 11 8 14 -5 14 -9 0
-15 -6 -14 -12 2 -7 -3 -13 -10 -13 -19 0 -65 84 -59 107 3 10 2 16 -3 13 -4
-2 -10 9 -14 26 -10 52 -7 67 12 64 9 -1 12 0 6 2 -14 5 -26 61 -17 77 4 6 7
20 8 31 0 13 6 19 18 19 19 -2 23 12 5 18 -7 3 -8 9 -3 19 5 8 10 21 10 29 0
8 8 14 18 14 12 -1 16 3 13 15 -3 9 -1 23 4 31 9 13 11 13 21 0 9 -13 10 -12
5 3 -8 26 4 48 24 42 10 -3 25 1 33 10 9 8 23 15 31 15 9 0 16 4 16 10 0 5 -7
7 -15 4 -9 -4 -15 0 -15 9 0 22 28 29 39 9 9 -15 10 -14 11 5 0 28 17 38 35
23 12 -10 15 -9 15 8 0 11 4 22 9 24 4 2 12 13 15 26 6 18 3 22 -13 22 -11 0
-23 -5 -27 -12z m-94 -117 c0 -12 -20 -25 -27 -18 -7 7 6 27 18 27 5 0 9 -4 9
-9z"/>
<path d="M1630 2034 c0 -3 6 -12 14 -19 12 -12 15 -12 19 -1 3 8 -1 17 -9 20
-19 7 -24 7 -24 0z"/>
<path d="M1607 2023 c-4 -3 -7 -11 -7 -17 0 -6 5 -5 12 2 6 6 9 14 7 17 -3 3
-9 2 -12 -2z"/>
<path d="M1261 2004 c0 -11 3 -14 6 -6 3 7 2 16 -1 19 -3 4 -6 -2 -5 -13z"/>
<path d="M1151 1994 c0 -11 3 -14 6 -6 3 7 2 16 -1 19 -3 4 -6 -2 -5 -13z"/>
<path d="M1200 1995 c0 -8 2 -15 4 -15 2 0 6 7 10 15 3 8 1 15 -4 15 -6 0 -10
-7 -10 -15z"/>
<path d="M3382 1967 c-5 -7 -12 -22 -14 -34 -4 -16 -2 -20 8 -16 8 3 14 9 14
14 0 5 7 9 15 9 19 0 19 7 1 25 -11 11 -16 12 -24 2z"/>
<path d="M3445 1971 c-7 -12 12 -24 25 -16 11 7 4 25 -10 25 -5 0 -11 -4 -15
-9z"/>
<path d="M1505 1919 c-4 -6 -5 -12 -2 -15 2 -3 7 2 10 11 7 17 1 20 -8 4z"/>
<path d="M1556 1921 c-4 -7 -5 -15 -2 -18 9 -9 19 4 14 18 -4 11 -6 11 -12 0z"/>
<path d="M1261 1868 c-1 -10 1 -18 3 -18 2 0 11 -3 20 -6 9 -3 16 -1 16 5 0 6
-6 11 -14 11 -8 0 -17 6 -19 13 -3 7 -6 5 -6 -5z"/>
<path d="M1160 1858 c0 -9 -6 -18 -12 -21 -7 -2 -10 -8 -6 -12 12 -13 37 20
27 36 -7 11 -9 11 -9 -3z"/>
<path d="M852 1836 c7 -8 15 -12 17 -11 5 6 -10 25 -20 25 -5 0 -4 -6 3 -14z"/>
<path d="M1040 1830 c0 -5 5 -10 11 -10 5 0 7 5 4 10 -3 6 -8 10 -11 10 -2 0
-4 -4 -4 -10z"/>
<path d="M1076 1815 c4 -8 8 -15 10 -15 2 0 4 7 4 15 0 8 -4 15 -10 15 -5 0
-7 -7 -4 -15z"/>
<path d="M810 1806 c0 -2 8 -10 18 -17 15 -13 16 -12 3 4 -13 16 -21 21 -21
13z"/>
<path d="M855 1800 c3 -5 8 -10 11 -10 2 0 4 5 4 10 0 6 -5 10 -11 10 -5 0 -7
-4 -4 -10z"/>
<path d="M1030 1801 c0 -6 4 -13 10 -16 6 -3 7 1 4 9 -7 18 -14 21 -14 7z"/>
<path d="M986 1775 c4 -8 8 -15 10 -15 2 0 4 7 4 15 0 8 -4 15 -10 15 -5 0 -7
-7 -4 -15z"/>
<path d="M780 1766 c0 -2 8 -10 18 -17 15 -13 16 -12 3 4 -13 16 -21 21 -21
13z"/>
<path d="M1025 1760 c4 -7 2 -15 -4 -20 -9 -5 -8 -10 2 -19 12 -9 15 -7 15 14
0 14 -5 28 -11 32 -6 4 -7 1 -2 -7z"/>
<path d="M3353 1759 c-41 -12 -45 -34 -5 -24 15 3 34 13 42 21 16 16 9 16 -37
3z"/>
<path d="M983 1738 c4 -10 2 -18 -3 -18 -6 0 -10 -4 -10 -10 0 -16 17 -11 24
7 4 9 1 21 -5 27 -9 8 -10 7 -6 -6z"/>
<path d="M3851 1702 l-20 -29 22 2 c12 1 35 3 50 4 23 1 28 5 25 24 -5 36 -51
35 -77 -1z"/>
<path d="M801 1694 c0 -11 3 -14 6 -6 3 7 2 16 -1 19 -3 4 -6 -2 -5 -13z"/>
<path d="M3311 1696 c-9 -11 -7 -15 11 -20 l23 -7 -21 -9 c-12 -5 -29 -18 -37
-30 -14 -20 -15 -20 -19 -3 -6 31 -41 -57 -41 -103 0 -53 34 -120 58 -116 12
2 16 -1 12 -11 -3 -9 8 -28 27 -46 36 -35 48 -39 39 -13 -4 10 11 1 36 -21 23
-21 53 -42 67 -47 15 -6 22 -15 18 -22 -4 -6 -3 -8 4 -4 5 3 12 2 14 -4 2 -6
33 -16 70 -23 59 -11 65 -14 57 -29 -8 -14 -6 -18 5 -18 8 0 18 5 21 10 3 6
23 10 43 10 50 1 71 14 133 85 67 77 131 215 100 215 -8 0 -9 5 -1 19 15 29
12 97 -5 115 -8 8 -15 20 -15 27 0 10 -3 10 -12 1 -9 -9 -8 -15 8 -26 39 -29
13 -157 -39 -191 -23 -15 -28 -14 -66 1 -41 16 -42 16 -66 -6 -30 -28 -34 -51
-5 -25 16 15 30 17 80 12 52 -6 63 -4 80 13 23 23 27 13 6 -16 -11 -14 -26
-19 -63 -19 -31 0 -58 -7 -73 -18 -14 -9 -47 -33 -74 -52 -54 -39 -82 -43
-129 -19 -17 10 -44 17 -59 16 -25 -1 -27 2 -22 26 10 42 12 43 65 36 43 -6
53 -4 70 15 14 14 27 19 42 16 16 -4 35 3 62 25 27 22 46 29 60 25 11 -3 37
-9 57 -12 34 -5 39 -3 58 28 24 40 24 104 0 104 -16 0 -17 -6 -5 -45 7 -21 6
-23 -6 -13 -12 10 -17 8 -27 -8 -9 -13 -23 -19 -50 -19 -21 0 -42 3 -46 7 -4
4 -22 8 -41 10 -33 2 -33 1 -28 -34 9 -53 -19 -38 -33 18 -11 43 -11 44 -49
41 -23 -2 -41 2 -46 10 -6 10 -11 10 -20 1 -14 -14 -43 0 -72 34 -14 18 -22
20 -42 13 -28 -10 -30 -8 -15 20 6 10 6 21 1 24 -4 3 -7 19 -5 36 4 29 3 30
-40 30 -25 0 -48 -6 -55 -14z m69 -26 c0 -5 -7 -10 -16 -10 -8 0 -12 5 -9 10
3 6 10 10 16 10 5 0 9 -4 9 -10z m-40 -38 c-8 -3 -22 -10 -30 -16 -8 -6 -7 -1
4 11 10 13 23 20 29 16 7 -4 6 -8 -3 -11z m-77 -104 c-8 -59 -13 -61 -13 -5 0
26 4 47 9 47 5 0 7 -19 4 -42z m73 -106 c-5 -4 -46 35 -46 45 0 3 11 -4 25
-17 14 -13 23 -25 21 -28z m109 3 c28 -7 42 -14 32 -14 -11 -1 -20 -12 -23
-31 -8 -35 -18 -37 -63 -9 -27 16 -39 19 -57 10 -13 -6 -26 -7 -28 -2 -10 15
39 30 60 18 17 -9 17 -9 6 5 -11 14 -10 18 5 27 10 6 18 10 18 10 0 0 23 -6
50 -14z"/>
<path d="M760 1681 c0 -5 7 -12 16 -15 14 -5 15 -4 4 9 -14 17 -20 19 -20 6z"/>
<path d="M940 1670 c8 -5 20 -10 25 -10 6 0 3 5 -5 10 -8 5 -19 10 -25 10 -5
0 -3 -5 5 -10z"/>
<path d="M911 1654 c0 -11 3 -14 6 -6 3 7 2 16 -1 19 -3 4 -6 -2 -5 -13z"/>
<path d="M900 1616 c4 -4 16 -4 26 2 16 9 14 10 -8 9 -15 -1 -23 -6 -18 -11z"/>
<path d="M888 1573 c6 -2 12 -11 12 -18 0 -7 6 -15 14 -18 11 -4 11 -1 2 19
-6 13 -18 24 -26 23 -10 0 -11 -2 -2 -6z"/>
<path d="M3835 1560 c-3 -5 -1 -10 4 -10 6 0 11 5 11 10 0 6 -2 10 -4 10 -3 0
-8 -4 -11 -10z"/>
<path d="M890 1495 c7 -9 15 -13 17 -11 7 7 -7 26 -19 26 -6 0 -6 -6 2 -15z"/>
<path d="M208 1456 c-26 -17 -47 -37 -47 -45 -1 -11 2 -11 14 -1 25 21 37 1
18 -31 -26 -45 -6 -57 46 -28 23 12 41 27 41 33 0 5 11 21 24 35 19 20 22 31
15 49 -12 31 -53 27 -111 -12z m22 -36 c0 -5 -2 -10 -4 -10 -3 0 -8 5 -11 10
-3 6 -1 10 4 10 6 0 11 -4 11 -10z"/>
<path d="M855 1470 c-3 -5 -1 -10 4 -10 6 0 11 5 11 10 0 6 -2 10 -4 10 -3 0
-8 -4 -11 -10z"/>
<path d="M768 1453 c7 -3 16 -2 19 1 4 3 -2 6 -13 5 -11 0 -14 -3 -6 -6z"/>
<path d="M808 1433 c7 -3 16 -2 19 1 4 3 -2 6 -13 5 -11 0 -14 -3 -6 -6z"/>
<path d="M790 1410 c-13 -8 -12 -10 3 -10 9 0 17 5 17 10 0 12 -1 12 -20 0z"/>
<path d="M940 1390 c-13 -8 -12 -10 3 -10 9 0 17 5 17 10 0 12 -1 12 -20 0z"/>
<path d="M993 1380 c2 -8 -3 -24 -12 -35 -15 -19 -15 -19 2 -5 13 9 21 10 25
3 5 -8 13 -7 26 3 11 7 16 17 12 21 -4 4 -11 1 -16 -7 -10 -16 -11 -15 -29 15
-7 11 -10 13 -8 5z"/>
<path d="M3618 1383 c0 -5 -2 -15 -2 -23 -1 -16 -30 -19 -83 -6 -18 4 -33 4
-33 -1 0 -4 24 -14 53 -21 51 -12 52 -12 70 13 10 14 25 25 33 25 9 0 12 5 9
10 -7 12 -44 14 -47 3z"/>
<path d="M870 1305 c-8 -9 -8 -15 -2 -15 12 0 26 19 19 26 -2 2 -10 -2 -17
-11z"/>
<path d="M1010 1310 c-8 -5 -10 -10 -5 -10 6 0 17 5 25 10 8 5 11 10 5 10 -5
0 -17 -5 -25 -10z"/>
<path d="M910 1300 c-13 -8 -13 -10 2 -10 9 0 20 5 23 10 8 13 -5 13 -25 0z"/>
<path d="M1045 1270 c-14 -15 -15 -20 -4 -20 10 -1 8 -5 -5 -15 -11 -8 -17
-18 -13 -21 10 -10 39 25 31 37 -3 6 0 15 7 20 7 4 11 10 8 14 -3 3 -14 -4
-24 -15z"/>
<path d="M1005 1270 c-3 -5 -2 -10 4 -10 5 0 13 5 16 10 3 6 2 10 -4 10 -5 0
-13 -4 -16 -10z"/>
<path d="M1080 1240 c0 -5 4 -10 9 -10 6 0 13 5 16 10 3 6 -1 10 -9 10 -9 0
-16 -4 -16 -10z"/>
<path d="M985 1220 c-3 -5 -1 -10 4 -10 6 0 11 5 11 10 0 6 -2 10 -4 10 -3 0
-8 -4 -11 -10z"/>
<path d="M1275 1219 c-10 -15 3 -25 16 -12 7 7 7 13 1 17 -6 3 -14 1 -17 -5z"/>
<path d="M1240 1195 c-7 -9 -8 -15 -2 -15 5 0 12 7 16 15 3 8 4 15 2 15 -2 0
-9 -7 -16 -15z"/>
<path d="M1338 1203 c7 -3 16 -2 19 1 4 3 -2 6 -13 5 -11 0 -14 -3 -6 -6z"/>
<path d="M1145 1189 c-4 -6 -5 -13 -2 -16 7 -7 27 6 27 18 0 12 -17 12 -25 -2z"/>
</g>
</svg>
