<?xml version="1.0" standalone="no"?>
<!DOCTYPE svg PUBLIC "-//W3C//DTD SVG 20010904//EN"
 "http://www.w3.org/TR/2001/REC-SVG-20010904/DTD/svg10.dtd">
<svg version="1.0" xmlns="http://www.w3.org/2000/svg"
 width="456.000000pt" height="456.000000pt" viewBox="0 0 456.000000 456.000000"
 preserveAspectRatio="xMidYMid meet">

<g transform="translate(0.000000,456.000000) scale(0.100000,-0.100000)"
fill="#000000" stroke="none">
<path d="M2940 4135 c-7 -8 -10 -15 -7 -15 18 0 -35 -86 -94 -154 -38 -44 -69
-86 -69 -93 0 -8 -13 -34 -29 -57 -27 -39 -35 -44 -83 -49 -64 -8 -147 -46
-208 -95 -24 -20 -40 -30 -35 -22 71 115 142 198 220 255 22 17 43 35 47 41 4
6 39 33 78 59 90 61 103 80 18 26 -36 -23 -75 -41 -86 -41 -14 0 -50 -28 -95
-75 -41 -41 -80 -75 -86 -75 -7 0 -9 5 -5 12 13 21 -50 -29 -92 -74 -75 -79
-136 -162 -167 -226 -16 -34 -32 -60 -35 -58 -2 3 8 30 23 61 16 30 26 57 23
60 -3 3 -20 -18 -39 -47 -19 -29 -42 -64 -51 -78 -25 -36 -39 -70 -33 -80 3
-5 1 -11 -5 -15 -5 -3 -10 -14 -10 -24 0 -30 -24 -71 -42 -71 -10 0 -18 -6
-18 -14 0 -8 -7 -16 -15 -20 -9 -3 -12 -13 -9 -23 3 -10 -2 -5 -11 11 -13 22
-15 34 -6 50 14 28 37 147 32 166 -2 8 -6 51 -10 95 l-6 79 -19 -29 c-15 -23
-20 -50 -21 -125 -3 -100 -24 -175 -47 -168 -7 3 -17 33 -22 67 -8 54 -6 70
12 114 11 29 23 77 25 107 2 30 2 44 0 30 -3 -14 -9 -29 -14 -34 -5 -6 -9 -20
-9 -32 0 -12 -19 -58 -41 -103 -23 -45 -44 -101 -47 -126 -2 -25 -8 -45 -12
-45 -4 0 -10 -22 -13 -49 -9 -80 8 -114 39 -73 7 9 14 12 14 5 0 -16 -30 -44
-40 -38 -10 6 -25 -36 -30 -80 -3 -28 -18 26 -25 85 -2 25 -8 59 -13 75 l-9
30 -8 -35 c-5 -19 -8 -68 -7 -107 1 -40 0 -73 -3 -73 -6 0 -36 58 -46 90 -15
44 -4 -49 12 -104 10 -35 11 -50 3 -53 -6 -2 -9 -15 -6 -30 3 -16 1 -24 -6
-20 -5 4 -13 0 -16 -9 -3 -8 -2 -13 2 -10 5 3 25 -15 46 -39 20 -25 31 -45 24
-45 -7 0 -22 -8 -33 -17 -15 -12 -16 -14 -3 -10 24 8 44 -19 28 -38 -17 -21
-7 -29 18 -16 12 6 32 11 45 11 19 0 26 -6 31 -31 7 -37 -4 -60 -37 -78 -18
-10 -30 -10 -44 -2 -24 12 -33 6 -33 -25 0 -39 134 -102 147 -68 9 24 23 16
23 -13 0 -27 1 -27 13 -7 40 69 47 86 42 94 -8 13 -61 13 -85 0 -14 -7 -19 -5
-23 9 -3 13 7 31 30 55 37 37 61 44 81 24 9 -9 21 -3 52 27 22 21 40 35 40 29
0 -5 -20 -30 -45 -54 -43 -42 -57 -70 -35 -70 6 0 10 4 10 9 0 6 25 37 55 69
30 33 55 62 55 64 0 14 -54 -4 -81 -26 -33 -28 -46 -31 -68 -17 -12 8 -7 18
26 50 39 39 44 41 104 42 l64 1 -44 9 c-24 5 -52 15 -61 24 -13 12 -33 14 -79
11 -53 -3 -62 -2 -56 11 3 9 -1 23 -8 32 -20 23 -25 43 -17 66 8 22 -5 55 -26
68 -8 4 -14 21 -14 37 0 28 2 29 25 18 24 -11 45 -53 45 -89 0 -26 26 -24 44
3 11 15 16 18 16 8 1 -12 3 -11 14 3 27 35 25 15 -4 -45 -32 -65 -26 -61 42
32 48 67 117 125 131 111 7 -7 21 7 41 39 17 27 48 74 69 105 21 32 36 60 33
63 -3 2 -8 -3 -12 -12 -3 -9 -33 -37 -66 -62 -33 -25 -56 -39 -52 -32 40 66
75 116 90 128 9 8 54 71 99 140 89 137 141 189 225 227 62 27 158 44 146 25
-4 -7 -19 -12 -34 -12 -37 0 -140 -50 -185 -90 -33 -28 -131 -158 -151 -200
-10 -20 2 -5 73 88 30 40 59 72 64 72 11 0 4 -11 -61 -95 -30 -38 -63 -88 -74
-110 -11 -22 -27 -48 -36 -57 -8 -10 -11 -18 -6 -18 10 0 166 150 224 215 20
22 56 50 80 62 28 14 37 23 25 23 -15 0 -16 3 -7 12 20 20 14 30 -10 17 -18
-10 -16 -4 11 30 18 22 39 41 47 41 18 0 18 -14 -1 -30 -8 -7 -15 -19 -15 -28
0 -12 6 -10 25 8 34 32 32 13 -2 -23 l-28 -30 31 6 c17 3 55 8 85 11 l54 5
-45 -10 c-25 -6 -76 -22 -115 -35 -62 -22 -80 -34 -160 -115 -49 -49 -82 -87
-71 -83 16 6 17 5 6 -16 -15 -28 -56 -64 -119 -104 -63 -40 -160 -146 -133
-146 4 0 28 9 51 21 24 11 46 17 49 13 4 -4 1 -9 -6 -11 -7 -3 -26 -16 -42
-30 -17 -14 -30 -20 -30 -14 0 8 -7 8 -22 -1 -13 -7 -29 -12 -36 -13 -30 -1
-143 -137 -127 -153 3 -3 37 1 76 8 52 10 84 11 120 4 54 -12 62 -7 92 52 17
33 45 44 87 34 23 -6 22 -7 -13 -14 -30 -6 -41 -14 -57 -45 -24 -48 -37 -54
-135 -56 -57 -2 -94 -9 -129 -25 -52 -24 -51 -34 5 -43 48 -7 65 4 49 33 -10
19 -9 21 7 18 10 -2 17 -10 15 -17 -3 -13 11 -12 66 4 20 7 19 4 -10 -27 -18
-18 -36 -33 -39 -31 -8 3 -41 -38 -35 -44 8 -8 26 7 26 22 0 9 6 12 15 8 9 -3
22 2 30 13 8 11 15 15 15 11 0 -5 18 2 40 14 22 12 42 20 45 18 2 -3 -18 -18
-45 -34 -28 -16 -50 -32 -50 -35 0 -3 17 -4 38 -3 l37 4 -35 -20 c-19 -11 -57
-23 -83 -27 -42 -6 -53 -13 -91 -58 -23 -28 -52 -65 -64 -82 l-22 -32 26 -38
c40 -59 61 -79 111 -105 42 -22 59 -24 167 -23 104 0 131 4 196 27 41 15 63
24 48 22 -23 -4 -28 -2 -28 15 0 11 7 20 15 20 15 0 20 12 9 23 -11 10 -45
-29 -39 -45 5 -12 0 -14 -19 -11 -31 6 -35 33 -6 33 14 0 20 6 18 16 -2 11 8
21 29 28 45 16 55 30 14 21 -26 -6 -32 -4 -27 6 4 8 1 6 -8 -4 -13 -17 -20
-18 -66 -8 -28 6 -73 23 -102 37 -28 14 -83 32 -122 39 l-71 13 50 1 c36 1 46
4 35 11 -13 8 -13 10 1 10 9 0 19 -7 23 -15 3 -8 14 -15 24 -15 11 0 43 -13
73 -29 64 -33 109 -46 109 -31 0 6 -4 9 -9 5 -5 -3 -12 -1 -16 5 -11 17 27 11
42 -7 14 -17 14 -17 9 0 -3 10 0 17 7 17 7 0 19 6 25 13 7 6 23 13 35 14 77 7
101 13 109 27 12 21 39 21 32 1 -4 -8 -2 -15 3 -15 12 0 13 32 1 47 -6 7 -5
14 2 18 7 4 14 -2 17 -14 3 -12 9 -21 14 -21 13 0 11 28 -3 32 -12 4 -3 28 10
28 4 0 13 -14 21 -31 10 -22 16 -28 24 -20 16 16 35 13 39 -4 2 -13 5 -12 15
3 9 15 9 19 0 18 -7 0 -14 3 -17 8 -3 6 36 11 95 11 55 1 114 5 130 9 51 12
138 58 180 95 40 35 105 122 105 140 0 5 5 22 11 38 13 32 16 82 6 106 -4 10
-1 17 5 17 7 0 3 7 -8 15 -19 14 -19 14 4 31 l23 16 -22 24 c-22 23 -22 24 -2
24 24 0 67 44 60 62 -4 9 -6 9 -6 -3 -1 -18 -34 -38 -70 -41 -18 -2 -24 2 -26
20 -1 18 3 22 27 22 15 0 28 5 28 10 0 12 -37 9 -58 -3 -7 -5 -10 -13 -7 -18
4 -5 2 -9 -4 -9 -6 0 -8 -7 -5 -15 4 -8 2 -15 -3 -15 -19 0 -21 13 -8 50 13
35 12 37 -6 33 -10 -3 -19 0 -19 6 0 6 6 11 14 11 7 0 20 8 27 18 13 16 12 16
-6 2 -11 -8 -7 0 8 17 20 22 25 33 17 38 -7 4 -16 2 -20 -5 -4 -7 -15 -10 -24
-7 -10 4 -16 1 -16 -8 0 -8 -7 -15 -15 -15 -27 0 -16 16 35 49 57 37 69 64 14
32 -43 -26 -65 -18 -29 11 14 10 25 24 25 29 0 14 39 49 55 49 8 0 15 -7 15
-15 0 -16 12 -20 23 -8 4 3 -1 12 -11 19 -9 7 -13 16 -9 21 5 4 17 -3 27 -17
19 -25 22 -73 6 -100 -6 -9 -1 -7 13 4 14 13 18 22 10 27 -8 5 -8 8 1 14 19
12 35 -11 20 -30 -14 -17 0 -21 17 -4 8 8 13 8 17 0 10 -15 -2 -31 -17 -25 -7
2 -18 -6 -26 -18 -13 -21 -13 -22 2 -9 9 7 24 10 33 7 15 -6 15 -8 -2 -29 -13
-14 -14 -17 -3 -9 13 10 19 10 28 -2 8 -10 9 -16 1 -21 -5 -3 -9 -14 -9 -23 1
-15 2 -15 6 1 2 9 8 17 13 17 17 0 22 -21 8 -37 -11 -15 -11 -16 6 -10 16 6
17 4 12 -18 -4 -14 -2 -34 3 -44 8 -14 4 -25 -21 -50 -31 -32 -19 -44 14 -14
10 9 21 13 26 9 4 -4 -2 -14 -12 -22 -19 -14 -19 -14 2 -14 13 0 22 -6 22 -15
0 -8 -7 -15 -15 -15 -8 0 -15 5 -15 11 0 5 -5 7 -11 4 -6 -5 -4 -12 8 -21 16
-12 16 -15 3 -24 -9 -6 -10 -10 -3 -10 7 0 17 8 22 18 9 15 12 15 21 2 7 -11
6 -16 -5 -18 -8 -2 -13 -15 -13 -34 1 -16 -5 -33 -12 -38 -10 -6 -9 -9 1 -12
12 -4 12 -7 1 -21 -8 -9 -11 -20 -8 -25 12 -20 -52 -63 -115 -78 -35 -8 -75
-23 -89 -33 -14 -10 -40 -22 -58 -26 -40 -8 -81 -60 -97 -123 -16 -63 -10 -78
40 -102 24 -12 63 -39 88 -60 53 -47 60 -49 51 -15 -4 16 -2 25 5 25 7 0 11
-14 9 -35 -4 -58 15 -63 60 -13 35 38 48 45 107 56 113 21 198 74 257 160 l32
47 17 -55 c17 -55 26 -51 11 5 -13 45 -4 60 19 31 24 -30 25 -87 1 -115 -16
-21 -20 -21 -65 -9 -44 11 -52 11 -85 -7 -20 -11 -39 -30 -42 -42 -3 -12 -21
-32 -40 -45 -32 -22 -35 -27 -32 -67 3 -33 -1 -48 -17 -65 -24 -26 -19 -56 9
-56 10 0 25 -3 33 -6 11 -4 18 8 28 46 11 44 16 50 34 46 11 -3 23 -6 27 -6 3
0 11 -14 17 -30 10 -31 10 -31 38 -14 l28 16 -26 -24 c-33 -31 -35 -89 -4
-111 17 -13 23 -13 52 1 39 19 49 39 28 62 -24 26 -19 60 8 60 49 0 102 23
139 61 34 34 45 39 83 39 37 0 45 -3 45 -19 0 -10 -7 -24 -15 -31 -22 -18 -15
-30 28 -45 33 -11 38 -11 47 5 8 15 10 170 2 170 -2 0 -10 -7 -18 -15 -23 -23
-60 -18 -95 13 -24 21 -32 38 -36 74 -5 41 -1 54 25 96 42 65 59 140 42 182
-15 36 -53 65 -74 57 -8 -3 -46 10 -85 30 -59 30 -81 36 -137 37 -60 1 -68 3
-75 24 -5 13 -13 20 -19 17 -5 -3 -33 -8 -62 -10 -32 -2 -46 0 -37 6 8 5 31 9
52 9 46 0 77 28 77 70 0 24 4 30 22 30 20 0 21 1 3 20 -16 18 -16 23 -4 57 13
32 21 38 63 49 57 15 74 27 25 18 -56 -10 -87 -25 -104 -50 l-16 -25 -34 38
c-19 21 -35 41 -35 46 0 4 15 7 33 8 30 0 85 17 61 18 -6 1 -28 12 -48 26 -20
13 -36 22 -36 19 0 -3 -15 6 -32 20 -18 13 -42 26 -53 29 -11 2 -7 3 10 2 16
-1 51 8 78 21 l49 22 -38 11 c-22 6 -44 11 -49 11 -6 0 -27 12 -48 26 -31 21
-46 25 -80 20 -45 -6 -41 -4 40 30 24 10 41 20 38 22 -2 2 -35 15 -72 28 -53
19 -80 23 -122 19 -30 -3 -58 -8 -62 -11 -5 -3 -6 2 -3 11 4 9 13 14 21 11 20
-8 87 39 104 72 7 15 15 31 18 36 2 5 -4 6 -15 2 -10 -5 -53 -12 -94 -16 -41
-5 -87 -11 -102 -15 -39 -10 -38 19 1 35 34 14 67 47 58 57 -4 3 -1 13 5 21
11 12 8 14 -18 8 -16 -4 -54 -8 -84 -11 -31 -2 -68 -8 -83 -14 -45 -18 -54
-12 -24 14 40 36 23 31 -32 -9 -25 -18 -66 -44 -91 -56 -25 -12 -56 -32 -70
-44 -22 -19 -23 -19 -11 -1 8 11 30 35 50 52 27 25 32 33 18 33 -10 0 -32 -7
-48 -16 -40 -20 -69 -26 -69 -13 0 6 21 19 48 30 85 36 90 40 52 33 -19 -3
-50 -15 -68 -25 -18 -10 -35 -19 -38 -19 -12 0 2 37 62 163 61 128 75 169 44
132z m330 -280 c0 -8 -89 -45 -107 -45 -25 0 -6 13 45 32 53 18 62 20 62 13z
m100 -120 c-14 -8 -41 -14 -60 -14 l-35 1 45 13 c60 17 81 17 50 0z m-300 -10
c-12 -15 -30 -12 -30 6 0 5 10 9 21 9 18 0 19 -2 9 -15z m-100 -20 c9 -25 11
-25 40 -10 38 20 38 7 0 -30 -16 -16 -30 -36 -30 -45 0 -27 -56 -132 -95 -177
-19 -23 -35 -43 -35 -45 0 -3 25 7 55 21 31 14 53 31 51 37 -2 6 6 16 19 22
13 6 44 27 70 47 46 34 84 54 136 70 22 7 21 4 -11 -29 -43 -45 -115 -92 -155
-102 -16 -3 -39 -14 -50 -23 -65 -55 -287 -168 -365 -186 -60 -14 -130 -38
-163 -55 -22 -12 -42 -19 -44 -16 -3 2 9 12 27 21 18 9 30 18 28 21 -2 2 -38
4 -78 5 l-74 2 29 23 c15 12 43 25 61 29 44 8 91 48 110 94 21 50 61 89 103
101 87 24 96 -3 18 -54 -51 -34 -77 -69 -77 -103 0 -22 42 -10 104 30 54 34
86 78 86 118 0 58 19 83 100 133 68 41 80 53 80 75 0 51 44 69 60 26z m150 12
c0 -7 -13 -21 -30 -30 -38 -23 -40 -6 -2 22 32 24 32 24 32 8z m90 -47 c10 0
20 5 22 12 2 6 10 8 16 4 18 -11 14 -26 -5 -19 -12 5 -15 2 -10 -10 8 -22 -15
-33 -88 -41 -33 -4 -68 -9 -77 -12 -26 -8 -22 2 19 47 29 31 42 39 60 34 18
-4 21 -2 17 12 -5 12 -1 11 10 -4 10 -13 26 -23 36 -23z m0 30 c0 -5 -4 -10
-10 -10 -5 0 -10 5 -10 10 0 6 5 10 10 10 6 0 10 -4 10 -10z m-860 -106 c-29
-26 -56 -69 -90 -140 -52 -107 -67 -132 -139 -226 -45 -60 -60 -74 -39 -35 6
12 13 27 14 34 1 7 11 25 21 40 11 15 41 73 68 128 39 82 61 113 122 174 40
41 76 71 79 68 3 -3 -13 -22 -36 -43z m1127 32 c11 -10 -51 -6 -67 5 -11 7 -5
9 23 6 21 -3 41 -8 44 -11z m-1152 -106 c-9 -16 -18 -30 -21 -30 -2 0 2 14 11
30 9 17 18 30 21 30 2 0 -2 -13 -11 -30z m1250 -5 c17 -7 23 -14 15 -14 -8 0
-28 6 -45 14 -16 7 -23 14 -15 14 8 0 29 -6 45 -14z m-1155 -58 c0 -2 -12 -14
-27 -28 -24 -22 -24 -13 0 19 8 11 27 17 27 9z m1060 -17 c0 -5 -4 -10 -10
-10 -5 0 -10 5 -10 10 0 6 5 10 10 10 6 0 10 -4 10 -10z m135 -44 c20 -15 20
-15 -2 -10 -12 4 -30 15 -40 26 -18 20 -17 21 2 10 11 -6 29 -17 40 -26z
m-437 2 c-2 -6 -13 -13 -24 -14 -10 -2 -37 -12 -59 -24 -21 -11 -47 -20 -57
-20 -10 0 -18 -4 -18 -9 0 -6 -9 -9 -20 -8 -11 1 -20 4 -20 8 0 15 28 28 88
42 35 8 69 20 75 26 15 15 40 14 35 -1z m322 -4 c0 -8 -4 -12 -10 -9 -5 3 -10
10 -10 16 0 5 5 9 10 9 6 0 10 -7 10 -16z m-1610 -59 c0 -8 -4 -15 -10 -15 -5
0 -10 7 -10 15 0 8 5 15 10 15 6 0 10 -7 10 -15z m1353 -11 c3 -4 -1 -13 -9
-21 -8 -9 -18 -12 -22 -8 -4 4 -1 10 6 12 6 3 10 9 6 14 -6 10 9 12 19 3z
m-284 -21 c-7 -10 -27 -33 -43 -52 l-31 -33 50 25 c74 36 93 40 109 24 13 -12
7 -16 -39 -26 -29 -7 -59 -19 -65 -26 -8 -9 -21 -13 -36 -9 -18 5 -31 -1 -52
-21 -53 -54 -88 -73 -162 -90 -41 -10 -84 -22 -94 -28 -14 -7 -21 -5 -27 6
-10 16 -35 13 -79 -10 -14 -7 -34 -13 -45 -12 -15 1 -13 3 7 9 15 4 54 24 86
44 58 35 177 89 239 107 18 5 35 14 39 20 3 6 18 8 33 4 22 -5 34 2 71 40 45
46 62 58 39 28z m-995 -28 c-14 -19 -28 -35 -29 -35 -1 0 -2 10 -2 23 0 14 8
28 21 34 36 18 38 14 10 -22z m881 25 c-7 -11 -85 -53 -85 -46 0 4 81 56 88
56 2 0 0 -5 -3 -10z m-70 -16 c-23 -17 -91 -37 -108 -31 -7 2 15 13 48 25 72
25 87 26 60 6z m-894 -55 c-30 -33 -49 -35 -37 -3 3 9 15 18 26 21 11 3 23 15
27 27 5 16 8 18 10 5 2 -9 -10 -32 -26 -50z m1254 31 c0 -7 -6 -15 -12 -17 -7
-3 -13 2 -13 11 0 10 -6 13 -15 10 -11 -5 -13 -2 -9 9 7 19 49 7 49 -13z m560
-38 c-7 -7 -45 28 -57 53 -7 12 3 7 26 -14 19 -19 34 -37 31 -39z m-504 25
c-18 -18 -13 -25 14 -19 29 5 33 -12 8 -28 -15 -9 -12 -10 13 -6 37 6 48 -2
32 -21 -9 -11 -7 -15 10 -20 26 -6 28 -18 5 -27 -15 -6 -15 -8 -3 -16 12 -7
12 -12 3 -21 -9 -9 -10 -16 -2 -26 8 -9 7 -14 -5 -19 -11 -4 -14 -13 -10 -30
5 -18 2 -24 -10 -24 -9 0 -16 -4 -16 -10 0 -5 5 -10 10 -10 6 0 10 -4 10 -10
0 -5 -9 -10 -19 -10 -14 0 -18 -5 -14 -20 4 -15 0 -20 -15 -20 -11 0 -22 -8
-25 -19 -4 -16 -10 -18 -33 -12 -34 9 -44 31 -14 31 15 0 20 5 17 14 -3 7 3
20 14 29 10 9 19 25 19 36 0 11 5 21 12 23 6 2 12 20 13 39 0 19 4 40 8 47 5
7 3 12 -4 12 -6 0 -9 8 -6 20 3 13 0 20 -10 20 -9 0 -13 6 -9 15 3 9 0 15 -10
15 -10 0 -14 6 -10 15 3 8 1 15 -4 15 -6 0 -9 13 -8 28 2 24 6 28 26 24 17 -3
20 -8 13 -15z m102 -6 c-2 -6 4 -11 12 -11 8 0 15 -7 15 -15 0 -23 -16 -18
-34 10 -19 29 -20 38 -3 32 6 -2 11 -10 10 -16z m257 10 c0 -6 -4 -13 -10 -16
-5 -3 -10 1 -10 9 0 9 5 16 10 16 6 0 10 -4 10 -9z m-423 -43 c26 -29 53 -82
53 -105 0 -14 -14 -21 -62 -32 -107 -22 -178 -24 -261 -7 -43 9 -84 13 -90 10
-7 -4 -5 0 3 9 10 10 48 19 114 27 54 5 106 15 115 21 14 8 13 9 -4 5 -11 -2
-49 -7 -85 -11 -36 -4 -73 -9 -82 -11 -10 -3 -18 -1 -18 4 0 13 114 72 180 93
76 25 112 24 137 -3z m547 -3 c11 -8 18 -17 15 -19 -2 -3 -15 4 -29 14 -14 11
-20 20 -15 19 6 0 19 -6 29 -14z m-114 -5 c0 -5 -5 -10 -11 -10 -5 0 -7 5 -4
10 3 6 8 10 11 10 2 0 4 -4 4 -10z m-1508 -68 c-7 -22 -19 -46 -28 -53 -15
-12 -16 -10 -11 16 3 17 9 48 12 69 6 36 8 38 22 23 14 -14 15 -22 5 -55z
m404 9 c-13 -15 -14 -20 -4 -24 7 -2 1 -4 -14 -3 -34 1 -35 9 -5 29 31 22 44
21 23 -2z m-142 -13 c-44 -53 -68 -78 -77 -78 -10 0 39 68 63 87 25 20 34 14
14 -9z m111 -38 c-3 -5 -12 -10 -18 -10 -7 0 -6 4 3 10 19 12 23 12 15 0z
m468 -58 c15 -9 27 -20 27 -24 0 -11 -1 -11 -48 12 -53 26 -92 25 -126 -1 -14
-11 -26 -16 -26 -11 0 12 38 38 65 45 28 7 75 -2 108 -21z m-232 2 c-18 -8
-47 -17 -65 -20 -27 -4 -25 -2 14 15 25 11 54 20 65 20 14 -1 10 -5 -14 -15z
m506 4 c-2 -7 -13 -12 -23 -10 -14 2 -16 1 -5 -6 8 -6 11 -18 7 -30 -8 -23
-85 -102 -100 -102 -6 0 -5 5 2 12 7 7 12 19 11 28 0 10 -2 11 -6 3 -7 -19
-21 -16 -28 7 -4 11 -11 18 -16 15 -5 -4 -9 -2 -9 4 0 6 -12 17 -27 25 l-28
15 30 1 c17 0 55 11 85 24 62 27 114 33 107 14z m-1367 -51 c8 -25 20 -51 26
-57 9 -9 7 -24 -10 -61 -23 -54 -41 -65 -31 -19 4 19 3 30 -4 30 -6 0 -11 7
-11 16 0 11 6 14 20 9 16 -5 19 -3 13 12 -3 10 -10 23 -15 29 -5 7 -11 22 -13
34 -2 12 -7 31 -11 42 -4 15 -2 19 7 16 8 -2 21 -25 29 -51z m750 49 c0 -2 -7
-7 -16 -10 -8 -3 -12 -2 -9 4 6 10 25 14 25 6z m1017 -18 c-3 -8 -6 -5 -6 6
-1 11 2 17 5 13 3 -3 4 -12 1 -19z m-1707 8 c0 -2 -7 -7 -16 -10 -8 -3 -12 -2
-9 4 6 10 25 14 25 6z m620 -7 c0 -23 -98 -109 -124 -109 -35 0 -33 16 4 35
18 9 30 23 30 36 0 13 11 25 33 34 39 17 57 19 57 4z m1280 -20 c0 -6 9 -8 22
-3 20 6 21 5 9 -10 -7 -9 -12 -16 -10 -17 25 -7 80 -5 85 3 4 6 13 1 21 -13
13 -23 14 -23 8 -1 -4 13 -2 22 4 22 6 0 11 -4 11 -10 0 -5 7 -7 15 -4 9 4 15
0 15 -10 0 -9 5 -16 11 -16 6 0 9 -7 5 -15 -7 -19 5 -19 30 0 22 17 38 20 29
5 -3 -5 -2 -10 4 -10 5 0 12 10 14 23 4 22 4 22 6 0 0 -12 -5 -28 -13 -36 -21
-20 -1 -38 30 -27 18 7 22 6 17 -5 -3 -8 -9 -13 -13 -10 -15 9 -41 -7 -36 -22
3 -8 -2 -22 -11 -31 -15 -15 -16 -15 -11 -1 3 9 2 22 -3 30 -8 12 -10 12 -19
-1 -5 -8 -8 -21 -5 -29 4 -9 0 -11 -10 -7 -8 3 -15 1 -15 -3 0 -5 5 -11 11
-13 12 -4 1 -38 -13 -38 -6 0 -7 7 -4 16 8 20 -21 87 -34 79 -10 -6 -14 6 -11
36 1 12 -5 15 -26 13 -15 -3 -49 -6 -74 -8 -38 -4 -89 -21 -130 -43 -18 -10
-16 34 3 68 12 21 19 42 15 46 -8 7 -5 11 -44 -52 -22 -35 -30 -58 -26 -77 4
-22 0 -29 -25 -42 -31 -16 -47 -41 -43 -66 2 -10 -6 -7 -24 10 -18 17 -24 20
-19 7 7 -20 -6 -23 -25 -4 -10 10 -11 9 -6 -5 4 -11 2 -18 -4 -18 -6 0 -11 5
-11 10 0 6 -5 10 -11 10 -8 0 -7 -5 1 -15 7 -9 21 -13 31 -10 11 4 19 2 19 -4
0 -18 -34 -18 -65 0 -49 27 -75 33 -75 15 0 -9 4 -16 9 -16 5 0 16 -13 25 -30
8 -16 11 -30 6 -30 -5 0 -11 9 -15 19 -4 12 -12 18 -20 14 -8 -3 -12 -10 -8
-17 4 -6 -1 -5 -11 3 -13 11 -14 16 -4 24 9 6 7 7 -6 3 -24 -8 -53 13 -34 25
9 6 5 9 -12 9 -20 0 -22 2 -10 10 10 6 11 10 3 10 -7 0 -13 5 -13 11 0 5 5 7
10 4 6 -3 10 -1 10 4 0 6 -6 11 -12 12 -35 3 46 17 101 18 81 1 121 25 153 90
20 38 27 45 36 34 17 -18 32 -16 32 3 0 14 2 15 17 3 15 -13 15 -12 4 8 -10
19 -9 22 4 17 10 -4 15 0 15 11 0 9 5 13 11 9 6 -3 14 -1 18 5 13 20 42 1 36
-23 -2 -11 -2 -15 1 -8 3 6 13 12 21 12 11 0 8 6 -8 20 -19 15 -21 19 -7 20 9
0 23 -7 32 -15 8 -8 18 -15 23 -15 4 1 -2 9 -14 19 -12 10 -19 21 -16 25 10
10 23 7 23 -5z m-1910 -51 c0 -15 -20 -8 -30 11 -17 33 -11 47 10 21 11 -14
20 -28 20 -32z m850 35 c34 -6 47 -20 32 -35 -8 -8 -47 -14 -95 -16 l-82 -3
25 20 c23 19 24 21 5 22 -16 0 -14 3 10 15 17 7 41 11 55 8 14 -3 36 -8 50
-11z m213 -102 c23 -22 39 -42 36 -45 -8 -9 -107 -26 -147 -26 -34 0 -35 1
-16 15 17 13 14 14 -41 15 -98 1 -97 14 7 47 51 17 99 31 106 32 7 1 32 -17
55 -38z m-1033 12 c0 -25 -52 -122 -69 -128 -23 -9 -24 2 -2 33 12 17 21 35
21 40 0 15 34 72 43 72 4 0 7 -8 7 -17z m1250 -28 c8 -9 8 -15 2 -15 -18 0
-42 12 -42 21 0 14 26 10 40 -6z m-1160 -7 c0 -7 -21 -40 -45 -72 -25 -33 -45
-63 -45 -68 0 -17 -18 -7 -23 14 -7 24 13 67 50 109 27 29 63 39 63 17z m600
3 c19 -5 3 -10 -62 -20 -75 -11 -90 -11 -108 2 -16 11 -18 16 -8 20 19 8 149
6 178 -2z m1292 -13 c-7 -7 -12 -8 -12 -2 0 6 3 14 7 17 3 4 9 5 12 2 2 -3 -1
-11 -7 -17z m-773 -2 c9 -10 9 -16 1 -21 -12 -7 -40 11 -40 26 0 14 26 10 39
-5z m721 -6 c0 -5 -9 -10 -21 -10 -35 0 -88 -30 -82 -46 3 -8 0 -14 -6 -14 -6
0 -11 9 -11 20 0 15 13 27 43 40 46 22 77 25 77 10z m-765 -20 c3 -5 -1 -10
-9 -10 -8 0 -18 5 -21 10 -3 6 1 10 9 10 8 0 18 -4 21 -10z m-667 -12 c20 -20
14 -23 -40 -23 -29 0 -66 -4 -83 -8 -27 -7 -28 -7 -10 4 25 16 85 38 106 39 8
0 20 -5 27 -12z m1664 -10 c-7 -7 -12 -8 -12 -2 0 6 3 14 7 17 3 4 9 5 12 2 2
-3 -1 -11 -7 -17z m-1047 2 c3 -5 -1 -10 -9 -10 -9 0 -16 5 -16 10 0 6 4 10 9
10 6 0 13 -4 16 -10z m-60 -10 c3 -5 1 -10 -4 -10 -6 0 -11 5 -11 10 0 6 2 10
4 10 3 0 8 -4 11 -10z m-50 -10 c3 -5 1 -10 -4 -10 -6 0 -11 5 -11 10 0 6 2
10 4 10 3 0 8 -4 11 -10z m1130 0 c3 -5 1 -10 -4 -10 -6 0 -11 5 -11 10 0 6 2
10 4 10 3 0 8 -4 11 -10z m-1249 -34 c18 -18 18 -26 0 -26 -7 0 -16 9 -19 20
-6 24 -1 25 19 6z m472 -32 c0 -37 6 -52 29 -76 l28 -30 -25 7 c-51 15 -70 34
-70 71 0 37 15 74 30 74 4 0 8 -21 8 -46z m-799 6 c24 -9 40 -19 35 -23 -8 -5
-35 0 -162 28 -13 3 -20 10 -17 16 9 13 86 2 144 -21z m1517 -37 c-9 -82 -42
-144 -89 -166 -21 -11 -45 -16 -54 -13 -14 6 -14 8 3 24 10 9 31 23 46 29 38
17 57 50 69 122 14 79 34 82 25 4z m-1316 17 c-25 -20 -60 -27 -60 -12 0 8 73
41 80 35 3 -3 -6 -13 -20 -23z m885 10 c3 -5 1 -10 -4 -10 -6 0 -11 5 -11 10
0 6 2 10 4 10 3 0 8 -4 11 -10z m452 -77 c-2 -16 -4 -5 -4 22 0 28 2 40 4 28
2 -13 2 -35 0 -50z m-1420 41 c-3 -3 -12 -4 -19 -1 -8 3 -5 6 6 6 11 1 17 -2
13 -5z m-639 -79 c3 -18 2 -19 -8 -2 -6 9 -15 15 -21 12 -5 -4 -9 -1 -9 5 0
20 35 6 38 -15z m273 8 c26 -16 31 -16 39 -3 9 13 11 13 19 1 5 -8 16 -11 25
-8 10 4 16 1 16 -9 0 -8 4 -13 9 -10 14 9 41 -4 41 -19 0 -8 4 -17 10 -20 5
-3 7 0 5 7 -4 9 2 14 15 15 25 2 26 -9 2 -31 -18 -15 -21 -15 -45 5 -15 11
-40 22 -56 24 -31 4 -146 65 -123 65 8 0 27 -8 43 -17z m-91 -25 c0 -14 -17
-8 -35 12 -17 19 -17 19 9 7 14 -7 26 -15 26 -19z m1406 17 c-13 -10 -40 -15
-75 -14 l-56 2 58 7 c32 4 61 10 64 14 4 3 11 6 17 6 6 0 2 -7 -8 -15z m454
-44 c-18 -35 -29 -23 -11 13 9 18 17 27 19 20 2 -7 -2 -22 -8 -33z m-1902 23
c12 -8 22 -19 22 -24 0 -14 -36 1 -48 21 -15 23 -4 25 26 3z m72 -24 c0 -5 -7
-10 -16 -10 -8 0 -12 5 -9 10 3 6 10 10 16 10 5 0 9 -4 9 -10z m50 0 c0 -5 -6
-10 -14 -10 -8 0 -18 5 -21 10 -3 6 3 10 14 10 12 0 21 -4 21 -10z m270 -4 c0
-2 -7 -7 -16 -10 -8 -3 -12 -2 -9 4 6 10 25 14 25 6z m-161 -32 c-25 -28 -87
-59 -97 -50 -6 7 -10 5 51 35 26 13 47 28 47 32 0 5 5 9 12 9 6 0 1 -12 -13
-26z m131 6 c8 -5 12 -12 8 -15 -9 -9 -48 4 -48 16 0 12 21 11 40 -1z m-255
-19 c-6 -4 -23 -12 -39 -15 -26 -6 -28 -5 -17 8 8 9 25 16 39 16 15 0 22 -4
17 -9z m1725 -15 c0 -16 -14 -27 -53 -44 l-27 -12 16 25 c26 39 64 58 64 31z
m-1495 -16 c4 -6 11 -8 16 -5 5 4 9 2 9 -3 0 -8 -179 -24 -189 -16 -2 1 19 9
45 18 58 17 110 20 119 6z m-215 -4 c0 -11 -19 -15 -25 -6 -3 5 1 10 9 10 9 0
16 -2 16 -4z m1970 -56 c0 -5 -4 -10 -10 -10 -5 0 -10 5 -10 10 0 6 5 10 10
10 6 0 10 -4 10 -10z m-556 -15 c-4 -8 -13 -15 -21 -15 -13 0 -13 3 -3 15 7 8
16 15 21 15 5 0 6 -7 3 -15z"/>
<path d="M2828 3582 c-16 -10 -28 -23 -28 -30 0 -15 46 15 54 36 3 6 4 12 3
11 -1 0 -14 -8 -29 -17z"/>
<path d="M2824 3527 c-23 -11 -71 -97 -55 -97 5 0 28 21 50 48 53 61 54 73 5
49z"/>
<path d="M2770 3359 c-35 -31 -35 -31 -3 -9 18 11 35 25 38 30 10 16 2 11 -35
-21z"/>
<path d="M3110 3016 c0 -2 8 -10 18 -17 15 -13 16 -12 3 4 -13 16 -21 21 -21
13z"/>
<path d="M3066 3001 c-3 -5 6 -8 20 -8 19 0 22 2 13 8 -18 11 -26 11 -33 0z"/>
<path d="M3556 2891 c-4 -5 -2 -12 3 -15 5 -4 12 -2 15 3 4 5 2 12 -3 15 -5 4
-12 2 -15 -3z"/>
<path d="M2230 2580 c0 -5 5 -10 10 -10 6 0 10 5 10 10 0 6 -4 10 -10 10 -5 0
-10 -4 -10 -10z"/>
<path d="M2574 3975 c-4 -9 -44 -41 -89 -70 -101 -65 -245 -207 -245 -241 0
-33 11 -30 39 12 35 51 174 179 235 215 35 21 57 42 64 62 6 17 10 33 7 35 -2
3 -8 -3 -11 -13z"/>
<path d="M2387 3924 c-3 -3 -33 -16 -67 -28 -34 -13 -78 -36 -98 -52 -48 -38
-94 -86 -88 -91 2 -2 22 5 45 16 47 25 87 27 95 6 6 -16 -22 -34 -86 -54 -57
-19 -98 -62 -98 -104 0 -20 3 -42 6 -51 7 -18 24 -22 24 -5 0 18 67 96 143
168 67 63 86 92 46 71 -20 -11 -20 -11 -5 19 9 17 25 35 35 41 18 9 68 70 58
70 -2 0 -6 -3 -10 -6z"/>
<path d="M2162 3600 c-13 -17 -21 -34 -18 -38 11 -10 48 34 44 53 -2 13 -8 10
-26 -15z"/>
<path d="M3300 3380 c-9 -6 -10 -10 -3 -10 6 0 15 5 18 10 8 12 4 12 -15 0z"/>
<path d="M3340 3370 c0 -5 5 -10 11 -10 5 0 7 5 4 10 -3 6 -8 10 -11 10 -2 0
-4 -4 -4 -10z"/>
<path d="M1155 3298 c63 -35 139 -126 128 -153 -3 -9 19 -39 56 -76 34 -33 61
-64 61 -68 0 -5 9 -20 21 -34 11 -15 19 -34 17 -43 -2 -9 3 -19 10 -21 40 -14
-20 100 -83 158 -25 23 -53 58 -61 77 -19 46 -17 54 4 16 16 -30 146 -174 157
-174 16 0 2 60 -20 80 -14 13 -25 27 -25 32 0 15 19 8 41 -14 l21 -23 -17 34
c-9 18 -43 60 -74 92 -79 82 -56 74 29 -10 39 -38 72 -66 74 -62 16 26 8 60
-19 86 -17 15 -21 21 -10 14 19 -13 19 -13 6 4 -8 10 -20 16 -27 13 -7 -3 -16
0 -20 6 -5 7 -2 8 7 3 11 -6 12 -5 2 5 -25 27 -189 70 -261 70 -33 -1 -35 -2
-17 -12z m110 -28 c3 -5 2 -10 -4 -10 -6 0 -1 -17 10 -37 11 -21 14 -30 7 -19
-7 10 -24 32 -36 47 -23 28 -23 29 -3 29 11 0 23 -4 26 -10z"/>
<path d="M3320 3290 c-9 -6 -10 -10 -3 -10 6 0 15 5 18 10 8 12 4 12 -15 0z"/>
<path d="M3430 3290 c0 -5 5 -10 10 -10 6 0 10 5 10 10 0 6 -4 10 -10 10 -5 0
-10 -4 -10 -10z"/>
<path d="M3350 3175 c-11 -13 -10 -14 4 -9 9 3 16 10 16 15 0 13 -6 11 -20 -6z"/>
<path d="M3380 3159 c0 -5 5 -7 10 -4 6 3 10 8 10 11 0 2 -4 4 -10 4 -5 0 -10
-5 -10 -11z"/>
<path d="M3346 3125 c-3 -8 -3 -15 0 -15 3 0 12 7 20 15 13 13 13 15 1 15 -8
0 -17 -7 -21 -15z"/>
<path d="M1512 3102 c-9 -26 -8 -46 4 -93 8 -33 14 -70 12 -82 -2 -14 -9 -1
-19 38 l-16 60 -8 -39 c-5 -25 -4 -46 4 -57 6 -11 16 -50 23 -89 14 -82 32
-96 54 -44 19 45 12 56 -8 13 -15 -29 -15 -25 -15 89 1 86 4 116 12 107 13
-18 38 0 43 29 3 17 2 18 -12 7 -21 -17 -27 -11 -47 47 l-16 46 -11 -32z"/>
<path d="M1321 2975 c17 -33 38 -68 47 -78 8 -9 13 -20 10 -23 -3 -3 -15 7
-27 22 -22 28 -30 20 -8 -9 11 -16 37 -25 94 -31 19 -3 21 0 12 15 -5 10 -20
21 -33 25 -36 9 -90 69 -82 91 4 9 4 14 0 11 -3 -4 -15 3 -25 15 -11 12 -5 -4
12 -38z"/>
<path d="M1655 2890 c10 -11 20 -20 23 -20 3 0 -3 9 -13 20 -10 11 -20 20 -23
20 -3 0 3 -9 13 -20z"/>
<path d="M1390 2834 c48 -21 80 -53 80 -81 0 -40 -36 -97 -94 -151 -47 -42
-78 -59 -187 -102 -72 -28 -156 -64 -187 -80 -59 -30 -128 -87 -118 -97 12
-13 96 -15 111 -3 10 9 15 9 15 1 0 -6 -5 -11 -12 -11 -6 0 -2 -10 10 -23 12
-13 22 -33 22 -46 0 -21 2 -20 43 14 23 20 74 51 112 69 39 19 96 46 129 61
68 32 165 124 197 187 22 43 42 168 27 168 -4 0 -8 -6 -8 -14 0 -15 -28 -42
-35 -34 -3 2 -1 18 4 34 6 23 4 34 -15 53 -12 13 -20 30 -17 37 6 16 -4 20
-67 28 l-45 6 35 -16z m27 -320 c-3 -3 -12 -4 -19 -1 -8 3 -5 6 6 6 11 1 17
-2 13 -5z m-167 -90 c0 -2 -9 -4 -20 -4 -11 0 -20 4 -20 9 0 5 9 7 20 4 11 -3
20 -7 20 -9z m-225 -74 c3 -6 -1 -7 -9 -4 -18 7 -21 14 -7 14 6 0 13 -4 16
-10z"/>
<path d="M1706 2761 c-4 -5 -2 -12 3 -15 5 -4 12 -2 15 3 4 5 2 12 -3 15 -5 4
-12 2 -15 -3z"/>
<path d="M1681 2669 c-22 -18 -39 -65 -19 -53 13 8 9 -21 -4 -34 -9 -9 -9 -12
1 -12 7 0 9 -5 5 -11 -3 -6 -1 -29 7 -51 10 -32 10 -44 0 -60 -17 -28 -5 -35
20 -12 17 15 20 26 15 56 -7 44 -2 46 37 14 l28 -22 -22 -28 -22 -29 22 12
c12 7 25 19 28 27 3 8 9 14 15 14 5 0 0 -13 -11 -29 -14 -19 -33 -31 -58 -36
-37 -7 -93 -31 -93 -40 0 -3 11 -3 24 1 24 6 24 5 28 -99 3 -101 5 -107 51
-199 26 -52 47 -106 48 -119 0 -13 5 -33 10 -44 7 -15 8 -11 4 17 -3 20 -1 39
5 43 6 4 10 -8 10 -30 0 -21 16 -66 40 -115 22 -44 40 -82 40 -86 0 -3 -24 16
-54 43 -48 44 -186 116 -245 128 -48 10 -80 20 -113 37 -24 11 -38 14 -38 7 0
-15 -66 -3 -106 21 l-31 18 3 -25 c1 -13 8 -30 14 -38 7 -8 10 -20 8 -26 -2
-7 -13 4 -25 23 -20 33 -129 105 -141 93 -3 -3 2 -20 10 -39 12 -25 14 -36 5
-45 -8 -8 -6 -11 7 -11 11 0 15 -4 10 -12 -6 -10 -5 -10 8 -1 8 7 18 9 22 5 4
-4 17 -7 29 -7 13 0 26 -10 34 -25 7 -14 13 -19 13 -12 0 6 7 12 16 12 10 0
14 -6 10 -15 -7 -20 4 -19 20 3 11 16 13 15 23 -10 6 -16 16 -28 23 -28 9 0 8
3 -2 10 -13 9 -13 11 0 19 16 11 33 4 25 -9 -7 -12 5 -41 15 -35 5 3 6 15 2
27 l-5 22 34 -21 c35 -23 49 -43 30 -43 -7 0 -14 7 -17 15 -9 23 -22 18 -20
-9 0 -16 5 -21 11 -16 15 12 39 -5 30 -20 -5 -9 -4 -11 4 -6 6 4 11 13 10 19
-3 18 12 47 23 47 6 0 5 -6 -2 -15 -10 -12 -10 -15 0 -15 10 0 10 -3 0 -15
-10 -12 -10 -15 0 -15 6 0 14 9 17 20 3 11 10 20 15 20 6 0 7 -7 4 -16 -5 -12
-2 -15 10 -10 24 9 36 -2 24 -24 -8 -16 -8 -18 5 -14 9 4 17 -1 21 -11 5 -13
9 -14 16 -3 7 10 11 9 23 -6 8 -11 15 -28 15 -39 0 -10 5 -15 11 -11 6 4 8 21
5 43 -5 27 -4 32 4 19 5 -9 10 -27 10 -40 -1 -13 -2 -70 -4 -128 -2 -58 -2
-97 1 -87 2 9 9 17 14 17 14 0 10 -33 -6 -54 -8 -11 -15 -28 -15 -38 0 -22 -7
-23 -26 -3 -9 8 -11 15 -6 15 16 0 20 35 6 48 -8 7 -16 12 -19 12 -3 0 -8 0
-11 0 -3 0 5 15 17 33 l23 32 -22 -19 c-24 -21 -42 -15 -23 8 10 12 7 15 -19
21 -31 7 -39 20 -17 28 6 2 8 8 4 13 -5 5 -15 0 -24 -11 -15 -19 -15 -18 -10
18 4 22 2 35 -4 32 -5 -4 -9 -13 -9 -21 0 -8 -5 -14 -11 -14 -10 0 -7 16 9 59
3 9 1 12 -6 7 -7 -4 -12 -14 -12 -22 0 -8 -4 -14 -10 -14 -13 0 -13 12 0 45 7
17 7 24 0 20 -6 -3 -10 -13 -10 -21 0 -16 -5 -16 -35 -5 -11 4 -20 16 -20 26
0 10 -7 20 -15 22 -13 4 -13 3 0 -6 29 -20 1 -21 -33 -1 -20 12 -51 23 -69 25
-18 3 -34 9 -36 15 -2 6 -8 7 -13 4 -6 -3 -15 -1 -22 5 -8 6 -18 6 -27 1 -8
-5 -12 -11 -10 -13 3 -2 16 -11 30 -20 20 -14 21 -17 6 -17 -31 0 -12 -23 35
-42 24 -9 76 -26 116 -38 88 -25 127 -56 159 -126 28 -62 31 -127 12 -328 -13
-143 -6 -190 40 -278 46 -89 121 -138 240 -158 155 -26 282 26 417 170 72 77
108 110 120 110 17 0 46 -40 38 -53 -4 -7 1 -6 11 2 12 10 14 16 5 21 -6 4 -8
13 -5 19 4 6 2 11 -3 11 -21 0 -10 20 19 35 16 8 31 15 32 15 2 0 5 -16 6 -36
2 -20 7 -44 11 -53 5 -9 12 -43 16 -76 7 -56 6 -58 -12 -45 -28 23 -32 32 -26
65 l6 30 -21 -21 c-17 -18 -19 -27 -11 -60 4 -22 9 -58 9 -81 0 -49 -23 -71
-86 -79 -66 -9 -84 -14 -84 -24 0 -6 15 -10 33 -10 30 -1 31 -1 12 -16 -11 -8
-25 -12 -31 -10 -7 3 -11 -7 -10 -25 1 -24 3 -26 12 -14 14 19 40 19 48 0 3
-9 -3 -19 -17 -26 -21 -12 -21 -12 -2 -19 11 -4 32 -2 47 6 16 9 28 10 30 4 3
-11 38 -14 93 -10 34 3 80 -31 87 -65 2 -11 10 -19 16 -17 7 1 11 -1 10 -5 -1
-5 8 -29 20 -54 28 -60 65 -72 100 -32 26 29 25 35 -24 109 -50 75 -39 84 76
68 31 -4 51 -14 66 -32 16 -20 26 -24 47 -18 23 5 27 12 27 40 0 46 -26 66
-108 79 -39 7 -74 15 -78 19 -3 4 -16 3 -27 -3 -14 -8 -17 -8 -13 0 4 6 -15
21 -44 36 -53 27 -134 94 -125 103 3 3 15 -4 28 -15 12 -12 50 -36 85 -54 34
-17 62 -36 62 -40 0 -4 12 -2 28 6 36 17 114 35 156 35 30 0 35 4 41 30 7 32
19 39 29 15 3 -8 -2 -22 -11 -30 -17 -18 -11 -30 10 -22 25 9 27 46 4 67 -20
20 -43 28 -33 12 2 -4 -4 -18 -13 -31 -13 -17 -23 -22 -39 -16 -27 8 -28 21
-2 28 11 3 20 14 20 25 0 22 -26 49 -32 32 -2 -6 -32 -16 -68 -24 -75 -15 -83
-8 -56 46 9 17 16 37 16 45 0 17 51 17 70 1 12 -11 12 -10 3 2 -6 8 -13 27
-15 43 -5 25 -1 29 41 48 25 11 66 23 91 26 28 3 55 15 72 31 25 23 28 23 43
8 18 -17 40 -22 30 -6 -3 6 -2 10 4 10 5 0 11 -6 14 -12 3 -10 9 -10 25 -1 17
10 24 10 36 -2 13 -14 16 -13 24 1 12 21 47 11 38 -11 -4 -11 2 -15 20 -15 30
0 54 -48 62 -123 4 -40 0 -54 -18 -80 -22 -31 -22 -31 -2 -13 38 33 46 114 17
187 -5 14 5 17 64 21 47 4 88 14 123 31 50 24 137 40 290 54 44 4 64 1 83 -11
34 -22 31 -40 -10 -65 -19 -11 -35 -27 -35 -36 0 -8 3 -14 8 -14 22 4 32 -3
32 -21 0 -13 9 -22 28 -26 15 -3 33 -7 40 -10 33 -10 50 30 28 65 -11 17 30
55 84 77 60 25 100 48 100 57 0 5 14 29 32 53 25 35 37 44 53 39 11 -3 34 -8
50 -10 28 -4 29 -3 11 10 -11 8 -24 15 -29 15 -6 0 -2 9 8 20 10 12 25 18 32
15 8 -2 11 0 8 5 -3 6 -19 10 -35 10 -19 0 -33 7 -40 20 -6 11 -17 20 -25 20
-18 0 -20 37 -2 43 7 2 -2 17 -25 40 -33 31 -36 37 -22 48 14 11 20 9 40 -14
13 -16 24 -33 24 -40 0 -7 19 -23 41 -35 52 -30 73 -17 47 28 -18 32 -7 50 17
30 12 -10 15 -9 15 3 0 9 -10 22 -22 28 -13 6 -32 19 -43 29 -31 27 -73 31
-89 8 -12 -17 -23 -19 -68 -15 -29 3 -64 8 -78 11 -37 10 -57 -7 -43 -36 33
-67 13 -158 -44 -208 -41 -37 -64 -37 -171 -1 l-82 27 -27 -28 c-14 -15 -35
-30 -45 -34 -10 -3 -16 -8 -14 -12 2 -4 -19 -18 -47 -32 -28 -14 -59 -31 -68
-38 -16 -14 -127 -62 -141 -62 -5 0 -8 10 -8 21 0 18 5 21 29 17 17 -2 28 -1
25 3 -6 10 31 30 40 22 3 -3 6 -2 6 4 0 6 11 14 24 17 27 7 44 36 21 36 -8 0
-15 5 -15 10 0 13 6 13 30 -2 26 -17 54 0 132 77 65 64 81 84 98 123 5 12 15
22 21 22 6 0 9 8 7 18 -3 12 2 24 14 31 16 10 17 15 8 26 -10 12 -9 16 4 21
18 7 22 34 4 34 -6 0 -4 7 5 18 10 10 17 22 17 25 0 4 -7 7 -17 7 -15 0 -15 2
1 19 12 13 14 21 6 26 -7 4 -9 18 -6 31 4 14 2 24 -4 24 -5 0 -10 11 -10 25 0
14 -4 25 -10 25 -5 0 -10 9 -10 21 0 11 -7 27 -15 36 -8 8 -13 19 -10 23 3 5
-4 14 -15 20 -11 6 -20 17 -20 25 0 8 -7 15 -15 15 -8 0 -15 8 -15 19 0 11 -9
21 -21 24 -14 4 -20 11 -16 21 4 10 -1 16 -16 18 -12 2 -22 10 -22 18 0 8 -10
16 -22 18 -13 2 -23 10 -23 18 0 8 -9 14 -21 14 -16 0 -20 -5 -16 -19 3 -14 1
-18 -9 -14 -16 6 -18 19 -4 28 18 11 10 25 -15 25 -29 0 -31 -8 -10 -36 8 -10
15 -28 15 -39 0 -12 3 -16 8 -9 4 6 17 13 29 16 19 5 21 3 13 -18 -6 -15 -6
-24 0 -24 6 0 10 5 10 11 0 6 8 9 18 7 9 -2 17 -11 17 -20 0 -24 34 -58 52
-51 21 8 35 -18 20 -36 -10 -11 -8 -13 9 -7 23 7 40 -16 27 -36 -3 -6 -1 -8 4
-5 13 8 37 -19 29 -32 -3 -5 0 -11 6 -14 10 -3 9 -8 -2 -22 -14 -17 -13 -18 3
-12 9 3 17 2 17 -2 0 -5 3 -16 6 -25 4 -11 0 -16 -12 -17 -16 0 -15 -2 4 -9
22 -9 31 -40 12 -40 -5 0 -7 -7 -4 -15 4 -8 -1 -17 -10 -21 -9 -3 -16 -11 -16
-16 0 -6 7 -5 15 2 9 7 17 11 20 9 7 -7 -7 -89 -15 -89 -5 0 -6 -9 -3 -20 3
-13 -1 -22 -11 -26 -10 -4 -15 -13 -12 -23 7 -22 -31 -68 -46 -53 -13 13 -2
32 20 32 14 0 15 2 3 9 -10 7 -19 5 -26 -6 -8 -10 -17 -13 -26 -8 -12 8 -12 6
-1 -8 8 -9 11 -26 8 -39 -3 -13 -3 -17 0 -10 7 14 34 17 34 3 0 -5 -9 -13 -20
-16 -11 -3 -20 -12 -20 -20 0 -17 -55 -35 -101 -32 -32 2 -35 0 -31 -21 3 -13
7 -20 11 -15 10 16 37 22 52 12 11 -7 11 -9 -3 -9 -9 0 -29 -11 -44 -25 -27
-25 -55 -25 -33 1 7 8 7 14 1 14 -5 0 -12 -7 -16 -15 -3 -8 -13 -15 -22 -15
-16 0 -15 2 1 20 15 17 16 20 3 15 -9 -4 -19 -2 -23 4 -3 6 -1 11 6 11 7 0 5
8 -6 20 -11 13 -25 18 -37 14 -12 -3 -18 0 -18 10 0 21 18 30 35 16 11 -9 15
-9 15 -1 0 6 -4 11 -9 11 -5 0 -8 15 -7 33 2 23 7 32 19 31 9 -1 17 2 17 7 0
5 7 9 15 9 8 0 15 5 15 10 0 6 -4 10 -10 10 -5 0 -10 7 -10 16 0 10 6 14 14
11 7 -3 19 0 25 6 9 9 15 8 22 -5 6 -10 18 -18 27 -18 16 1 16 1 0 11 -11 6
-15 16 -11 26 5 12 3 14 -6 8 -8 -4 -17 -2 -22 6 -7 11 -9 10 -9 -3 0 -10 -7
-18 -15 -18 -22 0 -18 21 11 55 14 17 32 38 39 49 7 10 18 15 24 11 16 -9 13
-25 -5 -25 -8 0 -12 -5 -9 -10 4 -6 11 -7 17 -4 6 4 14 1 18 -6 6 -10 12 -10
26 0 17 10 17 11 1 6 -20 -6 -39 25 -19 32 21 7 13 20 -8 15 -11 -3 -20 -1
-20 5 0 6 -9 8 -20 5 -11 -3 -18 -9 -15 -13 3 -5 1 -11 -4 -14 -16 -10 -24 14
-10 30 6 8 9 17 6 21 -4 3 -2 12 5 20 8 11 7 12 -5 7 -9 -3 -19 -19 -22 -35
-7 -29 -19 -37 -30 -20 -3 5 -1 12 5 16 6 4 8 10 5 15 -3 5 -1 11 5 15 16 10
12 45 -6 45 -10 0 -14 6 -10 15 3 8 2 15 -2 15 -4 0 -7 16 -7 35 1 28 -1 32
-12 24 -7 -6 -10 -16 -6 -22 12 -20 9 -77 -4 -77 -8 0 -11 11 -9 30 2 17 -1
30 -6 30 -6 0 -8 7 -4 15 3 8 1 15 -5 15 -6 0 -6 7 1 20 7 14 7 20 0 20 -11 0
-12 -2 -14 -42 -1 -16 2 -28 7 -28 4 0 5 -5 2 -10 -9 -15 -27 -1 -21 16 3 8 1
14 -5 14 -6 0 -9 6 -6 13 2 6 -4 23 -14 36 -11 13 -19 30 -19 37 0 8 -4 14
-10 14 -5 0 -10 8 -10 18 0 14 -2 15 -10 2 -6 -10 -6 -16 0 -18 6 -2 10 -10
10 -18 0 -8 5 -14 11 -14 6 0 9 -6 6 -14 -3 -8 -2 -16 2 -18 5 -2 12 -14 16
-28 l7 -25 -20 21 c-11 11 -23 30 -26 42 -4 12 -12 22 -17 22 -5 0 -9 7 -9 15
0 8 -4 15 -10 15 -5 0 -10 8 -10 18 0 14 -2 15 -10 2 -6 -10 -5 -17 6 -23 8
-5 12 -12 9 -18 -4 -5 -1 -9 4 -9 6 0 11 -4 11 -10 0 -5 -5 -10 -11 -10 -14 0
-39 25 -39 39 0 6 -4 11 -10 11 -5 0 -10 8 -10 18 0 10 -3 13 -8 6 -4 -6 -14
-14 -22 -17 -10 -4 -8 -6 8 -6 25 -1 30 -19 6 -28 -10 -4 -32 12 -65 47 -27
29 -47 45 -43 36 4 -10 0 -18 -10 -22 -9 -3 -16 -12 -16 -20 0 -8 -7 -14 -15
-14 -18 0 -19 12 -4 27 6 6 8 17 3 25 -6 9 -10 6 -14 -12 l-6 -25 -37 37 c-31
31 -37 34 -37 18 0 -11 5 -19 12 -17 6 1 14 -6 16 -15 5 -23 -17 -23 -34 0
-13 16 -13 16 -14 0 0 -21 -30 -25 -30 -4 0 8 4 16 10 18 6 2 6 8 0 18 -8 13
-10 12 -10 -2 0 -10 -4 -18 -10 -18 -5 0 -10 -7 -10 -15 0 -8 -7 -15 -15 -15
-8 0 -15 5 -15 10 0 6 -5 10 -10 10 -6 0 -10 -8 -8 -17 2 -10 -4 -19 -14 -21
-21 -4 -24 18 -6 36 9 9 9 15 0 24 -9 9 -12 7 -12 -10 0 -25 -13 -28 -31 -9
-11 11 -16 10 -31 -5 -22 -22 -24 -48 -3 -48 17 0 20 -16 6 -25 -6 -3 -15 5
-22 17 l-12 22 -8 -22 c-8 -22 -29 -31 -29 -12 0 6 5 10 10 10 6 0 10 8 10 18
0 10 5 23 12 30 9 9 9 15 0 24 -9 9 -12 7 -12 -10 0 -14 -5 -20 -14 -16 -11 4
-13 0 -9 -15 4 -15 1 -21 -12 -21 -12 0 -16 7 -12 28 2 15 2 21 0 15 -3 -7 -9
-13 -14 -13 -5 0 -9 -7 -9 -15 0 -8 -4 -15 -10 -15 -5 0 -10 -7 -10 -15 0 -8
-7 -15 -15 -15 -19 0 -19 5 1 35 9 14 12 25 6 25 -5 0 -13 -7 -16 -16 -3 -8
-10 -12 -16 -9 -5 3 -10 -3 -10 -14 0 -12 -7 -21 -15 -21 -8 0 -15 5 -15 10 0
6 -9 19 -20 30 -14 14 -20 16 -20 6 0 -8 7 -17 16 -20 8 -3 12 -10 9 -16 -9
-15 -35 -12 -35 4 0 8 -5 18 -11 21 -6 4 -9 0 -7 -11 2 -11 -4 -20 -14 -22
-11 -2 -18 3 -18 12 0 8 -4 18 -10 21 -6 3 -7 -1 -4 -10 5 -11 0 -18 -15 -22
-11 -3 -21 -11 -21 -19 0 -18 -13 -24 -29 -15 -10 7 -9 13 8 30 12 12 19 27
15 33 -5 7 -10 4 -15 -10 -11 -29 -39 -29 -40 1 l0 22 -10 -23 c-5 -13 -13
-20 -19 -17 -6 3 -14 -4 -19 -17 -7 -17 -10 -19 -10 -5 -1 9 -6 17 -12 17 -6
0 -8 7 -5 16 7 17 -17 47 -29 36 -3 -4 -13 2 -21 13 -15 19 -15 19 -9 -7 6
-24 4 -28 -14 -28 -24 0 -27 10 -9 28 8 8 8 12 1 12 -6 0 -14 -7 -17 -16 -3
-8 -11 -12 -17 -9 -5 4 -17 -1 -24 -11 -8 -11 -14 -14 -14 -9 0 6 6 19 14 29
19 25 20 42 2 27 -10 -8 -19 -5 -37 11 -18 17 -22 18 -17 5 7 -18 -7 -32 -23
-22 -8 5 -7 11 0 20 8 9 8 20 2 31 -6 11 -11 13 -16 5 -4 -6 -2 -11 5 -11 8 0
8 -4 -1 -15 -16 -19 -33 -9 -27 16 4 15 2 17 -13 9 -22 -12 -30 -4 -30 32 0
15 -4 28 -10 28 -5 0 -10 7 -10 15 0 8 5 15 12 15 6 0 9 3 5 6 -6 7 -43 -12
-39 -20 1 -3 -1 -6 -5 -6 -9 0 -9 6 2 38 4 12 11 22 16 22 5 0 9 5 9 10 0 19
-17 10 -28 -15 -17 -37 -34 -31 -27 9 7 32 5 35 -39 57 -31 15 -43 26 -36 33
7 7 14 4 23 -7 11 -16 14 -16 32 -2 16 14 17 16 3 11 -25 -8 -34 15 -13 31 18
12 18 13 -3 13 -26 0 -29 15 -4 29 16 10 16 10 0 11 -22 0 -24 28 -4 36 8 3
12 12 9 20 -3 8 1 14 11 14 9 0 16 8 16 20 0 11 4 20 9 20 5 0 16 3 25 6 11 4
19 -2 26 -17 10 -23 10 -23 7 4 -3 15 0 30 4 33 5 3 9 1 9 -3 0 -5 9 -9 20 -9
11 0 20 6 20 13 0 7 4 13 9 13 5 0 18 3 28 6 15 5 15 4 3 -5 -10 -7 -11 -11
-2 -11 6 0 12 -5 12 -11 0 -6 -9 -8 -20 -4 -15 5 -18 3 -14 -9 4 -11 -2 -19
-17 -25 -13 -5 -18 -10 -12 -10 10 -1 10 -7 2 -25 -8 -17 -8 -29 1 -46 11 -20
10 -25 -6 -37 -16 -12 -16 -13 -1 -13 9 0 17 -5 17 -10 0 -6 3 -9 8 -9 19 3
23 -2 13 -15 -10 -12 -8 -16 11 -21 30 -10 61 -42 48 -50 -6 -3 -15 -3 -22 1
-7 4 -8 3 -4 -5 4 -6 13 -11 19 -10 16 3 67 -12 67 -18 0 -3 -8 -12 -17 -19
-15 -10 -16 -15 -5 -26 11 -11 12 -10 7 3 -4 11 1 18 16 22 29 8 39 -1 16 -14
-9 -6 -17 -15 -17 -22 0 -9 2 -9 8 -1 4 6 17 14 30 18 17 6 22 3 22 -11 0 -11
3 -14 8 -7 10 16 52 28 52 15 0 -6 -4 -11 -10 -11 -5 0 -10 -7 -10 -15 0 -12
7 -9 25 9 26 26 71 44 82 32 4 -3 0 -6 -8 -6 -9 0 -28 -14 -45 -32 l-29 -31
39 29 c22 16 37 23 32 17 -4 -7 -3 -13 3 -13 5 0 12 6 15 13 4 9 8 8 17 -4 11
-15 15 -13 41 15 16 17 28 24 26 16 -2 -8 -7 -18 -13 -22 -6 -5 -5 -12 3 -20
9 -9 12 -9 12 0 0 7 7 12 15 12 8 0 15 -5 15 -11 0 -7 14 4 30 22 l30 34 -11
-32 c-6 -18 -15 -33 -21 -33 -5 0 -7 -4 -3 -9 3 -5 1 -12 -5 -16 -5 -3 -10
-11 -10 -16 0 -6 7 -4 15 5 8 8 15 19 15 25 0 6 5 11 12 11 6 0 9 3 5 6 -3 4
0 13 8 20 7 8 15 19 17 26 3 7 11 9 24 4 15 -7 16 -9 4 -14 -16 -5 -30 -22
-30 -35 0 -5 10 -1 22 7 25 18 58 21 58 6 0 -5 6 -10 14 -10 8 0 17 -7 20 -16
4 -9 9 -15 11 -12 9 9 -7 38 -20 38 -7 0 -16 7 -19 16 -3 8 -10 12 -16 9 -5
-3 -10 -1 -10 4 0 6 7 11 15 11 8 0 15 -4 15 -10 0 -5 5 -10 10 -10 6 0 10 7
10 15 0 8 7 15 15 15 8 0 15 -4 15 -10 0 -5 -4 -10 -9 -10 -5 0 -7 -9 -4 -20
3 -11 9 -17 14 -15 4 3 6 12 2 20 -3 10 2 15 16 15 21 0 30 -25 11 -32 -6 -2
-6 -8 0 -18 8 -13 10 -12 10 3 0 9 5 17 10 17 6 0 10 9 10 20 0 13 -7 20 -20
20 -11 0 -20 5 -20 10 0 6 6 10 14 10 8 0 18 -4 21 -10 9 -15 25 -12 25 5 0 8
4 15 9 15 15 0 23 -18 10 -22 -14 -5 0 -38 17 -38 7 0 18 -8 23 -17 10 -17 10
-17 11 0 0 9 5 17 11 17 5 0 8 4 4 9 -11 19 18 24 32 6 11 -16 13 -16 13 -3 0
21 27 31 34 12 3 -8 12 -14 21 -14 8 0 15 -7 15 -15 0 -8 5 -15 11 -15 6 0 8
7 5 16 -3 9 -6 18 -6 20 0 2 -7 4 -15 4 -8 0 -15 5 -15 10 0 16 30 12 36 -5 4
-8 11 -15 16 -15 6 0 8 7 5 15 -8 19 11 31 26 16 9 -9 8 -14 -2 -20 -7 -5 -10
-14 -7 -20 4 -6 0 -14 -8 -17 -9 -3 -13 -10 -10 -15 7 -12 34 15 34 35 0 20
29 21 36 1 4 -8 10 -13 14 -10 4 3 13 -2 20 -10 10 -13 14 -13 27 1 9 8 23 12
35 8 13 -4 24 0 32 12 14 18 53 13 41 -6 -3 -5 -1 -10 4 -10 6 0 11 7 11 15 0
23 30 18 39 -7 6 -18 9 -19 14 -5 8 21 37 22 37 2 0 -8 5 -15 10 -15 6 0 10 7
10 16 0 10 7 14 18 12 9 -2 16 -10 14 -17 -2 -9 4 -10 19 -6 19 6 21 4 16 -14
-6 -25 8 -28 18 -4 3 10 1 19 -4 21 -6 2 -8 14 -5 28 7 26 -13 33 -34 12 -9
-9 -12 -7 -12 10 0 16 -6 22 -21 22 -11 0 -27 7 -36 16 -9 8 -22 13 -31 9 -8
-3 -20 -1 -26 4 -11 8 -64 21 -96 22 -8 0 -25 5 -37 11 -16 8 -26 8 -35 0 -8
-6 -19 -7 -27 -2 -8 4 -60 6 -115 3 -56 -3 -110 -5 -121 -4 -11 0 -121 -20
-244 -45 -178 -36 -239 -45 -301 -42 -43 2 -76 6 -73 11 2 4 -4 7 -14 7 -41 0
-140 69 -166 115 -14 26 -26 106 -15 99 4 -3 8 2 8 10 0 9 18 34 40 56 30 30
35 40 23 40 -34 0 -123 60 -155 105 -34 46 -48 55 -48 31 0 -21 -58 -66 -86
-66 -32 0 -102 28 -141 57 -27 20 -31 28 -27 56 3 17 6 41 7 52 1 11 7 23 12
27 6 5 4 8 -5 8 -8 -1 -26 -10 -39 -21z m199 -218 c0 -10 -9 -30 -20 -44 -11
-14 -20 -28 -20 -32 0 -14 22 9 46 47 14 22 28 37 31 34 12 -12 -44 -78 -86
-101 -47 -27 -64 -26 -39 2 8 10 28 39 43 66 28 49 45 60 45 28z m200 -105 c0
-3 -4 -8 -10 -11 -5 -3 -10 -1 -10 4 0 6 5 11 10 11 6 0 10 -2 10 -4z m-296
-41 c-4 -8 -8 -15 -10 -15 -2 0 -4 7 -4 15 0 8 4 15 10 15 5 0 7 -7 4 -15z
m280 -1 c8 -21 8 -24 -5 -24 -5 0 -7 5 -4 10 3 6 1 10 -4 10 -6 0 -11 5 -11
10 0 16 17 12 24 -6z m-190 -40 c4 -11 1 -14 -11 -12 -9 2 -18 9 -21 16 -6 18
25 15 32 -4z m-44 -25 c0 -6 -4 -7 -10 -4 -5 3 -10 11 -10 16 0 6 5 7 10 4 6
-3 10 -11 10 -16z m240 1 c0 -5 -4 -10 -10 -10 -5 0 -10 5 -10 10 0 6 5 10 10
10 6 0 10 -4 10 -10z m-190 -21 c0 -5 -7 -9 -15 -9 -15 0 -20 12 -9 23 8 8 24
-1 24 -14z m-45 -19 c3 -5 -1 -10 -10 -10 -9 0 -13 5 -10 10 3 6 8 10 10 10 2
0 7 -4 10 -10z m5 -50 c0 -5 -2 -10 -4 -10 -3 0 -8 5 -11 10 -3 6 -1 10 4 10
6 0 11 -4 11 -10z m50 -20 c0 -5 -4 -10 -9 -10 -6 0 -13 5 -16 10 -3 6 1 10 9
10 9 0 16 -4 16 -10z m40 -15 c0 -8 -4 -15 -9 -15 -13 0 -22 16 -14 24 11 11
23 6 23 -9z m1065 -5 c3 -5 -1 -10 -9 -10 -9 0 -16 5 -16 10 0 6 4 10 9 10 6
0 13 -4 16 -10z m-55 -10 c0 -5 -4 -10 -10 -10 -5 0 -10 5 -10 10 0 6 5 10 10
10 6 0 10 -4 10 -10z m240 0 c0 -5 -2 -10 -4 -10 -3 0 -8 5 -11 10 -3 6 -1 10
4 10 6 0 11 -4 11 -10z m-1290 -10 c0 -5 -4 -10 -10 -10 -5 0 -10 5 -10 10 0
6 5 10 10 10 6 0 10 -4 10 -10z m1002 -22 c-6 -6 -19 -7 -29 -4 -16 7 -16 9 7
21 26 14 41 2 22 -17z m252 17 c3 -8 12 -12 21 -9 11 4 15 0 15 -15 0 -19 -3
-20 -20 -11 -11 6 -20 15 -20 20 0 6 -7 10 -15 10 -8 0 -15 5 -15 10 0 16 27
12 34 -5z m166 5 c12 -8 11 -10 -7 -10 -13 0 -23 5 -23 10 0 13 11 13 30 0z
m58 -8 c2 -7 -2 -10 -12 -6 -9 3 -16 11 -16 16 0 13 23 5 28 -10z m-1098 -7
c9 -10 9 -15 1 -15 -6 0 -11 5 -11 11 0 6 -7 9 -15 5 -8 -3 -15 -1 -15 4 0 15
26 12 40 -5z m1145 5 c3 -5 2 -10 -4 -10 -5 0 -13 5 -16 10 -3 6 -2 10 4 10 5
0 13 -4 16 -10z m-1085 -10 c0 -5 -4 -10 -10 -10 -5 0 -10 5 -10 10 0 6 5 10
10 10 6 0 10 -4 10 -10z m203 4 c-7 -3 -9 -13 -6 -22 5 -13 3 -14 -7 -5 -14
13 -5 33 13 32 9 0 9 -2 0 -5z m707 -11 c0 -15 -2 -15 -24 -7 -23 9 -20 23 4
21 11 -1 20 -7 20 -14z m-800 -3 c0 -5 -4 -10 -10 -10 -5 0 -10 5 -10 10 0 6
5 10 10 10 6 0 10 -4 10 -10z m-520 -20 c0 -5 -2 -10 -4 -10 -3 0 -8 5 -11 10
-3 6 -1 10 4 10 6 0 11 -4 11 -10z m73 -53 c-3 -5 -10 -4 -15 1 -6 6 -7 16 -3
22 6 9 9 9 16 -1 4 -7 5 -17 2 -22z m-742 -35 c-14 -5 -61 24 -61 38 0 5 16 0
37 -12 20 -12 31 -24 24 -26z m129 -18 c22 -15 38 -29 36 -31 -6 -7 -60 23
-75 41 -19 23 -6 20 39 -10z m645 -4 c3 -5 -1 -10 -9 -10 -9 0 -16 5 -16 10 0
6 4 10 9 10 6 0 13 -4 16 -10z m1653 -8 c2 -7 -2 -10 -12 -6 -9 3 -16 11 -16
16 0 13 23 5 28 -10z m-2164 -23 c38 -22 44 -29 24 -29 -14 0 -78 49 -66 50 4
0 23 -9 42 -21z m551 1 c3 -5 -1 -10 -9 -10 -9 0 -16 5 -16 10 0 6 4 10 9 10
6 0 13 -4 16 -10z m-465 -15 c7 -8 8 -15 2 -15 -5 0 -15 7 -22 15 -7 8 -8 15
-2 15 5 0 15 -7 22 -15z m541 2 c-1 -12 -15 -9 -19 4 -3 6 1 10 8 8 6 -3 11
-8 11 -12z m707 -4 c2 -8 -5 -13 -17 -13 -12 0 -21 6 -21 16 0 18 31 15 38 -3z
m342 -4 c0 -5 -9 -9 -20 -9 -22 0 -27 16 -7 23 15 5 27 -1 27 -14z m-1710 1
c0 -5 -2 -10 -4 -10 -3 0 -8 5 -11 10 -3 6 -1 10 4 10 6 0 11 -4 11 -10z
m1500 -11 c0 -5 -7 -9 -15 -9 -15 0 -20 12 -9 23 8 8 24 -1 24 -14z m41 -2
c-13 -13 -26 -3 -16 12 3 6 11 8 17 5 6 -4 6 -10 -1 -17z m59 14 c0 -14 -18
-23 -30 -16 -6 4 -8 11 -5 16 8 12 35 12 35 0z m-1184 -67 l5 -39 -21 50 c-24
60 -24 64 -5 44 9 -8 18 -33 21 -55z m1044 36 c0 -3 -9 -6 -20 -7 -23 -2 -25
3 -7 21 11 13 26 4 27 -14z m-650 4 c0 -10 -6 -14 -14 -11 -8 3 -17 -1 -20 -9
-6 -16 -36 -19 -36 -4 0 6 7 10 15 10 9 0 18 7 21 15 8 20 34 19 34 -1z m590
-5 c0 -5 -9 -9 -20 -9 -22 0 -27 16 -7 23 15 5 27 -1 27 -14z m335 0 c-8 -12
-35 -12 -35 0 0 11 22 20 33 14 4 -2 5 -9 2 -14z m-1005 1 c0 -5 -7 -10 -15
-10 -8 0 -15 5 -15 10 0 6 7 10 15 10 8 0 15 -4 15 -10z m840 2 c0 -13 -12
-22 -22 -16 -10 6 -1 24 13 24 5 0 9 -4 9 -8z m50 -2 c0 -5 -7 -10 -15 -10 -8
0 -15 5 -15 10 0 6 7 10 15 10 8 0 15 -4 15 -10z m60 0 c0 -5 -9 -10 -20 -10
-11 0 -20 5 -20 10 0 6 9 10 20 10 11 0 20 -4 20 -10z m-1549 -23 c-10 -9 -11
-8 -5 6 3 10 9 15 12 12 3 -3 0 -11 -7 -18z m1104 13 c-3 -5 -10 -10 -16 -10
-5 0 -9 5 -9 10 0 6 7 10 16 10 8 0 12 -4 9 -10z m285 6 c0 -11 -19 -15 -25
-6 -3 5 1 10 9 10 9 0 16 -2 16 -4z m300 -16 c0 -5 -7 -10 -15 -10 -8 0 -15 5
-15 10 0 6 7 10 15 10 8 0 15 -4 15 -10z m-1009 -13 c-1 -12 -15 -9 -19 4 -3
6 1 10 8 8 6 -3 11 -8 11 -12z m94 -8 c-8 -12 -35 -12 -35 0 0 11 22 20 33 14
4 -2 5 -9 2 -14z m110 0 c-8 -12 -35 -12 -35 0 0 11 22 20 33 14 4 -2 5 -9 2
-14z m49 -4 c-3 -7 -12 -11 -20 -8 -17 6 -18 20 -1 26 18 6 27 -1 21 -18z
m581 15 c-3 -5 -12 -10 -18 -10 -7 0 -6 4 3 10 19 12 23 12 15 0z m50 0 c-3
-5 -10 -10 -16 -10 -5 0 -9 5 -9 10 0 6 7 10 16 10 8 0 12 -4 9 -10z m55 0
c-20 -13 -33 -13 -25 0 3 6 14 10 23 10 15 0 15 -2 2 -10z m-1263 -45 c18 -52
47 -81 114 -116 32 -15 66 -40 78 -55 20 -26 26 -21 21 16 -1 8 -12 32 -26 52
-29 45 -29 48 -6 48 10 0 26 -14 36 -31 21 -35 61 -55 150 -74 34 -7 69 -16
79 -20 32 -13 19 31 -18 59 -19 15 -35 31 -35 37 0 17 37 9 56 -12 34 -38 89
-59 153 -59 73 0 91 -6 91 -32 0 -11 9 -33 21 -49 22 -32 8 -40 -22 -13 -14
13 -151 74 -165 74 -9 0 -3 -42 8 -60 17 -27 6 -33 -39 -21 -46 13 -75 6 -157
-38 -32 -17 -69 -31 -82 -31 -13 0 -24 -4 -24 -10 0 -9 37 -21 103 -35 39 -8
33 -25 -9 -25 -46 0 -68 -12 -136 -76 -31 -30 -62 -54 -70 -55 -7 0 -3 -4 9
-9 15 -6 39 -4 70 5 31 9 51 11 57 5 16 -16 -11 -34 -55 -36 -35 -2 -49 -10
-88 -49 -44 -45 -45 -47 -18 -42 22 3 25 2 16 -9 -7 -9 -30 -14 -58 -13 -25 0
-41 2 -36 5 6 2 10 75 9 192 0 195 -13 280 -53 361 -12 25 -17 55 -16 96 3 71
2 68 17 63 6 -2 17 -22 25 -43z m633 35 c0 -5 -9 -10 -21 -10 -11 0 -17 5 -14
10 3 6 13 10 21 10 8 0 14 -4 14 -10z m40 0 c0 -5 -4 -10 -10 -10 -5 0 -10 5
-10 10 0 6 5 10 10 10 6 0 10 -4 10 -10z m150 0 c0 -5 -4 -10 -10 -10 -5 0
-10 5 -10 10 0 6 5 10 10 10 6 0 10 -4 10 -10z m50 0 c0 -5 -4 -10 -10 -10 -5
0 -10 5 -10 10 0 6 5 10 10 10 6 0 10 -4 10 -10z m130 6 c0 -3 -4 -8 -10 -11
-5 -3 -10 -1 -10 4 0 6 5 11 10 11 6 0 10 -2 10 -4z m387 -28 c2 -18 0 -20 -7
-8 -12 18 -13 30 -2 30 4 0 9 -10 9 -22z m-967 -18 c-8 -5 -17 -7 -19 -4 -3 3
1 9 9 14 8 5 17 7 19 4 3 -3 -1 -9 -9 -14z m60 0 c-19 -12 -30 -12 -30 -1 0
10 31 20 40 14 2 -2 -2 -8 -10 -13z m52 -2 c-6 -6 -15 -8 -19 -4 -4 4 -1 11 7
16 19 12 27 3 12 -12z m-862 2 c0 -5 -4 -10 -10 -10 -5 0 -10 5 -10 10 0 6 5
10 10 10 6 0 10 -4 10 -10z m910 0 c0 -5 -2 -10 -4 -10 -3 0 -8 5 -11 10 -3 6
-1 10 4 10 6 0 11 -4 11 -10z m545 -20 c10 -11 14 -20 8 -20 -5 0 -18 9 -28
20 -10 11 -14 20 -8 20 5 0 18 -9 28 -20z m198 -48 c4 -36 3 -41 -9 -31 -14
12 -19 60 -7 72 9 10 10 8 16 -41z m-1225 24 c26 -14 92 -76 80 -76 -3 0 -32
20 -64 45 -59 46 -64 56 -16 31z m858 -31 c22 -10 52 -12 100 -9 56 5 76 2
107 -14 37 -20 48 -17 25 6 -16 16 -10 15 71 -7 38 -11 71 -17 73 -15 3 2 15
-7 28 -21 19 -20 21 -27 10 -40 -10 -13 -9 -15 9 -15 12 0 20 -4 16 -9 -3 -6
-14 -9 -24 -8 -10 0 -42 -11 -72 -25 -134 -65 -173 -72 -204 -38 -27 30 -40
24 -16 -6 22 -28 27 -54 11 -54 -5 0 -10 8 -10 18 0 26 -23 43 -113 85 -63 30
-77 33 -73 19 10 -32 13 -82 5 -82 -4 0 -16 14 -26 30 -9 17 -26 33 -38 36
-49 14 -108 49 -113 66 -2 10 -24 30 -48 44 -24 14 -44 30 -44 35 0 17 41 9
78 -16 43 -29 62 -31 154 -21 45 5 74 4 88 -4 40 -21 17 12 -28 43 -23 16 -42
33 -42 39 0 6 10 3 23 -6 12 -9 36 -23 53 -31z m144 24 c13 -7 13 -8 0 -9 -40
0 -91 13 -78 21 13 8 52 3 78 -12z m-1680 -4 c0 -8 -8 -11 -20 -8 -30 8 -32
18 -4 19 14 1 24 -4 24 -11z m1854 0 c25 -19 8 -19 -35 0 -31 13 -32 14 -9 14
14 0 34 -6 44 -14z m223 -1 c-3 -3 -12 -4 -19 -1 -8 3 -5 6 6 6 11 1 17 -2 13
-5z m-2047 -14 c0 -5 -2 -10 -4 -10 -3 0 -8 5 -11 10 -3 6 -1 10 4 10 6 0 11
-4 11 -10z m1442 -19 c4 -3 -18 -4 -49 -2 -34 2 -51 6 -43 11 14 8 80 2 92 -9z
m494 1 c12 -8 37 -73 30 -79 -2 -2 -15 16 -29 41 -24 44 -25 54 -1 38z m-1006
-28 c25 -14 38 -23 30 -21 -44 12 -120 39 -120 43 0 12 51 0 90 -22z m1178 12
c-10 -7 -15 -16 -11 -19 3 -4 1 -7 -5 -7 -7 0 -12 2 -12 4 0 2 -2 10 -5 18 -4
9 3 14 22 16 25 1 26 0 11 -12z m-903 -17 c18 -7 18 -8 -5 -8 -35 -1 -70 10
-70 20 0 9 36 3 75 -12z m-841 -16 c5 -17 3 -29 -6 -34 -9 -6 -7 -9 9 -9 12 0
23 6 26 13 2 6 8 9 11 5 4 -3 -3 -17 -15 -29 -16 -16 -19 -24 -10 -27 7 -2 17
2 22 9 4 7 11 10 15 7 3 -4 -1 -15 -11 -24 -23 -23 -89 -59 -79 -43 4 7 7 33
7 58 -1 25 4 49 11 53 7 5 5 8 -6 8 -10 0 -18 5 -18 11 0 6 7 9 14 6 10 -4 13
-1 9 9 -3 7 -1 14 5 14 5 0 13 -12 16 -27z m36 7 c0 -5 -4 -10 -10 -10 -5 0
-10 5 -10 10 0 6 5 10 10 10 6 0 10 -4 10 -10z m40 -14 c0 -3 -4 -8 -10 -11
-5 -3 -10 -1 -10 4 0 6 5 11 10 11 6 0 10 -2 10 -4z m1660 -42 c0 -8 -5 -12
-10 -9 -6 4 -8 11 -5 16 9 14 15 11 15 -7z m-1650 -4 c0 -5 -4 -10 -10 -10 -5
0 -10 5 -10 10 0 6 5 10 10 10 6 0 10 -4 10 -10z m1685 -18 c-8 -2 -15 -11
-15 -20 0 -11 -3 -13 -11 -5 -8 8 -6 17 7 32 13 15 20 17 26 8 4 -7 2 -13 -7
-15z m-1009 -17 c28 -19 32 -25 17 -25 -11 0 -30 11 -43 25 -13 14 -21 25 -17
25 3 0 23 -11 43 -25z m214 -25 l35 -22 -30 7 c-31 7 -75 41 -75 58 0 6 8 3
18 -5 9 -9 33 -26 52 -38z m-880 20 c0 -5 -3 -10 -8 -10 -4 0 -22 -13 -40 -30
-29 -26 -31 -30 -13 -30 12 0 21 5 21 10 0 6 6 10 14 10 8 0 16 6 19 13 2 6 8
8 13 4 5 -4 2 -12 -5 -16 -31 -20 -91 -74 -91 -83 0 -5 5 -6 10 -3 6 3 13 -1
16 -9 3 -9 12 -16 20 -16 8 0 14 -4 14 -10 0 -5 -7 -10 -15 -10 -8 0 -15 5
-15 10 0 15 -21 12 -42 -7 -19 -17 -19 -16 -15 22 7 65 33 125 54 125 7 0 13
5 13 10 0 6 7 10 15 10 8 0 15 5 15 10 0 6 5 10 10 10 6 0 10 -4 10 -10z m40
-20 c0 -5 -2 -10 -4 -10 -3 0 -8 5 -11 10 -3 6 -1 10 4 10 6 0 11 -4 11 -10z
m1043 -48 c-17 -4 -64 27 -71 46 -2 7 16 0 41 -15 28 -18 39 -29 30 -31z m363
39 c-3 -5 -21 -13 -38 -16 -30 -7 -31 -8 -13 -21 21 -16 4 -19 -23 -5 -9 5
-28 14 -42 20 -23 10 -21 10 13 6 20 -3 37 -1 37 3 0 7 61 30 69 25 1 -1 0 -6
-3 -12z m194 9 c0 -5 -2 -10 -4 -10 -3 0 -8 5 -11 10 -3 6 -1 10 4 10 6 0 11
-4 11 -10z m-1590 -40 c0 -5 -2 -10 -4 -10 -3 0 -8 5 -11 10 -3 6 -1 10 4 10
6 0 11 -4 11 -10z m1590 0 c0 -5 -4 -10 -10 -10 -5 0 -10 5 -10 10 0 6 5 10
10 10 6 0 10 -4 10 -10z m-1145 -16 c-21 -16 -94 -38 -102 -31 -5 5 94 46 112
46 6 0 1 -6 -10 -15z m-705 -4 c0 -5 -4 -10 -10 -10 -5 0 -10 5 -10 10 0 6 5
10 10 10 6 0 10 -4 10 -10z m230 4 c0 -10 -28 -34 -39 -34 -6 0 -11 5 -11 10
0 6 7 10 15 10 8 0 15 5 15 10 0 6 5 10 10 10 6 0 10 -3 10 -6z m1288 -19 c10
-9 -73 -5 -88 5 -10 6 1 8 34 5 27 -3 52 -7 54 -10z m322 -6 c0 -5 -4 -9 -10
-9 -5 0 -10 7 -10 16 0 8 5 12 10 9 6 -3 10 -10 10 -16z m820 11 c0 -5 -5 -10
-11 -10 -5 0 -7 5 -4 10 3 6 8 10 11 10 2 0 4 -4 4 -10z m-1760 -10 c0 -5 -5
-10 -11 -10 -5 0 -7 5 -4 10 3 6 8 10 11 10 2 0 4 -4 4 -10z m200 0 c0 -5 -2
-10 -4 -10 -3 0 -8 5 -11 10 -3 6 -1 10 4 10 6 0 11 -4 11 -10z m-920 -26 c0
-18 -14 -18 -29 0 -9 11 -9 15 1 19 17 6 28 -1 28 -19z m775 16 c-3 -5 -13
-10 -21 -10 -8 0 -12 5 -9 10 3 6 13 10 21 10 8 0 12 -4 9 -10z m855 6 c0 -3
-4 -8 -10 -11 -5 -3 -10 -1 -10 4 0 6 5 11 10 11 6 0 10 -2 10 -4z m-1020 -16
c0 -5 -5 -10 -11 -10 -5 0 -7 5 -4 10 3 6 8 10 11 10 2 0 4 -4 4 -10z m220 0
c0 -5 -9 -10 -21 -10 -11 0 -17 5 -14 10 3 6 13 10 21 10 8 0 14 -4 14 -10z
m1486 -4 c19 -15 19 -15 -1 -52 -11 -21 -25 -39 -30 -41 -6 -2 -15 22 -21 52
-9 52 -9 55 11 55 12 0 30 -6 41 -14z m-1756 -6 c0 -5 -4 -10 -10 -10 -5 0
-10 5 -10 10 0 6 5 10 10 10 6 0 10 -4 10 -10z m121 -13 c-13 -13 -26 -3 -16
12 3 6 11 8 17 5 6 -4 6 -10 -1 -17z m199 13 c0 -5 -7 -10 -15 -10 -8 0 -15 5
-15 10 0 6 7 10 15 10 8 0 15 -4 15 -10z m50 0 c0 -5 -7 -10 -16 -10 -8 0 -12
5 -9 10 3 6 10 10 16 10 5 0 9 -4 9 -10z m-870 -10 c0 -5 -2 -10 -4 -10 -3 0
-8 5 -11 10 -3 6 -1 10 4 10 6 0 11 -4 11 -10z m680 -12 c1 -21 2 -22 14 -5
17 22 36 22 36 0 0 -15 2 -15 19 1 19 17 39 7 26 -14 -3 -5 -1 -10 5 -10 6 0
13 7 16 15 10 26 41 12 57 -25 4 -8 5 -3 2 13 -4 20 -1 27 11 27 10 0 14 -5
11 -15 -4 -8 -2 -17 3 -20 16 -10 -62 -74 -97 -81 -17 -3 -36 -4 -41 -1 -4 4
-21 -1 -37 -9 -19 -10 -32 -11 -40 -4 -6 5 -15 7 -18 3 -4 -3 -17 5 -30 19
-12 13 -28 23 -34 21 -6 -2 -11 2 -10 9 0 7 -1 22 -1 32 -2 19 -2 19 -15 1
-11 -14 -16 -15 -22 -5 -5 8 -4 15 3 18 6 2 9 9 6 16 -3 9 5 13 26 14 21 0 30
-4 30 -16 0 -14 2 -13 13 2 12 17 15 17 30 2 8 -9 18 -12 21 -7 3 5 -1 12 -10
15 -18 7 -10 26 12 26 8 0 14 -10 14 -22z m390 12 c11 -7 6 -8 -17 -4 -23 5
-43 0 -70 -16 l-38 -22 30 26 c31 27 69 33 95 16z m475 0 c-3 -5 -11 -10 -16
-10 -6 0 -7 5 -4 10 3 6 11 10 16 10 6 0 7 -4 4 -10z m-1785 -10 c0 -5 -5 -10
-11 -10 -5 0 -7 5 -4 10 3 6 8 10 11 10 2 0 4 -4 4 -10z m210 0 c0 -5 -4 -10
-10 -10 -5 0 -10 5 -10 10 0 6 5 10 10 10 6 0 10 -4 10 -10z m558 -18 c2 -7
-6 -12 -17 -12 -21 0 -27 11 -14 24 9 9 26 2 31 -12z m947 8 c3 -5 1 -10 -4
-10 -6 0 -11 5 -11 10 0 6 2 10 4 10 3 0 8 -4 11 -10z m-1685 -10 c0 -5 -4
-10 -10 -10 -5 0 -10 5 -10 10 0 6 5 10 10 10 6 0 10 -4 10 -10z m680 2 c0
-13 -12 -22 -22 -16 -10 6 -1 24 13 24 5 0 9 -4 9 -8z m1040 -12 c-9 -6 -9 -9
-1 -15 7 -3 9 -15 6 -26 -6 -19 -3 -21 40 -23 14 -1 19 -7 18 -21 -1 -11 4
-23 10 -28 9 -5 7 -10 -5 -18 -10 -5 -18 -17 -18 -24 0 -8 -4 -15 -9 -15 -5 0
-7 -8 -4 -19 3 -11 -2 -21 -11 -24 -20 -8 -31 10 -17 27 8 10 7 17 -6 27 -15
12 -16 12 -10 -4 5 -12 -1 -27 -18 -45 -14 -15 -25 -21 -25 -14 0 6 -5 12 -11
12 -6 0 -9 -6 -6 -14 3 -8 -2 -16 -14 -19 -10 -3 -19 -1 -19 4 0 5 5 9 10 9 6
0 10 6 10 14 0 21 21 31 31 15 4 -7 11 -10 15 -6 10 10 -17 39 -32 33 -8 -3
-18 3 -23 12 -6 9 -11 12 -11 7 0 -6 5 -16 12 -23 9 -9 8 -12 -5 -12 -10 0
-17 -8 -17 -19 0 -12 -9 -20 -27 -24 -39 -7 -46 0 -38 39 4 22 2 34 -5 34 -6
0 -10 -6 -9 -12 7 -42 -28 -87 -46 -58 -3 6 1 10 9 10 18 0 19 6 6 35 -8 19
-9 19 -9 -2 -1 -26 -28 -32 -37 -8 -4 8 -10 15 -15 15 -5 0 -9 -7 -9 -15 0 -8
-4 -15 -9 -15 -23 0 -20 22 9 61 16 23 30 48 30 56 0 7 9 13 21 13 11 0 18 4
15 9 -4 5 2 8 11 7 28 -4 27 -26 -1 -26 -14 0 -26 -5 -26 -11 0 -6 6 -9 14 -6
7 3 18 1 24 -5 7 -7 12 -3 17 11 3 12 11 21 16 21 12 0 11 -14 -2 -27 -12 -12
-4 -33 12 -33 6 0 7 9 4 20 -4 12 -2 20 5 20 7 0 23 -9 37 -20 26 -20 48 -27
39 -11 -3 5 1 23 10 40 9 18 13 38 11 46 -3 7 1 19 9 26 12 10 14 7 12 -17 -1
-16 2 -36 6 -43 5 -8 4 -16 -3 -20 -15 -10 -26 -71 -13 -71 15 0 24 17 13 24
-5 4 0 17 12 30 16 18 25 22 35 14 7 -6 16 -8 19 -4 9 9 -16 26 -37 26 -12 0
-15 11 -14 48 2 56 1 55 15 46 8 -5 8 -9 -1 -14z m44 11 c7 -10 -18 -34 -27
-25 -7 8 3 34 13 34 5 0 11 -4 14 -9z m-1637 -26 c8 -9 13 -18 11 -21 -8 -8
-58 15 -58 26 0 15 29 12 47 -5z m48 6 c3 -5 1 -12 -5 -16 -5 -3 -10 1 -10 9
0 18 6 21 15 7z m1085 -1 c0 -5 -5 -10 -11 -10 -5 0 -7 5 -4 10 3 6 8 10 11
10 2 0 4 -4 4 -10z m-1240 -51 c-8 -17 -20 -29 -31 -29 -25 0 -24 8 6 32 14
11 25 27 26 36 0 11 2 13 6 4 3 -7 0 -26 -7 -43z m1319 25 c13 -12 12 -17 -8
-38 -13 -14 -37 -26 -55 -28 -20 -2 -32 -9 -34 -20 -4 -21 28 -98 41 -98 4 0
5 -5 1 -11 -5 -8 -10 -6 -16 5 -8 13 -13 14 -31 4 -12 -7 -31 -13 -42 -15 -11
-2 -21 -7 -23 -12 -3 -10 -44 -2 -53 11 -7 11 -39 -1 -39 -14 0 -6 -6 -5 -15
2 -12 10 -15 10 -15 0 0 -14 -11 -8 -13 7 0 4 -7 14 -15 22 -12 12 -15 12 -23
0 -7 -11 -9 -10 -9 6 0 15 -2 17 -9 6 -11 -17 -34 -4 -27 14 3 8 2 16 -2 18
-4 2 -2 3 5 1 6 -1 19 3 29 11 10 7 24 11 31 8 7 -3 13 0 13 6 0 6 7 8 15 5
10 -4 15 0 15 12 0 11 4 15 8 9 4 -5 14 -11 22 -12 8 -1 25 -5 38 -9 20 -6 22
-4 18 17 -12 54 -10 93 4 84 6 -4 8 -10 5 -15 -3 -5 -1 -11 5 -15 5 -3 10 -1
10 6 0 8 4 8 15 -1 13 -10 15 -9 15 9 0 13 6 21 18 21 14 0 15 2 2 10 -11 7
-6 8 16 4 19 -4 34 -1 39 5 8 14 43 5 64 -15z m241 22 c0 -3 -4 -8 -10 -11 -5
-3 -10 -1 -10 4 0 6 5 11 10 11 6 0 10 -2 10 -4z m75 -6 c-3 -5 -11 -10 -16
-10 -6 0 -7 5 -4 10 3 6 11 10 16 10 6 0 7 -4 4 -10z m-1668 -22 c-3 -8 -6 -5
-6 6 -1 11 2 17 5 13 3 -3 4 -12 1 -19z m91 10 c-6 -18 -28 -21 -28 -4 0 9 7
16 16 16 9 0 14 -5 12 -12z m622 2 c0 -5 -4 -10 -10 -10 -5 0 -10 5 -10 10 0
6 5 10 10 10 6 0 10 -4 10 -10z m-156 -15 c-6 -15 -35 -35 -50 -35 -4 0 3 11
16 25 26 28 42 33 34 10z m923 -17 c-3 -7 -5 -2 -5 12 0 14 2 19 5 13 2 -7 2
-19 0 -25z m68 22 c-3 -5 -11 -10 -16 -10 -6 0 -7 5 -4 10 3 6 11 10 16 10 6
0 7 -4 4 -10z m75 -1 c0 -6 9 -8 20 -4 14 5 20 2 20 -9 0 -19 -19 -20 -42 -2
-20 15 -23 26 -8 26 6 0 10 -5 10 -11z m-984 -26 c-3 -8 -1 -23 4 -34 6 -11 7
-19 3 -18 -18 3 -24 -2 -17 -13 12 -18 14 -57 4 -63 -11 -7 7 -52 32 -81 20
-23 23 -34 7 -34 -5 0 -8 4 -5 9 7 11 -18 33 -35 29 -7 -2 -13 6 -14 16 0 27
-20 31 -42 9 -11 -11 -26 -17 -34 -15 -8 3 -10 1 -6 -4 5 -5 23 -9 40 -9 27 0
32 -4 34 -29 2 -28 2 -28 -19 -10 -20 19 -21 19 -14 -3 8 -27 -9 -39 -31 -21
-14 11 -15 10 -9 -9 8 -25 -9 -40 -28 -24 -8 7 -20 10 -27 9 -9 -2 -14 6 -14
19 0 31 -11 38 -68 40 -41 2 -65 -5 -112 -29 -79 -41 -153 -44 -186 -9 -13 13
-31 40 -40 58 l-17 34 26 11 c49 19 57 25 54 44 -3 16 -1 17 9 6 8 -7 12 -28
10 -47 -1 -20 2 -35 8 -35 6 0 11 -8 11 -17 0 -13 3 -14 12 -5 17 17 41 15 34
-3 -3 -8 -1 -15 4 -15 5 0 10 -7 12 -17 3 -14 5 -14 18 2 8 11 10 16 3 12 -6
-4 -15 -2 -19 4 -13 22 20 29 39 8 10 -11 23 -16 30 -12 8 5 7 9 -5 11 -20 4
-23 17 -7 28 6 3 15 0 20 -7 12 -20 130 -13 146 8 7 9 17 12 25 7 11 -6 11 -5
0 8 -12 15 -7 48 8 48 4 0 10 -7 14 -15 3 -8 10 -15 15 -15 7 0 7 9 0 27 -8
21 -6 30 12 49 12 13 26 21 30 18 5 -3 10 1 10 8 1 7 3 20 4 28 1 8 3 21 4 28
0 8 8 11 20 7 13 -4 20 0 24 16 3 12 10 18 17 14 6 -4 9 -14 6 -22z m974 -10
c0 -6 9 -9 20 -6 23 6 27 -9 6 -26 -10 -9 -15 -8 -20 4 -3 8 -12 15 -21 15 -8
0 -15 7 -15 15 0 8 -7 15 -16 15 -8 0 -13 4 -10 9 8 12 56 -10 56 -26z m875 0
c-3 -16 -13 -35 -21 -43 -13 -13 -13 -10 0 21 8 20 12 39 9 43 -4 3 -1 6 6 6
9 0 11 -8 6 -27z m-1825 -8 c11 -13 10 -14 -4 -9 -9 3 -16 10 -16 15 0 13 6
11 20 -6z m-549 -48 c-8 -8 -11 -3 -11 19 1 25 2 27 11 11 8 -14 8 -22 0 -30z
m-124 1 c-3 -8 -6 -5 -6 6 -1 11 2 17 5 13 3 -3 4 -12 1 -19z m43 1 c-7 -11
-14 -19 -16 -16 -7 7 7 37 17 37 6 0 5 -9 -1 -21z m120 -15 c0 -23 -3 -25 -24
-20 -27 7 -56 -1 -56 -16 0 -5 9 -7 20 -3 31 10 14 -22 -21 -41 -27 -13 -39
-8 -22 10 4 4 8 13 9 19 4 42 16 53 50 49 26 -3 34 -1 34 12 0 9 2 16 5 16 3
0 5 -12 5 -26z m646 1 c-2 6 4 11 14 11 10 0 18 -5 17 -11 -1 -5 4 -9 12 -7
12 3 12 0 2 -12 -10 -12 -9 -14 8 -9 17 4 21 1 21 -21 0 -19 -7 -29 -26 -36
-14 -6 -28 -19 -31 -31 -3 -11 -11 -18 -18 -15 -7 2 -17 0 -21 -4 -15 -15 -48
-1 -61 27 l-12 25 49 -6 c29 -4 51 -2 55 4 3 5 0 10 -8 10 -18 0 -29 24 -20
47 5 12 3 14 -8 8 -11 -6 -11 -5 -2 5 6 7 9 20 6 29 -4 12 -1 10 11 -4 10 -11
15 -15 12 -10z m208 1 c-3 -9 -10 -16 -15 -16 -5 0 -4 9 3 20 14 22 21 20 12
-4z m356 7 c-1 -20 -19 -35 -35 -29 -14 5 -15 9 -5 21 13 16 40 21 40 8z
m-420 -35 c0 -15 -4 -28 -9 -28 -5 0 -11 13 -13 28 -3 19 0 29 9 29 8 0 13
-12 13 -29z m30 22 c0 -5 -2 -10 -4 -10 -3 0 -8 5 -11 10 -3 6 -1 10 4 10 6 0
11 -4 11 -10z m840 0 c0 -5 -2 -10 -4 -10 -3 0 -8 5 -11 10 -3 6 -1 10 4 10 6
0 11 -4 11 -10z m-1830 -20 c0 -5 -2 -10 -4 -10 -3 0 -8 5 -11 10 -3 6 -1 10
4 10 6 0 11 -4 11 -10z m1830 -10 c0 -5 -7 -10 -15 -10 -8 0 -15 5 -15 10 0 6
7 10 15 10 8 0 15 -4 15 -10z m343 -11 c-8 -8 -16 -8 -30 0 -16 9 -14 10 12
11 21 0 26 -3 18 -11z m-1718 -28 c-3 -6 -11 -11 -17 -11 -6 0 -6 6 2 15 14
17 26 13 15 -4z m-259 -17 c-4 -11 -2 -15 8 -11 10 4 13 1 9 -9 -9 -24 -33
-16 -33 11 0 14 5 25 11 25 6 0 8 -7 5 -16z m1304 6 c0 -5 -4 -10 -10 -10 -5
0 -10 5 -10 10 0 6 5 10 10 10 6 0 10 -4 10 -10z m-1480 -19 c0 -5 -7 -14 -15
-21 -12 -10 -15 -10 -15 2 0 8 3 18 7 21 9 10 23 9 23 -2z m605 -1 c3 -5 1
-10 -4 -10 -6 0 -11 5 -11 10 0 6 2 10 4 10 3 0 8 -4 11 -10z m550 -29 c5 -11
2 -11 -17 1 -12 8 -24 20 -26 27 -6 18 36 -9 43 -28z m459 18 c-3 -5 -10 -7
-15 -3 -5 3 -7 10 -3 15 3 5 10 7 15 3 5 -3 7 -10 3 -15z m-1344 1 c0 -5 -5
-10 -11 -10 -5 0 -7 5 -4 10 3 6 8 10 11 10 2 0 4 -4 4 -10z m1300 0 c0 -5 -4
-10 -10 -10 -5 0 -10 5 -10 10 0 6 5 10 10 10 6 0 10 -4 10 -10z m-1340 -10
c0 -5 -4 -10 -10 -10 -5 0 -10 5 -10 10 0 6 5 10 10 10 6 0 10 -4 10 -10z
m1460 -16 c0 -8 -9 -14 -20 -14 -19 0 -27 19 -14 33 10 9 34 -4 34 -19z
m-1661 -37 c1 -5 -3 -5 -9 -2 -5 3 -10 16 -9 28 0 21 1 21 9 2 5 -11 9 -24 9
-28z m612 20 c-13 -13 -26 -3 -16 12 3 6 11 8 17 5 6 -4 6 -10 -1 -17z m990 8
c0 -5 -9 -11 -21 -13 -15 -3 -18 1 -14 13 7 17 35 17 35 0z m-421 -5 c0 -5 -5
-10 -11 -10 -5 0 -7 5 -4 10 3 6 8 10 11 10 2 0 4 -4 4 -10z m-757 -24 c3 -8
1 -17 -6 -19 -9 -3 -8 -8 2 -21 8 -9 20 -15 28 -12 8 3 16 -1 20 -9 3 -10 12
-13 24 -10 11 4 19 2 19 -4 0 -16 -20 -23 -34 -12 -7 6 -16 8 -19 4 -4 -3 -13
0 -22 7 -9 7 -18 10 -22 6 -10 -9 29 -35 44 -29 7 3 13 1 13 -5 0 -14 -28 -23
-35 -11 -4 5 -11 7 -16 4 -5 -4 -12 1 -15 9 -3 9 -12 16 -20 16 -7 0 -18 8
-23 18 -10 16 -10 16 -11 -1 0 -11 9 -21 20 -24 11 -3 20 -12 20 -19 0 -19
-29 -18 -36 1 -4 8 -12 15 -20 15 -17 0 -17 0 3 40 14 29 17 31 28 17 7 -10
16 -17 21 -17 4 0 3 5 -3 11 -9 9 -8 18 4 35 18 27 28 30 36 10z m179 -18
c-18 -19 -24 -20 -34 -9 -8 8 -8 11 -2 8 7 -4 17 0 24 8 7 8 17 15 23 15 6 0
1 -10 -11 -22z m-627 -8 c3 -5 1 -10 -4 -10 -6 0 -11 5 -11 10 0 6 2 10 4 10
3 0 8 -4 11 -10z m999 -5 c11 -8 37 -15 58 -15 21 0 38 -4 38 -9 0 -5 -8 -7
-19 -4 -13 3 -29 -9 -56 -41 -37 -45 -60 -60 -49 -32 3 8 -2 28 -10 45 -17 32
-17 51 -1 63 14 10 17 10 39 -7z m-689 -9 c-11 -7 -36 -17 -55 -20 l-35 -7 27
15 c45 24 94 34 63 12z m270 -17 c-8 -12 -35 -12 -35 0 0 11 22 20 33 14 4 -2
5 -9 2 -14z m555 -4 c0 -8 -2 -15 -4 -15 -2 0 -6 7 -10 15 -3 8 -1 15 4 15 6
0 10 -7 10 -15z m-952 -29 c3 -3 -2 -6 -12 -6 -19 0 -86 26 -86 34 0 6 89 -20
98 -28z m-80 -15 c3 -8 -1 -12 -9 -9 -7 2 -15 10 -17 17 -3 8 1 12 9 9 7 -2
15 -10 17 -17z m232 9 c0 -5 7 -10 15 -10 8 0 15 -7 15 -15 0 -8 -5 -15 -11
-15 -6 0 -8 -9 -4 -20 5 -16 2 -20 -14 -20 -12 0 -21 6 -21 16 0 8 5 12 10 9
12 -7 12 2 0 30 -8 19 -9 19 -9 -2 -1 -21 -11 -28 -33 -24 -5 0 -8 -3 -8 -9 0
-5 7 -10 15 -10 8 0 15 -4 15 -9 0 -13 -53 -21 -64 -10 -6 6 -4 9 7 9 9 0 17
8 17 17 0 9 12 29 28 44 28 30 42 36 42 19z m-262 -45 c-3 -3 -9 2 -12 12 -6
14 -5 15 5 6 7 -7 10 -15 7 -18z m181 4 c-16 -24 -33 -26 -37 -5 -2 11 2 14
12 10 9 -3 16 -1 16 5 0 6 5 11 11 11 8 0 7 -7 -2 -21z m-109 1 c0 -5 -7 -10
-16 -10 -8 0 -12 5 -9 10 3 6 10 10 16 10 5 0 9 -4 9 -10z m50 -5 c0 -8 -7
-15 -15 -15 -16 0 -20 12 -8 23 11 12 23 8 23 -8z m260 5 c0 -5 -9 -10 -20
-10 -11 0 -20 5 -20 10 0 6 9 10 20 10 11 0 20 -4 20 -10z m-55 -10 c3 -5 -3
-10 -14 -10 -12 0 -21 5 -21 10 0 6 6 10 14 10 8 0 18 -4 21 -10z m-285 -20
c0 -5 -4 -10 -10 -10 -5 0 -10 5 -10 10 0 6 5 10 10 10 6 0 10 -4 10 -10z m50
-10 c0 -5 -4 -10 -10 -10 -5 0 -10 5 -10 10 0 6 5 10 10 10 6 0 10 -4 10 -10z
m50 -5 c0 -9 -6 -12 -15 -9 -8 4 -15 10 -15 15 0 5 7 9 15 9 8 0 15 -7 15 -15z
m745 -5 c3 -5 2 -10 -4 -10 -5 0 -13 5 -16 10 -3 6 -2 10 4 10 5 0 13 -4 16
-10z m-111 -35 c3 -8 1 -15 -4 -15 -6 0 -10 7 -10 15 0 8 2 15 4 15 2 0 6 -7
10 -15z m194 -40 c2 -1 -3 -5 -10 -7 -7 -3 -29 1 -48 8 l-35 13 45 -6 c25 -3
46 -7 48 -8z m-91 -64 c45 -29 51 -36 42 -52 -13 -26 -20 -24 -49 10 -33 41
-44 29 -19 -21 11 -22 18 -46 15 -54 -3 -8 0 -14 6 -14 8 0 6 -6 -4 -16 -19
-19 -38 -11 -38 16 0 13 5 17 15 14 16 -7 21 15 7 32 -5 5 -19 27 -32 48 -21
35 -22 39 -6 33 14 -6 16 -4 9 5 -17 22 -24 50 -10 41 6 -5 35 -23 64 -42z
m-109 7 c-2 -6 -13 -16 -23 -22 -11 -6 -25 -18 -31 -26 -10 -12 -14 -12 -28
-1 -35 29 -8 60 52 61 22 0 32 -4 30 -12z m410 -136 c3 -16 -2 -22 -16 -22
-15 0 -18 5 -14 25 5 30 26 28 30 -3z m-245 -67 c22 -30 26 -66 8 -73 -8 -2
-12 1 -9 8 2 7 -9 27 -24 44 -32 35 -40 73 -10 55 9 -6 25 -21 35 -34z m27
-95 c0 -5 -5 -10 -11 -10 -5 0 -7 5 -4 10 3 6 8 10 11 10 2 0 4 -4 4 -10z"/>
<path d="M2610 1359 c0 -5 5 -7 10 -4 6 3 10 8 10 11 0 2 -4 4 -10 4 -5 0 -10
-5 -10 -11z"/>
<path d="M3421 1245 c0 -5 4 -17 9 -25 7 -12 12 -12 22 -2 9 9 9 12 -4 12 -9
0 -19 6 -21 13 -3 6 -6 8 -6 2z"/>
<path d="M3170 1230 c0 -5 10 -10 23 -10 18 0 19 2 7 10 -19 13 -30 13 -30 0z"/>
<path d="M3286 1217 c3 -10 9 -15 12 -12 3 3 0 11 -7 18 -10 9 -11 8 -5 -6z"/>
<path d="M3156 1197 c3 -10 9 -15 12 -12 3 3 0 11 -7 18 -10 9 -11 8 -5 -6z"/>
<path d="M2270 1256 c0 -8 5 -18 10 -21 6 -3 10 3 10 14 0 12 -4 21 -10 21 -5
0 -10 -6 -10 -14z"/>
<path d="M2280 1206 c0 -4 7 -14 15 -22 8 -9 15 -11 15 -6 0 5 -7 15 -15 22
-8 7 -15 9 -15 6z"/>
<path d="M2253 1149 c1 -13 5 -15 13 -8 6 5 20 6 30 3 15 -6 17 -4 7 6 -19 21
-52 20 -50 -1z"/>
<path d="M2185 1100 c3 -5 8 -10 11 -10 2 0 4 5 4 10 0 6 -5 10 -11 10 -5 0
-7 -4 -4 -10z"/>
<path d="M2180 1065 c7 -9 15 -13 17 -11 7 7 -7 26 -19 26 -6 0 -6 -6 2 -15z"/>
<path d="M2225 1050 c10 -11 20 -18 23 -15 7 6 -18 35 -31 35 -5 0 -2 -9 8
-20z"/>
<path d="M2180 1025 c7 -8 17 -15 22 -15 6 0 5 7 -2 15 -7 8 -17 15 -22 15 -6
0 -5 -7 2 -15z"/>
<path d="M2727 2683 c-4 -3 -7 -11 -7 -17 0 -6 5 -5 12 2 6 6 9 14 7 17 -3 3
-9 2 -12 -2z"/>
<path d="M1895 2670 c-3 -5 1 -10 9 -10 8 0 18 5 21 10 3 6 -1 10 -9 10 -8 0
-18 -4 -21 -10z"/>
<path d="M2775 2669 c-4 -6 -5 -12 -2 -15 2 -3 7 2 10 11 7 17 1 20 -8 4z"/>
<path d="M2511 2614 c0 -11 3 -14 6 -6 3 7 2 16 -1 19 -3 4 -6 -2 -5 -13z"/>
<path d="M3080 2604 c0 -8 8 -14 18 -14 10 0 23 -5 30 -12 13 -13 16 0 4 18
-12 18 -52 24 -52 8z"/>
<path d="M2951 2594 c0 -11 3 -14 6 -6 3 7 2 16 -1 19 -3 4 -6 -2 -5 -13z"/>
<path d="M2996 2595 c4 -8 8 -15 10 -15 2 0 4 7 4 15 0 8 -4 15 -10 15 -5 0
-7 -7 -4 -15z"/>
<path d="M3176 2578 c10 -13 12 -17 4 -10 -17 14 -34 16 -25 2 13 -21 -7 -31
-27 -13 -19 17 -19 17 -13 -8 5 -21 2 -27 -14 -32 -14 -3 -21 0 -21 9 0 8 -7
14 -15 14 -7 0 -19 8 -24 18 -10 16 -10 16 -11 0 0 -9 7 -21 16 -26 9 -5 14
-14 10 -21 -11 -17 -22 -13 -34 12 l-11 22 0 -22 c-1 -13 8 -27 19 -33 11 -6
18 -15 15 -20 -8 -13 -35 -1 -35 16 0 8 -7 14 -15 14 -7 0 -19 8 -24 18 -9 15
-10 15 -11 1 0 -9 -7 -19 -15 -23 -8 -3 -12 -12 -9 -21 4 -10 0 -15 -10 -15
-18 0 -22 26 -4 32 8 3 8 9 0 24 -10 16 -11 17 -12 2 0 -26 -20 -32 -35 -12
-14 18 -14 18 -15 1 0 -15 -5 -17 -31 -12 -25 6 -31 4 -36 -14 -7 -28 -43 -28
-43 0 0 15 5 19 15 15 10 -4 15 1 15 14 0 11 7 20 15 20 17 0 19 9 5 30 -8 13
-10 12 -10 -2 0 -10 -7 -18 -15 -18 -8 0 -15 -7 -15 -15 0 -17 -36 -21 -42 -4
-2 6 -15 -1 -30 -16 -19 -19 -32 -24 -51 -20 -16 4 -30 1 -42 -11 -10 -10 -27
-18 -39 -19 -22 0 -130 -64 -122 -72 2 -3 13 0 24 6 26 14 149 14 157 1 4 -6
-22 -10 -71 -10 -82 0 -90 -4 -34 -17 66 -15 166 -10 187 10 21 18 69 24 58 7
-4 -6 -24 -22 -46 -36 -37 -23 -69 -67 -57 -79 3 -3 21 2 41 10 20 8 59 15 86
15 67 0 123 24 145 60 9 17 21 30 27 30 12 0 12 -17 -1 -25 -5 -3 -10 -27 -10
-52 l0 -47 29 28 c16 15 57 44 92 64 50 29 66 44 74 70 10 37 27 43 24 10 -1
-13 -1 -39 0 -58 2 -35 2 -35 18 -12 9 12 45 46 81 74 l65 52 -44 39 c-73 66
-144 103 -103 55z m34 -37 c0 -5 -7 -11 -15 -15 -15 -5 -20 5 -8 17 9 10 23 9
23 -2z m-46 -20 c3 -5 -1 -11 -9 -15 -15 -6 -29 7 -18 18 9 9 21 8 27 -3z m46
-21 c0 -5 -5 -10 -11 -10 -5 0 -7 5 -4 10 3 6 8 10 11 10 2 0 4 -4 4 -10z
m-480 -20 c0 -5 7 -15 15 -24 14 -14 14 -17 -3 -34 -18 -18 -42 -19 -42 -1 0
4 6 6 14 3 10 -4 14 2 12 20 -1 27 -16 37 -16 11 0 -8 -4 -15 -9 -15 -5 0 -16
-7 -25 -15 -13 -14 -15 -12 -12 12 1 19 7 28 19 27 10 -1 17 5 17 17 0 12 5
16 15 13 8 -4 15 -10 15 -14z m390 10 c0 -5 -7 -10 -16 -10 -8 0 -12 5 -9 10
3 6 10 10 16 10 5 0 9 -4 9 -10z m120 -30 c-24 -21 -47 -36 -50 -34 -7 8 67
74 82 74 7 0 -7 -18 -32 -40z m-400 4 c0 -8 7 -17 15 -20 8 -4 15 -10 15 -15
0 -5 -7 -9 -15 -9 -8 0 -15 6 -15 14 0 7 -9 16 -20 19 -13 3 -18 11 -14 20 7
19 34 11 34 -9z m45 6 c0 -7 -6 -15 -12 -17 -8 -3 -13 4 -13 17 0 13 5 20 13
18 6 -3 12 -11 12 -18z m105 5 c0 -8 -7 -15 -15 -15 -8 0 -15 7 -15 15 0 8 7
15 15 15 8 0 15 -7 15 -15z m90 5 c0 -5 -2 -10 -4 -10 -3 0 -8 5 -11 10 -3 6
-1 10 4 10 6 0 11 -4 11 -10z m-441 -14 c9 -11 8 -15 -4 -20 -9 -3 -13 -2 -10
4 3 6 1 10 -4 10 -6 0 -11 5 -11 10 0 14 16 12 29 -4z m171 -26 c8 -5 11 -12
8 -16 -10 -9 -38 3 -38 16 0 12 10 13 30 0z m215 0 c3 -5 1 -10 -4 -10 -6 0
-11 5 -11 10 0 6 2 10 4 10 3 0 8 -4 11 -10z m-105 -10 c0 -5 -7 -10 -15 -10
-8 0 -15 5 -15 10 0 6 7 10 15 10 8 0 15 -4 15 -10z m50 0 c0 -5 -2 -10 -4
-10 -3 0 -8 5 -11 10 -3 6 -1 10 4 10 6 0 11 -4 11 -10z m-180 -32 c0 -6 -6
-5 -15 2 -8 7 -15 14 -15 16 0 2 7 1 15 -2 8 -4 15 -11 15 -16z m290 8 c0 -6
-99 -76 -107 -76 -15 0 61 69 81 73 12 2 22 5 24 6 1 0 2 -1 2 -3z m-255 -66
c-6 -9 -115 -33 -121 -27 -8 7 78 35 103 34 12 -1 20 -4 18 -7z"/>
<path d="M2852 2574 c-11 -12 -17 -13 -30 -2 -11 9 -10 5 3 -14 15 -19 21 -22
23 -11 2 9 11 13 21 10 19 -5 58 19 48 29 -4 4 -13 2 -20 -4 -8 -7 -17 -8 -23
-3 -5 6 -14 3 -22 -5z"/>
<path d="M3076 2565 c4 -8 11 -15 16 -15 6 0 5 6 -2 15 -7 8 -14 15 -16 15 -2
0 -1 -7 2 -15z"/>
<path d="M2930 2556 c0 -8 4 -17 9 -20 5 -4 7 3 4 14 -6 23 -13 26 -13 6z"/>
<path d="M2980 2556 c0 -8 4 -17 9 -20 5 -4 7 3 4 14 -6 23 -13 26 -13 6z"/>
<path d="M2544 2549 c-3 -6 -1 -16 5 -22 8 -8 11 -5 11 11 0 24 -5 28 -16 11z"/>
<path d="M2600 2536 c0 -8 4 -17 9 -20 5 -4 7 3 4 14 -6 23 -13 26 -13 6z"/>
<path d="M2566 2505 c-3 -8 -1 -15 4 -15 6 0 10 7 10 15 0 8 -2 15 -4 15 -2 0
-6 -7 -10 -15z"/>
<path d="M3612 2300 c0 -14 2 -19 5 -12 2 6 2 18 0 25 -3 6 -5 1 -5 -13z"/>
<path d="M831 2278 c-1 -10 -11 -27 -23 -39 l-23 -21 23 11 c26 14 37 34 29
53 -4 8 -6 7 -6 -4z"/>
<path d="M788 2183 c6 -2 18 -2 25 0 6 3 1 5 -13 5 -14 0 -19 -2 -12 -5z"/>
<path d="M966 2174 c-9 -8 -16 -21 -16 -27 0 -7 8 -2 18 9 9 12 24 24 32 27
12 4 12 6 -2 6 -9 1 -24 -6 -32 -15z"/>
<path d="M965 2110 c3 -5 8 -10 11 -10 2 0 4 5 4 10 0 6 -5 10 -11 10 -5 0 -7
-4 -4 -10z"/>
<path d="M2134 2070 c0 -13 4 -16 10 -10 7 7 7 13 0 20 -6 6 -10 3 -10 -10z"/>
<path d="M2966 2045 c4 -8 10 -15 15 -15 4 0 6 7 3 15 -4 8 -10 15 -15 15 -4
0 -6 -7 -3 -15z"/>
<path d="M2817 2030 c3 -11 9 -17 14 -15 10 7 1 35 -11 35 -5 0 -6 -9 -3 -20z"/>
<path d="M2920 2041 c0 -5 5 -13 10 -16 6 -3 10 -2 10 4 0 5 -4 13 -10 16 -5
3 -10 2 -10 -4z"/>
<path d="M3265 2025 c0 -13 3 -21 8 -18 4 2 7 10 7 18 0 8 -3 16 -7 18 -5 3
-8 -5 -8 -18z"/>
<path d="M3105 2030 c3 -5 8 -10 11 -10 2 0 4 5 4 10 0 6 -5 10 -11 10 -5 0
-7 -4 -4 -10z"/>
<path d="M3323 2018 c-2 -16 1 -18 10 -9 7 7 8 14 1 21 -6 6 -10 2 -11 -12z"/>
<path d="M3377 2019 c4 -13 8 -18 11 -10 2 7 -1 18 -6 23 -8 8 -9 4 -5 -13z"/>
<path d="M2656 2015 c4 -8 10 -15 15 -15 4 0 6 7 3 15 -4 8 -10 15 -15 15 -4
0 -6 -7 -3 -15z"/>
<path d="M3431 2014 c0 -11 3 -14 6 -6 3 7 2 16 -1 19 -3 4 -6 -2 -5 -13z"/>
<path d="M2410 2012 c0 -4 9 -13 20 -20 11 -7 20 -9 20 -4 0 4 -9 13 -20 20
-11 7 -20 9 -20 4z"/>
<path d="M2501 2004 c0 -11 3 -14 6 -6 3 7 2 16 -1 19 -3 4 -6 -2 -5 -13z"/>
<path d="M2857 1999 c4 -13 8 -18 11 -10 2 7 -1 18 -6 23 -8 8 -9 4 -5 -13z"/>
<path d="M1122 1990 c-16 -27 -15 -30 9 -30 13 0 18 -4 13 -12 -4 -7 -3 -8 4
-4 16 10 15 41 -1 54 -9 8 -16 6 -25 -8z"/>
<path d="M2800 2001 c0 -6 4 -13 10 -16 6 -3 7 1 4 9 -7 18 -14 21 -14 7z"/>
<path d="M1056 1991 c-3 -5 0 -11 8 -14 15 -6 26 1 26 15 0 11 -27 10 -34 -1z"/>
<path d="M2391 1984 c0 -11 3 -14 6 -6 3 7 2 16 -1 19 -3 4 -6 -2 -5 -13z"/>
<path d="M2696 1987 c3 -10 9 -15 12 -12 3 3 0 11 -7 18 -10 9 -11 8 -5 -6z"/>
<path d="M2751 1984 c0 -11 3 -14 6 -6 3 7 2 16 -1 19 -3 4 -6 -2 -5 -13z"/>
<path d="M2837 1959 c4 -13 8 -18 11 -10 2 7 -1 18 -6 23 -8 8 -9 4 -5 -13z"/>
<path d="M2411 1954 c0 -11 3 -14 6 -6 3 7 2 16 -1 19 -3 4 -6 -2 -5 -13z"/>
<path d="M3131 1944 c0 -11 3 -14 6 -6 3 7 2 16 -1 19 -3 4 -6 -2 -5 -13z"/>
<path d="M3214 1920 c0 -13 4 -16 10 -10 7 7 7 13 0 20 -6 6 -10 3 -10 -10z"/>
<path d="M3606 1923 c-6 -14 -5 -15 5 -6 7 7 10 15 7 18 -3 3 -9 -2 -12 -12z"/>
<path d="M3296 1913 c-6 -14 -5 -15 5 -6 7 7 10 15 7 18 -3 3 -9 -2 -12 -12z"/>
<path d="M3615 1889 c-4 -6 -5 -12 -2 -15 2 -3 7 2 10 11 7 17 1 20 -8 4z"/>
<path d="M2345 1880 c-3 -5 -1 -10 4 -10 6 0 11 5 11 10 0 6 -2 10 -4 10 -3 0
-8 -4 -11 -10z"/>
<path d="M2601 1874 c0 -11 3 -14 6 -6 3 7 2 16 -1 19 -3 4 -6 -2 -5 -13z"/>
<path d="M3486 1864 c-4 -9 -4 -19 -1 -22 2 -3 7 3 11 12 4 9 4 19 1 22 -2 3
-7 -3 -11 -12z"/>
<path d="M3670 1865 c-7 -8 -8 -15 -2 -15 5 0 15 7 22 15 7 8 8 15 2 15 -5 0
-15 -7 -22 -15z"/>
<path d="M3450 1844 c0 -8 5 -12 10 -9 6 4 8 11 5 16 -9 14 -15 11 -15 -7z"/>
<path d="M3530 1835 c-7 -9 -8 -15 -2 -15 5 0 12 7 16 15 3 8 4 15 2 15 -2 0
-9 -7 -16 -15z"/>
<path d="M3496 1825 c-9 -26 -7 -32 5 -12 6 10 9 21 6 23 -2 3 -7 -2 -11 -11z"/>
<path d="M3710 1825 c-11 -13 -10 -14 4 -9 9 3 16 10 16 15 0 13 -6 11 -20 -6z"/>
<path d="M3576 1813 c-6 -14 -5 -15 5 -6 7 7 10 15 7 18 -3 3 -9 -2 -12 -12z"/>
<path d="M3540 1798 c-12 -22 -12 -22 6 -6 10 10 15 20 12 24 -4 3 -12 -5 -18
-18z"/>
<path d="M1130 1790 c0 -11 58 -40 79 -40 11 0 12 3 3 12 -15 15 -82 38 -82
28z"/>
<path d="M3740 1785 c-7 -9 -11 -18 -8 -20 3 -3 11 1 18 10 7 9 11 18 8 20 -3
3 -11 -1 -18 -10z"/>
<path d="M3610 1775 c-11 -13 -10 -14 4 -9 9 3 16 10 16 15 0 13 -6 11 -20 -6z"/>
<path d="M1570 1769 c0 -5 5 -7 10 -4 6 3 10 8 10 11 0 2 -4 4 -10 4 -5 0 -10
-5 -10 -11z"/>
<path d="M3547 1773 c-4 -3 -7 -11 -7 -17 0 -6 5 -5 12 2 6 6 9 14 7 17 -3 3
-9 2 -12 -2z"/>
<path d="M1525 1759 c-4 -6 -5 -12 -2 -15 2 -3 7 2 10 11 7 17 1 20 -8 4z"/>
<path d="M612 1748 c-16 -16 -15 -45 1 -45 7 0 25 -3 40 -7 24 -6 27 -4 27 18
0 37 -44 58 -68 34z"/>
<path d="M3640 1735 c-11 -13 -10 -14 4 -9 9 3 16 10 16 15 0 13 -6 11 -20 -6z"/>
<path d="M1127 1704 c3 -19 0 -34 -7 -39 -8 -5 -7 -12 6 -26 21 -23 13 -35
-14 -20 -21 11 -52 5 -52 -10 0 -5 -11 -16 -25 -25 -20 -13 -28 -14 -40 -4
-12 10 -16 9 -21 -4 -5 -12 -15 -15 -44 -10 l-38 6 -14 -48 c-16 -58 -38 -71
-33 -21 3 32 0 35 -26 39 -17 3 -34 -1 -40 -9 -18 -21 -87 -17 -101 6 -10 16
-15 18 -27 8 -12 -10 -14 -9 -9 3 20 55 20 62 1 58 -24 -4 -28 -48 -8 -92 21
-44 38 -50 97 -35 47 12 49 12 78 -16 21 -20 39 -28 62 -27 18 0 41 -7 51 -16
13 -11 36 -17 70 -17 44 0 52 -3 55 -20 3 -11 9 -23 15 -27 16 -10 1 -22 -18
-14 -11 4 -14 12 -10 27 6 18 4 20 -17 13 -45 -14 -87 -22 -92 -16 -4 3 -6 13
-6 23 0 27 -16 32 -47 15 -25 -14 -26 -15 -7 -16 12 0 32 -11 45 -24 21 -22
25 -23 60 -11 20 8 40 11 43 8 11 -12 6 -23 -11 -23 -10 0 -27 -7 -37 -15 -36
-27 -71 -18 -137 35 -68 54 -94 65 -137 57 -30 -6 -53 7 -70 40 -19 35 -14 36
16 3 27 -31 27 -31 81 -19 49 10 56 9 83 -11 l30 -22 -12 22 c-17 32 -54 46
-85 32 -42 -20 -72 -14 -93 16 -28 40 -44 115 -32 148 13 33 6 43 -10 14 -12
-22 -10 -77 4 -115 8 -20 7 -20 -8 -1 -21 26 -20 22 8 -62 45 -130 139 -237
222 -251 27 -5 57 -12 67 -16 19 -8 23 5 7 21 -7 7 11 15 59 23 40 7 72 18 75
26 3 8 22 23 43 34 21 10 51 33 67 50 17 17 34 31 40 31 5 0 -8 -19 -29 -42
-34 -36 -30 -34 25 13 97 84 125 128 125 198 -1 43 -7 68 -27 101 -36 61 -58
77 -111 81 l-45 4 5 -31z m126 -36 c12 -15 17 -31 12 -35 -4 -5 -10 -3 -12 3
-10 29 -32 46 -60 48 -18 1 -35 5 -40 9 -4 5 12 7 36 5 34 -2 49 -9 64 -30z
m-24 -28 l16 -24 -32 24 c-37 27 -41 33 -17 28 9 -2 24 -14 33 -28z m50 -98
c0 -26 -3 -55 -7 -64 -4 -10 -7 13 -7 51 0 38 3 67 8 64 4 -2 7 -25 6 -51z
m-29 -40 c0 -5 -11 -22 -25 -38 -31 -36 -33 -23 -2 16 24 32 27 34 27 22z
m-91 -74 c-9 -18 -9 -18 10 -8 14 7 27 8 39 1 13 -7 23 -6 32 2 11 10 11 8 0
-6 -9 -12 -21 -16 -37 -12 -14 3 -39 -3 -63 -15 -51 -26 -60 -25 -60 5 0 14
-7 28 -15 31 -27 11 -16 20 33 30 56 12 77 2 61 -28z"/>
<path d="M1484 1721 c0 -11 5 -17 13 -14 10 4 11 9 2 19 -15 18 -15 18 -15 -5z"/>
<path d="M3545 1730 c-3 -5 -2 -10 4 -10 5 0 13 5 16 10 3 6 2 10 -4 10 -5 0
-13 -4 -16 -10z"/>
<path d="M3590 1730 c-8 -5 -10 -10 -5 -10 6 0 17 5 25 10 8 5 11 10 5 10 -5
0 -17 -5 -25 -10z"/>
<path d="M3580 1695 c-8 -9 -8 -15 -2 -15 12 0 26 19 19 26 -2 2 -10 -2 -17
-11z"/>
<path d="M3626 1695 c-11 -8 -15 -15 -9 -15 6 0 16 7 23 15 16 19 11 19 -14 0z"/>
<path d="M3760 1700 c-8 -5 -12 -12 -9 -15 4 -3 12 1 19 10 14 17 11 19 -10 5z"/>
<path d="M620 1683 c1 -25 60 -46 60 -21 0 6 -3 8 -7 5 -3 -4 -17 0 -30 8 -13
9 -23 12 -23 8z"/>
<path d="M3613 1663 c-7 -2 -13 -8 -13 -13 0 -13 26 -19 41 -8 11 8 10 9 -5 4
-13 -5 -17 -2 -12 9 3 8 4 15 3 14 -1 0 -8 -3 -14 -6z"/>
<path d="M3770 1650 c-13 -8 -13 -10 2 -10 9 0 20 5 23 10 8 13 -5 13 -25 0z"/>
<path d="M1595 1630 c-3 -6 1 -7 9 -4 18 7 21 14 7 14 -6 0 -13 -4 -16 -10z"/>
<path d="M3660 1630 c-8 -5 -10 -10 -5 -10 6 0 17 5 25 10 8 5 11 10 5 10 -5
0 -17 -5 -25 -10z"/>
<path d="M668 1620 c6 -8 12 -22 12 -32 0 -10 4 -18 9 -18 14 0 1 38 -18 52
-13 10 -14 10 -3 -2z"/>
<path d="M3580 1523 c0 -10 4 -14 8 -8 4 6 11 13 16 18 5 4 2 7 -7 7 -10 0
-17 -8 -17 -17z"/>
<path d="M3767 1529 c7 -7 15 -10 18 -7 3 3 -2 9 -12 12 -14 6 -15 5 -6 -5z"/>
<path d="M3631 1521 c-7 -5 -9 -11 -5 -14 5 -3 15 1 22 9 14 16 5 18 -17 5z"/>
<path d="M3670 1490 c0 -5 5 -10 11 -10 5 0 7 5 4 10 -3 6 -8 10 -11 10 -2 0
-4 -4 -4 -10z"/>
<path d="M3749 1477 c7 -7 14 -8 21 -1 6 6 2 10 -12 11 -16 2 -18 -1 -9 -10z"/>
<path d="M3630 1476 c0 -2 7 -7 16 -10 8 -3 12 -2 9 4 -6 10 -25 14 -25 6z"/>
<path d="M3708 1458 c5 -5 16 -8 23 -6 8 3 3 7 -10 11 -17 4 -21 3 -13 -5z"/>
<path d="M3555 1440 c3 -5 10 -10 16 -10 5 0 9 5 9 10 0 6 -7 10 -16 10 -8 0
-12 -4 -9 -10z"/>
<path d="M3620 1426 c0 -2 7 -6 15 -10 8 -3 15 -1 15 4 0 6 -7 10 -15 10 -8 0
-15 -2 -15 -4z"/>
<path d="M3580 1410 c8 -5 20 -10 25 -10 6 0 3 5 -5 10 -8 5 -19 10 -25 10 -5
0 -3 -5 5 -10z"/>
<path d="M3648 1393 c7 -3 16 -2 19 1 4 3 -2 6 -13 5 -11 0 -14 -3 -6 -6z"/>
<path d="M3490 1381 c0 -12 29 -23 41 -15 6 3 16 0 24 -6 8 -7 15 -8 15 -4 0
5 -9 15 -19 21 -15 10 -21 10 -25 0 -5 -9 -7 -9 -12 1 -7 14 -24 16 -24 3z"/>
<path d="M3500 1342 c0 -13 29 -24 41 -16 6 3 18 0 27 -8 15 -12 16 -11 3 5
-8 10 -21 15 -29 12 -8 -3 -21 0 -28 6 -9 7 -14 8 -14 1z"/>
<path d="M3602 1328 c5 -15 28 -23 28 -10 0 5 -7 13 -16 16 -10 4 -14 1 -12
-6z"/>
<path d="M3650 1325 c7 -8 17 -15 22 -15 6 0 5 7 -2 15 -7 8 -17 15 -22 15 -6
0 -5 -7 2 -15z"/>
<path d="M3510 1302 c0 -12 19 -26 26 -19 2 2 -2 10 -11 17 -9 8 -15 8 -15 2z"/>
</g>
</svg>
